<?xml version="1.0" encoding="UTF-8" standalone="no"?><!DOCTYPE svg PUBLIC "-//W3C//DTD SVG 1.1//EN" "http://www.w3.org/Graphics/SVG/1.1/DTD/svg11.dtd"><svg width="100%" height="100%" viewBox="0 0 400 340" version="1.1" xmlns="http://www.w3.org/2000/svg" xmlns:xlink="http://www.w3.org/1999/xlink" xml:space="preserve" xmlns:serif="http://www.serif.com/" style="fill-rule:evenodd;clip-rule:evenodd;stroke-linejoin:round;stroke-miterlimit:2;"><rect id="Plan-de-travail1" serif:id="Plan de travail1" x="0" y="0" width="400" height="340" style="fill:none;"/><g><path d="M104.251,169.525l-0,158.875l-96.251,0l96.251,-158.875Z" style="fill:#fff;fill-rule:nonzero;"/><path d="M295.749,169.525l-0,158.875l96.251,0l-96.251,-158.875Z" style="fill:#fff;fill-rule:nonzero;"/><path d="M206.85,204.655c18.883,-1.266 36.094,1.424 48.627,6.013l0,-107.604l-55.645,-91.464l-54.977,91.464l0,124.536l0.167,0c9.525,-9.02 35.092,-20.571 61.828,-22.945Z" style="fill:#fff;fill-rule:nonzero;"/><path d="M255.31,251.811c-11.363,-7.279 -25.567,-11.552 -41.274,-11.552c-27.238,0 -49.128,15.825 -61.16,35.288c-5.347,8.704 -8.021,21.838 -8.021,32.44c0,7.437 1.337,14.242 3.844,20.413l106.611,-0l0,-76.589Z" style="fill:#fff;fill-rule:nonzero;"/></g></svg>