<?xml version="1.0" encoding="UTF-8" standalone="no"?><!DOCTYPE svg PUBLIC "-//W3C//DTD SVG 1.1//EN" "http://www.w3.org/Graphics/SVG/1.1/DTD/svg11.dtd"><svg width="100%" height="100%" viewBox="0 0 150 24" version="1.1" xmlns="http://www.w3.org/2000/svg" xmlns:xlink="http://www.w3.org/1999/xlink" xml:space="preserve" xmlns:serif="http://www.serif.com/" style="fill-rule:evenodd;clip-rule:evenodd;stroke-linejoin:round;stroke-miterlimit:2;"><path d="M54.022,23.976l-23.347,-0c-0.396,0.003 -0.785,-0.099 -1.128,-0.296c-0.344,-0.196 -0.629,-0.48 -0.827,-0.823c-0.198,-0.342 -0.301,-0.731 -0.3,-1.127c0.001,-0.395 0.107,-0.784 0.307,-1.125l11.037,-19.115c0.262,-0.453 0.638,-0.829 1.091,-1.091c0.453,-0.261 0.967,-0.399 1.49,-0.399c0.523,0 1.037,0.138 1.49,0.399c0.453,0.262 0.829,0.638 1.091,1.091l11.037,19.115c0.2,0.341 0.306,0.73 0.307,1.125c0.002,0.396 -0.102,0.785 -0.3,1.127c-0.198,0.343 -0.483,0.627 -0.827,0.823c-0.343,0.197 -0.732,0.299 -1.128,0.296l0.007,-0Zm-19.448,-4.493l15.555,-0l-7.778,-13.474l-7.777,13.474Z" style="fill:#fff;fill-rule:nonzero;"/><path d="M147.528,23.976l-23.347,-0c-0.395,0.002 -0.784,-0.1 -1.127,-0.297c-0.343,-0.197 -0.628,-0.481 -0.825,-0.823c-0.198,-0.343 -0.301,-0.731 -0.3,-1.127c0.002,-0.395 0.108,-0.783 0.308,-1.124l11.033,-19.115c0.262,-0.453 0.638,-0.829 1.091,-1.091c0.453,-0.261 0.967,-0.399 1.49,-0.399c0.523,0 1.037,0.138 1.49,0.399c0.453,0.262 0.829,0.638 1.091,1.091l11.037,19.115c0.2,0.341 0.306,0.73 0.307,1.125c0.002,0.396 -0.102,0.785 -0.3,1.127c-0.198,0.343 -0.483,0.627 -0.826,0.823c-0.344,0.197 -0.733,0.299 -1.129,0.296l0.007,-0Zm-19.445,-4.493l15.556,-0l-7.781,-13.474l-7.775,13.474Z" style="fill:#fff;fill-rule:nonzero;"/><path d="M85.227,0.467l-2.837,-0c-0.617,-0 -0.924,0.319 -0.924,0.959l0,15.217l-13.627,-15.821c-0.091,-0.11 -0.205,-0.199 -0.333,-0.261c-0.129,-0.061 -0.27,-0.093 -0.412,-0.094l-3.518,-0c-0.614,-0 -0.925,0.319 -0.925,0.959l0,21.604c0,0.639 0.32,0.959 0.925,0.959l2.836,0c0.618,0 0.925,-0.32 0.925,-0.959l-0,-15.553l13.998,16.202c0.079,0.103 0.181,0.186 0.299,0.242c0.117,0.055 0.246,0.082 0.376,0.078l3.198,-0c0.617,-0 0.927,-0.32 0.927,-0.96l0,-21.613c0.01,-0.64 -0.3,-0.959 -0.908,-0.959Z" style="fill:#fff;fill-rule:nonzero;"/><path d="M116.617,22.464l-9.003,-10.785l7.88,-9.645c0.136,-0.186 0.209,-0.41 0.208,-0.64c0.018,-0.125 0.006,-0.253 -0.034,-0.373c-0.041,-0.121 -0.108,-0.23 -0.198,-0.319c-0.089,-0.09 -0.199,-0.157 -0.319,-0.198c-0.12,-0.04 -0.248,-0.052 -0.373,-0.034l-3.902,-0c-0.143,-0.004 -0.286,0.026 -0.415,0.088c-0.13,0.061 -0.243,0.153 -0.33,0.267l-5.533,7.058l-5.536,-7.036c-0.087,-0.125 -0.204,-0.226 -0.34,-0.294c-0.137,-0.069 -0.288,-0.101 -0.44,-0.096l-3.908,-0c-0.126,-0.018 -0.254,-0.006 -0.374,0.034c-0.12,0.041 -0.229,0.108 -0.318,0.198c-0.089,0.09 -0.157,0.199 -0.196,0.319c-0.04,0.12 -0.052,0.248 -0.033,0.373c-0.003,0.23 0.07,0.455 0.207,0.64l7.877,9.661l-8.97,10.746c-0.161,0.175 -0.249,0.403 -0.247,0.64c0,0.614 0.32,0.921 0.96,0.921l4.1,0c0.152,0.001 0.301,-0.033 0.437,-0.101c0.136,-0.068 0.253,-0.167 0.343,-0.289l6.422,-8.053l6.454,8.126c0.093,0.105 0.208,0.188 0.337,0.243c0.129,0.055 0.268,0.082 0.408,0.077l4.116,0c0.125,0.018 0.253,0.006 0.372,-0.034c0.12,-0.04 0.229,-0.107 0.318,-0.197c0.09,-0.089 0.157,-0.198 0.197,-0.318c0.04,-0.119 0.052,-0.247 0.034,-0.372c0.011,-0.22 -0.061,-0.437 -0.201,-0.607Z" style="fill:#fff;fill-rule:nonzero;"/><path d="M20.515,11.641c0.951,-1.201 1.464,-2.69 1.452,-4.222c0.013,-0.918 -0.165,-1.828 -0.522,-2.674c-0.357,-0.846 -0.886,-1.608 -1.553,-2.238c-0.65,-0.659 -1.427,-1.18 -2.283,-1.53c-0.856,-0.351 -1.775,-0.525 -2.7,-0.511l-13.941,0c-0.13,-0.019 -0.263,-0.007 -0.388,0.035c-0.125,0.041 -0.239,0.112 -0.332,0.205c-0.093,0.093 -0.163,0.206 -0.205,0.331c-0.041,0.125 -0.053,0.258 -0.034,0.389l-0,21.603c-0,0.64 0.319,0.96 0.959,0.96l15.147,-0c0.927,0.018 1.848,-0.152 2.708,-0.499c0.859,-0.347 1.639,-0.865 2.293,-1.523c0.665,-0.629 1.192,-1.389 1.548,-2.233c0.355,-0.843 0.532,-1.751 0.518,-2.666c0.026,-1.053 -0.203,-2.096 -0.668,-3.041c-0.464,-0.945 -1.15,-1.764 -1.999,-2.387Zm-15.824,-6.025c-0.018,-0.126 -0.006,-0.254 0.034,-0.374c0.041,-0.121 0.109,-0.231 0.199,-0.32c0.089,-0.09 0.199,-0.158 0.32,-0.199c0.12,-0.04 0.248,-0.052 0.374,-0.034l9.214,-0c0.317,0 0.629,0.071 0.915,0.207c0.286,0.136 0.538,0.334 0.739,0.579c0.448,0.539 0.694,1.218 0.694,1.919c-0,0.701 -0.246,1.38 -0.694,1.919c-0.198,0.25 -0.449,0.452 -0.735,0.591c-0.287,0.139 -0.601,0.211 -0.919,0.212l-9.214,0c-0.126,0.018 -0.254,0.007 -0.375,-0.033c-0.121,-0.041 -0.231,-0.108 -0.321,-0.198c-0.09,-0.09 -0.158,-0.2 -0.198,-0.321c-0.04,-0.121 -0.051,-0.249 -0.033,-0.375l-0,-3.573Zm13,13.353c-0.198,0.248 -0.45,0.448 -0.736,0.586c-0.286,0.138 -0.6,0.21 -0.917,0.21l-10.42,-0c-0.617,-0 -0.927,-0.32 -0.927,-0.96l-0,-3.518c-0,-0.639 0.32,-0.959 0.927,-0.959l10.42,0c0.318,0.001 0.631,0.074 0.917,0.212c0.286,0.138 0.538,0.339 0.736,0.588c0.462,0.531 0.709,1.215 0.694,1.918c0.02,0.706 -0.228,1.393 -0.694,1.923Z" style="fill:#fff;fill-rule:nonzero;"/></svg>