<?xml version="1.0" encoding="UTF-8"?>
<svg width="223.29" height="170.71" enable-background="new 0 0 226.77 184.25" version="1.1" viewBox="0 0 223.29 170.71" xml:space="preserve" xmlns="http://www.w3.org/2000/svg">
<g transform="translate(-1.846 -7.504)">
	<g fill="#fff">
		<path d="m143.75 115.78c0.928-9.645-6.626-14.404-16.768-17.313l2.55-13.129-7.992-1.552-2.484 12.783c-2.104-0.408-4.257-0.784-6.4-1.156l2.502-12.868-7.987-1.553-2.555 13.127c-1.737-0.302-3.442-0.6-5.101-0.921l6e-3 -0.04-11.021-2.146-1.657 8.535s5.923 1.034 5.804 1.125c3.237 0.631 3.925 2.714 3.917 4.395l-2.906 14.958-0.011 0.058-4.075 20.951c-0.341 0.992-1.256 2.502-3.519 2.064 0.085 0.111-5.811-1.128-5.811-1.128l-3.442 9.232 10.401 2.021c1.933 0.378 3.833 0.781 5.699 1.157l-2.577 13.28 7.983 1.552 2.554-13.137c2.185 0.47 4.302 0.901 6.373 1.303l-2.543 13.075 7.993 1.552 2.578-13.254c13.589 1.839 23.651 0.284 27.272-12.104 2.918-9.979-0.98-15.439-8.254-18.756 5.095-1.458 8.802-5.053 9.471-12.111zm-16.7 26.222c-1.93 9.926-18.699 5.496-24.119 4.444l3.423-17.592c5.417 1.053 22.708 2.797 20.696 13.148zm1.105-25.545c-1.757 9.027-15.725 5.218-20.236 4.341l3.101-15.955c4.512 0.877 18.963 2.196 17.135 11.614zm-15.353-108.96c2.386 3.553 4.688 6.927 6.934 10.341 1.697 2.582 3.279 5.24 4.983 7.817 4.122 6.229 8.303 12.42 12.429 18.648 4.551 6.868 9.068 13.757 13.598 20.64 2.887 4.388 5.763 8.783 8.652 13.169 4.655 7.064 9.32 14.122 13.977 21.186 2.951 4.478 5.893 8.961 8.84 13.441 4.496 6.836 8.995 13.67 13.491 20.506 2.916 4.434 5.826 8.871 8.745 13.304 4.622 7.019 9.262 14.026 13.869 21.055 2.266 3.456 4.475 6.948 6.823 10.6h-223.29c0.82-1.381 1.574-2.757 2.427-4.068 2.262-3.479 4.579-6.924 6.852-10.396 4.787-7.313 9.563-14.633 14.335-21.956 2.688-4.124 5.351-8.263 8.038-12.386 4.771-7.32 9.557-14.629 14.326-21.95 2.837-4.356 5.647-8.73 8.482-13.088 4.524-6.952 9.061-13.896 13.588-20.846 2.897-4.448 5.784-8.903 8.679-13.354 4.524-6.956 9.051-13.909 13.577-20.863 3.017-4.635 6.046-9.263 9.049-13.907 3.542-5.478 7.06-10.97 10.591-16.453 0.27-0.419 0.571-0.817 1.009-1.44zm0.247 65.659c0.581-0.621 1.054-1.143 1.544-1.649 2.114-2.182 4.333-4.271 6.318-6.564 1.652-1.909 3.356-2.843 5.815-1.631 0.583 0.287 1.287 0.317 1.922 0.511 2.467 0.754 4.914 1.575 7.395 2.276 2.74 0.774 5.51 1.443 8.76 2.287-10.891-17.135-21.493-33.816-32.189-50.644-1.76 2.836-3.435 5.557-5.133 8.263-2.764 4.402-5.539 8.798-8.318 13.19-4.762 7.525-9.529 15.047-14.299 22.566-2.016 3.178-4.05 6.344-6.067 9.521-0.111 0.176-0.138 0.405-0.349 1.055 8.622-5.751 16.861-11.248 25.19-16.805 3.205 6.002 6.277 11.754 9.411 17.624z" fill="#fff"/>
	</g>
</g>
</svg>
