<svg width="1142" height="344" viewBox="0 0 1142 344" fill="none" xmlns="http://www.w3.org/2000/svg">
<g clip-path="url(#clip0_2598_23248)">
<path d="M447.708 166.921C456.289 162.048 463.162 155.981 468.166 148.828C473.869 140.682 476.765 131.379 476.765 121.191C476.765 102.119 469.635 87.2316 455.584 76.9367C441.7 66.7613 422.597 61.6079 398.789 61.6079H312.698V282.535H402.229C427.303 282.535 447.379 276.707 461.896 265.2C476.526 253.597 483.954 237.349 483.954 216.897C483.954 204.446 480.461 193.733 473.582 185.063C467.407 177.312 458.719 171.215 447.714 166.921H447.708ZM359.288 101.426H395.045C406.259 101.426 414.727 103.599 420.227 107.875C425.661 112.097 428.3 117.644 428.3 124.828C428.3 132.012 425.661 137.84 420.227 142.08C414.727 146.355 406.259 148.529 395.045 148.529H359.288V101.426ZM426.604 235.229C420.406 240.197 410.941 242.711 398.479 242.711H359.288V188.646H398.479C410.935 188.646 420.412 191.076 426.634 195.847C432.803 200.606 435.8 206.888 435.8 215.075C435.8 223.686 432.791 230.279 426.604 235.235V235.229Z" fill="white"/>
<path d="M546.882 117.328H499.982V282.523H546.882V117.328Z" fill="white"/>
<path d="M1010.11 142.175C1002.69 133.337 993.389 126.41 982.461 121.58C971.545 116.755 959.268 114.294 945.987 114.294C929.709 114.294 915.025 117.991 902.329 125.276C889.604 132.585 879.506 142.737 872.305 155.468C865.103 168.187 861.455 182.949 861.455 199.328C861.455 215.708 864.996 231.443 871.976 244.359C878.975 257.318 889.037 267.481 901.876 274.593C914.69 281.663 929.745 285.252 946.614 285.252C967.323 285.252 984.903 280.045 998.877 269.768C1012.34 259.879 1021.59 245.93 1026.63 228.469H979.415C976.931 234.411 973.432 239.469 968.422 243.034C962.498 247.238 954.849 249.37 945.677 249.37C937.722 249.37 930.909 247.435 925.421 243.625C919.91 239.815 915.7 234.184 912.935 226.869C911.275 222.522 910.098 217.524 909.406 211.964H1027.46L1027.69 210.495C1029.8 197.173 1029.27 184.549 1026.09 172.976C1022.91 161.374 1017.53 151.013 1010.11 142.175ZM910.152 181.378C910.875 178.016 911.848 174.517 913.084 171.328C915.962 163.917 920.119 158.215 925.445 154.405C930.748 150.595 937.346 148.672 945.061 148.672C954.729 148.672 962.665 151.807 968.649 157.976C974.322 163.846 977.54 171.865 978.227 181.378H910.158H910.152Z" fill="white"/>
<path d="M547.861 61.6019H499.003V101.42H547.861V61.6019Z" fill="white"/>
<path d="M804.695 136.072C799.148 129.408 792.645 124.243 785.312 120.672C776.558 116.438 766.317 114.294 754.869 114.294C740.854 114.294 728.29 117.752 717.542 124.559C706.805 131.361 698.289 140.975 692.24 153.115C686.215 165.225 683.152 179.443 683.152 195.393C683.152 211.343 686.37 224.725 692.724 236.919C699.09 249.155 707.915 258.9 718.951 265.899C730.01 272.915 742.622 276.474 756.44 276.474C766.872 276.474 776.402 274.217 784.751 269.756C791.361 266.227 796.897 261.557 801.262 255.855V273.841C801.262 284.989 798.33 293.547 792.567 299.249C786.787 304.952 777.997 307.83 766.436 307.83C756.476 307.83 748.641 305.573 743.159 301.113C738.675 297.464 734.757 292.675 733.844 282.535H688.627C689.046 296.723 693.214 306.284 699.096 314.662C705.694 324.049 714.974 331.388 726.702 336.458C738.316 341.468 751.794 344.012 766.753 344.012C791.863 344.012 811.855 337.7 826.157 325.267C840.548 312.763 847.845 295.255 847.845 273.238V117.328H804.695V136.072ZM796.437 217.338C793.463 223.477 789.265 228.29 783.945 231.622C778.63 234.954 772.217 236.65 764.872 236.65C754.254 236.65 746.002 233.037 739.624 225.597C733.27 218.198 730.052 208.035 730.052 195.387C730.052 182.74 733.27 172.576 739.624 165.165C745.918 157.827 754.415 154.112 764.872 154.112C775.328 154.112 784.566 157.88 791.063 165.333C797.619 172.845 800.945 183.062 800.945 195.68C800.945 203.855 799.429 211.134 796.437 217.332V217.338Z" fill="white"/>
<path d="M1141.25 156.841V117.334H1107.4V61.6019H1060.81V117.334H1031.89V156.841H1060.81V221.513C1060.81 257.467 1067.89 283.891 1112.04 283.073L1139.75 282.529V245.488H1126C1106.38 245.488 1107.47 234.047 1107.47 212.8L1107.39 156.841H1141.24H1141.25Z" fill="white"/>
<path d="M671.758 156.841V117.334H637.906V61.6019H591.316V117.334H562.402V156.841H591.316V221.513C591.316 257.467 598.398 283.891 642.546 283.073L670.259 282.529V245.488H656.507C636.885 245.488 637.977 234.047 637.977 212.8L637.9 156.841H671.752H671.758Z" fill="white"/>
<path d="M117.567 101.42H187.918L259.886 172.929C264.568 177.58 264.592 185.146 259.934 189.822L167.638 282.583H95.1683L117.078 261.283L197.52 181.348L118.099 101.414" fill="white"/>
<path d="M146.481 181.169H76.1311L4.16269 109.661C-0.518958 105.009 -0.542844 97.4429 4.11492 92.7672L96.4103 0H168.88L146.971 21.3003L66.529 101.235L145.95 181.169" fill="white"/>
</g>
<defs>
<clipPath id="clip0_2598_23248">
<rect width="1140.61" height="344" fill="white" transform="translate(0.639648)"/>
</clipPath>
</defs>
</svg>
