<!DOCTYPE svg PUBLIC "-//W3C//DTD SVG 20010904//EN" "http://www.w3.org/TR/2001/REC-SVG-20010904/DTD/svg10.dtd">
<svg version="1.0" xmlns="http://www.w3.org/2000/svg" width="948px" height="127px" viewBox="0 0 9480 1270" preserveAspectRatio="xMidYMid meet">
<g id="layer101" fill="#fff" stroke="none">
 <path d="M50 645 l0 -587 533 4 c474 4 538 7 587 22 133 43 180 108 188 259 6 125 -12 191 -69 242 -22 20 -39 38 -37 39 1 1 20 12 40 25 63 38 78 84 78 247 0 130 -2 144 -25 191 -28 55 -71 91 -145 120 -41 16 -97 18 -597 21 l-553 3 0 -586z m1035 391 c18 -8 38 -23 44 -34 6 -12 11 -67 11 -125 0 -98 -1 -105 -26 -128 l-26 -24 -404 -3 -404 -3 0 166 0 165 385 0 c310 0 392 -3 420 -14z m-23 -506 c57 -16 68 -40 68 -143 0 -80 -2 -90 -25 -112 l-24 -25 -401 0 -400 0 0 145 0 145 373 0 c225 0 387 -4 409 -10z"/>
 <path d="M1620 645 l0 -585 110 0 110 0 0 585 0 585 -110 0 -110 0 0 -585z"/>
 <path d="M2630 740 l0 -490 -300 0 -300 0 0 -95 0 -95 710 0 710 0 0 95 0 95 -295 0 -295 0 0 490 0 490 -115 0 -115 0 0 -490z"/>
 <path d="M3632 648 l3 -583 101 -3 102 -3 342 471 c188 258 345 470 348 469 4 0 159 -211 345 -470 l339 -469 94 0 94 0 0 585 0 585 -105 0 -105 0 -2 -395 -3 -395 -285 394 -285 395 -96 0 -96 1 -289 -396 -289 -397 -3 397 -2 396 -105 0 -105 0 2 -582z"/>
 <path d="M5557 1201 c10 -16 185 -279 388 -585 l370 -555 76 -1 c60 0 79 4 91 18 18 20 758 1141 758 1148 0 2 -57 4 -127 3 l-128 0 -291 -457 c-160 -251 -295 -457 -299 -457 -3 0 -140 206 -303 457 l-297 457 -128 1 -129 0 19 -29z"/>
 <path d="M7390 645 l0 -585 115 0 115 0 0 585 0 585 -115 0 -115 0 0 -585z"/>
 <path d="M7872 648 l3 -583 91 -3 92 -3 438 327 c242 180 498 372 571 426 72 54 134 98 137 98 3 0 7 -190 8 -422 l3 -423 98 -3 97 -3 0 586 0 585 -57 0 -58 0 -610 -446 -610 -445 -3 445 -2 446 -100 0 -100 0 2 -582z"/>
 </g>
<g id="layer102" fill="#fff" stroke="none">
 </g>

</svg>
