<?xml version="1.0" encoding="UTF-8" standalone="no"?><!DOCTYPE svg PUBLIC "-//W3C//DTD SVG 1.1//EN" "http://www.w3.org/Graphics/SVG/1.1/DTD/svg11.dtd"><svg width="100%" height="100%" viewBox="0 0 948 127" version="1.1" xmlns="http://www.w3.org/2000/svg" xmlns:xlink="http://www.w3.org/1999/xlink" xml:space="preserve" xmlns:serif="http://www.serif.com/" style="fill-rule:evenodd;clip-rule:evenodd;stroke-linejoin:round;stroke-miterlimit:2;"><g id="layer101"><path d="M5,123.1l0,-117.3l53.3,0.4c47.4,0.4 53.8,0.7 58.7,2.2c13.3,4.3 18,10.8 18.8,25.9c0.6,12.5 -1.2,19.1 -6.9,24.2c-2.2,2 -3.9,3.8 -3.7,3.9c0.1,0.1 2,1.2 4,2.5c6.3,3.8 7.8,8.4 7.8,24.7c0,13 -0.2,14.4 -2.5,19.1c-2.8,5.5 -7.1,9.1 -14.5,12c-4.1,1.6 -9.7,1.8 -59.7,2.1l-55.3,0.3Zm103.5,-19.5c1.8,-0.8 3.8,-2.3 4.4,-3.4c0.6,-1.2 1.1,-6.7 1.1,-12.5c0,-9.8 -0.1,-10.5 -2.6,-12.8l-2.6,-2.4l-80.8,-0.6l-0,33.1l38.5,0c31,0 39.2,-0.3 42,-1.4Zm-2.3,-50.6c5.7,-1.6 6.8,-4 6.8,-14.3c-0,-8 -0.2,-9 -2.5,-11.2l-2.4,-2.5l-80.1,0l0,29l37.3,0c22.5,0 38.7,-0.4 40.9,-1Z" style="fill:#fff;fill-rule:nonzero;"/><rect x="162" y="6" width="22" height="117" style="fill:#fff;fill-rule:nonzero;"/><path d="M263,123l0,-98l-60,0l0,-19l142,0l0,19l-59,0l0,98l-23,0Z" style="fill:#fff;fill-rule:nonzero;"/><path d="M363.2,64.8l0.3,-58.3l10.1,-0.3l10.2,-0.3l34.2,47.1c18.8,25.8 34.5,47 34.8,46.9c0.4,0 15.9,-21.1 34.5,-47l33.9,-46.9l18.8,0l0,117l-21,0l-0.2,-39.5l-0.3,-39.5l-28.5,39.4l-28.5,39.5l-9.6,0l-9.6,0.1l-28.9,-39.6l-28.9,-39.7l-0.3,39.7l-0.2,39.6l-21,0l0.2,-58.2Z" style="fill:#fff;fill-rule:nonzero;"/><path d="M555.7,120.1c1,-1.6 18.5,-27.9 38.8,-58.5l37,-55.5l7.6,-0.1c6,-0 7.9,0.4 9.1,1.8c1.8,2 75.8,114.1 75.8,114.8c0,0.2 -5.7,0.4 -12.7,0.3l-12.8,0l-29.1,-45.7c-16,-25.1 -29.5,-45.7 -29.9,-45.7c-0.3,0 -14,20.6 -30.3,45.7l-29.7,45.7l-12.8,0.1l-12.9,0l1.9,-2.9Z" style="fill:#fff;fill-rule:nonzero;"/><rect x="739" y="6" width="23" height="117" style="fill:#fff;fill-rule:nonzero;"/><path d="M787.2,64.8l0.3,-58.3l9.1,-0.3l9.2,-0.3l43.8,32.7c24.2,18 49.8,37.2 57.1,42.6c7.2,5.4 13.4,9.8 13.7,9.8c0.3,0 0.7,-19 0.8,-42.2l0.3,-42.3l9.8,-0.3l9.7,-0.3l0,117.1l-11.5,0l-61,-44.6l-61,-44.5l-0.3,44.5l-0.2,44.6l-20,0l0.2,-58.2Z" style="fill:#fff;fill-rule:nonzero;"/></g></svg>