<?xml version="1.0" encoding="UTF-8" standalone="no"?><!DOCTYPE svg PUBLIC "-//W3C//DTD SVG 1.1//EN" "http://www.w3.org/Graphics/SVG/1.1/DTD/svg11.dtd"><svg width="100%" height="100%" viewBox="0 0 1024 1024" version="1.1" xmlns="http://www.w3.org/2000/svg" xmlns:xlink="http://www.w3.org/1999/xlink" xml:space="preserve" xmlns:serif="http://www.serif.com/" style="fill-rule:evenodd;clip-rule:evenodd;stroke-linejoin:round;stroke-miterlimit:2;"><path d="M1024,797.736l0,46.615c0,99.151 -80.498,179.649 -179.649,179.649l-664.702,0c-99.151,0 -179.649,-80.498 -179.649,-179.649l0,-664.702c0,-99.151 80.498,-179.649 179.649,-179.649l664.702,0c99.151,0 179.649,80.498 179.649,179.649l0,191.481c-4.29,-0.286 -8.6,-0.431 -12.94,-0.431l-0.99,0c-22.9,0 -50.992,5.554 -70.98,15.617c-22.756,10.536 -42.823,26.29 -59.522,46.968c-26.881,33.31 -43.167,78.329 -47.125,128.92c-0.128,1.516 -0.237,3.032 -0.345,4.549c-0.109,1.516 -0.177,2.875 -0.246,4.322c-0.138,2.708 -0.246,5.426 -0.306,8.153c-0.098,4.372 -0.128,8.774 -0.049,13.204c2.669,114.584 64.564,206.156 174.503,206.156c6.16,0 12.16,-0.288 18,-0.852Zm0,-401.019l0,131.29l-91.951,0c3.437,-76.862 31.037,-132.337 77.351,-133.292c5.18,0.086 10.05,0.755 14.6,2.002Zm0,152.952l0,155.067c-57.308,-16.866 -98.297,-80.157 -94.058,-155.047l0.03,-0.02l94.028,0Zm-187.885,-305.044l0.808,-0.177l0,-6.253l-164.909,0l-153.123,359.889l-153.123,-359.889l-177.709,0l0,6.253l0.798,0.177c30.1,6.794 45.382,16.926 45.382,53.466l0,427.781c0,36.54 -15.341,46.672 -45.441,53.466l-0.798,0.178l0,6.272l120.57,0l0,-6.253l-0.797,-0.177c-30.101,-6.794 -45.383,-16.926 -45.383,-53.466l0,-402.987l196.703,462.883l11.156,0l202.434,-475.792l0,426.461c-2.579,28.86 -17.723,37.771 -44.978,43.925l-0.808,0.187l0,6.204l210.026,0l0,-6.204l-0.808,-0.187c-27.284,-6.154 -42.793,-15.065 -45.372,-43.925l-0.138,-438.366l0.138,0c0,-36.54 15.281,-46.672 45.372,-53.466Z"/></svg>