<?xml version="1.0" encoding="UTF-8" standalone="no"?>
<!DOCTYPE svg PUBLIC "-//W3C//DTD SVG 1.1//EN" "http://www.w3.org/Graphics/SVG/1.1/DTD/svg11.dtd">
<svg width="100%" height="100%" viewBox="0 0 132 107" version="1.1" xmlns="http://www.w3.org/2000/svg" xmlns:xlink="http://www.w3.org/1999/xlink" xml:space="preserve" style="fill-rule:evenodd;clip-rule:evenodd;stroke-linejoin:round;stroke-miterlimit:2;">
    <g transform="matrix(1,0,0,1,-1039.71,-11521.1)">
        <g transform="matrix(1,0,0,9.20507,0,1353.83)">
            <g transform="matrix(5.98651,0,0,0.65035,1033.72,1102.57)">
                <path d="M18.574,13.711C19.064,13.705 19.466,13.303 19.472,12.813C19.472,12.315 19.073,11.915 18.574,11.915C18.075,11.915 17.676,12.315 17.676,12.813C17.676,13.313 18.076,13.711 18.574,13.711ZM14.149,13.711C14.639,13.705 15.041,13.303 15.047,12.813C15.047,12.315 14.647,11.915 14.149,11.915C13.649,11.915 13.251,12.315 13.251,12.813C13.251,13.313 13.65,13.711 14.149,13.711ZM20.716,18.751C20.585,18.824 20.515,18.974 20.544,19.121C20.544,19.169 20.544,19.218 20.569,19.268C20.667,19.685 20.863,20.349 20.863,20.374C20.863,20.447 20.888,20.496 20.888,20.546C20.888,20.546 20.888,20.546 20.888,20.546C20.888,20.667 20.789,20.766 20.668,20.766C20.668,20.766 20.667,20.766 20.667,20.766C20.617,20.766 20.593,20.742 20.544,20.718L19.095,19.882C18.989,19.824 18.872,19.79 18.751,19.784C18.678,19.784 18.604,19.784 18.555,19.808C17.867,20.005 17.155,20.103 16.394,20.103C12.734,20.103 9.787,17.646 9.787,14.598C9.787,11.551 12.734,9.093 16.394,9.093C20.053,9.093 23,11.551 23,14.598C23,16.245 22.116,17.744 20.716,18.752L20.716,18.751ZM16.673,8.099C16.58,8.096 16.486,8.094 16.393,8.094C12.219,8.094 8.787,10.954 8.787,14.599C8.787,15.153 8.867,15.689 9.015,16.199L8.926,16.199C8.052,16.19 7.183,16.066 6.342,15.831C6.268,15.806 6.194,15.806 6.12,15.806C5.972,15.809 5.828,15.852 5.702,15.929L3.954,16.934C3.904,16.959 3.855,16.984 3.806,16.984C3.658,16.982 3.538,16.862 3.536,16.714C3.536,16.64 3.56,16.591 3.585,16.517C3.609,16.493 3.831,15.683 3.954,15.193C3.954,15.143 3.978,15.07 3.978,15.021C3.977,14.847 3.896,14.684 3.757,14.579C2.058,13.376 1,11.586 1,9.598C1,5.945 4.57,3 8.95,3C12.715,3 15.88,5.169 16.673,8.098L16.673,8.099ZM11.519,8.517C12.092,8.517 12.545,8.04 12.545,7.491C12.545,6.918 12.092,6.465 11.519,6.465C10.946,6.465 10.493,6.918 10.493,7.491C10.493,8.064 10.946,8.517 11.519,8.517ZM6.259,8.517C6.832,8.517 7.286,8.04 7.286,7.491C7.286,6.918 6.832,6.465 6.259,6.465C5.687,6.465 5.233,6.918 5.233,7.491C5.233,8.064 5.687,8.517 6.259,8.517Z" style="fill-rule:nonzero;"/>
            </g>
        </g>
    </g>
</svg>
