<?xml version="1.0" encoding="UTF-8" standalone="no"?>
<!DOCTYPE svg PUBLIC "-//W3C//DTD SVG 1.1//EN" "http://www.w3.org/Graphics/SVG/1.1/DTD/svg11.dtd">
<svg width="100%" height="100%" viewBox="0 0 16 18" version="1.1" xmlns="http://www.w3.org/2000/svg" xmlns:xlink="http://www.w3.org/1999/xlink" xml:space="preserve" >
    <g transform="matrix(1,0,0,1,-3935.85,-1421.35)">
        <g transform="matrix(1,0,0,9.20507,2441.07,1383.93)">
            <g transform="matrix(0.89811,0,0,0.0975669,1492.23,3.82058)">
                <path d="M5.883,18.653C5.583,18.453 5.325,18.198 5.023,17.837C4.866,17.645 4.711,17.452 4.557,17.258C4.094,16.683 3.802,16.418 3.5,16.309C3.104,16.167 2.838,15.789 2.838,15.368C2.838,14.819 3.289,14.367 3.838,14.367C3.953,14.367 4.068,14.387 4.176,14.426C4.928,14.696 5.437,15.161 6.123,16.014C6.029,15.897 6.463,16.441 6.556,16.553C6.746,16.78 6.886,16.918 6.996,16.991C7.2,17.128 7.583,17.187 8.146,17.131C8.169,16.749 8.24,16.378 8.348,16.036C5.38,15.31 3.7,13.396 3.7,9.64C3.7,8.4 4.07,7.284 4.758,6.348C4.54,5.454 4.573,4.373 5.06,3.156C5.172,2.877 5.403,2.663 5.69,2.574C5.771,2.55 5.817,2.539 5.898,2.527C6.701,2.404 7.835,2.697 9.313,3.623C10.194,3.417 11.095,3.314 12,3.315C12.912,3.315 13.818,3.419 14.684,3.623C16.161,2.69 17.297,2.397 18.106,2.527C18.191,2.54 18.263,2.557 18.324,2.577C18.605,2.67 18.831,2.882 18.94,3.157C19.427,4.373 19.46,5.454 19.242,6.347C19.933,7.283 20.3,8.392 20.3,9.64C20.3,13.397 18.626,15.305 15.658,16.032C15.783,16.447 15.848,16.911 15.848,17.412C15.848,18.317 15.844,19.223 15.836,20.128C16.294,20.228 16.623,20.637 16.623,21.105C16.623,21.581 16.284,21.994 15.817,22.086C14.678,22.314 13.834,21.554 13.834,20.561L13.836,20.115L13.841,19.41C13.846,18.702 13.848,18.072 13.848,17.412C13.848,16.715 13.665,16.26 13.423,16.052C12.762,15.482 13.097,14.397 13.963,14.3C16.93,13.967 18.3,12.818 18.3,9.64C18.3,8.685 17.988,7.896 17.387,7.236C17.129,6.953 17.055,6.546 17.197,6.191C17.363,5.777 17.434,5.234 17.293,4.577L17.283,4.58C16.792,4.719 16.173,5.02 15.425,5.529C15.181,5.695 14.876,5.744 14.592,5.664C13.748,5.43 12.876,5.313 12,5.315C11.11,5.315 10.228,5.434 9.408,5.665C9.125,5.744 8.821,5.695 8.578,5.531C7.826,5.024 7.204,4.724 6.71,4.584C6.566,5.237 6.637,5.778 6.802,6.191C6.944,6.546 6.871,6.953 6.613,7.236C6.016,7.89 5.7,8.694 5.7,9.64C5.7,12.812 7.071,13.968 10.022,14.3C10.887,14.397 11.223,15.477 10.566,16.048C10.374,16.216 10.137,16.78 10.137,17.412L10.137,20.562C10.137,21.548 9.302,22.287 8.177,22.09C7.701,22.006 7.35,21.589 7.35,21.105C7.35,20.637 7.679,20.228 8.137,20.128L8.137,19.138C7.227,19.199 6.475,19.05 5.883,18.653Z"/>
            </g>
        </g>
    </g>
</svg>
