<?xml version="1.0" encoding="UTF-8"?>
<svg id="layer" width="117.38" height="117.4" version="1.1" viewBox="0 0 117.38 117.4" xml:space="preserve" xmlns="http://www.w3.org/2000/svg">
<g transform="translate(-26.018 -267.5)" fill="#fff"><path class="st0" d="m37.8 326.2c0-5.6 1-11.2 3-16.5l-10.3-6c-6.5 15.7-5.9 33.4 1.6 48.6l10.2-5.9c-3-6.3-4.5-13.2-4.5-20.2"/><path class="st0" d="m78.9 279.5v-11.9c-17.7 1.8-33.6 11.5-43.3 26.4l10.2 5.9c7.6-11.2 19.6-18.7 33.1-20.4"/><path class="st0" d="m89.8 373v11.9c16.5-1.4 31.6-9.7 41.7-22.8l-10.3-6c-7.8 9.6-19.1 15.6-31.4 16.9"/><path class="st0" d="m131.6 325.4c0 7.2-1.6 14.3-4.8 20.7l10.2 5.9c7.9-15.5 8.5-33.6 1.7-49.6l-10.3 6c2.1 5.4 3.2 11.1 3.2 17"/><path class="st0" d="m123.7 299.5 10.3-5.9c-10-14.9-26.2-24.5-44.1-26.1v11.8c13.6 1.5 26 8.8 33.8 20.2"/><path class="st0" d="m48.2 355.7-10.3 5.9c9.9 13.1 24.7 21.5 41 23.1v-11.9c-12.1-1.5-23.1-7.6-30.7-17.1"/><path class="st0" d="m86.3 345.5c-8.8 0-16.5-5.9-18.7-14.4-2.3-8.5 1.4-17.4 9-21.8s17.2-3.1 23.4 3.1l7.1-7.1c-11.4-11.4-29.9-11.5-41.5-0.2-11.5 11.3-11.8 29.8-0.7 41.5 11.2 11.7 29.7 12.1 41.4 1.1l-7.1-7.1c-3.4 3.1-8 4.9-12.9 4.9"/></g>
</svg>
