<?xml version="1.0" encoding="UTF-8" standalone="no"?>
<!-- Generator: Adobe Illustrator 19.2.1, SVG Export Plug-In . SVG Version: 6.00 Build 0)  -->

<svg
   version="1.1"
   id="layer"
   x="0px"
   y="0px"
   viewBox="0 0 652 652"
   style="enable-background:new 0 0 652 652;"
   xml:space="preserve"
   xmlns="http://www.w3.org/2000/svg"
   xmlns:svg="http://www.w3.org/2000/svg">
<g
   id="g1065"><path
     class="st0"
     d="M37.8,326.2c0-5.6,1-11.2,3-16.5l-10.3-6c-6.5,15.7-5.9,33.4,1.6,48.6l10.2-5.9   C39.3,340.1,37.8,333.2,37.8,326.2"
     id="path863"
     style="enable-background:new 0 0 652 652;fill:#b3b3b3" /><path
     class="st1"
     d="m 183.1,323.7 c 0,-17.8 8.3,-26.6 25,-26.6 3.6,0 7.1,0.5 10.6,1.5 3.4,1 5.1,2.2 5.1,3.7 0,1.1 -0.6,2.5 -1.7,4.3 -1.2,1.8 -2.2,2.7 -3.1,2.7 -0.5,-0.1 -1.1,-0.3 -1.6,-0.6 -3,-1.3 -6.2,-1.9 -9.4,-1.8 -8.6,0 -13,5.7 -13,17 0,11.3 4.3,17 12.8,17 3.6,0 7.1,-0.8 10.3,-2.3 0.6,-0.3 1.3,-0.6 1.9,-0.7 1.1,0 2,0.9 3,2.6 0.8,1.2 1.2,2.5 1.4,3.9 0,2 -1.8,3.6 -5.5,4.6 -3.6,1.1 -7.4,1.6 -11.2,1.6 -8.4,0 -14.6,-2.2 -18.6,-6.6 -4,-4.3 -6,-11.1 -6,-20.3"
     id="path867"
     style="fill:#ffffff" /><path
     class="st1"
     d="m 230.7,347.8 v -23.7 c 0.1,-2.6 -0.1,-5.3 -0.5,-7.9 -0.2,-0.9 -0.4,-1.8 -0.5,-2.7 0,-0.8 1,-1.4 3,-1.8 1.5,-0.3 3,-0.5 4.5,-0.6 0.7,-0.1 1.4,0 2,0.3 0.4,0.2 0.7,0.5 0.8,0.9 0.2,0.4 0.4,0.8 0.5,1.1 0.1,0.5 0.3,0.9 0.3,1.4 0.1,0.6 0.2,1 0.3,1.2 2.1,-3.8 4.8,-5.7 8.2,-5.7 1.6,0 2.7,0.4 3.3,1.2 0.6,0.8 0.9,1.8 0.9,2.8 0,1.3 -0.3,2.7 -0.7,3.9 -0.4,1.6 -1,2.4 -1.6,2.4 -0.5,0 -1.1,-0.1 -1.6,-0.3 -0.6,-0.2 -1.3,-0.3 -1.9,-0.3 -2.5,0 -4.5,1.2 -6,3.7 v 24 c 0,1.6 -1.5,2.4 -4.5,2.4 h -2.1 c -2.9,0.1 -4.4,-0.7 -4.4,-2.3"
     id="path869"
     style="fill:#ffffff" /><path
     class="st1"
     d="m 254.2,312.4 c 0,-1.1 1.5,-1.6 4.6,-1.6 h 2.4 c 2.4,0 3.8,0.5 4.2,1.6 l 4.4,13.8 c 0.4,1.4 1.1,4.4 2.1,9 h 0.3 c 1,-4.8 1.7,-7.8 2.1,-9 l 4.4,-13.8 c 0.4,-1 1.7,-1.6 4.2,-1.6 h 1.8 c 3,0 4.5,0.6 4.5,1.6 0,0.5 -0.1,0.9 -0.2,1.3 l -17.1,50.2 c -0.4,1 -1.8,1.6 -4.2,1.6 h -1.3 c -3,0 -4.5,-0.5 -4.5,-1.6 0,-0.5 0.1,-0.9 0.3,-1.3 l 4.7,-12.5 -12.3,-36.3 c -0.2,-0.5 -0.3,-0.9 -0.4,-1.4"
     id="path871"
     style="fill:#ffffff" /><path
     class="st1"
     d="m 294.7,363.1 v -39 c 0.1,-2.6 -0.1,-5.3 -0.5,-7.9 -0.2,-0.9 -0.4,-1.8 -0.4,-2.7 0,-0.8 1,-1.4 3,-1.8 1.5,-0.3 3,-0.5 4.5,-0.6 0.7,-0.1 1.4,0 2,0.3 0.4,0.2 0.6,0.5 0.8,0.9 0.2,0.4 0.3,0.7 0.4,1.1 0.1,0.4 0.3,0.9 0.3,1.3 0.1,0.6 0.2,1 0.3,1.1 0.9,-1.7 2.3,-3.1 4,-4 1.8,-1.1 3.9,-1.6 6,-1.6 4.1,0 7.5,1.8 10.1,5.4 2.6,3.6 3.9,8.5 3.9,14.8 0,6.3 -1.4,11.2 -4.2,14.8 -2.8,3.6 -6.6,5.4 -11.6,5.4 -2.7,0.1 -5.4,-0.7 -7.6,-2.3 v 14.8 c 0,1.6 -1.5,2.4 -4.5,2.4 h -2.1 c -2.9,0 -4.4,-0.8 -4.4,-2.4 M 311,341.9 c 4.6,0 7,-3.8 7,-11.3 0,-7.5 -2,-11.3 -6.1,-11.3 -2.4,0 -4.4,1.5 -6.1,4.4 v 16.7 c 1.6,1 3.4,1.5 5.2,1.5 z"
     id="path873"
     style="fill:#ffffff" /><path
     class="st1"
     d="m 351.9,341.9 2,-0.3 c 0.6,0 1.2,0.7 1.6,2.2 0.4,1 0.6,2.1 0.7,3.2 0,2.4 -2.4,3.7 -7.2,3.7 -7.3,0 -10.9,-4 -10.9,-12.1 v -18.9 h -1.2 c -1.5,0 -2.2,-1.2 -2.2,-3.7 v -1.2 c 0,-2.5 0.8,-3.7 2.2,-3.7 h 1.2 l 1,-7.1 c 0.3,-1.6 1.6,-2.4 4,-2.4 h 2.3 c 2.5,0 3.7,0.8 3.7,2.4 v 7.1 h 3.7 c 1.5,0 2.2,1.2 2.2,3.7 v 1.3 c 0,2.5 -0.8,3.7 -2.2,3.7 h -3.7 v 19 c 0.1,2 1,3.1 2.8,3.1"
     id="path875"
     style="fill:#ffffff" /><path
     class="st1"
     d="m 365.7,345.4 c -3.1,-3.5 -4.6,-8.5 -4.6,-15 0,-6.5 1.5,-11.5 4.6,-14.9 3.1,-3.4 7.6,-5.2 13.5,-5.2 5.9,0 10.4,1.7 13.5,5.2 3,3.4 4.6,8.4 4.6,14.9 0,6.5 -1.5,11.5 -4.6,15 -3.1,3.5 -7.6,5.2 -13.5,5.2 -5.9,0.1 -10.4,-1.7 -13.5,-5.2 m 6.6,-14.9 c 0,7.6 2.3,11.4 6.9,11.4 4.6,0 6.9,-3.8 6.9,-11.4 0,-7.6 -2.3,-11.4 -6.9,-11.4 -4.6,0 -6.9,3.8 -6.9,11.4 z"
     id="path877"
     style="fill:#ffffff" /><path
     class="st1"
     d="m 418.9,299.2 c 0,-1.1 1.5,-1.6 4.6,-1.6 h 2.5 c 2.5,0 4,0.7 4.4,2.2 l 10.9,35 h 0.3 l 11.2,-35 c 0.5,-1.4 2,-2.2 4.4,-2.2 h 2.3 c 3,0 4.5,0.5 4.5,1.6 0,0.5 -0.1,0.9 -0.2,1.3 l -16.2,48.1 c -0.4,1 -1.7,1.6 -4.2,1.6 h -3.9 c -2.4,0 -3.8,-0.5 -4.2,-1.6 l -16.2,-48.1 c -0.1,-0.4 -0.2,-0.9 -0.2,-1.3"
     id="path879"
     style="fill:#ffffff" /><path
     class="st1"
     d="m 467.8,339.7 c 0,-1.3 0.1,-2.6 0.4,-3.8 0.3,-1.3 0.9,-2.6 1.7,-3.7 0.9,-1.4 2.2,-2.5 3.6,-3.3 3.5,-2.1 8.8,-3.1 15.8,-3.1 v -2.5 c 0,-2.8 -1.9,-4.3 -5.8,-4.3 -2.8,0 -5.5,0.6 -8,1.8 -0.5,0.3 -1,0.5 -1.6,0.6 -0.8,0 -1.6,-0.8 -2.5,-2.3 -0.8,-1.1 -1.2,-2.3 -1.4,-3.6 0,-1.3 1.4,-2.5 4.2,-3.6 3.3,-1.1 6.7,-1.7 10.1,-1.6 10.7,0 16.1,4.2 16.1,12.5 v 14 c 0,2.6 0.1,5.2 0.4,7.8 l 0.5,3.1 c 0,0.8 -1,1.4 -3,1.8 -1.5,0.3 -3,0.5 -4.5,0.6 -0.7,0.1 -1.4,0 -2,-0.3 -0.4,-0.2 -0.7,-0.6 -0.8,-1 -0.2,-0.5 -0.3,-0.8 -0.5,-1.1 -0.1,-0.5 -0.3,-1 -0.3,-1.5 -0.1,-0.7 -0.2,-1.1 -0.3,-1.3 -1.1,1.8 -2.7,3.2 -4.6,4 -2,1 -4.1,1.6 -6.4,1.6 -3.8,0 -6.6,-1 -8.4,-3 -1.8,-1.9 -2.7,-4.5 -2.7,-7.8 m 11,-1.1 c 0,0.9 0.3,1.8 1,2.4 0.8,0.7 1.9,1 2.9,0.9 1.4,0 2.7,-0.5 3.8,-1.3 1.2,-0.9 2.2,-2 2.8,-3.4 v -4.1 c -7,0 -10.5,1.8 -10.5,5.5"
     id="path881"
     style="fill:#ffffff" /><path
     class="st1"
     d="m 523.9,341.9 2,-0.3 c 0.6,0 1.2,0.7 1.6,2.2 0.4,1 0.6,2.1 0.7,3.2 0,2.4 -2.4,3.7 -7.2,3.7 -7.3,0 -10.9,-4 -10.9,-12.1 V 296 c 0,-1.6 1.5,-2.4 4.5,-2.4 h 2.1 c 3,0 4.5,0.8 4.5,2.4 v 42.7 c 0.1,2.1 1,3.2 2.7,3.2"
     id="path883"
     style="fill:#ffffff" /><path
     class="st1"
     d="m 546.2,341.9 2,-0.3 c 0.6,0 1.2,0.7 1.6,2.2 0.4,1 0.6,2.1 0.7,3.2 0,2.4 -2.4,3.7 -7.2,3.7 -7.3,0 -10.9,-4 -10.9,-12.1 V 296 c 0,-1.6 1.5,-2.4 4.5,-2.4 h 2.1 c 3,0 4.5,0.8 4.5,2.4 v 42.7 c 0,2.1 0.9,3.2 2.7,3.2"
     id="path885"
     style="fill:#ffffff" /><path
     class="st1"
     d="m 557.9,345.4 c -3.2,-3.5 -4.8,-8.6 -4.8,-15.2 0,-6.6 1.6,-11.6 4.8,-14.9 3.2,-3.3 7.6,-4.9 13.2,-4.9 5.6,0 9.7,1.8 12.3,5.4 2.6,3.6 3.9,8.2 3.9,14 0,0.6 -0.5,1.5 -1.5,2.7 -1,1.2 -1.8,1.8 -2.3,1.8 h -19 c 0.2,2.8 1.1,4.9 2.5,6.1 1.6,1.2 3.5,1.9 5.5,1.8 2.2,0 4.4,-0.4 6.4,-1.2 2,-0.8 3.1,-1.2 3.1,-1.2 0.8,0 1.6,0.7 2.5,2.2 0.8,1 1.2,2.2 1.4,3.5 0,1.6 -1.6,3 -4.7,3.9 -2.8,0.9 -5.8,1.4 -8.8,1.5 -6.4,-0.2 -11.3,-2 -14.5,-5.5 m 18.7,-18.8 c 0.1,-1.9 -0.4,-3.8 -1.3,-5.5 -0.9,-1.4 -2.4,-2.1 -4,-2.1 -3.7,0 -5.9,2.5 -6.7,7.6 z"
     id="path887"
     style="fill:#ffffff" /><path
     class="st1"
     d="m 591,312.4 c 0,-1.1 1.5,-1.6 4.6,-1.6 h 2.4 c 2.4,0 3.8,0.5 4.2,1.6 l 4.4,13.8 c 0.5,1.4 1.1,4.4 2.1,9 h 0.3 c 1,-4.8 1.7,-7.8 2.1,-9 l 4.4,-13.8 c 0.3,-1 1.7,-1.6 4.2,-1.6 h 1.8 c 3,0 4.5,0.6 4.5,1.6 0,0.5 -0.1,0.9 -0.2,1.3 l -17.1,50.2 c -0.4,1 -1.8,1.6 -4.2,1.6 h -1.3 c -3,0 -4.5,-0.5 -4.5,-1.6 0,-0.5 0.1,-0.9 0.3,-1.3 l 4.7,-12.5 -12.3,-36.3 c -0.2,-0.5 -0.3,-0.9 -0.4,-1.4"
     id="path889"
     style="fill:#ffffff" /><path
     class="st0"
     d="M 78.9,279.5 V 267.6 C 61.2,269.4 45.3,279.1 35.6,294 l 10.2,5.9 c 7.6,-11.2 19.6,-18.7 33.1,-20.4"
     id="path891"
     style="fill:#b3b3b3" /><path
     class="st0"
     d="m 89.8,373 v 11.9 c 16.5,-1.4 31.6,-9.7 41.7,-22.8 l -10.3,-6 c -7.8,9.6 -19.1,15.6 -31.4,16.9"
     id="path893"
     style="fill:#b3b3b3" /><path
     class="st0"
     d="m 131.6,325.4 c 0,7.2 -1.6,14.3 -4.8,20.7 L 137,352 c 7.9,-15.5 8.5,-33.6 1.7,-49.6 l -10.3,6 c 2.1,5.4 3.2,11.1 3.2,17"
     id="path895"
     style="fill:#b3b3b3" /><path
     class="st0"
     d="M 123.7,299.5 134,293.6 C 124,278.7 107.8,269.1 89.9,267.5 v 11.8 c 13.6,1.5 26,8.8 33.8,20.2"
     id="path897"
     style="fill:#b3b3b3" /><path
     class="st0"
     d="m 48.2,355.7 -10.3,5.9 c 9.9,13.1 24.7,21.5 41,23.1 V 372.8 C 66.8,371.3 55.8,365.2 48.2,355.7"
     id="path899"
     style="fill:#b3b3b3" /><path
     class="st0"
     d="m 86.3,345.5 c -8.8,0 -16.5,-5.9 -18.7,-14.4 -2.3,-8.5 1.4,-17.4 9,-21.8 7.6,-4.4 17.2,-3.1 23.4,3.1 l 7.1,-7.1 c -11.4,-11.4 -29.9,-11.5 -41.5,-0.2 -11.5,11.3 -11.8,29.8 -0.7,41.5 11.2,11.7 29.7,12.1 41.4,1.1 l -7.1,-7.1 c -3.4,3.1 -8,4.9 -12.9,4.9"
     id="path901"
     style="fill:#b3b3b3" /></g>
</svg>
