<?xml version="1.0" encoding="UTF-8" standalone="no"?><!DOCTYPE svg PUBLIC "-//W3C//DTD SVG 1.1//EN" "http://www.w3.org/Graphics/SVG/1.1/DTD/svg11.dtd"><svg width="100%" height="100%" viewBox="0 0 132 56" version="1.1" xmlns="http://www.w3.org/2000/svg" xmlns:xlink="http://www.w3.org/1999/xlink" xml:space="preserve" xmlns:serif="http://www.serif.com/" style="fill-rule:evenodd;clip-rule:evenodd;stroke-linejoin:round;stroke-miterlimit:2;"><path d="M59.216,4.964l8.7,-2.234l-8.714,-2.23l-8.747,2.23l0.016,50.12l8.762,-2.288l0,-45.61l-0.017,0.012Z" style="fill:url(#_Linear1);fill-rule:nonzero;"/><path d="M50.453,52.85l8.743,2.206l8.707,-2.206l-8.707,-2.288l-8.743,2.288Z" style="fill:#fff;fill-rule:nonzero;"/><path d="M59.233,4.964l0,45.598l8.69,2.288l0.01,-50.12l-8.7,2.234Z" style="fill:url(#_Linear2);fill-rule:nonzero;"/><path d="M99.296,13.297l9.779,21.119l6.845,0.001l-14.62,-33.141l-4.314,-0l-21.781,46.871l4.506,7.353l19.585,-42.203Z" style="fill:url(#_Linear3);fill-rule:nonzero;"/><path d="M101.3,1.276l14.621,33.14l-19.255,0l-3.087,6.767l25.411,0l4.565,9.988l7.9,0.01l-22.786,-49.905l-7.369,-0Z" style="fill:url(#_Linear4);fill-rule:nonzero;"/><path d="M93.579,41.184l9.267,-20.194l-3.55,-7.719l-19.584,42.141l7.173,-0l4.655,-9.891l22.673,0l4.777,-4.337l-25.411,-0Z" style="fill:url(#_Linear5);fill-rule:nonzero;"/><path d="M131.455,51.098l-7.9,0.021l-4.565,-10.015l-4.777,4.421l4.617,9.886l7.897,0l4.728,-4.313Z" style="fill:url(#_Linear6);fill-rule:nonzero;"/><path d="M0.547,5.82l7.881,-5.179l-0,41.618c7.719,-0.466 19.313,-2.693 20.491,-14.094c0,-0 1.808,6.998 -2.34,12.604c-4.423,5.976 -14.707,10.032 -26.034,10.032l-0,-44.981l0.002,-0Z" style="fill:url(#_Linear7);fill-rule:nonzero;"/><path d="M16.356,10.347l-0,6.933c3.21,0.884 10.594,3.712 12.579,10.937c0,-0 0.019,0.113 0.061,0.317c0.01,0.056 0.017,0.11 0.028,0.165c0.317,1.657 1.046,7.281 -2.442,12.066c-4.299,5.903 -14.851,10.033 -26.035,10.033l9.727,4.256c-0,0 20.747,-0.307 27.066,-18.557c0.588,-1.7 0.908,-3.354 0.965,-4.954c-0.571,-12.888 -11.152,-20.027 -21.949,-21.196Z" style="fill:url(#_Linear8);fill-rule:nonzero;"/><path d="M33.806,10.975c-4.43,-5.823 -14.287,-10.336 -25.376,-10.336l-0,41.619c1.398,-0.084 2.97,-0.233 4.577,-0.485c0.753,-0.118 1.51,-0.256 2.256,-0.428c0.355,-0.082 0.746,-0.174 1.093,-0.266l-0,-30.73c10.797,1.169 21.449,8.347 21.946,21.284c-0,0 2.568,-11.373 -4.496,-20.658Z" style="fill:url(#_Linear9);fill-rule:nonzero;"/><defs><linearGradient id="_Linear1" x1="0" y1="0" x2="1" y2="0" gradientUnits="userSpaceOnUse" gradientTransform="matrix(31.0084,8.1134,-8.1134,31.0084,43.4573,23.6726)"><stop offset="0" style="stop-color:#fff;stop-opacity:1"/><stop offset="0.05" style="stop-color:#fff;stop-opacity:0.97"/><stop offset="0.13" style="stop-color:#fff;stop-opacity:0.89"/><stop offset="0.19" style="stop-color:#fff;stop-opacity:0.8"/><stop offset="0.28" style="stop-color:#fff;stop-opacity:0.68"/><stop offset="0.46" style="stop-color:#fff;stop-opacity:0.45"/><stop offset="0.61" style="stop-color:#fff;stop-opacity:0.29"/><stop offset="0.73" style="stop-color:#fff;stop-opacity:0.19"/><stop offset="0.8" style="stop-color:#fff;stop-opacity:0.15"/><stop offset="1" style="stop-color:#fff;stop-opacity:0.15"/></linearGradient><linearGradient id="_Linear2" x1="0" y1="0" x2="1" y2="0" gradientUnits="userSpaceOnUse" gradientTransform="matrix(27.2518,15.7341,-15.7341,27.2518,50.9326,19.3417)"><stop offset="0" style="stop-color:#fff;stop-opacity:1"/><stop offset="0.14" style="stop-color:#fff;stop-opacity:0.98"/><stop offset="0.28" style="stop-color:#fff;stop-opacity:0.94"/><stop offset="0.42" style="stop-color:#fff;stop-opacity:0.86"/><stop offset="0.56" style="stop-color:#fff;stop-opacity:0.75"/><stop offset="0.7" style="stop-color:#fff;stop-opacity:0.61"/><stop offset="0.84" style="stop-color:#fff;stop-opacity:0.43"/><stop offset="0.98" style="stop-color:#fff;stop-opacity:0.23"/><stop offset="1" style="stop-color:#fff;stop-opacity:0.2"/></linearGradient><linearGradient id="_Linear3" x1="0" y1="0" x2="1" y2="0" gradientUnits="userSpaceOnUse" gradientTransform="matrix(41.8336,-7.376,7.376,41.8336,72.2224,31.2308)"><stop offset="0" style="stop-color:#fff;stop-opacity:0.15"/><stop offset="0.04" style="stop-color:#fff;stop-opacity:0.23"/><stop offset="0.18" style="stop-color:#fff;stop-opacity:0.43"/><stop offset="0.31" style="stop-color:#fff;stop-opacity:0.6"/><stop offset="0.44" style="stop-color:#fff;stop-opacity:0.75"/><stop offset="0.57" style="stop-color:#fff;stop-opacity:0.86"/><stop offset="0.7" style="stop-color:#fff;stop-opacity:0.94"/><stop offset="0.83" style="stop-color:#fff;stop-opacity:0.98"/><stop offset="0.97" style="stop-color:#fff;stop-opacity:1"/><stop offset="1" style="stop-color:#fff;stop-opacity:1"/></linearGradient><linearGradient id="_Linear4" x1="0" y1="0" x2="1" y2="0" gradientUnits="userSpaceOnUse" gradientTransform="matrix(25.886,-30.8488,30.8488,25.886,99.593,46.231)"><stop offset="0" style="stop-color:#fff;stop-opacity:1"/><stop offset="0.18" style="stop-color:#fff;stop-opacity:0.99"/><stop offset="0.32" style="stop-color:#fff;stop-opacity:0.95"/><stop offset="0.45" style="stop-color:#fff;stop-opacity:0.88"/><stop offset="0.56" style="stop-color:#fff;stop-opacity:0.79"/><stop offset="0.68" style="stop-color:#fff;stop-opacity:0.67"/><stop offset="0.79" style="stop-color:#fff;stop-opacity:0.53"/><stop offset="0.89" style="stop-color:#fff;stop-opacity:0.36"/><stop offset="0.99" style="stop-color:#fff;stop-opacity:0.16"/><stop offset="1" style="stop-color:#fff;stop-opacity:0.15"/></linearGradient><linearGradient id="_Linear5" x1="0" y1="0" x2="1" y2="0" gradientUnits="userSpaceOnUse" gradientTransform="matrix(-15.8344,43.5066,-43.5066,-15.8344,110.602,17.3862)"><stop offset="0" style="stop-color:#fff;stop-opacity:0.15"/><stop offset="0.1" style="stop-color:#fff;stop-opacity:0.15"/><stop offset="0.91" style="stop-color:#fff;stop-opacity:1"/><stop offset="1" style="stop-color:#fff;stop-opacity:1"/></linearGradient><linearGradient id="_Linear6" x1="0" y1="0" x2="1" y2="0" gradientUnits="userSpaceOnUse" gradientTransform="matrix(-15.346,-8.8595,8.8595,-15.346,129.55,54.3999)"><stop offset="0" style="stop-color:#fff;stop-opacity:0.15"/><stop offset="0.02" style="stop-color:#fff;stop-opacity:0.17"/><stop offset="0.29" style="stop-color:#fff;stop-opacity:0.46"/><stop offset="0.54" style="stop-color:#fff;stop-opacity:0.69"/><stop offset="0.74" style="stop-color:#fff;stop-opacity:0.86"/><stop offset="0.9" style="stop-color:#fff;stop-opacity:0.96"/><stop offset="1" style="stop-color:#fff;stop-opacity:1"/></linearGradient><linearGradient id="_Linear7" x1="0" y1="0" x2="1" y2="0" gradientUnits="userSpaceOnUse" gradientTransform="matrix(44.355,19.246,-19.246,44.355,-10.5512,19.1943)"><stop offset="0" style="stop-color:#fff;stop-opacity:0.8"/><stop offset="0.02" style="stop-color:#fff;stop-opacity:0.8"/><stop offset="0.12" style="stop-color:#fff;stop-opacity:0.77"/><stop offset="0.27" style="stop-color:#fff;stop-opacity:0.69"/><stop offset="0.45" style="stop-color:#fff;stop-opacity:0.55"/><stop offset="0.61" style="stop-color:#fff;stop-opacity:0.4"/><stop offset="0.83" style="stop-color:#fff;stop-opacity:0.26"/><stop offset="0.96" style="stop-color:#fff;stop-opacity:0.2"/><stop offset="1" style="stop-color:#fff;stop-opacity:0.2"/></linearGradient><linearGradient id="_Linear8" x1="0" y1="0" x2="1" y2="0" gradientUnits="userSpaceOnUse" gradientTransform="matrix(-21.5572,31.9593,-31.9593,-21.5572,30.8161,18.3527)"><stop offset="0" style="stop-color:#fff;stop-opacity:0.2"/><stop offset="0.05" style="stop-color:#fff;stop-opacity:0.28"/><stop offset="0.15" style="stop-color:#fff;stop-opacity:0.45"/><stop offset="0.26" style="stop-color:#fff;stop-opacity:0.59"/><stop offset="0.38" style="stop-color:#fff;stop-opacity:0.7"/><stop offset="0.5" style="stop-color:#fff;stop-opacity:0.79"/><stop offset="0.63" style="stop-color:#fff;stop-opacity:0.85"/><stop offset="0.78" style="stop-color:#fff;stop-opacity:0.89"/><stop offset="0.98" style="stop-color:#fff;stop-opacity:0.9"/><stop offset="1" style="stop-color:#fff;stop-opacity:0.9"/></linearGradient><linearGradient id="_Linear9" x1="0" y1="0" x2="1" y2="0" gradientUnits="userSpaceOnUse" gradientTransform="matrix(39.2815,-14.2975,14.2975,39.2815,-2.9163,26.4315)"><stop offset="0" style="stop-color:#fff;stop-opacity:1"/><stop offset="0.21" style="stop-color:#fff;stop-opacity:1"/><stop offset="0.33" style="stop-color:#fff;stop-opacity:0.99"/><stop offset="0.44" style="stop-color:#fff;stop-opacity:0.94"/><stop offset="0.55" style="stop-color:#fff;stop-opacity:0.87"/><stop offset="0.65" style="stop-color:#fff;stop-opacity:0.76"/><stop offset="0.76" style="stop-color:#fff;stop-opacity:0.63"/><stop offset="0.86" style="stop-color:#fff;stop-opacity:0.47"/><stop offset="0.95" style="stop-color:#fff;stop-opacity:0.3"/><stop offset="1" style="stop-color:#fff;stop-opacity:0.3"/></linearGradient></defs></svg>