<?xml version="1.0" encoding="UTF-8" standalone="no"?>
<!DOCTYPE svg PUBLIC "-//W3C//DTD SVG 1.1//EN" "http://www.w3.org/Graphics/SVG/1.1/DTD/svg11.dtd">
<svg width="100%" height="100%" viewBox="0 0 13 13" version="1.1" xmlns="http://www.w3.org/2000/svg" xmlns:xlink="http://www.w3.org/1999/xlink" xml:space="preserve" style="fill-rule:evenodd;clip-rule:evenodd;stroke-linejoin:round;stroke-miterlimit:2;">
    <g transform="matrix(1,0,0,1,-1361.51,-3452.79)">
        <g transform="matrix(0.75721,0,0,3.0618,328.971,1912.81)">
            <g transform="matrix(0.653707,0,0,0.161668,1167.5,143.536)">
                <path d="M312.286,2223.26C319.067,2223.26 324.572,2228.76 324.572,2235.55C324.572,2242.33 319.067,2247.83 312.286,2247.83C305.505,2247.83 300,2242.33 300,2235.55C300,2228.76 305.505,2223.26 312.286,2223.26ZM312.286,2227.3C316.837,2227.3 320.531,2230.99 320.531,2235.55C320.531,2240.1 316.837,2243.79 312.286,2243.79C307.735,2243.79 304.04,2240.1 304.04,2235.55C304.04,2230.99 307.735,2227.3 312.286,2227.3Z"/>
            </g>
        </g>
    </g>
</svg>
