<?xml version="1.0" encoding="UTF-8"?>
<!-- Generator: Adobe Illustrator 26.5.1, SVG Export Plug-In . SVG Version: 6.00 Build 0)  -->
<svg enable-background="new 0 0 294.4 301.9" version="1.1" viewBox="0 0 294.4 301.9" xml:space="preserve" xmlns="http://www.w3.org/2000/svg">

<g id="logo-text" fill="#fff">
	<g fill="#fff">
		<path class="st0" d="m30.4 226.6v13.5h33.4v14.1h-33.4v14.8h34.1v14.1h-49.7v-70.6h49.6v14.1h-34zm67.4 31.6h-8.6v24.9h-15.5v-70.6h31.2c13.7 0 23.7 8.9 23.7 22.8 0 5.6-1.6 10.9-5.4 15.1-2.5 2.8-5.8 4.7-9.3 5.8l16.7 26.9h-18l-14.8-24.9zm-8.6-31.6v17.4h14.1c5.3 0 9.5-3.2 9.5-8.7s-4.2-8.7-9.5-8.7h-14.1zm96.3 38.7v-7.7h-19.9v-14.1h35.4v27.7l-0.5 0.5c-7.6 8.4-17.7 12.7-29 12.7-21.1 0-37-15.3-37-36.6s15.9-36.5 37-36.5c11.9 0 21.7 5 28.5 14.7l1.2 1.7-12.9 7.3-1-1.4c-3.6-5.1-9.6-8.1-15.8-8.1-12.7 0-21.1 9.8-21.1 22.2s8.4 22.3 21.1 22.3c4.7 0.2 10.3-1.6 14-4.7zm21.9-17.4c0-21 15-36.5 36.1-36.5s36.1 15.5 36.1 36.5-15 36.5-36.1 36.5c-21.1-0.1-36.1-15.6-36.1-36.5zm56.3 0c0-12.2-7.4-22.2-20.2-22.2-12.9 0-20.2 10-20.2 22.2s7.4 22.2 20.2 22.2 20.2-10 20.2-22.2z"/>
		
			<g id="Layer_x0020_1_13_">
				<g id="_1841840793312_12_" fill="#fff">
					<polygon class="st0" points="141.5 128.8 175.9 128.8 175.9 144.8 118.4 144.8 118.4 130.2 141.1 105.2 118.5 81.7 118.5 67.2 175.9 67.2 175.9 83.1 142.3 83.1 163.1 105" fill="#fff"/>
				</g>
			</g>
			
				<path class="st1" d="m150.4 31.9m-3.2 1.4 51.4 21.3 21.3 51.4-21.3 51.4-51.4 21.3-51.4-21.3-21.3-51.4 21.3-51.4 51.4-21.3m-50.1 18m50.1-34.2c-0.9 0-1.8 0.2-2.7 0.5l-57.9 24c-1.7 0.7-3.1 2.1-3.8 3.8l-24 57.9c-0.7 1.7-0.7 3.6 0 5.3l24 57.9c0.7 1.7 2.1 3.1 3.8 3.8l57.9 24c0.9 0.4 1.8 0.5 2.7 0.5s1.8-0.2 2.7-0.5l57.9-24c1.7-0.7 3.1-2.1 3.8-3.8l24-57.9c0.7-1.7 0.7-3.6 0-5.3l-24-57.9c-0.7-1.7-2.1-3.1-3.8-3.8l-57.9-24c-0.9-0.3-1.8-0.5-2.7-0.5z" fill="#fff"/>
			
		
	</g>
</g>
</svg>
