<svg id="Flux_white_symbol" xmlns="http://www.w3.org/2000/svg" width="1050.027" height="322.975" viewBox="0 0 1050.027 322.975">
  <g id="Group_194" data-name="Group 194" transform="translate(0 0)">
    <g id="Group_180" data-name="Group 180" transform="translate(0 0)">
      <path id="Path_73" data-name="Path 73" d="M175.03,202.425l-28.9,16.7L84.03,183.28l28.2-16.285.7-.414,1.077.622Z" transform="translate(-6.271 103.85)" fill="#fff"/>
      <path id="Path_74" data-name="Path 74" d="M326.213,116.8v33.607L265.09,115.125l-16.576-9.572-16.576,9.572-77.7,44.858-16.576,9.572v19.787l-29.9-17.259-16.576-9.572-16.576,9.572L46.5,188.307V116.8L186.356,36.06Z" transform="translate(-46.5 -36.06)" fill="#fff"/>
      <path id="Path_75" data-name="Path 75" d="M261.9,132.948v89.715l-77.7,44.858-.1-.062-77.594-44.8V132.948L184.2,88.07Z" transform="translate(17.819 19.693)" fill="#fff"/>
      <path id="Path_76" data-name="Path 76" d="M135.884,141.366v51.591L91.192,218.774,46.5,192.957V141.366l44.692-25.8Z" transform="translate(-46.5 49.17)" fill="#fff"/>
    </g>
    <g id="Group_183" data-name="Group 183" transform="translate(385.534 54.081)">
      <path id="Path_77" data-name="Path 77" d="M326.421,86.14v57.554h105.2v40.433h-105.2v79.347h-52.6V45.69H445.57V86.14Z" transform="translate(-273.82 -45.69)" fill="#fff"/>
      <path id="Path_78" data-name="Path 78" d="M393.41,45.69h50.64V263.475H393.41Z" transform="translate(-198.608 -45.69)" fill="#fff"/>
      <path id="Path_79" data-name="Path 79" d="M627.1,76.54v174.7H579.052v-20.8c-13.316,15.26-32.788,23.376-54.221,23.376-43.837,0-74.682-24.672-74.682-78.569V76.54h50.657v91.238c0,29.225,12.976,42.217,35.38,42.217,23.376,0,40.256-14.936,40.256-47.094V76.54Z" transform="translate(-166.21 -33.455)" fill="#fff"/>
      <path id="Path_80" data-name="Path 80" d="M701.721,251.24l-38.313-53.59-39.557,53.59H568.59l67.2-88.015L570.875,76.54h56.812l37.085,50.981L702.761,76.54h53.9l-64.946,85.389,67.469,89.311Z" transform="translate(-94.687 -33.455)" fill="#fff"/>
    </g>
  </g>
</svg>
