<svg xmlns="http://www.w3.org/2000/svg" width="106" height="48" viewBox="0 0 106 48" fill="none">
<path fill-rule="evenodd" clip-rule="evenodd" d="M6.47753 46.2572V44.4903H4.58095V43.1532H7.88552V46.9494C7.88552 46.9494 6.82376 47.9999 4.79542 47.9999C2.35006 47.9999 0.405762 46.1497 0.405762 43.6784C0.405762 41.2072 2.29041 39.3567 4.73603 39.3567C6.7877 39.3567 7.8256 40.6105 7.8256 40.6105L6.84762 41.5653C6.84762 41.5653 6.15542 40.6938 4.73603 40.6938C3.05392 40.6938 1.86094 42.0667 1.86094 43.6784C1.86094 45.2899 3.11357 46.6628 4.79542 46.6628C5.9884 46.6628 6.47753 46.2572 6.47753 46.2572" fill="white"/>
<path fill-rule="evenodd" clip-rule="evenodd" d="M15.8303 42.1024C15.8303 41.2789 15.2579 40.8608 14.3393 40.8608H13.206V43.3441H14.3393C15.2579 43.3441 15.8303 42.9262 15.8303 42.1024V42.1024ZM11.7744 39.4998H14.5183C16.1765 39.4998 17.2857 40.5742 17.2857 42.1024C17.2857 43.3562 16.6177 44.311 15.425 44.6095L17.5124 47.8565H15.8422L13.8619 44.705H13.206V47.8565H11.7744V39.4998Z" fill="white"/>
<path fill-rule="evenodd" clip-rule="evenodd" d="M27.6294 43.6783C27.6294 42.0666 26.5438 40.7175 24.862 40.7175C23.1799 40.7175 22.0942 42.0666 22.0942 43.6783C22.0942 45.2897 23.1799 46.6388 24.862 46.6388C26.5438 46.6388 27.6294 45.2897 27.6294 43.6783M29.0845 43.6784C29.0845 46.1495 27.295 47.9999 24.8616 47.9999C22.4279 47.9999 20.6387 46.1495 20.6387 43.6784C20.6387 41.2072 22.4279 39.3567 24.8616 39.3567C27.295 39.3567 29.0845 41.2072 29.0845 43.6784" fill="white"/>
<path fill-rule="evenodd" clip-rule="evenodd" d="M37.7696 39.5H39.2009V44.8243C39.2009 46.6629 37.9485 48 35.9801 48C34.0116 48 32.7593 46.6629 32.7593 44.8243V39.5H34.1906V44.6455C34.1906 45.8394 34.7871 46.639 35.9801 46.639C37.1611 46.639 37.7696 45.8394 37.7696 44.6455V39.5Z" fill="white"/>
<path fill-rule="evenodd" clip-rule="evenodd" d="M47.5038 42.1741C47.5038 41.3861 46.9908 40.8608 46.0125 40.8608H44.7838V43.487H46.0125C46.9908 43.487 47.5038 42.962 47.5038 42.1741V42.1741ZM43.3525 39.5H46.1916C47.8498 39.5 48.9593 40.6461 48.9593 42.1742C48.9593 43.7024 47.8498 44.8482 46.1916 44.8482H44.7839V47.8567H43.3525V39.5Z" fill="white"/>
<path fill-rule="evenodd" clip-rule="evenodd" d="M23.0981 26.3729V19.652H15.8826V14.5659H28.4527V29.0071C28.4527 29.0071 24.4141 33.003 16.6997 33.003C7.39678 33.003 0 25.9641 0 16.5639C0 7.16347 7.16984 0.124756 16.4727 0.124756C24.2778 0.124756 28.2258 4.89302 28.2258 4.89302L24.505 8.52579C24.505 8.52579 21.8727 5.21085 16.4727 5.21085C10.0741 5.21085 5.53651 10.4333 5.53651 16.5639C5.53651 22.6945 10.301 27.9169 16.6997 27.9169C21.2373 27.9169 23.0981 26.3729 23.0981 26.3729" fill="white"/>
<path fill-rule="evenodd" clip-rule="evenodd" d="M32.3105 23.8299H44.4265V18.6528H32.3105V23.8299Z" fill="white"/>
<path fill-rule="evenodd" clip-rule="evenodd" d="M59.4016 17.6535C60.5814 16.1095 63.0771 13.7026 63.0771 10.1152C63.0771 7.57205 61.3528 5.21087 58.3576 5.21087C53.684 5.21087 52.6854 9.84277 52.6854 9.84277L47.8302 8.07161C47.8302 8.07161 49.8721 0.124512 58.3576 0.124512C65.2101 0.124512 68.5227 4.75667 68.5227 10.0245C68.5227 13.9754 66.5261 16.7907 65.7547 17.8355L58.4486 27.281H68.6587V32.4581H47.7393L59.4016 17.6535Z" fill="white"/>
<path fill-rule="evenodd" clip-rule="evenodd" d="M97.9456 2.57475C97.5309 2.13302 95.5842 0.759558 93.4003 0.336402C93.2157 0.302036 93.0223 0.260724 92.8269 0.218957C92.5214 0.153675 92.2108 0.0872831 91.9199 0.0445706L91.5193 0C93.47 0.271934 95.1508 1.33075 95.6712 2.54132C96.7422 5.03356 93.3072 8.57215 88.1591 10.3022C85.9004 11.0612 83.6626 11.3679 81.7711 11.2631C81.0701 11.2469 80.4068 11.1533 79.8069 10.9721C78.3737 10.6028 77.2104 9.59436 76.7857 8.60585C76.4294 7.77704 76.4721 6.68559 76.9906 5.74749C73.0482 10.1762 75.4167 15.0606 81.8161 15.8311C92.5352 17.1215 103.142 8.10973 97.9456 2.57475ZM73.2649 14.3879C73.3267 13.8164 73.4754 12.925 73.6551 12.3092C72.9735 18.928 79.5495 20.9079 84.844 20.9464C96.1358 21.0286 107.209 10.0454 99.9501 3.87451C100.603 4.42952 101.446 5.18165 102.242 6.20598C102.947 7.11331 103.633 8.05858 104.105 10.1749C104.831 13.4331 103.247 18.5619 99.1116 21.6513C88.4466 29.6186 72.1864 26.1224 73.2649 14.3879ZM105.719 18.1919L105.873 17.7693C105.873 17.7693 105.797 18.8631 105.561 19.927V19.9254L105.559 19.9385C105.551 19.9814 105.542 20.0248 105.533 20.0705L105.533 20.0718L105.533 20.0724C105.505 20.2103 105.473 20.3605 105.436 20.5274C105.152 21.7862 104.935 22.2673 104.56 23.0974C104.498 23.2369 104.43 23.3862 104.357 23.5507C104.015 24.3228 103.881 24.5333 103.494 25.1418C103.41 25.2728 103.315 25.4223 103.203 25.5999L102.847 26.1173C100.253 30.0326 92.1458 36.1382 81.9272 31.0925L81.0213 30.5873C79.4644 29.6468 78.5534 28.8164 77.6964 27.9274H77.6958C77.0145 27.3371 76.3186 26.3786 75.8226 25.6209C75.6349 25.3972 75.47 25.0972 75.3173 24.8195C75.2961 24.781 75.2752 24.743 75.2544 24.7056C75.1688 24.5599 75.1211 24.474 75.1211 24.474C78.8482 29.5816 86.3492 30.3438 89.2741 30.1047C99.261 29.2879 103.445 22.7734 105.1 19.5678C105.395 18.983 105.596 18.5074 105.719 18.1919Z" fill="white"/>
</svg>