<svg width="115" height="24" viewBox="0 0 115 24" fill="none" xmlns="http://www.w3.org/2000/svg">
<g clip-path="url(#clip0_5192_42325)">
<path d="M2.05469 9.82343L10.9833 18.4629H16.4673L4.7985 7.16797L2.05469 9.82343Z" fill="#fff"/>
<path d="M21.854 13.9207L12.9254 5.28125H7.44141L19.1102 16.5744L21.854 13.9207Z" fill="#fff"/>
<path d="M5.71864 -0.445312H0.824219V23.5547H5.71864V-0.445312Z" fill="#fff"/>
<path d="M22.5351 -0.445312H17.6406V23.5547H22.5351V-0.445312Z" fill="#fff"/>
<path d="M41.192 19.24C39.432 19.24 37.904 18.904 36.608 18.232C35.328 17.544 34.336 16.584 33.632 15.352C32.944 14.104 32.6 12.64 32.6 10.96C32.6 9.28 32.944 7.824 33.632 6.592C34.336 5.344 35.328 4.384 36.608 3.712C37.904 3.024 39.432 2.68 41.192 2.68C42.872 2.68 44.32 2.944 45.536 3.472C46.768 4 47.72 4.752 48.392 5.728C49.064 6.704 49.4 7.88 49.4 9.256V9.616H45.392V9.256C45.392 8.2 45.064 7.416 44.408 6.904C43.768 6.392 42.72 6.136 41.264 6.136C40.096 6.136 39.152 6.296 38.432 6.616C37.728 6.92 37.216 7.424 36.896 8.128C36.576 8.816 36.416 9.76 36.416 10.96C36.416 12.144 36.576 13.088 36.896 13.792C37.216 14.496 37.728 15.008 38.432 15.328C39.152 15.632 40.096 15.784 41.264 15.784C42.72 15.784 43.768 15.528 44.408 15.016C45.064 14.504 45.392 13.72 45.392 12.664V12.304H49.4V12.664C49.4 14.024 49.064 15.2 48.392 16.192C47.72 17.168 46.768 17.92 45.536 18.448C44.32 18.976 42.872 19.24 41.192 19.24ZM63.104 19H59.744V16.144L59.552 16.096V11.896C59.552 11.112 59.352 10.584 58.952 10.312C58.568 10.04 57.896 9.904 56.936 9.904C56.024 9.904 55.368 10.04 54.968 10.312C54.568 10.584 54.368 11.064 54.368 11.752V11.848H50.744V11.776C50.744 10.784 51.008 9.912 51.536 9.16C52.064 8.392 52.808 7.8 53.768 7.384C54.744 6.952 55.888 6.736 57.2 6.736C58.544 6.736 59.648 6.952 60.512 7.384C61.392 7.816 62.04 8.424 62.456 9.208C62.888 9.976 63.104 10.888 63.104 11.944V19ZM54.656 19.24C53.36 19.24 52.344 18.952 51.608 18.376C50.872 17.8 50.504 17.016 50.504 16.024C50.504 15.416 50.648 14.896 50.936 14.464C51.224 14.032 51.656 13.688 52.232 13.432C52.808 13.16 53.528 12.976 54.392 12.88L59.792 12.328V14.392L55.376 14.896C54.944 14.928 54.624 15.016 54.416 15.16C54.224 15.288 54.128 15.496 54.128 15.784C54.128 16.104 54.256 16.336 54.512 16.48C54.768 16.624 55.16 16.696 55.688 16.696C56.552 16.696 57.264 16.616 57.824 16.456C58.384 16.296 58.808 16.04 59.096 15.688C59.4 15.32 59.552 14.832 59.552 14.224L59.888 14.2V16.24H59.552C59.28 17.168 58.728 17.904 57.896 18.448C57.08 18.976 56 19.24 54.656 19.24ZM73.4248 19.24C72.0328 19.24 70.9448 18.928 70.1608 18.304C69.3928 17.664 68.9048 16.816 68.6968 15.76H68.0728V13.168H68.5288C68.5288 13.84 68.6648 14.384 68.9368 14.8C69.2088 15.216 69.6008 15.512 70.1128 15.688C70.6408 15.864 71.2808 15.952 72.0328 15.952C72.8168 15.952 73.4568 15.856 73.9528 15.664C74.4488 15.472 74.8168 15.16 75.0568 14.728C75.2968 14.296 75.4168 13.72 75.4168 13C75.4168 12.248 75.2968 11.664 75.0568 11.248C74.8168 10.816 74.4488 10.512 73.9528 10.336C73.4568 10.144 72.8248 10.048 72.0568 10.048C70.8888 10.048 70.0088 10.272 69.4168 10.72C68.8248 11.152 68.5288 11.904 68.5288 12.976H68.0728L67.8088 10.264H68.5048C68.7128 9.112 69.2088 8.24 69.9928 7.648C70.7928 7.04 71.8968 6.736 73.3048 6.736C74.5368 6.736 75.5768 6.992 76.4248 7.504C77.2888 8.016 77.9448 8.744 78.3928 9.688C78.8408 10.616 79.0648 11.72 79.0648 13C79.0648 14.264 78.8408 15.368 78.3928 16.312C77.9608 17.24 77.3208 17.96 76.4728 18.472C75.6408 18.984 74.6248 19.24 73.4248 19.24ZM68.5288 23.08H64.9288V6.976H68.2648V10.552L68.5288 10.864V23.08ZM84.1616 19H80.5616V6.976H84.1616V19ZM84.1616 5.752H80.5616V2.92H84.1616V5.752ZM94.5179 19H91.5419C90.1339 19 89.0299 18.656 88.2299 17.968C87.4299 17.28 87.0299 16.176 87.0299 14.656V4.648H90.6299V14.248C90.6299 14.856 90.7579 15.264 91.0139 15.472C91.2859 15.664 91.7339 15.76 92.3579 15.76H94.5179V19ZM94.5179 9.952H85.1339V6.976H94.5179V9.952ZM108.01 19H104.65V16.144L104.458 16.096V11.896C104.458 11.112 104.258 10.584 103.858 10.312C103.474 10.04 102.802 9.904 101.842 9.904C100.93 9.904 100.274 10.04 99.8743 10.312C99.4743 10.584 99.2743 11.064 99.2743 11.752V11.848H95.6503V11.776C95.6503 10.784 95.9143 9.912 96.4423 9.16C96.9703 8.392 97.7143 7.8 98.6743 7.384C99.6503 6.952 100.794 6.736 102.106 6.736C103.45 6.736 104.554 6.952 105.418 7.384C106.298 7.816 106.946 8.424 107.362 9.208C107.794 9.976 108.01 10.888 108.01 11.944V19ZM99.5623 19.24C98.2663 19.24 97.2503 18.952 96.5143 18.376C95.7783 17.8 95.4103 17.016 95.4103 16.024C95.4103 15.416 95.5543 14.896 95.8423 14.464C96.1303 14.032 96.5623 13.688 97.1383 13.432C97.7143 13.16 98.4343 12.976 99.2983 12.88L104.698 12.328V14.392L100.282 14.896C99.8503 14.928 99.5303 15.016 99.3223 15.16C99.1303 15.288 99.0343 15.496 99.0343 15.784C99.0343 16.104 99.1623 16.336 99.4183 16.48C99.6743 16.624 100.066 16.696 100.594 16.696C101.458 16.696 102.17 16.616 102.73 16.456C103.29 16.296 103.714 16.04 104.002 15.688C104.306 15.32 104.458 14.832 104.458 14.224L104.794 14.2V16.24H104.458C104.186 17.168 103.634 17.904 102.802 18.448C101.986 18.976 100.906 19.24 99.5623 19.24ZM113.435 19H109.835V2.92H113.435V19Z" fill="white"/>
</g>
<defs>
<clipPath id="clip0_5192_42325">
<rect width="115" height="24" fill="white"/>
</clipPath>
</defs>
</svg>
