<?xml version="1.0" encoding="UTF-8"?>
<svg width="118.95mm" height="117.72mm" version="1.1" viewBox="0 0 118.95 117.72" xmlns="http://www.w3.org/2000/svg">
 <g transform="translate(-101.4 .028122)" fill="#fff" shape-rendering="auto">
  <path d="m160.26-0.027344c-32.47 1.75e-6 -58.859 26.391-58.859 58.861s26.389 58.861 58.859 58.861a3.1753 3.1753 0 0 0 2e-3 0c15.154-4.6e-4 29.676-5.8877 40.611-16.328h16.301a3.1753 3.1753 0 0 0 3.1758-3.1758v-18.057a3.1753 3.1753 0 0 0-3.1758-3.1758h-0.95899c1.8948-5.8495 2.9061-11.955 2.9062-18.123-3e-5 -6.1687-1.0131-12.277-2.9082-18.127h0.96094a3.1753 3.1753 0 0 0 3.1738-3.1738v-18.057a3.1753 3.1753 0 0 0-3.1738-3.1758h-16.301c-10.862-10.37-25.266-16.234-40.311-16.312a3.1753 3.1753 0 0 0-0.30274-0.017578zm0 6.3516c13.936 2.968e-4 27.299 5.5375 37.148 15.396a3.1753 3.1753 0 0 0 2.2461 0.93164h14.344v11.707h-2.2871a3.1753 3.1753 0 0 0-2.9336 4.3906c2.6365 6.3683 3.9941 13.193 3.9941 20.086-1.5e-4 6.8909-1.3568 13.713-3.9922 20.08a3.1753 3.1753 0 0 0 2.7715 4.3848c0.94808 0.04837 1.6659 0.02045 2.4473 0.0059v11.711h-14.344a3.1753 3.1753 0 0 0-2.2461 0.92969c-9.8497 9.8592-23.212 15.398-37.148 15.398-29.039 0-52.51-23.473-52.51-52.512s23.471-52.51 52.51-52.51z" color="#000000" color-rendering="auto" dominant-baseline="auto" image-rendering="auto" solid-color="#000000" stop-color="#000000" style="font-feature-settings:normal;font-variant-alternates:normal;font-variant-caps:normal;font-variant-east-asian:normal;font-variant-ligatures:normal;font-variant-numeric:normal;font-variant-position:normal;font-variation-settings:normal;inline-size:0;isolation:auto;mix-blend-mode:normal;shape-margin:0;shape-padding:0;text-decoration-color:#000000;text-decoration-line:none;text-decoration-style:solid;text-indent:0;text-orientation:mixed;text-transform:none;white-space:normal"/>
  <path d="m130.96 38.735a3.175 3.175 0 0 0-2.7637 1.5875 3.175 3.175 0 0 0 1.1622 4.3362l16.287 9.4041c-0.49576 1.5062-0.76791 3.1113-0.76791 4.7775 0 7.3717 5.2558 13.577 12.203 15.059v18.786a3.175 3.175 0 0 0 3.174 3.176 3.175 3.175 0 0 0 3.1755-3.176v-18.778c6.9665-1.4672 12.242-7.6824 12.242-15.067 0-1.6719-0.27392-3.2823-0.77308-4.793l16.264-9.3886a3.175 3.175 0 0 0 1.1617-4.3377 3.175 3.175 0 0 0-2.7202-1.586 3.175 3.175 0 0 0-1.6175 0.42375l-16.279 9.3994c-2.8244-3.1357-6.9097-5.1165-11.434-5.1165-4.5298 0-8.6185 1.9859-11.443 5.1284l-16.299-9.4092a3.175 3.175 0 0 0-1.5725-0.42581zm29.314 11.058c5.0341 0 9.047 4.0129 9.047 9.047s-4.0129 9.047-9.047 9.047-9.0465-4.0129-9.0465-9.047 4.0124-9.047 9.0465-9.047z" color="#000000" color-rendering="auto" dominant-baseline="auto" image-rendering="auto" solid-color="#000000" stop-color="#000000" style="font-feature-settings:normal;font-variant-alternates:normal;font-variant-caps:normal;font-variant-east-asian:normal;font-variant-ligatures:normal;font-variant-numeric:normal;font-variant-position:normal;font-variation-settings:normal;inline-size:0;isolation:auto;mix-blend-mode:normal;paint-order:markers fill stroke;shape-margin:0;shape-padding:0;text-decoration-color:#000000;text-decoration-line:none;text-decoration-style:solid;text-indent:0;text-orientation:mixed;text-transform:none;white-space:normal"/>
  <path d="m129 61.206c0 1.7447-1.4143 3.159-3.159 3.159s-3.159-1.4143-3.159-3.159 1.4143-3.159 3.159-3.159 3.159 1.4143 3.159 3.159z" color="#000000" color-rendering="auto" dominant-baseline="auto" image-rendering="auto" solid-color="#000000" stop-color="#000000" style="font-feature-settings:normal;font-variant-alternates:normal;font-variant-caps:normal;font-variant-east-asian:normal;font-variant-ligatures:normal;font-variant-numeric:normal;font-variant-position:normal;font-variation-settings:normal;inline-size:0;isolation:auto;mix-blend-mode:normal;paint-order:markers fill stroke;shape-margin:0;shape-padding:0;text-decoration-color:#000000;text-decoration-line:none;text-decoration-style:solid;text-indent:0;text-orientation:mixed;text-transform:none;white-space:normal"/>
  <path d="m125.84 54.873c-3.4606 0-6.334 2.8734-6.334 6.334s2.8734 6.334 6.334 6.334 6.334-2.8734 6.334-6.334-2.8734-6.334-6.334-6.334zm0 6.3164c-0.0288 0 0.0156 0.04635 0.0156 0.01758s-0.0444 0.01563-0.0156 0.01563-0.0156-0.0444-0.0156-0.01563 0.0444-0.01758 0.0156-0.01758z" color="#000000" color-rendering="auto" dominant-baseline="auto" image-rendering="auto" solid-color="#000000" stop-color="#000000" style="font-feature-settings:normal;font-variant-alternates:normal;font-variant-caps:normal;font-variant-east-asian:normal;font-variant-ligatures:normal;font-variant-numeric:normal;font-variant-position:normal;font-variation-settings:normal;inline-size:0;isolation:auto;mix-blend-mode:normal;paint-order:markers fill stroke;shape-margin:0;shape-padding:0;text-decoration-color:#000000;text-decoration-line:none;text-decoration-style:solid;text-indent:0;text-orientation:mixed;text-transform:none;white-space:normal"/>
 </g>
</svg>
