<?xml version="1.0" encoding="UTF-8" standalone="no"?>
<!DOCTYPE svg PUBLIC "-//W3C//DTD SVG 1.1//EN" "http://www.w3.org/Graphics/SVG/1.1/DTD/svg11.dtd">
<svg width="100%" height="100%" viewBox="0 0 80 270" version="1.1" xmlns="http://www.w3.org/2000/svg" xmlns:xlink="http://www.w3.org/1999/xlink" xml:space="preserve" style="fill-rule:evenodd;clip-rule:evenodd;stroke-miterlimit:1.5;">
    <g transform="matrix(1,0,0,1,-2404.53,-3282.45)">
        <g transform="matrix(1.56499,0,0,0.698517,1501.64,1324.49)">
            <g transform="matrix(0.321635,0,0,2.91378,439.339,2851.7)">
                <g transform="matrix(0.807417,-0.0352041,-6.35504e-34,0.196127,-18107.2,48.7578)">
                    <path d="M23021.3,4358.98C23021.3,4354.6 23017.9,4351.04 23013.7,4351.04L22963.5,4351.04C22959.3,4351.04 22955.9,4354.6 22955.9,4358.98L22955.9,4455.63C22955.9,4460.02 22959.3,4463.58 22963.5,4463.58L23013.7,4463.58C23017.9,4463.58 23021.3,4460.02 23021.3,4455.63L23021.3,4358.98Z" style="fill:rgb(101,101,101);"/>
                </g>
                <g transform="matrix(0.807417,-0.0352041,-6.35504e-34,0.196127,-18001.6,6.3127)">
                    <path d="M23021.3,4358.98C23021.3,4354.6 23017.9,4351.04 23013.7,4351.04L22963.5,4351.04C22959.3,4351.04 22955.9,4354.6 22955.9,4358.98L22955.9,4455.63C22955.9,4460.02 22959.3,4463.58 22963.5,4463.58L23013.7,4463.58C23017.9,4463.58 23021.3,4460.02 23021.3,4455.63L23021.3,4358.98Z" style="fill:url(#_Linear1hook);"/>
                </g>
                <g transform="matrix(0.865089,-0.0377187,0.904903,0.49289,-23368.4,-1222.59)">
                    <path d="M23021.3,4354.17C23021.3,4352.44 23017.9,4351.04 23013.7,4351.04L22963.5,4351.04C22959.3,4351.04 22955.9,4352.44 22955.9,4354.17L22955.9,4460.44C22955.9,4462.17 22959.3,4463.58 22963.5,4463.58L23013.7,4463.58C23017.9,4463.58 23021.3,4462.17 23021.3,4460.44L23021.3,4354.17Z" style="fill:rgb(101,101,101);"/>
                </g>
            </g>
        </g>
        <g transform="matrix(1,0,0,9.20507,1691.98,1383.93)">
            <g transform="matrix(1,0,0,0.439272,0,7.41573)">
                <g transform="matrix(1,0,0,0.210516,27,-223.884)">
                    <path d="M731.5,3217.34L731.5,3298" style="fill:none;stroke:white;stroke-width:3.77px;"/>
                </g>
                <g transform="matrix(1.04438,0,0,0.353299,-33.9247,-691.036)">
                    <path d="M763,3286L754.5,3286L754.5,3293L763,3293L763,3286ZM759.649,3288.45L759.649,3290.55C759.649,3290.55 757.851,3290.55 757.851,3290.55C757.851,3290.55 757.851,3288.45 757.851,3288.45L759.649,3288.45Z" style="fill:white;"/>
                </g>
                <g transform="matrix(1,0,0,0.247309,-14.5446,-342.754)">
                    <path d="M773,3295L773,3300C773,3300 771.297,3301.7 769.712,3303.29C769.004,3304 768.606,3304.96 768.606,3305.96C768.606,3306.96 769.004,3307.92 769.712,3308.63C769.713,3308.63 769.714,3308.63 769.715,3308.63C771.19,3310.11 773.582,3310.11 775.058,3308.63C776.29,3307.4 777.483,3306.21 777.483,3306.21" style="fill:none;stroke:white;stroke-width:3.5px;"/>
                </g>
            </g>
        </g>
    </g>
    <defs>
        <linearGradient id="_Linear1hook" x1="0" y1="0" x2="1" y2="0" gradientUnits="userSpaceOnUse" gradientTransform="matrix(-65.4001,96.6467,-106.456,-85.6939,23021.3,4358.98)"><stop offset="0" style="stop-color:rgb(255,93,81);stop-opacity:1"/><stop offset="1" style="stop-color:rgb(18,0,218);stop-opacity:1"/></linearGradient>
    </defs>
</svg>
