<?xml version="1.0" encoding="UTF-8" standalone="no"?><!DOCTYPE svg PUBLIC "-//W3C//DTD SVG 1.1//EN" "http://www.w3.org/Graphics/SVG/1.1/DTD/svg11.dtd"><svg width="100%" height="100%" viewBox="0 0 1420 150" version="1.1" xmlns="http://www.w3.org/2000/svg" xmlns:xlink="http://www.w3.org/1999/xlink" xml:space="preserve" xmlns:serif="http://www.serif.com/" style="fill-rule:evenodd;clip-rule:evenodd;stroke-linejoin:round;stroke-miterlimit:2;"><rect id="Plan-de-travail1" serif:id="Plan de travail1" x="0" y="0" width="1419.54" height="149.6" style="fill:none;"/><g id="Layer_1-2"><g><path d="M45.54,147.18l-45.54,0l26.18,-147.18l45.32,0l-25.96,147.18Z" style="fill:#fff;fill-rule:nonzero;"/><path d="M267.74,109.34l-35.86,37.84l-73.92,0c-45.98,0 -76.56,-27.72 -76.56,-64.9c0,-48.4 46.2,-82.28 102.52,-82.28l103.18,0l-36.08,38.28l-73.92,0c-27.06,0 -49.94,17.38 -49.94,40.7c0,18.26 15.18,30.36 37.4,30.36l103.18,0Z" style="fill:#fff;fill-rule:nonzero;"/><path d="M454.74,109.34l-36.08,37.84l-141.68,0l26.18,-147.18l170.28,0l-36.3,38.28l-95.26,0l-3.08,17.6l116.38,0l-31.68,33.44l-90.64,0l-3.52,20.02l125.4,0Z" style="fill:#fff;fill-rule:nonzero;"/><path d="M672.31,147.18l-60.94,0l-25.96,-38.94l-69.96,0l-6.82,38.94l-45.54,0l13.2,-75.24l128.04,0c15.18,0 28.38,-7.26 28.38,-19.14c-0,-9.68 -8.36,-14.52 -22.44,-14.52l-128.04,0l36.52,-38.28l94.6,-0c30.8,-0 67.32,9.46 67.32,44.66c0,26.62 -19.14,49.06 -47.52,54.56c4.18,3.74 8.8,9.02 16.94,19.36l22.22,28.6Z" style="fill:#fff;fill-rule:nonzero;"/><path d="M734.79,147.18l-45.54,0l26.18,-147.18l45.32,0l-25.96,147.18Z" style="fill:#fff;fill-rule:nonzero;"/><path d="M833.57,0l49.06,97.68l86.24,-97.68l53.9,0l-117.92,133.1c-7.7,8.58 -18.04,16.5 -32.34,16.5c-14.3,0 -21.34,-7.26 -26.18,-16.5l-68.42,-133.1l55.66,0Z" style="fill:#fff;fill-rule:nonzero;"/><path d="M1190.63,109.34l-36.08,37.84l-141.68,0l26.18,-147.18l170.28,0l-36.3,38.28l-95.26,0l-3.08,17.6l116.38,0l-31.68,33.44l-90.64,0l-3.52,20.02l125.4,0Z" style="fill:#fff;fill-rule:nonzero;"/><path d="M1408.21,147.18l-60.94,0l-25.96,-38.94l-69.96,0l-6.82,38.94l-45.54,0l13.2,-75.24l128.04,0c15.18,0 28.38,-7.26 28.38,-19.14c0,-9.68 -8.36,-14.52 -22.44,-14.52l-128.04,0l36.52,-38.28l94.6,-0c30.8,-0 67.32,9.46 67.32,44.66c0,26.62 -19.14,49.06 -47.52,54.56c4.18,3.74 8.8,9.02 16.94,19.36l22.22,28.6Z" style="fill:#fff;fill-rule:nonzero;"/></g></g></svg>