<svg width="568" height="190" viewBox="0 0 568 190" fill="none" xmlns="http://www.w3.org/2000/svg">
<g clip-path="url(#clip0_532_303)">
<path d="M485.927 178.008V189.966H567.998V136.036H556.04V178.008H485.927ZM485.927 0.0302734V11.9882H556.04V53.9628H567.998V0.0302734H485.927ZM443.604 92.538V64.7516H462.364C471.509 64.7516 474.793 67.7992 474.793 76.1249V81.0483C474.793 89.6067 471.626 92.538 462.364 92.538H443.604ZM473.382 97.4613C481.941 95.2337 487.92 87.2599 487.92 77.7651C487.92 71.7862 485.576 66.3918 481.12 62.053C475.493 56.6586 467.988 53.9628 458.257 53.9628H431.879V136.034H443.604V103.324H461.192C470.218 103.324 473.853 107.075 473.853 116.457V136.036H485.811V118.332C485.811 105.435 482.763 100.512 473.382 99.1043V97.4613ZM374.666 100.157H410.778V89.3711H374.666V64.7488H414.294V53.9628H362.705V136.034H416.053V125.248H374.666V100.157V100.157ZM335.387 104.496V110.123C335.387 121.964 331.048 125.835 320.146 125.835H317.566C306.661 125.835 301.386 122.316 301.386 106.02V83.9767C301.386 67.5637 306.897 64.1614 317.799 64.1614H320.143C330.813 64.1614 334.212 68.1483 334.328 79.1698H347.226C346.054 62.9894 335.268 52.7909 319.087 52.7909C311.233 52.7909 304.666 55.254 299.743 59.9418C292.357 66.86 288.253 78.5852 288.253 94.9982C288.253 110.827 291.772 122.552 299.039 129.819C303.963 134.626 310.764 137.206 317.447 137.206C324.482 137.206 330.932 134.391 334.212 128.295H335.852V136.034H346.638V93.7099H314.865V104.496H335.387ZM231.98 64.7488H244.76C256.838 64.7488 263.404 67.7964 263.404 84.2123V105.784C263.404 122.197 256.838 125.248 244.76 125.248H231.98V64.7488ZM245.813 136.036C268.208 136.036 276.531 119.036 276.531 95.001C276.531 70.6142 267.621 53.9657 245.578 53.9657H220.252V136.036H245.813ZM163.626 100.157H199.738V89.3711H163.626V64.7488H203.254V53.9628H151.665V136.034H205.013V125.248H163.626V100.157ZM94.4525 53.9628H82.4947V136.034H136.427V125.248H94.4525V53.9628ZM0.304688 136.036V189.969H82.3755V178.008H12.2626V136.036H0.304688ZM0.304688 0.0302734V53.9628H12.2626V11.9882H82.3755V0.0302734H0.304688Z" fill="white"/>
</g>
<defs>
<clipPath id="clip0_532_303">
<rect width="567.696" height="189.939" fill="white" transform="translate(0.304688 0.0302734)"/>
</clipPath>
</defs>
</svg>
