<?xml version="1.0" encoding="UTF-8" standalone="no"?><!DOCTYPE svg PUBLIC "-//W3C//DTD SVG 1.1//EN" "http://www.w3.org/Graphics/SVG/1.1/DTD/svg11.dtd"><svg width="100%" height="100%" viewBox="0 0 245 59" version="1.1" xmlns="http://www.w3.org/2000/svg" xmlns:xlink="http://www.w3.org/1999/xlink" xml:space="preserve" xmlns:serif="http://www.serif.com/" style="fill-rule:evenodd;clip-rule:evenodd;stroke-linejoin:round;stroke-miterlimit:2;"><g><path d="M10.712,46.676c-2.028,-0 -3.852,-0.375 -5.47,-1.125c-1.619,-0.75 -2.897,-1.861 -3.835,-3.333c-0.938,-1.471 -1.407,-3.286 -1.407,-5.443c0,-1.858 0.333,-3.393 1,-4.608c0.667,-1.214 1.577,-2.186 2.731,-2.914c1.153,-0.729 2.455,-1.283 3.907,-1.661c1.452,-0.379 2.956,-0.654 4.512,-0.825c1.876,-0.2 3.397,-0.382 4.565,-0.547c1.167,-0.164 2.018,-0.421 2.553,-0.771c0.535,-0.35 0.802,-0.897 0.802,-1.64l0,-0.128c0,-1.615 -0.465,-2.865 -1.396,-3.751c-0.931,-0.885 -2.272,-1.328 -4.023,-1.328c-1.848,-0 -3.31,0.414 -4.387,1.243c-1.077,0.828 -1.802,1.807 -2.178,2.936l-7.044,-1.029c0.556,-2 1.473,-3.675 2.751,-5.025c1.278,-1.351 2.841,-2.365 4.689,-3.044c1.848,-0.678 3.891,-1.018 6.128,-1.018c1.542,0 3.077,0.186 4.606,0.558c1.528,0.371 2.924,0.982 4.189,1.832c1.264,0.85 2.282,2.004 3.053,3.461c0.771,1.457 1.157,3.279 1.157,5.465l-0,22.03l-7.253,0l-0,-4.521l-0.25,-0c-0.459,0.914 -1.101,1.768 -1.928,2.56c-0.827,0.793 -1.862,1.429 -3.105,1.908c-1.244,0.478 -2.699,0.718 -4.367,0.718Zm1.959,-5.701c1.515,0 2.828,-0.311 3.939,-0.932c1.112,-0.622 1.97,-1.447 2.574,-2.475c0.605,-1.029 0.907,-2.15 0.907,-3.365l-0,-3.879c-0.236,0.2 -0.636,0.386 -1.199,0.557c-0.562,0.172 -1.191,0.322 -1.886,0.45c-0.694,0.129 -1.382,0.243 -2.063,0.343c-0.681,0.1 -1.271,0.186 -1.771,0.257c-1.126,0.158 -2.133,0.415 -3.022,0.772c-0.89,0.357 -1.591,0.854 -2.105,1.489c-0.514,0.636 -0.771,1.454 -0.771,2.454c-0,1.429 0.507,2.508 1.521,3.236c1.014,0.729 2.306,1.093 3.876,1.093Z" style="fill:#fff;fill-rule:nonzero;"/><rect x="33.872" y="2.122" width="7.544" height="43.89" style="fill:#fff;fill-rule:nonzero;"/><path d="M61.991,46.654c-3.209,0 -5.978,-0.689 -8.305,-2.068c-2.327,-1.378 -4.116,-3.336 -5.367,-5.872c-1.25,-2.536 -1.875,-5.525 -1.875,-8.968c-0,-3.386 0.628,-6.362 1.886,-8.926c1.257,-2.565 3.018,-4.565 5.283,-6.001c2.265,-1.436 4.926,-2.154 7.982,-2.154c1.973,0 3.838,0.325 5.596,0.976c1.758,0.65 3.314,1.653 4.668,3.011c1.355,1.357 2.422,3.082 3.2,5.175c0.778,2.093 1.167,4.583 1.167,7.469l-0,2.378l-26.239,0l-0,-5.229l19.007,0c-0.014,-1.486 -0.327,-2.811 -0.938,-3.975c-0.611,-1.164 -1.462,-2.082 -2.553,-2.754c-1.091,-0.671 -2.359,-1.007 -3.804,-1.007c-1.542,-0 -2.896,0.382 -4.064,1.146c-1.167,0.765 -2.073,1.765 -2.719,3.001c-0.646,1.235 -0.976,2.589 -0.99,4.061l-0,4.564c-0,1.915 0.34,3.554 1.021,4.919c0.681,1.364 1.632,2.407 2.855,3.129c1.223,0.721 2.654,1.082 4.293,1.082c1.098,-0 2.091,-0.161 2.981,-0.482c0.889,-0.322 1.66,-0.797 2.313,-1.425c0.653,-0.629 1.146,-1.408 1.48,-2.336l7.044,0.814c-0.445,1.914 -1.289,3.582 -2.532,5.004c-1.244,1.422 -2.831,2.522 -4.762,3.3c-1.932,0.779 -4.141,1.168 -6.628,1.168Z" style="fill:#fff;fill-rule:nonzero;"/><path d="M81.253,58.355l0,-45.261l7.42,0l-0,5.443l0.437,0c0.389,-0.8 0.938,-1.653 1.647,-2.561c0.708,-0.907 1.667,-1.685 2.876,-2.335c1.209,-0.651 2.751,-0.976 4.627,-0.976c2.473,0 4.706,0.647 6.7,1.94c1.994,1.293 3.578,3.2 4.752,5.722c1.174,2.522 1.761,5.611 1.761,9.269c-0,3.614 -0.577,6.686 -1.73,9.215c-1.153,2.529 -2.723,4.457 -4.71,5.786c-1.987,1.329 -4.238,1.993 -6.753,1.993c-1.834,-0 -3.355,-0.314 -4.564,-0.943c-1.209,-0.629 -2.178,-1.389 -2.907,-2.282c-0.73,-0.893 -1.296,-1.74 -1.699,-2.54l-0.312,0l-0,17.53l-7.545,0Zm7.399,-28.802c-0,2.128 0.295,3.993 0.886,5.593c0.59,1.6 1.445,2.847 2.563,3.74c1.119,0.893 2.477,1.339 4.075,1.339c1.667,0 3.063,-0.461 4.189,-1.382c1.125,-0.922 1.976,-2.186 2.553,-3.793c0.576,-1.608 0.865,-3.44 0.865,-5.497c-0,-2.043 -0.285,-3.858 -0.855,-5.444c-0.57,-1.586 -1.417,-2.828 -2.543,-3.729c-1.125,-0.9 -2.528,-1.35 -4.209,-1.35c-1.612,0 -2.981,0.436 -4.106,1.308c-1.126,0.871 -1.977,2.093 -2.553,3.664c-0.577,1.572 -0.865,3.422 -0.865,5.551Z" style="fill:#fff;fill-rule:nonzero;"/><path d="M124.107,26.724l0,19.287l-7.544,0l-0,-43.889l7.378,-0l-0,16.565l0.375,0c0.75,-1.857 1.914,-3.325 3.491,-4.404c1.577,-1.078 3.588,-1.618 6.033,-1.618c2.223,0 4.162,0.479 5.815,1.436c1.653,0.958 2.935,2.358 3.845,4.201c0.91,1.843 1.365,4.093 1.365,6.75l0,20.959l-7.544,0l-0,-19.759c-0,-2.214 -0.553,-3.939 -1.657,-5.175c-1.105,-1.236 -2.65,-1.854 -4.637,-1.854c-1.334,0 -2.526,0.297 -3.575,0.89c-1.049,0.592 -1.868,1.446 -2.459,2.561c-0.59,1.114 -0.886,2.464 -0.886,4.05Z" style="fill:#fff;fill-rule:nonzero;"/><path d="M151.185,46.011l-0,-32.917l7.544,0l0,32.917l-7.544,0Zm3.793,-37.589c-1.195,0 -2.223,-0.411 -3.084,-1.232c-0.862,-0.822 -1.293,-1.811 -1.293,-2.968c0,-1.172 0.431,-2.168 1.293,-2.99c0.861,-0.821 1.889,-1.232 3.084,-1.232c1.209,-0 2.24,0.411 3.095,1.232c0.854,0.822 1.282,1.818 1.282,2.99c-0,1.157 -0.428,2.146 -1.282,2.968c-0.855,0.821 -1.886,1.232 -3.095,1.232Z" style="fill:#fff;fill-rule:nonzero;"/><path d="M185.536,32.167l-0,-19.073l7.544,0l0,32.917l-7.315,0l0,-5.85l-0.333,-0c-0.723,1.843 -1.907,3.35 -3.554,4.522c-1.646,1.171 -3.671,1.757 -6.075,1.757c-2.098,-0 -3.949,-0.482 -5.554,-1.447c-1.605,-0.964 -2.859,-2.371 -3.762,-4.221c-0.903,-1.851 -1.355,-4.09 -1.355,-6.719l0,-20.959l7.545,0l-0,19.759c-0,2.086 0.556,3.743 1.667,4.972c1.112,1.229 2.571,1.843 4.377,1.843c1.111,-0 2.188,-0.279 3.23,-0.836c1.042,-0.557 1.9,-1.389 2.574,-2.497c0.674,-1.107 1.011,-2.496 1.011,-4.168Z" style="fill:#fff;fill-rule:nonzero;"/><path d="M199.484,46.011l-0,-32.917l7.211,0l-0,5.593l0.375,0c0.667,-1.885 1.771,-3.361 3.313,-4.425c1.543,-1.064 3.384,-1.597 5.523,-1.597c2.168,0 3.998,0.54 5.492,1.618c1.494,1.079 2.546,2.547 3.157,4.404l0.334,0c0.708,-1.828 1.907,-3.289 3.595,-4.382c1.688,-1.093 3.692,-1.64 6.013,-1.64c2.945,0 5.349,0.958 7.211,2.872c1.861,1.915 2.792,4.708 2.792,8.379l0,22.095l-7.565,0l0,-20.894c0,-2.043 -0.528,-3.54 -1.584,-4.49c-1.056,-0.95 -2.348,-1.425 -3.876,-1.425c-1.82,-0 -3.241,0.582 -4.262,1.746c-1.022,1.165 -1.532,2.676 -1.532,4.533l-0,20.53l-7.399,0l0,-21.216c0,-1.7 -0.496,-3.057 -1.49,-4.072c-0.993,-1.014 -2.289,-1.521 -3.887,-1.521c-1.084,-0 -2.07,0.282 -2.959,0.846c-0.889,0.565 -1.598,1.358 -2.126,2.379c-0.528,1.022 -0.792,2.211 -0.792,3.568l0,20.016l-7.544,0Z" style="fill:#fff;fill-rule:nonzero;"/></g></svg>