<?xml version="1.0" encoding="UTF-8" standalone="no"?><!DOCTYPE svg PUBLIC "-//W3C//DTD SVG 1.1//EN" "http://www.w3.org/Graphics/SVG/1.1/DTD/svg11.dtd"><svg width="100%" height="100%" viewBox="0 0 481 110" version="1.1" xmlns="http://www.w3.org/2000/svg" xmlns:xlink="http://www.w3.org/1999/xlink" xml:space="preserve" style="fill-rule:evenodd;clip-rule:evenodd;stroke-linejoin:round;stroke-miterlimit:2;"><g><g><path d="M-0,53.975c-0,17.819 11.536,29.663 25.955,29.663c9.064,0 15.553,-4.325 18.952,-9.269l-0,8.342l14.523,0l-0,-57.06l-14.523,-0l-0,8.137c-3.399,-4.738 -9.682,-9.064 -18.849,-9.064c-14.522,-0 -26.058,11.433 -26.058,29.251Zm44.907,0.206c-0,10.815 -7.21,16.789 -15.141,16.789c-7.725,-0 -15.037,-6.18 -15.037,-16.995c-0,-10.815 7.312,-16.582 15.037,-16.582c7.931,-0 15.141,5.973 15.141,16.788Z" style="fill:#fff;fill-rule:nonzero;"/><rect x="71.48" y="6.493" width="14.42" height="76.218" style="fill:#fff;fill-rule:nonzero;"/><path d="M122.567,36.569c7.416,-0 13.39,4.737 13.596,12.256l-27.089,0c1.133,-7.828 6.592,-12.256 13.493,-12.256Zm27.088,28.221l-15.552,-0c-1.854,3.811 -5.253,6.901 -11.433,6.901c-7.21,-0 -12.978,-4.738 -13.699,-13.184l41.714,0c0.309,-1.854 0.412,-3.708 0.412,-5.562c0,-16.994 -11.638,-28.221 -28.118,-28.221c-16.892,-0 -28.633,11.433 -28.633,29.457c-0,17.922 12.05,29.457 28.633,29.457c14.111,0 23.586,-8.342 26.676,-18.848Z" style="fill:#fff;fill-rule:nonzero;"/><path d="M173.963,33.891l-0,-8.24l-14.42,-0l0,84.252l14.42,-0l-0,-35.328c3.502,4.635 9.888,9.063 18.848,9.063c14.626,0 26.059,-11.844 26.059,-29.663c-0,-17.818 -11.433,-29.251 -26.059,-29.251c-8.857,-0 -15.449,4.326 -18.848,9.167Zm30.178,20.084c0,10.815 -7.313,16.995 -15.141,16.995c-7.724,-0 -15.037,-5.974 -15.037,-16.789c-0,-10.815 7.313,-16.788 15.037,-16.788c7.828,-0 15.141,5.767 15.141,16.582Z" style="fill:#fff;fill-rule:nonzero;"/><path d="M227.316,82.711l14.419,0l0,-31.517c0,-9.167 5.047,-14.11 12.875,-14.11c7.622,-0 12.669,4.943 12.669,14.11l-0,31.517l14.419,0l0,-33.474c0,-15.758 -9.373,-24.41 -22.247,-24.41c-7.622,-0 -14.008,3.09 -17.716,7.931l0,-26.265l-14.419,0l-0,76.218Z" style="fill:#fff;fill-rule:nonzero;"/><rect x="293.337" y="25.651" width="14.42" height="57.061" style="fill:#fff;fill-rule:nonzero;"/><path d="M373.778,25.651l-14.523,-0l0,31.414c0,9.167 -4.944,14.111 -12.771,14.111c-7.622,-0 -12.669,-4.944 -12.669,-14.111l-0,-31.414l-14.42,-0l0,33.474c0,15.656 9.579,24.307 22.866,24.307c7.107,0 13.389,-3.089 16.994,-7.93l0,7.209l14.523,0l0,-57.06Z" style="fill:#fff;fill-rule:nonzero;"/><path d="M465.755,82.711l14.419,0l0,-33.474c0,-15.758 -9.681,-24.41 -23.38,-24.41c-8.343,-0 -15.862,4.429 -19.57,10.918c-3.913,-7.107 -11.226,-10.918 -20.084,-10.918c-7.107,-0 -13.184,2.987 -16.789,7.725l0,-6.901l-14.419,-0l-0,57.06l14.419,0l0,-31.517c0,-9.064 5.047,-13.801 12.875,-13.801c7.622,-0 12.669,4.737 12.669,13.801l-0,31.517l14.419,0l0,-31.517c0,-9.064 5.047,-13.801 12.772,-13.801c7.622,-0 12.669,4.737 12.669,13.801l-0,31.517Z" style="fill:#fff;fill-rule:nonzero;"/></g><path d="M307.96,1.785c-0,-1.168 -0.92,-1.954 -2.052,-1.754l-10.551,1.86c-1.132,0.2 -2.051,1.31 -2.051,2.477l-0,13.16c-0,1.167 0.919,1.953 2.051,1.754l10.551,-1.861c1.132,-0.2 2.052,-1.309 2.052,-2.477l-0,-13.159Z" style="fill:#fff;"/></g></svg>
