<?xml version="1.0" encoding="UTF-8" standalone="no"?><!DOCTYPE svg PUBLIC "-//W3C//DTD SVG 1.1//EN" "http://www.w3.org/Graphics/SVG/1.1/DTD/svg11.dtd"><svg width="100%" height="100%" viewBox="0 0 140 21" version="1.1" xmlns="http://www.w3.org/2000/svg" xmlns:xlink="http://www.w3.org/1999/xlink" xml:space="preserve" xmlns:serif="http://www.serif.com/" style="fill-rule:evenodd;clip-rule:evenodd;stroke-linejoin:round;stroke-miterlimit:2;"><path d="M4.895,20.039l18.277,-0c1.086,-0 1.912,-1.291 1.287,-2.229l-9.127,-15.879c-0.666,-1.149 -1.931,-1.931 -3.379,-1.931c-1.517,0 -2.851,0.874 -3.494,2.161l-6.943,12.041c-1.414,2.523 0.514,5.837 3.379,5.837Z" style="fill:#fff;"/><path d="M19.286,5.861c-1.08,-1.861 -0.437,-4.251 1.426,-5.331c1.862,-1.08 4.253,-0.437 5.333,1.424l7.058,12.226c1.08,1.861 0.436,4.251 -1.426,5.331c-1.862,1.08 -4.253,0.437 -5.333,-1.425l-7.058,-12.225Z" style="fill:#fff;"/><path d="M127.666,5.089c1.066,-0.994 2.936,-1.467 5.659,-1.467l6.369,-0l0,-3.622l-7.529,0c-1.8,0 -3.315,0.19 -4.499,0.569c-1.16,0.378 -2.178,0.97 -3.054,1.798c-0.923,0.9 -1.657,2.012 -2.178,3.337c-0.521,1.349 -0.782,2.817 -0.782,4.355c0,1.468 0.261,2.888 0.782,4.189c0.521,1.302 1.255,2.438 2.178,3.337c0.852,0.829 1.87,1.421 3.007,1.799c1.16,0.379 2.699,0.568 4.546,0.568l7.529,0l0,-3.574l-6.369,0c-1.444,0 -2.439,-0.047 -3.007,-0.165c-0.592,-0.119 -1.136,-0.308 -1.586,-0.592c-0.9,-0.568 -1.587,-1.302 -2.036,-2.225c-0.427,-0.899 -0.64,-2.035 -0.64,-3.36c0,-2.273 0.545,-3.953 1.61,-4.947Z" style="fill:#fff;fill-rule:nonzero;"/><path d="M72.238,20l17.758,-0l0,-3.503l-13.425,0l0,-4.994l11.72,0l0,-3.313l-11.72,-0l0,-4.639l13.425,-0l0,-3.527l-17.758,0l0,19.976Z" style="fill:#fff;fill-rule:nonzero;"/><path d="M94.424,0.024l8.311,9.988l-8.311,9.988l5.375,-0l6.559,-7.905l0,-4.142l-6.559,-7.929l-5.375,0Z" style="fill:#fff;fill-rule:nonzero;"/><path d="M114.597,0.024l-6.558,7.929l-0,4.142l6.558,7.905l5.375,-0l-8.335,-9.988l8.335,-9.988l-5.375,0Z" style="fill:#fff;fill-rule:nonzero;"/><path d="M54.836,9.87l-7.979,-9.846l-4.12,0l0,19.976l4.333,-0l0,-13.325l6.914,8.284l1.681,-0l6.914,-8.355l-0,13.396l4.333,-0l-0.001,-19.976l-4.072,0l-8.003,9.846Z" style="fill:#fff;fill-rule:nonzero;"/></svg>