<?xml version="1.0" encoding="UTF-8" standalone="no"?>
<!DOCTYPE svg PUBLIC "-//W3C//DTD SVG 1.1//EN" "http://www.w3.org/Graphics/SVG/1.1/DTD/svg11.dtd">
<svg width="100%" height="100%" viewBox="0 0 1323 1116" version="1.1" xmlns="http://www.w3.org/2000/svg" xmlns:xlink="http://www.w3.org/1999/xlink" xml:space="preserve" style="fill-rule:evenodd;clip-rule:evenodd;stroke-linecap:round;stroke-miterlimit:1.5;">
    <g transform="matrix(1,0,0,1,-683.416,-1294.09)">
        <g transform="matrix(1,0,0,9.20507,0,1353.83)">
            <g transform="matrix(1,0,0,0.108636,0,-150.345)">
                <path d="M1163,1430L1280.88,1767L1605,1923.93" style="fill:none;stroke:white;stroke-width:2px;stroke-dasharray:0,8,0,0;"/>
            </g>
        </g>
        <g transform="matrix(1,0,0,9.20507,0,1353.83)">
            <g transform="matrix(1,0,0,0.108636,0,-150.345)">
                <path d="M1178,2117.55L1655,1946.93" style="fill:none;stroke:white;stroke-width:2px;stroke-dasharray:0,8,0,0;"/>
            </g>
        </g>
        <g transform="matrix(1,0,0,9.20507,0,1353.83)">
            <g transform="matrix(0.134413,0,0,0.014602,948.971,73.5091)">
                <circle cx="1672.12" cy="411.131" r="462.602" style="fill:url(#_Radial1);"/>
            </g>
        </g>
        <g transform="matrix(1,0,0,9.20507,0,1353.83)">
            <g transform="matrix(1,0,0,0.108636,0,-150.345)">
                <path d="M1680,1937.05L1920,1570.24" style="fill:none;stroke:white;stroke-width:2px;stroke-dasharray:0,8,0,0;"/>
            </g>
        </g>
        <g transform="matrix(1,0,0,9.20507,0,1353.83)">
            <g transform="matrix(0.475571,0,0,0.0516641,875.365,40.4839)">
                <circle cx="1672.12" cy="411.131" r="462.602" style="fill:url(#_Radial2);"/>
            </g>
        </g>
        <g transform="matrix(1,0,0,9.20507,0,1353.83)">
            <g transform="matrix(1,0,0,0.108636,0,-150.345)">
                <path d="M1178,2117.55L1851,2308.88" style="fill:none;stroke:white;stroke-width:2px;stroke-dasharray:0,8,0,0;"/>
            </g>
        </g>
        <g transform="matrix(1,0,0,9.20507,0,1353.83)">
            <g transform="matrix(1,0,0,0.108636,0,-150.345)">
                <path d="M1286,1756.55L1920,1383.93" style="fill:none;stroke:white;stroke-width:2px;stroke-dasharray:0,8,0,0;"/>
            </g>
        </g>
        <g transform="matrix(1,0,0,9.20507,0,1353.83)">
            <g transform="matrix(0.282851,0,0,0.0307278,1402.04,87.8489)">
                <circle cx="1672.12" cy="411.131" r="462.602" style="fill:url(#_Radial3);"/>
            </g>
        </g>
        <g transform="matrix(1,0,0,9.20507,0,1353.83)">
            <g transform="matrix(0.138736,0,0,0.0150717,1048.42,35.4021)">
                <circle cx="1672.12" cy="411.131" r="462.602" style="fill:url(#_Radial4);"/>
            </g>
        </g>
        <g transform="matrix(1,0,0,9.20507,0,1353.83)">
            <g transform="matrix(0.172019,0,0,0.0186874,871.932,-5.52784)">
                <circle cx="1672.12" cy="411.131" r="462.602" style="fill:url(#_Radial5);"/>
            </g>
        </g>
        <g transform="matrix(1,0,0,9.20507,0,1353.83)">
            <g transform="matrix(0.511197,0,0,0.0555343,678.542,33.7444)">
                <circle cx="1240.15" cy="640.422" r="5.682" style="fill:white;"/>
            </g>
        </g>
        <g transform="matrix(1,0,0,9.20507,0,1353.83)">
            <g transform="matrix(0.593132,0,0,0.0644354,390.131,8.30675)">
                <circle cx="1240.15" cy="640.422" r="5.682" style="fill:white;"/>
            </g>
        </g>
        <g transform="matrix(1,0,0,9.20507,0,1353.83)">
            <g transform="matrix(0.593132,0,0,0.0644354,893.184,-21.0049)">
                <circle cx="1240.15" cy="640.422" r="5.682" style="fill:white;"/>
            </g>
        </g>
        <g transform="matrix(1,0,0,9.20507,0,1353.83)">
            <g transform="matrix(0.593132,0,0,0.0644354,280.511,-13.3725)">
                <circle cx="1240.15" cy="640.422" r="5.682" style="fill:white;"/>
            </g>
        </g>
        <g transform="matrix(1,0,0,9.20507,0,1353.83)">
            <g transform="matrix(0.593132,0,0,0.0644354,353.542,40.3359)">
                <circle cx="1240.15" cy="640.422" r="5.682" style="fill:white;"/>
            </g>
        </g>
        <g transform="matrix(1,0,0,9.20507,0,1353.83)">
            <g transform="matrix(0.593132,0,0,0.0644354,888.29,56.1097)">
                <circle cx="1240.15" cy="640.422" r="5.682" style="fill:white;"/>
            </g>
        </g>
        <g transform="matrix(1,0,0,9.20507,0,1353.83)">
            <g transform="matrix(0.593132,0,0,0.0644354,-48.7853,1.21969)">
                <circle cx="1240.15" cy="640.422" r="5.682" style="fill:white;"/>
            </g>
        </g>
        <g transform="matrix(1,0,0,9.20507,0,1353.83)">
            <g transform="matrix(0.593132,0,0,0.0644354,458.268,-31.1668)">
                <circle cx="1240.15" cy="640.422" r="5.682" style="fill:white;"/>
            </g>
        </g>
        <g transform="matrix(1,0,0,9.20507,0,1353.83)">
            <g transform="matrix(1,0,0,0.108636,1476.98,5.02184)">
                <rect x="0" y="0" width="24" height="24" style="fill:none;fill-rule:nonzero;"/>
            </g>
        </g>
    </g>
    <defs>
        <radialGradient id="_Radial1" cx="0" cy="0" r="1" gradientUnits="userSpaceOnUse" gradientTransform="matrix(-675.541,218.696,-218.696,-675.541,2111.13,265.009)"><stop offset="0" style="stop-color:rgb(106,106,106);stop-opacity:1"/><stop offset="1" style="stop-color:rgb(15,15,15);stop-opacity:1"/></radialGradient>
        <radialGradient id="_Radial2" cx="0" cy="0" r="1" gradientUnits="userSpaceOnUse" gradientTransform="matrix(-543.782,421.302,-421.302,-543.782,1839.34,258.449)"><stop offset="0" style="stop-color:rgb(255,93,81);stop-opacity:1"/><stop offset="0.85" style="stop-color:rgb(37,7,207);stop-opacity:1"/><stop offset="1" style="stop-color:rgb(5,0,56);stop-opacity:1"/></radialGradient>
        <radialGradient id="_Radial3" cx="0" cy="0" r="1" gradientUnits="userSpaceOnUse" gradientTransform="matrix(-497.736,616.429,-616.429,-497.736,1908.21,146.486)"><stop offset="0" style="stop-color:rgb(106,106,106);stop-opacity:1"/><stop offset="0.47" style="stop-color:rgb(81,81,81);stop-opacity:1"/><stop offset="1" style="stop-color:rgb(15,15,15);stop-opacity:1"/></radialGradient>
        <radialGradient id="_Radial4" cx="0" cy="0" r="1" gradientUnits="userSpaceOnUse" gradientTransform="matrix(-675.541,218.696,-218.696,-675.541,2111.13,265.009)"><stop offset="0" style="stop-color:rgb(106,106,106);stop-opacity:1"/><stop offset="1" style="stop-color:rgb(15,15,15);stop-opacity:1"/></radialGradient>
        <radialGradient id="_Radial5" cx="0" cy="0" r="1" gradientUnits="userSpaceOnUse" gradientTransform="matrix(-925.203,1.13305e-13,-1.13305e-13,-925.203,2134.72,411.131)"><stop offset="0" style="stop-color:rgb(106,106,106);stop-opacity:1"/><stop offset="1" style="stop-color:rgb(15,15,15);stop-opacity:1"/></radialGradient>
    </defs>
</svg>
