<?xml version="1.0" encoding="UTF-8" standalone="no"?><!DOCTYPE svg PUBLIC "-//W3C//DTD SVG 1.1//EN" "http://www.w3.org/Graphics/SVG/1.1/DTD/svg11.dtd"><svg width="100%" height="100%" viewBox="0 0 640 206" version="1.1" xmlns="http://www.w3.org/2000/svg" xmlns:xlink="http://www.w3.org/1999/xlink" xml:space="preserve" xmlns:serif="http://www.serif.com/" style="fill-rule:evenodd;clip-rule:evenodd;stroke-linejoin:round;stroke-miterlimit:2;"><rect id="Plan-de-travail1" serif:id="Plan de travail1" x="0" y="0" width="640" height="206" style="fill:none;"/><path d="M259.494,145.574c-7.495,0 -14.378,-1.771 -20.65,-5.313c-6.272,-3.543 -11.243,-8.432 -14.913,-14.67c-3.672,-6.315 -5.507,-13.438 -5.507,-21.37c-0,-7.855 1.835,-14.9 5.507,-21.139c3.67,-6.314 8.641,-11.243 14.913,-14.785c6.272,-3.543 13.155,-5.314 20.65,-5.314c7.571,0 14.454,1.771 20.65,5.314c6.27,3.542 11.203,8.471 14.798,14.785c3.671,6.239 5.506,13.284 5.506,21.139c0,7.932 -1.835,15.055 -5.506,21.37c-3.595,6.238 -8.528,11.127 -14.798,14.67c-6.272,3.542 -13.155,5.313 -20.65,5.313Zm-0,-14.439c4.818,0 9.063,-1.077 12.734,-3.234c3.67,-2.232 6.539,-5.391 8.603,-9.472c2.066,-4.081 3.099,-8.817 3.099,-14.208c-0,-5.39 -1.033,-10.088 -3.099,-14.092c-2.064,-4.082 -4.933,-7.201 -8.603,-9.357c-3.671,-2.156 -7.916,-3.234 -12.734,-3.234c-4.819,-0 -9.101,1.078 -12.849,3.234c-3.671,2.156 -6.54,5.275 -8.604,9.357c-2.066,4.004 -3.097,8.702 -3.097,14.092c-0,5.391 1.031,10.127 3.097,14.208c2.064,4.081 4.933,7.24 8.604,9.472c3.748,2.157 8.03,3.234 12.849,3.234Z" style="fill:#fff;fill-rule:nonzero;"/><path d="M341.88,79.847c7.572,0 13.69,2.427 18.356,7.278c4.665,4.774 6.997,11.474 6.997,20.099l0,37.542l-16.06,0l0,-35.347c0,-5.083 -1.262,-8.971 -3.785,-11.667c-2.525,-2.772 -5.966,-4.158 -10.326,-4.158c-4.435,0 -7.954,1.386 -10.554,4.158c-2.523,2.696 -3.786,6.584 -3.786,11.667l-0,35.347l-16.06,0l-0,-63.994l16.06,0l-0,7.971c2.142,-2.772 4.857,-4.93 8.146,-6.469c3.365,-1.617 7.036,-2.427 11.012,-2.427Z" style="fill:#fff;fill-rule:nonzero;"/><path d="M436.999,111.383c-0,2.31 -0.153,4.389 -0.459,6.238l-46.461,-0c0.382,4.62 1.988,8.239 4.818,10.858c2.829,2.618 6.309,3.928 10.439,3.928c5.966,-0 10.21,-2.58 12.734,-7.741l17.323,0c-1.836,6.162 -5.353,11.244 -10.554,15.249c-5.201,3.926 -11.587,5.89 -19.159,5.89c-6.118,0 -11.625,-1.347 -16.52,-4.042c-4.817,-2.772 -8.603,-6.662 -11.357,-11.667c-2.677,-5.005 -4.014,-10.782 -4.014,-17.327c-0,-6.622 1.337,-12.437 4.014,-17.442c2.677,-5.005 6.424,-8.856 11.243,-11.552c4.818,-2.695 10.362,-4.042 16.634,-4.042c6.042,0 11.434,1.308 16.176,3.927c4.818,2.618 8.528,6.353 11.127,11.204c2.678,4.775 4.016,10.282 4.016,16.519Zm-16.635,-4.62c-0.076,-4.159 -1.567,-7.47 -4.474,-9.935c-2.906,-2.542 -6.462,-3.812 -10.668,-3.812c-3.978,0 -7.343,1.232 -10.096,3.697c-2.677,2.387 -4.321,5.737 -4.933,10.05l30.171,-0Z" style="fill:#fff;fill-rule:nonzero;"/><path d="M490.481,144.766l-29.14,-35.925l-0,35.925l-16.061,0l0,-80.628l16.061,-0l-0,36.156l29.14,-36.156l19.387,-0l-33.04,39.967l33.957,40.661l-20.304,0Z" style="fill:#fff;fill-rule:nonzero;"/><path d="M567.811,111.383c0,2.31 -0.152,4.389 -0.459,6.238l-46.461,-0c0.382,4.62 1.988,8.239 4.818,10.858c2.83,2.618 6.309,3.928 10.439,3.928c5.966,-0 10.21,-2.58 12.734,-7.741l17.323,0c-1.835,6.162 -5.353,11.244 -10.554,15.249c-5.201,3.926 -11.587,5.89 -19.159,5.89c-6.118,0 -11.625,-1.347 -16.52,-4.042c-4.817,-2.772 -8.603,-6.662 -11.357,-11.667c-2.676,-5.005 -4.014,-10.782 -4.014,-17.327c-0,-6.622 1.338,-12.437 4.014,-17.442c2.677,-5.005 6.425,-8.856 11.243,-11.552c4.819,-2.695 10.364,-4.042 16.634,-4.042c6.042,0 11.435,1.308 16.176,3.927c4.819,2.618 8.528,6.353 11.129,11.204c2.676,4.775 4.014,10.282 4.014,16.519Zm-16.634,-4.62c-0.076,-4.159 -1.568,-7.47 -4.475,-9.935c-2.905,-2.542 -6.462,-3.812 -10.668,-3.812c-3.978,0 -7.342,1.232 -10.096,3.697c-2.677,2.387 -4.32,5.737 -4.933,10.05l30.172,-0Z" style="fill:#fff;fill-rule:nonzero;"/><path d="M634.6,80.772l-39.349,94.259l-17.093,-0l13.766,-31.882l-25.467,-62.377l18.01,0l16.406,44.704l16.634,-44.704l17.093,0Z" style="fill:#fff;fill-rule:nonzero;"/><path d="M96.467,194.467c63.146,0 91.468,-28.322 91.468,-91.467c-0,-63.145 -28.322,-91.467 -91.468,-91.467c-63.145,-0 -91.467,28.322 -91.467,91.467c0,63.145 28.322,91.467 91.467,91.467Zm-17.182,-144.148l25.446,-0l0,41.931l-15.777,0l0,-28.434l-14.133,0l4.464,-13.497Zm17.182,105.362c16.027,0 29.021,-12.992 29.021,-29.019c-0,-16.027 -12.994,-29.019 -29.021,-29.019c-16.027,-0 -29.019,12.992 -29.019,29.019c0,16.027 12.992,29.019 29.019,29.019Zm0,-13.173c8.752,-0 15.846,-7.094 15.846,-15.846c-0,-8.75 -7.094,-15.845 -15.846,-15.845c-8.75,-0 -15.844,7.095 -15.844,15.845c0,8.752 7.094,15.846 15.844,15.846Z" style="fill:#fff;"/></svg>