<svg width="748" height="118" viewBox="0 0 748 118" fill="none" xmlns="http://www.w3.org/2000/svg">
<path d="M123.516 0C148.713 0 169.134 20.4209 169.134 45.6184C169.134 70.8159 148.713 91.07 123.516 91.07H45.4516C20.2541 91.07 0 70.8159 0 45.6184C0 20.4209 20.2541 0 45.4516 0H123.516ZM569.813 2.96709C593.034 2.96709 609.335 20.5877 609.335 45.952C609.335 69.6685 593.524 88.113 570.141 88.113C559.436 88.113 549.554 83.8317 542.144 76.4215V117.759H527.652V3.791H540.496L541.815 14.1682C548.24 6.75304 558.116 2.96709 569.813 2.96709ZM486.153 2.96709C495.539 2.96709 517.113 6.42448 517.113 39.0322V87.284H502.788V39.8561C502.788 28.6549 499.492 15.811 484.015 15.811C471.004 15.811 462.937 25.6929 462.937 42.4895V87.284H448.607V39.8561C448.607 24.3736 442.182 15.811 430.162 15.811C417.319 15.811 409.084 26.1882 409.084 42.9849V87.284H394.426V3.791H407.437L408.261 12.849C413.861 7.24839 421.928 2.96709 432.306 2.96709C442.683 2.96709 451.741 8.07231 457.665 16.6349C464.575 7.57695 473.966 2.96709 486.153 2.96709ZM377.786 73.1208C377.786 74.1116 378.61 74.2733 379.434 74.2733H387.172V87.284H379.434C372.185 87.284 367.08 83.8266 364.942 77.7307C357.532 85.1408 348.969 88.1079 336.449 88.1079C321.79 88.1079 306.803 79.8739 306.803 62.7487C306.803 45.6234 319.319 36.0701 340.397 36.0701H363.122V32.1174C363.122 21.4116 356.208 15.3207 343.854 15.3207C333.477 15.3207 325.738 19.602 324.09 27.5075L323.762 29.1553H309.103L309.76 26.1933C313.056 11.5348 325.733 2.97215 344.673 2.97215C365.751 2.97215 377.776 14.1733 377.776 32.9463V73.1208H377.786ZM656.93 2.96709C679.16 2.96709 694.971 18.7781 694.971 41.6656C694.971 43.642 694.971 46.7709 694.643 48.5804H632.39V48.909C632.718 64.8817 642.6 75.5875 656.435 75.5875C666.812 75.5875 676.694 69.9869 679.16 60.6004L679.656 58.7909H694.314L693.49 62.2482C689.538 78.7164 675.375 88.1029 657.754 88.1029C633.214 88.1029 616.912 70.4823 616.912 45.4516C616.912 20.0923 633.214 2.96709 656.93 2.96709ZM91.07 45.6184C91.07 63.7343 105.4 77.8975 123.511 77.8975C141.622 77.8975 155.952 63.7343 155.952 45.6184C155.952 27.5025 141.46 13.1775 123.511 13.1775C105.4 13.1775 91.07 27.6693 91.07 45.6184ZM218.867 2.96709C228.749 2.96709 251.642 6.75304 251.642 40.8468V87.2891H236.983V41.6707C236.983 29.9792 233.526 15.8161 216.395 15.8161C201.247 15.8161 192.189 27.0121 192.189 45.4566V87.2891H178.025V3.791H190.541L191.365 12.849C198.279 6.42448 208.161 2.96709 218.867 2.96709ZM594.348 45.4566C594.348 27.5075 583.971 15.3207 568.494 15.3207C553.016 15.3207 542.144 27.8361 542.144 45.4566C542.144 63.0772 552.521 75.5926 567.998 75.5926C583.476 75.5926 594.348 63.5726 594.348 45.4566ZM276.01 12.849C280.291 7.24839 286.221 3.791 293.135 3.791H306.475V17.4588H293.631C281.939 17.4588 276.834 31.7838 276.834 44.6327V87.284H262.176V3.791H275.186L276.01 12.849ZM78.0592 45.6184C78.0592 32.9362 83.1645 21.4116 91.3985 13.1775H84.4837C66.3678 13.1775 52.0429 27.6693 52.0429 45.6184C52.0429 63.5675 65.7107 77.2404 83.1695 77.8975H91.4036C83.1645 69.6634 78.0592 58.3005 78.0592 45.6184ZM13.0107 45.6184C13.0107 63.5675 27.3407 77.8975 45.4516 77.8975H52.3664C44.1323 69.6634 39.0271 58.3005 39.0271 45.6184C39.0271 32.9362 44.1323 21.4116 52.3664 13.1775H45.4516C27.3356 13.1775 13.0107 27.6693 13.0107 45.6184ZM339.087 76.0879C353.746 76.0879 363.132 66.5346 363.132 51.5475V47.5948H338.592C327.391 47.5948 321.467 52.8668 321.467 62.2533C321.467 74.2733 332.663 76.0879 339.087 76.0879ZM679.656 36.3987C677.518 23.5548 668.95 15.3207 656.93 15.3207C644.91 15.3207 635.852 24.0501 633.214 36.3987H679.656ZM717.536 12.849C721.817 7.24839 727.746 3.791 734.661 3.791H748V17.4588H735.156C723.465 17.4588 718.359 31.7838 718.359 44.6327V87.284H703.701V3.791H716.712L717.536 12.849Z" fill="white"/>
</svg>
