<?xml version="1.0" encoding="UTF-8" standalone="no"?><!DOCTYPE svg PUBLIC "-//W3C//DTD SVG 1.1//EN" "http://www.w3.org/Graphics/SVG/1.1/DTD/svg11.dtd"><svg width="100%" height="100%" viewBox="0 0 864 193" version="1.1" xmlns="http://www.w3.org/2000/svg" xmlns:xlink="http://www.w3.org/1999/xlink" xml:space="preserve" xmlns:serif="http://www.serif.com/" style="fill-rule:evenodd;clip-rule:evenodd;stroke-linejoin:round;stroke-miterlimit:2;"><path d="M313.022,162.528c-15.302,0 -32.17,-5.182 -50.604,-15.545l0,-22.414c17.35,11.689 34.278,17.533 50.785,17.533c7.59,0 13.614,-1.386 18.072,-4.157c4.579,-2.892 6.868,-6.869 6.868,-11.93c-0,-4.579 -2.108,-8.195 -6.325,-10.846c-4.217,-2.771 -10.724,-5.242 -19.519,-7.411c-15.784,-4.097 -26.507,-7.592 -32.17,-10.484c-12.53,-6.386 -18.795,-15.967 -18.795,-28.74c0,-10.966 4.638,-19.643 13.916,-26.029c9.277,-6.387 20.723,-9.58 34.338,-9.58c16.627,-0 31.627,4.82 45.001,14.46l0,22.414c-15.301,-11.086 -30.302,-16.63 -45.001,-16.63c-7.711,0 -14.097,1.446 -19.157,4.338c-5.061,2.893 -7.591,6.93 -7.591,12.111c-0,3.133 1.446,5.845 4.338,8.134c2.891,2.169 6.024,3.857 9.398,5.062c3.494,1.084 8.675,2.47 15.542,4.157c7.229,1.808 13.193,3.555 17.892,5.242c4.82,1.687 9.699,4.037 14.639,7.05c4.94,2.892 8.615,6.567 11.025,11.026c2.53,4.459 3.795,9.761 3.795,15.907c-0,11.448 -4.398,20.365 -13.193,26.752c-8.675,6.386 -19.76,9.58 -33.254,9.58Z" style="fill:#fff;fill-rule:nonzero;"/><path d="M402.982,162.528c-4.217,0 -8.313,-0.482 -12.289,-1.446c-3.856,-0.964 -7.591,-2.471 -11.206,-4.519c-3.614,-2.169 -6.566,-5.242 -8.855,-9.219c-2.29,-4.097 -3.434,-8.857 -3.434,-14.28c-0.121,-9.761 3.253,-17.172 10.121,-22.233c6.867,-5.182 16.687,-7.772 29.458,-7.772l29.097,0l0,-5.785c0,-5.302 -2.168,-9.279 -6.506,-11.93c-4.337,-2.771 -9.94,-4.157 -16.807,-4.157c-13.133,-0 -20.784,4.338 -22.953,13.014l-19.88,0.362c0.241,-9.52 4.398,-17.052 12.47,-22.595c8.193,-5.543 18.194,-8.315 30.001,-8.315c11.928,0 22.109,2.892 30.543,8.677c8.555,5.784 12.832,13.255 12.832,22.414l0,66.338l-19.7,0l0,-14.461c-2.771,3.856 -6.988,7.471 -12.65,10.846c-5.543,3.374 -12.29,5.061 -20.242,5.061Zm1.627,-17.172c7.952,0 15.12,-2.712 21.506,-8.134c6.506,-5.423 9.759,-11.81 9.759,-19.161l-25.482,0c-7.832,0 -13.675,1.507 -17.531,4.519c-3.735,2.892 -5.361,6.568 -4.879,11.027c0.361,4.097 2.168,7.109 5.421,9.037c3.254,1.808 6.989,2.712 11.206,2.712Z" style="fill:#fff;fill-rule:nonzero;"/><path d="M471.472,161.082l-0.361,-77.907l-0,-21.148c-0,-11.449 4.699,-20.065 14.096,-25.849c9.398,-5.784 21.808,-6.748 37.23,-2.892l-0.18,15.907c-10.001,-2.651 -17.591,-2.651 -22.772,-0c-5.06,2.53 -7.591,6.869 -7.591,13.014l-0,3.073l29.64,0l-0,17.895l-29.64,0l0.181,77.907l-20.603,0Z" style="fill:#fff;fill-rule:nonzero;"/><path d="M576.176,162.528c-13.735,0 -25.362,-4.82 -34.88,-14.461c-9.519,-9.761 -14.278,-21.45 -14.278,-35.067c0,-13.737 4.82,-25.366 14.458,-34.886c9.639,-9.64 21.206,-14.461 34.7,-14.461c11.928,0 22.41,3.917 31.447,11.75c9.157,7.712 14.759,17.413 16.808,29.102c1.204,5.663 1.265,11.086 0.18,16.268l-76.99,0c1.205,7.11 4.458,12.773 9.759,16.991c5.302,4.097 11.567,6.146 18.796,6.146c11.085,0 19.941,-3.917 26.567,-11.749l18.645,0c0,0 -2.155,12.664 -18.645,23.498c-8.434,4.579 -17.289,6.869 -26.567,6.869Zm-28.555,-57.843l56.568,0c-1.205,-6.386 -4.398,-11.749 -9.579,-16.087c-5.06,-4.338 -11.265,-6.507 -18.615,-6.507c-7.349,-0 -13.614,2.229 -18.795,6.688c-5.181,4.338 -8.374,9.64 -9.579,15.906Z" style="fill:#fff;fill-rule:nonzero;"/><path d="M775.534,162.528c-4.217,0 -8.313,-0.482 -12.289,-1.446c-3.856,-0.964 -7.591,-2.471 -11.206,-4.519c-3.614,-2.169 -6.566,-5.242 -8.855,-9.219c-2.289,-4.097 -3.434,-8.857 -3.434,-14.28c-0.12,-9.761 3.253,-17.172 10.121,-22.233c6.867,-5.182 16.687,-7.772 29.458,-7.772l29.098,0l0,-5.785c0,-5.302 -2.169,-9.279 -6.507,-11.93c-4.337,-2.771 -9.94,-4.157 -16.807,-4.157c-13.133,-0 -20.784,4.338 -22.953,13.014l-19.88,0.362c0.241,-9.52 4.398,-17.052 12.47,-22.595c8.193,-5.543 18.194,-8.315 30.001,-8.315c11.928,0 22.109,2.892 30.543,8.677c8.555,5.784 12.832,13.255 12.832,22.414l0,66.338l-19.699,0l0,-14.461c-2.772,3.856 -6.989,7.471 -12.651,10.846c-5.543,3.374 -12.29,5.061 -20.242,5.061Zm1.627,-17.172c7.952,0 15.12,-2.712 21.506,-8.134c6.506,-5.423 9.76,-11.81 9.76,-19.161l-25.483,0c-7.832,0 -13.675,1.507 -17.531,4.519c-3.735,2.892 -5.361,6.568 -4.879,11.027c0.361,4.097 2.168,7.109 5.422,9.037c3.253,1.808 6.988,2.712 11.205,2.712Z" style="fill:#fff;fill-rule:nonzero;"/><rect x="843.217" y="36.178" width="20.783" height="124.904" style="fill:#fff;fill-rule:nonzero;"/><path d="M636.69,36.178l54.941,0c12.169,0 22.29,4.158 30.363,12.472c8.072,8.195 12.108,18.136 12.108,29.825c-0,11.81 -4.036,21.752 -12.108,29.825c-7.952,7.954 -18.073,11.991 -30.363,12.111l-33.434,0.181l-0,40.49l-21.507,0l-0,-124.904Zm53.495,64.892l-31.988,0.181l-0,-45.551l31.988,-0.181c7.109,0 12.712,2.109 16.808,6.327c4.217,4.217 6.326,9.52 6.326,15.906c-0,6.508 -2.109,12.051 -6.326,16.63c-4.217,4.459 -9.819,6.688 -16.808,6.688Z" style="fill:#fff;"/><path d="M84.172,0.75c-5.843,-0 -11.448,2.321 -15.579,6.453l-64.906,64.907c-2.458,2.458 -3.687,5.68 -3.687,8.902c0,3.222 1.229,6.444 3.688,8.903l42.534,42.534l-0,-75.301c-0,-5.62 4.52,-10.175 10.139,-10.175l89.415,-0l46.222,-46.222l-107.826,-0.001Z" style="fill:#fff;fill-rule:nonzero;"/><path d="M46.224,146.527l89.379,-0c5.62,-0 10.175,-4.555 10.175,-10.175l-0,-75.301l42.535,42.534c2.458,2.459 3.687,5.681 3.687,8.903c-0,3.222 -1.229,6.444 -3.687,8.902l-64.905,64.907c-4.132,4.132 -9.736,6.453 -15.58,6.453l-107.826,-0.001l46.222,-46.222Z" style="fill:#fff;fill-rule:nonzero;"/></svg>