<svg width="864" height="193" viewBox="0 0 864 193" fill="none" xmlns="http://www.w3.org/2000/svg">
<path d="M313.022 162.528C297.72 162.528 280.852 157.346 262.418 146.983V124.569C279.768 136.258 296.696 142.102 313.203 142.102C320.793 142.102 326.817 140.716 331.275 137.945C335.854 135.053 338.143 131.076 338.143 126.015C338.143 121.436 336.035 117.82 331.818 115.169C327.601 112.398 321.094 109.927 312.299 107.758C296.515 103.661 285.792 100.166 280.129 97.2742C267.599 90.8875 261.334 81.3073 261.334 68.5338C261.334 57.5678 265.972 48.8914 275.25 42.5046C284.527 36.1179 295.973 32.9245 309.588 32.9245C326.215 32.9245 341.215 37.7447 354.589 47.3851V69.7991C339.288 58.7126 324.287 53.1693 309.588 53.1693C301.877 53.1693 295.491 54.6154 290.431 57.5075C285.37 60.3997 282.84 64.4366 282.84 69.6183C282.84 72.7514 284.286 75.4628 287.178 77.7524C290.069 79.9215 293.202 81.6086 296.576 82.8136C300.07 83.8982 305.251 85.284 312.118 86.9711C319.347 88.7786 325.311 90.526 330.01 92.213C334.83 93.9001 339.709 96.25 344.649 99.2626C349.589 102.155 353.264 105.83 355.674 110.289C358.204 114.748 359.469 120.05 359.469 126.196C359.469 137.644 355.071 146.561 346.276 152.948C337.601 159.334 326.516 162.528 313.022 162.528Z" fill="#F7F6FF"/>
<path d="M402.982 162.528C398.765 162.528 394.669 162.046 390.693 161.082C386.837 160.118 383.102 158.611 379.487 156.563C375.873 154.394 372.921 151.321 370.632 147.344C368.342 143.247 367.198 138.487 367.198 133.064C367.077 123.303 370.451 115.892 377.319 110.831C384.186 105.649 394.006 103.059 406.777 103.059H435.874V97.2742C435.874 91.972 433.706 87.9953 429.368 85.3442C425.031 82.5726 419.428 81.1868 412.561 81.1868C399.428 81.1868 391.777 85.525 389.608 94.2014L369.728 94.5629C369.969 85.043 374.126 77.5114 382.198 71.9681C390.391 66.4249 400.392 63.6533 412.199 63.6533C424.127 63.6533 434.308 66.5454 442.742 72.3297C451.297 78.1139 455.574 85.5853 455.574 94.7436V161.082H435.874V146.621C433.103 150.477 428.886 154.092 423.224 157.467C417.681 160.841 410.934 162.528 402.982 162.528ZM404.609 145.356C412.561 145.356 419.729 142.644 426.115 137.222C432.621 131.799 435.874 125.412 435.874 118.061H410.392C402.56 118.061 396.717 119.568 392.861 122.58C389.126 125.472 387.5 129.148 387.982 133.607C388.343 137.704 390.15 140.716 393.403 142.644C396.657 144.452 400.392 145.356 404.609 145.356Z" fill="#F7F6FF"/>
<path d="M471.472 161.082L471.111 83.1751V62.0265C471.111 50.5785 475.81 41.9624 485.207 36.1781C494.605 30.3938 507.015 29.4298 522.437 33.286L522.257 49.1927C512.256 46.5416 504.666 46.5416 499.485 49.1927C494.425 51.7233 491.894 56.0615 491.894 62.2072V65.2801H521.534V83.1751H491.894L492.075 161.082H471.472Z" fill="#F7F6FF"/>
<path d="M576.176 162.528C562.441 162.528 550.814 157.708 541.296 148.067C531.777 138.306 527.018 126.617 527.018 113C527.018 99.2626 531.838 87.6338 541.476 78.1139C551.115 68.4735 562.682 63.6533 576.176 63.6533C588.104 63.6533 598.586 67.5697 607.623 75.4025C616.78 83.1149 622.382 92.8156 624.431 104.505C625.635 110.168 625.696 115.591 624.611 120.773H547.621C548.826 127.883 552.079 133.546 557.38 137.764C562.682 141.861 568.947 143.91 576.176 143.91C587.261 143.91 596.117 139.993 602.743 132.161H621.388C621.388 132.161 619.233 144.825 602.743 155.659C594.309 160.238 585.454 162.528 576.176 162.528ZM547.621 104.685H604.189C602.984 98.2985 599.791 92.9361 594.61 88.5979C589.55 84.2597 583.345 82.0906 575.995 82.0906C568.646 82.0906 562.381 84.3199 557.2 88.7786C552.019 93.1168 548.826 98.4191 547.621 104.685Z" fill="#F7F6FF"/>
<path d="M775.534 162.528C771.317 162.528 767.221 162.046 763.245 161.082C759.389 160.118 755.654 158.611 752.039 156.563C748.425 154.394 745.473 151.321 743.184 147.344C740.895 143.247 739.75 138.487 739.75 133.064C739.63 123.303 743.003 115.892 749.871 110.831C756.738 105.649 766.558 103.059 779.329 103.059H808.427V97.2742C808.427 91.972 806.258 87.9953 801.92 85.3442C797.583 82.5726 791.98 81.1868 785.113 81.1868C771.98 81.1868 764.329 85.525 762.16 94.2014L742.28 94.5629C742.521 85.043 746.678 77.5114 754.75 71.9681C762.943 66.4249 772.944 63.6533 784.751 63.6533C796.679 63.6533 806.86 66.5454 815.294 72.3297C823.849 78.1139 828.126 85.5853 828.126 94.7436V161.082H808.427V146.621C805.655 150.477 801.438 154.092 795.776 157.467C790.233 160.841 783.486 162.528 775.534 162.528ZM777.161 145.356C785.113 145.356 792.281 142.644 798.667 137.222C805.173 131.799 808.427 125.412 808.427 118.061H782.944C775.112 118.061 769.269 119.568 765.413 122.58C761.678 125.472 760.052 129.148 760.534 133.607C760.895 137.704 762.702 140.716 765.956 142.644C769.209 144.452 772.944 145.356 777.161 145.356Z" fill="#F7F6FF"/>
<path d="M843.217 161.082V36.1781H864V161.082H843.217Z" fill="#F7F6FF"/>
<path fill-rule="evenodd" clip-rule="evenodd" d="M636.69 36.1781H691.631C703.8 36.1781 713.921 40.3355 721.994 48.6504C730.066 56.8447 734.102 66.7864 734.102 78.4754C734.102 90.2849 730.066 100.227 721.994 108.3C714.042 116.254 703.921 120.291 691.631 120.411L658.197 120.592V161.082H636.69V36.1781ZM690.185 101.07L658.197 101.251V55.7L690.185 55.5192C697.294 55.5192 702.897 57.628 706.993 61.8457C711.21 66.0634 713.319 71.3656 713.319 77.7524C713.319 84.2597 711.21 89.8029 706.993 94.3821C702.776 98.8408 697.174 101.07 690.185 101.07Z" fill="#F7F6FF"/>
<path d="M84.1721 0.75C78.3286 0.749999 72.7244 3.07136 68.5925 7.20339L3.68745 72.1096C1.22912 74.568 -2.01265e-05 77.7901 2.51021e-10 81.0122C2.0127e-05 84.2343 1.2292 87.4564 3.68752 89.9147L46.2218 132.449V57.1478C46.2218 51.5282 50.7417 46.9726 56.3613 46.9726C80.1029 46.9726 137.894 46.9726 145.776 46.9726L191.998 0.750655L84.1721 0.75Z" fill="#F7F6FF"/>
<path d="M46.2238 146.527H135.603C141.223 146.527 145.778 141.972 145.778 136.352V61.0507L188.313 103.585C190.771 106.044 192 109.266 192 112.488C192 115.71 190.771 118.932 188.313 121.39L123.408 186.297C119.276 190.429 113.672 192.75 107.828 192.75L0.00201613 192.749L46.2238 146.527Z" fill="#F7F6FF"/>
</svg>
