<?xml version="1.0" encoding="UTF-8" standalone="no"?>
<!DOCTYPE svg PUBLIC "-//W3C//DTD SVG 1.1//EN" "http://www.w3.org/Graphics/SVG/1.1/DTD/svg11.dtd">
<svg width="100%" height="100%" viewBox="0 0 38 42" version="1.1" xmlns="http://www.w3.org/2000/svg" xmlns:xlink="http://www.w3.org/1999/xlink" xml:space="preserve" style="fill-rule:evenodd;clip-rule:evenodd;stroke-linejoin:round;stroke-miterlimit:2;">
    <g transform="matrix(1,0,0,1,-1072.38,-4437.55)">
        <g transform="matrix(1,0,0,9.20507,0,1330.35)">
            <g transform="matrix(1.99409,0,0,0.216629,1067.45,337.3)">
                <path d="M20.083,15.2L21.285,15.921C21.436,16.011 21.528,16.174 21.528,16.35C21.528,16.526 21.436,16.689 21.285,16.779L12.515,22.041C12.199,22.231 11.801,22.231 11.485,22.041L2.715,16.779C2.564,16.689 2.472,16.526 2.472,16.35C2.472,16.174 2.564,16.011 2.715,15.921L3.917,15.2L12,20.05L20.083,15.2ZM20.083,10.5L21.285,11.221C21.436,11.311 21.528,11.474 21.528,11.65C21.528,11.826 21.436,11.989 21.285,12.079L12,17.65L2.715,12.079C2.564,11.989 2.472,11.826 2.472,11.65C2.472,11.474 2.564,11.311 2.715,11.221L3.917,10.5L12,15.35L20.083,10.5ZM12.514,1.309L21.285,6.571C21.436,6.661 21.528,6.824 21.528,7C21.528,7.176 21.436,7.339 21.285,7.429L12,13L2.715,7.429C2.564,7.339 2.472,7.176 2.472,7C2.472,6.824 2.564,6.661 2.715,6.571L11.485,1.309C11.801,1.119 12.199,1.119 12.515,1.309L12.514,1.309ZM12,3.332L5.887,7L12,10.668L18.113,7L12,3.332Z" style="fill-rule:nonzero;"/>
            </g>
        </g>
    </g>
</svg>
