<?xml version="1.0" encoding="UTF-8" standalone="no"?><!DOCTYPE svg PUBLIC "-//W3C//DTD SVG 1.1//EN" "http://www.w3.org/Graphics/SVG/1.1/DTD/svg11.dtd"><svg width="100%" height="100%" viewBox="0 0 87 20" version="1.1" xmlns="http://www.w3.org/2000/svg" xmlns:xlink="http://www.w3.org/1999/xlink" xml:space="preserve" xmlns:serif="http://www.serif.com/" style="fill-rule:evenodd;clip-rule:evenodd;stroke-linejoin:round;stroke-miterlimit:2;"><path d="M3.414,0.82l7.576,-0c1.195,-0 1.792,-0 2.249,0.233c0.402,0.203 0.727,0.53 0.932,0.931c0.233,0.457 0.233,1.054 0.233,2.249l0,1.267l-14.404,-0l-0,-1.267c-0,-1.195 -0,-1.792 0.233,-2.249c0.203,-0.401 0.53,-0.727 0.932,-0.931c0.457,-0.233 1.054,-0.233 2.249,-0.233Zm10.99,9l-4.802,0l0.002,0.665l0,8.695l1.386,0c1.195,0 1.792,0 2.25,-0.233c0.4,-0.203 0.726,-0.53 0.931,-0.931c0.233,-0.457 0.233,-1.054 0.233,-2.25l-0,-5.946Zm-9.604,0l-4.8,0l-0,5.947c-0,1.195 -0,1.792 0.233,2.248c0.205,0.402 0.53,0.729 0.932,0.932c0.457,0.233 1.054,0.233 2.249,0.233l1.386,0l-0,-9.36Zm18.954,2.698c-0,1.832 1,2.868 2.925,2.868c0.685,0 1.166,-0.11 1.518,-0.24l-0,-1.777c-0.315,0.13 -0.648,0.186 -1.093,0.186c-0.703,0 -1.11,-0.39 -1.11,-1.24l-0,-5.089l2.128,0l-0,-1.684l-2.128,0l-0,-2.128l-2.24,0l0,2.128l-1.294,0l-0,1.684l1.295,0l0,5.292l-0.001,0Zm11.673,-0.684c0,1.24 -1.018,1.961 -2.388,1.961c-1.11,0 -1.555,-0.537 -1.555,-1.35c0,-1.185 1.092,-1.574 2.795,-1.574l1.148,0l0,0.963Zm-6.164,0.703c-0,2.017 1.462,2.868 3.24,2.868c1.48,0 2.331,-0.537 2.96,-1.37l-0,1.185l2.203,0l-0,-6.347c-0,-2.646 -1.702,-3.534 -3.868,-3.534c-2.166,-0 -3.96,0.943 -4.146,3.2l2.165,-0c0.112,-0.961 0.685,-1.516 1.851,-1.516c1.315,-0 1.759,0.647 1.759,1.943l-0,0.5l-1.203,-0c-2.777,-0 -4.96,0.813 -4.96,3.07l-0.001,0.001Zm10.248,2.683l-0,-9.678l2.24,0l-0,1.536c0.463,-0.944 1.536,-1.74 3.128,-1.74c1.943,0 3.313,1.13 3.313,3.794l-0,6.088l-2.24,0l-0,-5.884c-0,-1.462 -0.592,-2.128 -1.924,-2.128c-1.26,0 -2.277,0.777 -2.277,2.313l-0,5.699l-2.24,0Zm17.72,-5.07c-0,1.85 -1.128,2.96 -2.683,2.96c-1.444,0 -2.554,-1.11 -2.554,-2.905l-0,-0.148c-0,-1.758 0.962,-2.96 2.628,-2.96c1.61,0 2.61,1.091 2.61,2.923l-0,0.13l-0.001,0Zm-7.421,5.403c0.259,1.85 1.628,3.22 4.664,3.22c2.998,0 4.905,-1.425 4.923,-4.275l-0,-8.956l-2.24,0l-0,1.48c-0.555,-0.962 -1.517,-1.683 -3.109,-1.683c-2.498,0 -4.35,2.035 -4.35,4.755l-0,0.13c-0,2.794 1.87,4.607 4.295,4.607c1.425,0 2.628,-0.87 3.165,-1.795l-0,1.425c-0,1.74 -0.963,2.61 -2.703,2.61c-1.462,0 -2.202,-0.556 -2.387,-1.518l-2.258,0Zm16.099,-0.148c-2.85,-0 -4.905,-1.869 -4.905,-4.922l0,-0.148c0,-2.998 2.055,-4.996 4.812,-4.996c2.406,-0 4.572,1.425 4.572,4.885l0,0.647l-7.089,-0c0.074,1.832 1,2.868 2.665,2.868c1.352,-0 2.055,-0.536 2.221,-1.48l2.166,-0c-0.315,2.036 -1.962,3.146 -4.442,3.146Zm-2.573,-6.032l4.83,-0c-0.11,-1.666 -0.962,-2.406 -2.35,-2.406c-1.35,-0 -2.258,0.907 -2.48,2.406Zm8.645,-3.83l-0,9.677l2.24,-0l-0,-5.792c-0,-1.48 1.018,-2.22 2.128,-2.22c1.092,-0 1.721,0.61 1.721,2.035l-0,5.977l2.24,-0l-0,-5.792c-0,-1.48 1.018,-2.22 2.129,-2.22c1.11,-0 1.72,0.61 1.72,2.035l-0,5.977l2.24,-0l-0,-6.125c-0,-2.665 -1.443,-3.756 -3.22,-3.756c-1.203,-0 -2.536,0.536 -3.276,1.74c-0.481,-1.204 -1.48,-1.74 -2.74,-1.74c-1.425,-0 -2.48,0.777 -2.942,1.684l0,-1.48l-2.24,-0Z" style="fill:#fff;"/></svg>