<?xml version="1.0" encoding="UTF-8" standalone="no"?><!DOCTYPE svg PUBLIC "-//W3C//DTD SVG 1.1//EN" "http://www.w3.org/Graphics/SVG/1.1/DTD/svg11.dtd"><svg width="100%" height="100%" viewBox="0 0 155 155" version="1.1" xmlns="http://www.w3.org/2000/svg" xmlns:xlink="http://www.w3.org/1999/xlink" xml:space="preserve" style="fill-rule:evenodd;clip-rule:evenodd;stroke-linejoin:round;stroke-miterlimit:2;"><path d="M36.538,73.077c-20.044,-0 -36.538,-16.494 -36.538,-36.539c0,-20.044 16.494,-36.538 36.538,-36.538c20.045,-0 36.539,16.494 36.539,36.538c-0,20.045 -16.494,36.539 -36.539,36.539Zm0.079,81.197c-20.045,-0 -36.539,-16.495 -36.539,-36.539c0,-20.044 16.494,-36.538 36.539,-36.538c20.044,-0 36.538,16.494 36.538,36.538c0,20.044 -16.494,36.539 -36.538,36.539Zm81.196,-81.197c-20.044,-0 -36.538,-16.494 -36.538,-36.539c0,-20.044 16.494,-36.538 36.538,-36.538c20.045,-0 36.539,16.494 36.539,36.538c-0,20.045 -16.494,36.539 -36.539,36.539Zm0,81.197c-20.044,-0 -36.538,-16.495 -36.538,-36.539c0,-20.044 16.494,-36.538 36.538,-36.538c20.045,-0 36.539,16.494 36.539,36.538c-0,20.044 -16.494,36.539 -36.539,36.539Zm-81.275,-97.436c11.136,-0 20.3,-9.164 20.3,-20.3c-0,-11.135 -9.164,-20.299 -20.3,-20.299c-11.135,0 -20.299,9.164 -20.299,20.299c0,11.136 9.164,20.3 20.299,20.3Zm0.079,81.196c11.136,0 20.299,-9.163 20.299,-20.299c0,-11.136 -9.163,-20.299 -20.299,-20.299c-11.136,-0 -20.299,9.163 -20.299,20.299c-0,11.136 9.163,20.299 20.299,20.299Zm81.196,-81.196c11.136,-0 20.3,-9.164 20.3,-20.3c-0,-11.135 -9.164,-20.299 -20.3,-20.299c-11.135,0 -20.299,9.164 -20.299,20.299c0,11.136 9.164,20.3 20.299,20.3Zm0,81.196c11.136,0 20.3,-9.163 20.3,-20.299c-0,-11.136 -9.164,-20.299 -20.3,-20.299c-11.135,-0 -20.299,9.163 -20.299,20.299c0,11.136 9.164,20.299 20.299,20.299Z" style="fill:#fff;fill-rule:nonzero;"/></svg>
