<?xml version="1.0" encoding="UTF-8" standalone="no"?>
<!DOCTYPE svg PUBLIC "-//W3C//DTD SVG 1.1//EN" "http://www.w3.org/Graphics/SVG/1.1/DTD/svg11.dtd">
<svg width="100%" height="100%" viewBox="0 0 2022 997" version="1.1" xmlns="http://www.w3.org/2000/svg" xmlns:xlink="http://www.w3.org/1999/xlink" xml:space="preserve" style="fill-rule:evenodd;clip-rule:evenodd;stroke-linejoin:round;stroke-miterlimit:2;">
    <g transform="matrix(1,0,0,1,69.6692,-8926.39)">
        <g transform="matrix(1,0,0,9.20507,0,1353.83)">
            <g transform="matrix(1,0,0,0.0681948,-1691.98,295.257)">
                <rect x="1691.98" y="7733.65" width="1920" height="766.354" style="fill:url(#_LinearyellowMountains1);"/>
            </g>
        </g>
        <g transform="matrix(1,0,0,9.20507,0,1353.83)">
            <g transform="matrix(0.545954,0,-6.09078e-33,-0.0874374,-1526.74,973.416)">
                <path d="M4391.32,1081.93L3898.62,589.236L3830.2,657.662L3658.35,485.818L3430.44,713.725L3339.08,622.361L3124.06,837.387L3082.39,795.727L2796.19,1081.93L4047.68,1080L4391.32,1081.93Z" style="fill:url(#_LinearyellowMountains2);"/>
            </g>
        </g>
        <g transform="matrix(1,0,0,9.20507,0,1353.83)">
            <g transform="matrix(-0.758182,0,0,0.0823658,3209.34,786.638)">
                <path d="M2716.71,1080L2869.29,927.419L2940.08,998.212L3088.91,849.385L3320.47,1080.94L2716.71,1080Z" style="fill:rgb(255,230,180);"/>
            </g>
        </g>
        <g transform="matrix(1,0,0,9.20507,0,1353.83)">
            <g transform="matrix(-0.527959,0,0,0.0573552,2738.35,812.811)">
                <path d="M2716.71,1080L2869.29,927.419L2940.08,998.212L3088.91,849.385L3320.47,1080.94L2716.71,1080Z" style="fill:rgb(255,230,180);"/>
            </g>
        </g>
        <g transform="matrix(1,0,0,9.20507,0,1353.83)">
            <g transform="matrix(-0.527959,0,0,0.0573552,3386.48,812.843)">
                <path d="M2716.71,1080L2869.29,927.419L2940.08,998.212L3088.91,849.385L3320.47,1080.94L2716.71,1080Z" style="fill:rgb(255,230,180);"/>
            </g>
        </g>
        <g transform="matrix(1,0,0,9.20507,0,1353.83)">
            <g transform="matrix(0.988285,0,0,0.0745492,23.7188,352.919)">
                <rect x="-24" y="7002.01" width="1944" height="316.252" style="fill:url(#_LinearyellowMountains3);"/>
                <clipPath id="_clip4">
                    <rect x="-24" y="7002.01" width="1944" height="316.252"/>
                </clipPath>
                <g clip-path="url(#_clip4)">
                    <g transform="matrix(0.613322,1.25679e-17,-1.28652e-17,-1.15088,-821.22,8391.45)">
                        <path d="M4391.32,1081.93L3898.62,589.236L3830.2,657.662L3658.35,485.818L3430.44,713.725L3339.08,622.361L3124.06,837.387L3082.39,795.727L2796.19,1081.93L4047.68,1080L4391.32,1081.93Z" style="fill:url(#_LinearyellowMountains5);"/>
                    </g>
                </g>
            </g>
        </g>
        <g transform="matrix(1,0,0,9.20507,0,1353.83)">
            <g transform="matrix(0.900749,0,0,0.757732,135.497,313.07)">
                <g transform="matrix(1,0,0,0.12914,8,-178.205)">
                    <path d="M1831,7161L1831,7131L1847,7161L1831,7161Z" style="fill:white;"/>
                </g>
                <g transform="matrix(-0.666667,0,0,0.0860934,3058.57,130.053)">
                    <path d="M1831,7161L1831,7131L1847,7161L1831,7161Z" style="fill:white;"/>
                </g>
            </g>
        </g>
        <g transform="matrix(1,0,0,9.20507,0,1353.83)">
            <g transform="matrix(1,0,0,0.841224,-493.029,247.395)">
                <g transform="matrix(1,0,0,0.12914,-1956.68,610.724)">
                    <path d="M2716.71,1080L2869.29,927.419L2940.08,998.212L3088.91,849.385L3320.47,1080.94L2716.71,1080Z" style="fill:rgb(255,221,153);"/>
                </g>
                <g transform="matrix(-0.743276,0,0,0.0959868,2891.39,647.608)">
                    <path d="M2716.71,1080L2869.29,927.419L2940.08,998.212L3088.91,849.385L3320.47,1080.94L2716.71,1080Z" style="fill:rgb(255,208,113);"/>
                </g>
                <g transform="matrix(0.541871,9.95677e-19,-1.13665e-17,-0.0911772,-1022.14,850.147)">
                    <path d="M4403.14,1093.76L3869.09,589.236L3830.2,657.662L3658.35,485.818L3430.44,713.725L3339.08,622.361L3124.06,837.387L3082.39,795.727L2792.5,1084.77L3496.47,1083.72L3483.3,1094.89L4403.14,1093.76Z" style="fill:url(#_LinearyellowMountains6);"/>
                </g>
                <g transform="matrix(0.610804,0,0,0.0788794,-314.325,673.402)">
                    <path d="M4391.32,1081.93L3898.62,589.236L3830.2,657.662L3658.35,485.818L3430.44,713.725L3339.08,622.361L3124.06,837.387L3082.39,795.727L2796.19,1081.93L4391.32,1081.93Z" style="fill:rgb(255,219,146);"/>
                </g>
            </g>
        </g>
        <g transform="matrix(1,0,0,9.20507,0,1353.83)">
            <g transform="matrix(0.900749,0,0,0.757732,-1457.27,316.698)">
                <g transform="matrix(1,0,0,0.12914,8,-178.205)">
                    <path d="M1831,7161L1831,7131L1847,7161L1831,7161Z" style="fill:white;"/>
                </g>
                <g transform="matrix(-0.666667,0,0,0.0860934,3058.57,130.053)">
                    <path d="M1831,7161L1831,7131L1847,7161L1831,7161Z" style="fill:white;"/>
                </g>
            </g>
        </g>
        <g transform="matrix(1,0,0,9.20507,0,1353.83)">
            <g transform="matrix(1.30075,0,0,1.09422,-1927.76,71.2358)">
                <g transform="matrix(1,0,0,0.12914,8,-178.205)">
                    <path d="M1831,7161L1831,7131L1847,7161L1831,7161Z" style="fill:white;"/>
                </g>
                <g transform="matrix(-0.666667,0,0,0.0860934,3058.57,130.053)">
                    <path d="M1831,7161L1831,7131L1847,7161L1831,7161Z" style="fill:white;"/>
                </g>
            </g>
        </g>
        <g transform="matrix(1,0,0,9.20507,0,1353.83)">
            <g transform="matrix(0.733333,0,0,0.616898,487.264,415.004)">
                <g transform="matrix(1,0,0,0.12914,8,-178.205)">
                    <path d="M1831,7161L1831,7131L1847,7161L1831,7161Z" style="fill:white;"/>
                </g>
                <g transform="matrix(-0.666667,0,0,0.0860934,3058.57,130.053)">
                    <path d="M1831,7161L1831,7131L1847,7161L1831,7161Z" style="fill:white;"/>
                </g>
            </g>
        </g>
        <g transform="matrix(1,0,0,9.20507,0,1353.83)">
            <g transform="matrix(0.900749,0,0,0.757732,225.814,311.603)">
                <g transform="matrix(1,0,0,0.12914,8,-178.205)">
                    <path d="M1831,7161L1831,7131L1847,7161L1831,7161Z" style="fill:white;"/>
                </g>
                <g transform="matrix(-0.666667,0,0,0.0860934,3058.57,130.053)">
                    <path d="M1831,7161L1831,7131L1847,7161L1831,7161Z" style="fill:white;"/>
                </g>
            </g>
        </g>
    </g>
    <defs>
        <linearGradient id="_LinearyellowMountains1" x1="0" y1="0" x2="1" y2="0" gradientUnits="userSpaceOnUse" gradientTransform="matrix(4.67037e-14,-759.929,858.099,5.23505e-14,2698,8493.57)"><stop offset="0" style="stop-color:rgb(250,207,115);stop-opacity:0.39"/><stop offset="0.52" style="stop-color:rgb(251,218,148);stop-opacity:0.3"/><stop offset="1" style="stop-color:white;stop-opacity:0"/></linearGradient>
        <linearGradient id="_LinearyellowMountains2" x1="0" y1="0" x2="1" y2="0" gradientUnits="userSpaceOnUse" gradientTransform="matrix(1.49622e-14,-236.064,-313.46,-1.73252e-14,3631.02,1073.45)"><stop offset="0" style="stop-color:rgb(198,89,0);stop-opacity:0.1"/><stop offset="1" style="stop-color:rgb(255,199,59);stop-opacity:0"/></linearGradient>
        <linearGradient id="_LinearyellowMountains3" x1="0" y1="0" x2="1" y2="0" gradientUnits="userSpaceOnUse" gradientTransform="matrix(1.41249e-14,283.68,-230.678,1.73704e-14,910.971,7034.58)"><stop offset="0" style="stop-color:rgb(255,214,117);stop-opacity:1"/><stop offset="1" style="stop-color:rgb(248,248,248);stop-opacity:1"/></linearGradient>
        <linearGradient id="_LinearyellowMountains5" x1="0" y1="0" x2="1" y2="0" gradientUnits="userSpaceOnUse" gradientTransform="matrix(1.48181e-14,-231.04,-310.441,-1.69565e-14,3626.64,1060.94)"><stop offset="0" style="stop-color:rgb(198,89,0);stop-opacity:0.05"/><stop offset="1" style="stop-color:rgb(255,199,59);stop-opacity:0"/></linearGradient>
        <linearGradient id="_LinearyellowMountains6" x1="0" y1="0" x2="1" y2="0" gradientUnits="userSpaceOnUse" gradientTransform="matrix(1.49622e-14,-236.064,-313.46,-1.73252e-14,3631.02,1073.45)"><stop offset="0" style="stop-color:rgb(198,89,0);stop-opacity:0.05"/><stop offset="1" style="stop-color:rgb(255,199,59);stop-opacity:0"/></linearGradient>
    </defs>
</svg>
