<?xml version="1.0" encoding="UTF-8"?>
<svg xmlns="http://www.w3.org/2000/svg" width="400" height="90" viewBox="0 0 400 90">
  <path fill="#FFF" d="M696.342534,187.907381 C705.522616,187.907381 711.965798,192.795481 712.138262,199.485346 L712.14181,199.761278 L712.14181,200.483313 L704.094151,200.483313 L704.094151,199.544081 C704.094151,196.4045 701.007138,194.039787 696.342534,194.039787 C691.773127,194.039787 688.717575,197.373613 688.594761,200.460944 L688.590917,200.653549 L688.590917,214.366344 C688.590917,217.801391 691.677931,220.868573 696.342534,220.868573 C700.907891,220.868573 703.962075,218.993281 704.089974,215.692143 L704.094151,215.474834 L704.094151,214.424068 L712.14181,214.424068 L712.14181,215.257637 C712.14181,222.384063 705.64837,227 696.342534,227 C687.159144,227 680.714625,221.425225 680.546623,214.428775 L680.543258,214.148168 L680.543258,200.870747 C680.543258,194.038809 687.036698,187.907381 696.342534,187.907381 Z M897.177586,188.462115 L897.177586,220.314817 L912.858056,220.314817 L912.858056,226.446244 L889.129927,226.446244 L889.129927,188.462115 L897.177586,188.462115 Z M806.109718,188.462115 L806.109718,226.445266 L798.062059,226.445266 L798.062059,188.462115 L806.109718,188.462115 Z M843.022412,188.462115 L843.022412,194.594521 L832.157489,194.594521 L832.157489,226.445266 L824.16339,226.445266 L824.16339,194.594521 L813.463042,194.594521 L813.463042,188.462115 L843.022412,188.462115 Z M776.644808,188.448418 C786.106456,188.448418 790.913237,195.202087 790.913237,201.547777 C790.913237,207.804819 786.54633,214.403666 777.03844,214.58087 L776.644808,214.58452 L769.513515,214.58452 L769.513515,226.445266 L761.465857,226.445266 L761.465857,188.448418 L776.644808,188.448418 Z M866.682374,188.461137 L881.761022,226.438417 L873.640326,226.438417 L871.359637,220.316774 L854.084048,220.316774 L851.779987,226.438417 L843.660265,226.438417 L858.754495,188.461137 L866.682374,188.461137 Z M739.614282,188.461137 L754.69293,226.438417 L746.572234,226.438417 L744.291545,220.316774 L727.015956,220.316774 L724.711895,226.438417 L716.592173,226.438417 L731.686403,188.461137 L739.614282,188.461137 Z M600.65778,137 L647.74009,218.855093 L643.42314,226.372867 L549.326688,226.372867 L545,218.893249 L592.009273,137.003913 L600.65778,137 Z M596.337909,149.543646 L557.969351,216.378846 L634.766843,216.35243 L628.76713,205.935754 L584.602389,205.935754 L580.275701,198.414067 L602.340543,159.976954 L596.337909,149.543646 Z M862.766638,197.427873 L856.410507,214.185346 L869.057524,214.185346 L862.766638,197.427873 Z M735.698546,197.427873 L729.342415,214.185346 L741.989432,214.185346 L735.698546,197.427873 Z M775.291197,194.526035 L769.512542,194.526035 L769.512542,208.506903 L775.291197,208.506903 C781.856469,208.506903 782.992592,204.227646 783.028294,201.677148 L783.028333,201.41959 C782.994538,198.886273 781.925387,194.526035 775.291197,194.526035 Z M612.349478,137 L624.219385,137.003913 L659.387966,198.264377 L653.656054,208.455049 L612.349478,137 Z M608.051031,169.902489 L593.246026,195.889879 L622.998213,195.889879 L608.051031,169.902489 Z M729.072667,137.050875 L729.072667,168.903576 L744.753136,168.903576 L744.753136,175.035004 L721.025982,175.035004 L721.025982,137.050875 L729.072667,137.050875 Z M873.400766,137.050875 L886.124715,158.949668 L898.684088,137.050875 L904.668219,137.050875 L904.668219,175.034025 L897.322685,175.034025 L897.322685,152.124579 L887.68575,168.63159 L884.508172,168.63159 L874.815729,152.233178 L874.815729,175.035004 L867.416635,175.035004 L867.416635,137.050875 L873.400766,137.050875 Z M797.99097,137.050875 L797.99097,152.678335 L813.924634,152.678335 L813.924634,137.050875 L821.972292,137.050875 L821.972292,175.034025 L813.924634,175.034025 L813.924634,158.809762 L797.99097,158.809762 L797.99097,175.034025 L789.944285,175.034025 L789.944285,137.050875 L797.99097,137.050875 Z M857.672579,137.050875 L857.672579,143.183281 L840.757304,143.183281 L840.757304,152.679313 L855.615869,152.679313 L855.615869,158.81074 L840.757304,158.81074 L840.757304,168.904555 L858.003679,168.904555 L858.003679,175.034025 L832.709645,175.034025 L832.709645,137.050875 L857.672579,137.050875 Z M919.615401,137.050875 L928.095437,156.320796 L936.682593,137.050875 L945,137.050875 L932.091999,163.863029 L932.091999,175.034025 L924.044341,175.034025 L924.044341,163.863029 L911.297994,137.050875 L919.615401,137.050875 Z M699.288344,137.056745 L714.366992,175.034025 L706.246296,175.034025 L703.965607,168.912382 L686.690018,168.912382 L684.385957,175.034025 L676.266235,175.034025 L691.360465,137.056745 L699.288344,137.056745 Z M767.959297,137.050875 C777.420944,137.050875 782.227726,143.804544 782.227726,150.150234 C782.227726,156.407275 777.860818,163.006122 768.352928,163.183327 L767.959297,163.186977 L760.828004,163.186977 L760.828004,174.950864 L752.780345,174.950864 L752.780345,137.050875 L767.959297,137.050875 Z M695.372608,146.024459 L689.016477,162.781933 L701.663494,162.781933 L695.372608,146.024459 Z M766.605685,143.128492 L760.82703,143.128492 L760.82703,157.10936 L766.605685,157.10936 C773.284151,157.10936 774.344643,152.682248 774.343669,150.149255 C774.343669,147.637787 773.352319,143.128492 766.605685,143.128492 Z" transform="translate(-545 -137)"></path>
</svg>
