<svg id="Calque_1" data-name="Calque 1" xmlns="http://www.w3.org/2000/svg" viewBox="0 0 260.35 84.6"><defs><style>.cls-1{fill:#0f1944;}</style></defs><title>leax_bleu</title><path class="cls-1" d="M189.44,66.21c1.35,3.44,3.07,4.72,4.43,4.79v1.5c-3.62-.15-8.71-0.22-13.64-0.22s-9.91.07-12.58,0.22V71c3.55-.15,5.27-0.69,5.27-2.74a10.91,10.91,0,0,0-.91-3.55l-4.46-12.29H152.42l-1.28,3.37c-1.68,4.39-2.41,7.54-2.41,9.77,0,4.39,2.78,5.3,6.77,5.45v1.5c-3.73-.15-6.36-0.22-9.8-0.22-2,0-4.28.07-5.78,0.22V71c2.3-.37,4.5-2.56,6.88-8.78l16.64-42.76c1.21,0.11,2.6.15,4,.15s2.74,0,3.91-.15Zm-29.23-34L153,50.92h14Z" transform="translate(-4.29 -3.68)"/><path class="cls-1" d="M260,74.38c2,2.82,2.71,3.58,4.65,3.73v1.57c-2.45-.07-7.86-0.29-12.8-0.29s-10.57.22-13,.29V78.11c3.11,0,4.65-.29,4.65-1.28a2.43,2.43,0,0,0-.55-1.28l-17.27-25L221,56.26c-2.67,3.29-3.84,6.33-3.84,8.78,0,3.4,2.34,5.67,6.25,6v1.5c-2.85-.15-10.57-0.22-12.95-0.22-3.07,0-5.63.07-7.28,0.22V71c3.73-1.57,8-5.16,12.44-10.64l9-11.27-17.08-24.4c-2-2.82-2.71-3.58-4.65-3.73V19.39c2.6,0.07,8.3.29,13.53,0.29,4.65,0,9.77-.22,12.07-0.29V21c-3.15,0-4.68.29-4.68,1.28a2.43,2.43,0,0,0,.55,1.28L235.26,39l4.28-5.27c2.56-3,3.77-5.71,3.77-7.86,0-2.74-1.9-4.57-5.27-4.86v-1.5c2.85,0.15,7.57.22,10,.22,3.07,0,5.6-.07,7.24-0.22V21c-3.44,1.28-7.32,5-10.1,8.45l-8.93,10.94Z" transform="translate(-4.29 -3.68)"/><path class="cls-1" d="M30.88,13.83c-5.08.22-6.07,3.44-6.07,8.89V66c0,4.13.62,4.72,3.84,4.72h2.49c5.23,0,12.8-8.85,14.52-18.51h1.72c-0.15,1.79-.22,4.21-0.22,6.88s0,8.12.51,13.35c-5.08-.22-12.14-0.22-17.16-0.22-5.38,0-17.52,0-26.23.22V71c4.57-.22,5.34-1,5.34-6.44V22.72c0-5.45-.84-8.67-5.34-8.89v-1.5c2.85,0.15,7.94.22,13.35,0.22,4.94,0,10.17-.07,13.24-0.22v1.5Z" transform="translate(-4.29 -3.68)"/><path class="cls-1" d="M103.69,72.46c-5.08-.22-11-0.22-16-0.22-5.38,0-17.52,0-26.23.22V71c4.57-.22,5.34-1,5.34-6.44V27.36c0-5.45-.84-6.22-5.34-6.44v-1.5c8.71,0.22,20.85.22,26.23,0.22,4.57,0,11.4,0,16-.22-0.37,5-.51,10.1-0.51,12.58a54.1,54.1,0,0,0,.22,5.41h-0.71c-1.87-12.44-9-16.28-15.19-16.28h-1c-3.88,0-4.57.62-4.57,4.72V45h0.77c5.63,0,9.29-5.52,10.21-9.88h1.72c-0.22,3.29-.29,5.52-0.29,7.28,0,1.28,0,2.3,0,3.37,0,2.45.11,4.94,0.48,10.64H93.13c-0.91-5.56-4.79-9.91-10.42-9.91H81.94V66c0,4.13.69,4.72,4.57,4.72H89c4.94,0,11.38-4.21,13.79-17.74h0.61c-0.15,1.79-.22,4.17-0.22,6.88A125.61,125.61,0,0,0,103.69,72.46Z" transform="translate(-4.29 -3.68)"/><rect class="cls-1" x="128.87" y="0.91" width="1.43" height="90.13" transform="translate(20.96 -47.25) rotate(21.1)"/></svg>