<?xml version="1.0" encoding="UTF-8" standalone="no"?><!DOCTYPE svg PUBLIC "-//W3C//DTD SVG 1.1//EN" "http://www.w3.org/Graphics/SVG/1.1/DTD/svg11.dtd"><svg width="100%" height="100%" viewBox="0 0 164 28" version="1.1" xmlns="http://www.w3.org/2000/svg" xmlns:xlink="http://www.w3.org/1999/xlink" xml:space="preserve" xmlns:serif="http://www.serif.com/" style="fill-rule:evenodd;clip-rule:evenodd;stroke-linejoin:round;stroke-miterlimit:2;"><rect x="18.069" y="4.802" width="4.642" height="4.682" style="fill:#fff;"/><rect x="13.593" y="0.287" width="4.476" height="4.515" style="fill:#fff;"/><rect x="4.477" y="0.287" width="4.642" height="4.515" style="fill:#fff;"/><rect x="-0" y="0.287" width="4.476" height="4.515" style="fill:#fff;"/><rect x="-0" y="4.802" width="4.476" height="4.682" style="fill:#fff;"/><rect x="-0" y="18.515" width="4.476" height="4.682" style="fill:#fff;"/><rect x="-0" y="23.198" width="4.476" height="4.515" style="fill:#fff;"/><rect x="13.593" y="9.485" width="4.476" height="4.515" style="fill:#fff;"/><rect x="18.069" y="9.485" width="4.642" height="4.515" style="fill:#fff;"/><rect x="4.477" y="14" width="4.642" height="4.515" style="fill:#fff;"/><rect x="9.117" y="14" width="4.476" height="4.515" style="fill:#fff;"/><g><clipPath id="_clip1"><rect x="29.235" y="0.287" width="134.765" height="20.359"/></clipPath><g clip-path="url(#_clip1)"><path d="M56.788,6.664l-7.906,0c-0.217,0 -0.417,0.051 -0.617,0.135c-0.2,0.084 -0.367,0.202 -0.5,0.336c-0.15,0.152 -0.25,0.32 -0.334,0.505c-0.083,0.202 -0.117,0.404 -0.117,0.606l0,7.975l-2.118,0l0,-7.958c0,-0.522 0.1,-1.01 0.284,-1.447c0.2,-0.455 0.45,-0.842 0.8,-1.178c0.334,-0.337 0.734,-0.606 1.168,-0.808c0.45,-0.202 0.934,-0.286 1.434,-0.286l7.906,0l0,2.12Z" style="fill:#fff;fill-rule:nonzero;"/><rect x="58.491" y="4.544" width="2.102" height="11.694" style="fill:#fff;fill-rule:nonzero;"/><path d="M84.959,11.56c0.133,0.471 0.367,0.909 0.684,1.279c0.233,0.269 0.484,0.488 0.767,0.673c0.284,0.185 0.584,0.337 0.917,0.438c0.334,0.1 0.684,0.151 1.051,0.151l6.888,-0l0,2.137l-6.888,-0c-0.8,-0 -1.551,-0.168 -2.251,-0.471c-0.701,-0.32 -1.318,-0.724 -1.835,-1.262c-0.517,-0.539 -0.917,-1.144 -1.218,-1.851c-0.3,-0.707 -0.45,-1.464 -0.45,-2.271c0,-0.808 0.15,-1.565 0.45,-2.272c0.301,-0.707 0.718,-1.329 1.218,-1.851c0.517,-0.538 1.134,-0.959 1.835,-1.262c0.7,-0.319 1.451,-0.471 2.251,-0.471l4.787,0c0.5,0 0.984,0.101 1.434,0.286c0.451,0.202 0.851,0.455 1.168,0.808c0.333,0.336 0.6,0.723 0.8,1.178c0.201,0.454 0.284,0.942 0.284,1.447c-0,0.521 -0.1,1.009 -0.284,1.447c-0.2,0.454 -0.45,0.841 -0.8,1.177c-0.334,0.337 -0.717,0.589 -1.168,0.791c-0.45,0.202 -0.917,0.286 -1.434,0.286l-5.904,0c-0.484,0 -0.868,-0.387 -0.868,-0.875l0,-1.228l6.772,0c0.217,0 0.417,-0.034 0.6,-0.118c0.201,-0.084 0.367,-0.202 0.501,-0.336c0.15,-0.152 0.25,-0.32 0.333,-0.505c0.084,-0.202 0.117,-0.404 0.117,-0.622c0,-0.219 -0.033,-0.421 -0.117,-0.606c-0.083,-0.202 -0.2,-0.37 -0.333,-0.505c-0.15,-0.151 -0.317,-0.252 -0.501,-0.336c-0.2,-0.085 -0.4,-0.135 -0.6,-0.135l-4.787,-0c-0.467,-0 -0.9,0.084 -1.317,0.252c-0.401,0.169 -0.768,0.387 -1.085,0.69c-0.316,0.286 -0.583,0.623 -0.8,1.01c-0.267,0.504 -0.4,1.06 -0.4,1.615l-0,0.084c-0,0.353 0.05,0.707 0.15,1.06l0.033,0.168Z" style="fill:#fff;fill-rule:nonzero;"/><path d="M112.645,4.544l-6.404,11.694l-2.402,-0l-6.355,-11.694l2.452,0l5.104,9.473l5.137,-9.473l2.468,0Z" style="fill:#fff;fill-rule:nonzero;"/><path d="M150.823,16.238l-0.517,-0c-0.517,-0 -1.001,-0.101 -1.434,-0.286c-0.451,-0.202 -0.834,-0.454 -1.168,-0.791c-0.333,-0.336 -0.6,-0.74 -0.8,-1.178c-0.2,-0.454 -0.284,-0.942 -0.284,-1.447l0,-12.249l2.102,0l0,12.233c0,0.218 0.033,0.437 0.116,0.622c0.084,0.185 0.201,0.353 0.334,0.505c0.15,0.151 0.317,0.252 0.5,0.336c0.2,0.084 0.401,0.118 0.617,0.118l0.517,-0l0,2.137l0.017,-0Z" style="fill:#fff;fill-rule:nonzero;"/><rect x="29.317" y="6.664" width="2.102" height="13.831" style="fill:#fff;fill-rule:nonzero;"/><path d="M42.545,8.128c-0.301,-0.707 -0.718,-1.329 -1.235,-1.851c-0.517,-0.538 -1.134,-0.959 -1.834,-1.262c-0.701,-0.319 -1.451,-0.471 -2.252,-0.471l-5.787,0l-0,2.12l5.787,0c0.5,0 0.984,0.101 1.418,0.303c0.45,0.202 0.834,0.454 1.167,0.808c0.334,0.336 0.584,0.723 0.784,1.177c0.2,0.455 0.284,0.926 0.284,1.447c-0,0.522 -0.1,0.993 -0.284,1.447c-0.2,0.438 -0.45,0.842 -0.784,1.178c-0.333,0.337 -0.717,0.606 -1.167,0.808c-0.434,0.202 -0.918,0.286 -1.418,0.303l-4.737,-0l0,2.136l4.737,0c0.801,0 1.551,-0.151 2.252,-0.454c0.7,-0.319 1.317,-0.723 1.834,-1.262c0.517,-0.538 0.934,-1.144 1.235,-1.851c0.3,-0.706 0.45,-1.463 0.45,-2.271c-0,-0.841 -0.15,-1.598 -0.45,-2.305Z" style="fill:#fff;fill-rule:nonzero;"/><rect x="63.627" y="6.664" width="2.102" height="9.574" style="fill:#fff;fill-rule:nonzero;"/><path d="M80.057,8.128c-0.301,-0.707 -0.718,-1.329 -1.235,-1.851c-0.517,-0.538 -1.117,-0.959 -1.818,-1.262c-0.7,-0.319 -1.451,-0.471 -2.251,-0.471l-9.007,0l0,2.12l5.271,0l-0,9.574l2.101,-0l0,-9.574l1.618,0c0.5,0 0.967,0.118 1.418,0.32c0.45,0.202 0.834,0.454 1.167,0.807c0.334,0.337 0.584,0.724 0.784,1.178c0.2,0.455 0.284,0.926 0.284,1.447l-0,5.839l2.101,-0l0,-5.872c0.017,-0.791 -0.133,-1.548 -0.434,-2.255Z" style="fill:#fff;fill-rule:nonzero;"/><path d="M125.106,14.101l2.101,0l-0,-5.838c-0,-0.522 -0.1,-1.01 -0.283,-1.447c-0.2,-0.455 -0.45,-0.842 -0.801,-1.178c-0.333,-0.337 -0.734,-0.606 -1.167,-0.808c-0.451,-0.202 -0.934,-0.286 -1.435,-0.286l-8.422,0l0,2.12l8.422,0c0.217,0 0.417,0.051 0.601,0.135c0.2,0.084 0.367,0.202 0.5,0.336c0.15,0.152 0.25,0.32 0.334,0.505c0.083,0.202 0.133,0.404 0.133,0.606l0.017,5.855l-8.423,-0c-0.217,-0 -0.434,-0.034 -0.617,-0.118c-0.2,-0.084 -0.367,-0.202 -0.5,-0.336c-0.151,-0.152 -0.251,-0.32 -0.334,-0.505c-0.083,-0.202 -0.117,-0.404 -0.117,-0.623c0,-0.218 0.034,-0.42 0.117,-0.605c0.083,-0.202 0.2,-0.371 0.334,-0.505c0.15,-0.152 0.316,-0.253 0.5,-0.337c0.2,-0.084 0.4,-0.134 0.617,-0.134l7.372,-0l0,-2.154l-7.372,0c-0.517,0 -1.001,0.101 -1.434,0.286c-0.451,0.202 -0.834,0.454 -1.168,0.808c-0.333,0.336 -0.6,0.74 -0.8,1.178c-0.201,0.454 -0.284,0.942 -0.284,1.447c0,0.504 0.1,0.992 0.284,1.447c0.2,0.454 0.45,0.841 0.8,1.177c0.334,0.337 0.734,0.589 1.168,0.791c0.45,0.202 0.934,0.286 1.434,0.286l8.423,0l0,-2.103Z" style="fill:#fff;fill-rule:nonzero;"/><path d="M141.516,14.101l2.135,0l0,-9.557l-2.101,0l-0.017,9.557l-5.788,0c-0.5,0 -0.984,-0.101 -1.434,-0.303c-0.434,-0.202 -0.817,-0.471 -1.151,-0.807c-0.333,-0.337 -0.584,-0.724 -0.784,-1.178c-0.183,-0.455 -0.283,-0.926 -0.283,-1.447l0,-5.822l-2.102,0l0,5.839c0,0.807 0.15,1.564 0.451,2.271c0.3,0.707 0.717,1.329 1.217,1.851c0.517,0.521 1.134,0.942 1.835,1.262c0.7,0.303 1.451,0.454 2.235,0.454l5.787,0l-0,-2.12Z" style="fill:#fff;fill-rule:nonzero;"/><rect x="58.491" y="0.994" width="2.102" height="2.12" style="fill:#fff;fill-rule:nonzero;"/><rect x="161.898" y="4.544" width="2.103" height="2.12" style="fill:#fff;fill-rule:nonzero;"/><path d="M159.78,4.544l-3.152,0l-0,-4.257l-2.118,0l-0,4.257l-3.153,0l-0,2.12l3.153,0l-0,9.574l2.118,-0l-0,-9.574l3.152,0l0,-2.12Z" style="fill:#fff;fill-rule:nonzero;"/></g></g></svg>