<?xml version="1.0" encoding="UTF-8"?>
<!-- Generator: Adobe Illustrator 19.0.0, SVG Export Plug-In . SVG Version: 6.00 Build 0)  -->
<svg xmlns="http://www.w3.org/2000/svg" xmlns:xlink="http://www.w3.org/1999/xlink" version="1.1" id="Layer_1" x="0px" y="0px" viewBox="0 0 619.3 88.7" style="enable-background:new 0 0 619.3 88.7;" xml:space="preserve">
<style type="text/css">
	.st0{fill:#FFFFFF;}
	.st1{fill:#D3AA00;}
</style>
<g id="XMLID_2_">
	<path id="XMLID_109_" class="st0" d="M127,33.2c-0.4-1-1-2-2.1-2.9c-1.5-1.2-3-1.7-5-1.7c-4.3,0-6.6,2.6-6.6,5.6   c0,1.4,0.5,3.8,5,5.7l4.7,1.9c8.6,3.5,11,8.4,11,13.7c0,8.9-6.3,14.9-15,14.9c-5.4,0-8.6-2-11-4.7c-2.5-2.8-3.6-5.9-3.9-9.1l7-1.5   c0,2.3,0.8,4.5,2,5.9c1.3,1.7,3.3,2.8,6.1,2.8c4.3,0,7.7-3.1,7.7-7.8c0-4.7-3.6-6.7-6.7-8l-4.5-1.9c-3.8-1.6-9.5-4.8-9.5-11.8   c0-6.3,4.9-12.3,13.6-12.3c5,0,7.9,1.9,9.4,3.1c1.3,1.1,2.6,2.7,3.6,4.7L127,33.2z"></path>
	<polygon id="XMLID_108_" class="st0" points="174.2,29.6 155.7,29.6 155.7,41.4 173.7,41.4 173.7,48.1 155.7,48.1 155.7,62.8    174.2,62.8 174.2,69.5 148.5,69.5 148.5,22.9 174.2,22.9  "></polygon>
	<path id="XMLID_107_" class="st0" d="M210.5,33.2c-0.4-1-1-2-2.1-2.9c-1.5-1.2-3-1.7-5-1.7c-4.3,0-6.6,2.6-6.6,5.6   c0,1.4,0.5,3.8,5,5.7l4.7,1.9c8.6,3.5,11,8.4,11,13.7c0,8.9-6.3,14.9-15,14.9c-5.4,0-8.6-2-11-4.7c-2.5-2.8-3.6-5.9-3.9-9.1l7-1.5   c0,2.3,0.8,4.5,2,5.9c1.3,1.7,3.3,2.8,6.1,2.8c4.3,0,7.7-3.1,7.7-7.8c0-4.7-3.6-6.7-6.7-8l-4.5-1.9c-3.8-1.6-9.5-4.8-9.5-11.8   c0-6.3,4.9-12.3,13.6-12.3c5,0,7.9,1.9,9.4,3.1c1.3,1.1,2.6,2.7,3.6,4.7L210.5,33.2z"></path>
	<path id="XMLID_15_" class="st0" d="M255.1,51.5l-6.9-15.8L241,51.5H255.1z M258,58.2h-19.9L233,69.5h-7.7l23.2-49.3l22.1,49.3   h-7.7L258,58.2z"></path>
	<polygon id="XMLID_104_" class="st0" points="279.2,69.5 289,19.4 305.2,55.6 321.5,19.4 330.3,69.5 323,69.5 318.3,41.4    304.7,71.6 291.3,41.3 286.5,69.5  "></polygon>
	<polygon id="XMLID_103_" class="st0" points="369.9,29.6 351.4,29.6 351.4,41.4 369.4,41.4 369.4,48.1 351.4,48.1 351.4,62.8    369.9,62.8 369.9,69.5 344.3,69.5 344.3,22.9 369.9,22.9  "></polygon>
	<polygon id="XMLID_102_" class="st0" points="384.9,22.9 397.7,62.4 414.5,20.4 430.3,62.4 444.9,22.9 448.3,22.9 430.3,71.2    414.5,28.9 397.2,71.2 381.5,22.9  "></polygon>
	<path id="XMLID_9_" class="st0" d="M477.7,51.4L469,29.3l-8.9,22.1H477.7z M478.8,54.2H459l-6.2,15.3h-3.4l19.6-47.9l19.3,47.9H485   L478.8,54.2z"></path>
	<polygon id="XMLID_99_" class="st0" points="502.9,22.9 502.9,66.7 515.9,66.7 515.9,69.5 499.9,69.5 499.9,22.9  "></polygon>
	<polygon id="XMLID_98_" class="st0" points="529,22.9 529,66.7 542,66.7 542,69.5 526,69.5 526,22.9  "></polygon>
	<polygon id="XMLID_97_" class="st0" points="577.2,25.7 557.9,25.7 557.9,42.6 576.8,42.6 576.8,45.4 557.9,45.4 557.9,66.7    577.2,66.7 577.2,69.5 554.9,69.5 554.9,22.9 577.2,22.9  "></polygon>
	<polygon id="XMLID_96_" class="st0" points="604.1,25.7 604.1,69.5 601,69.5 601,25.7 588.9,25.7 588.9,22.9 616.1,22.9    616.1,25.7  "></polygon>
</g>
<g id="XMLID_1_">
	<path id="XMLID_94_" class="st1" d="M10.7,72.4c-1.4,0-2.8,0.5-3.8,1.6c-1,1-1.6,2.4-1.6,3.8c0,1.4,0.6,2.8,1.6,3.8   c1,1,2.4,1.6,3.8,1.6c1.4,0,2.8-0.6,3.8-1.6v0c2.1-2.1,2.1-5.5,0-7.6C13.5,72.9,12.1,72.4,10.7,72.4 M10.7,85.9   c-2.2,0-4.2-0.8-5.7-2.4c-1.5-1.5-2.4-3.6-2.4-5.7c0-2.2,0.8-4.2,2.4-5.7c3.2-3.2,8.3-3.2,11.4,0c3.2,3.2,3.2,8.3,0,11.4   C14.9,85,12.9,85.9,10.7,85.9"></path>
	<path id="XMLID_73_" class="st1" d="M14.2,59.3c-1.4,0-2.8,0.6-3.8,1.6c-2.1,2.1-2.1,5.5,0,7.6c2.1,2.1,5.5,2.1,7.6,0   c1-1,1.6-2.4,1.6-3.8c0-1.4-0.6-2.8-1.6-3.8C17,59.9,15.7,59.3,14.2,59.3 M14.2,72.8c-2.1,0-4.1-0.8-5.7-2.4   c-3.2-3.2-3.2-8.3,0-11.4c1.5-1.5,3.6-2.4,5.7-2.4c2.2,0,4.2,0.8,5.7,2.4c1.5,1.5,2.4,3.6,2.4,5.7c0,2.2-0.8,4.2-2.4,5.7   C18.4,72,16.3,72.8,14.2,72.8"></path>
	<path id="XMLID_17_" class="st1" d="M28.5,79L28.5,79L28.5,79z M23.8,68.9c-1.4,0-2.8,0.5-3.8,1.6c-2.1,2.1-2.1,5.5,0,7.6   c2.1,2.1,5.5,2.1,7.6,0c1-1,1.6-2.4,1.6-3.8c0-1.4-0.6-2.8-1.6-3.8C26.5,69.4,25.1,68.9,23.8,68.9 M23.8,82.4   c-2.1,0-4.1-0.8-5.7-2.4c-3.2-3.2-3.2-8.3,0-11.4c3.2-3.2,8.3-3.2,11.4,0c1.5,1.5,2.4,3.6,2.4,5.7c0,2.2-0.8,4.2-2.4,5.7v0   C27.9,81.6,25.8,82.4,23.8,82.4"></path>
	<path id="XMLID_85_" class="st1" d="M21.3,68.4c-0.3,0-0.7-0.1-1-0.4c-0.5-0.5-0.5-1.4,0-1.9l40.9-40.9c0.5-0.5,1.4-0.5,1.9,0   c0.5,0.5,0.5,1.4,0,1.9L22.3,68C22,68.3,21.7,68.4,21.3,68.4"></path>
	<path id="XMLID_84_" class="st1" d="M69.2,39.7c-0.3,0-0.7-0.1-1-0.4l-9.5-9.5c-0.5-0.5-0.5-1.4,0-1.9c0.5-0.5,1.4-0.5,1.9,0   l9.5,9.5c0.5,0.5,0.5,1.4,0,1.9C69.9,39.6,69.6,39.7,69.2,39.7"></path>
	<path id="XMLID_83_" class="st1" d="M59.3,49.6c-0.3,0-0.7-0.1-1-0.4l-9.5-9.5c-0.5-0.5-0.5-1.4,0-1.9c0.5-0.5,1.4-0.5,1.9,0   l9.5,9.5c0.5,0.5,0.5,1.4,0,1.9C60,49.5,59.6,49.6,59.3,49.6"></path>
	<path id="XMLID_82_" class="st1" d="M57.2,46.8c-0.3,0-0.7-0.1-1-0.4c-0.5-0.5-0.5-1.4,0-1.9l9.2-9.2c0.5-0.5,1.4-0.5,1.9,0   c0.5,0.5,0.5,1.4,0,1.9l-9.2,9.2C57.9,46.7,57.5,46.8,57.2,46.8"></path>
	<path id="XMLID_81_" class="st1" d="M64.1,44.7c-0.3,0-0.7-0.1-1-0.4L54,35.1c-0.5-0.5-0.5-1.4,0-1.9c0.5-0.5,1.4-0.5,1.9,0   l9.2,9.2c0.5,0.5,0.5,1.4,0,1.9C64.8,44.6,64.5,44.7,64.1,44.7"></path>
	<path id="XMLID_80_" class="st1" d="M41.8,22.7c-0.4,0-0.7-0.1-1-0.4l-5.8-6c-0.5-0.5-0.5-1.4,0-1.9c0.5-0.5,1.4-0.5,1.9,0l5.8,6   c0.5,0.5,0.5,1.4,0,1.9C42.5,22.6,42.1,22.7,41.8,22.7"></path>
	<path id="XMLID_79_" class="st1" d="M78.1,59c-0.4,0-0.7-0.1-1-0.4l-5.8-6c-0.5-0.5-0.5-1.4,0-1.9c0.5-0.5,1.4-0.5,1.9,0l5.8,6   c0.5,0.5,0.5,1.4,0,1.9C78.7,58.8,78.4,59,78.1,59"></path>
	<path id="XMLID_78_" class="st1" d="M59,16c-0.6,0-1.2-0.4-1.3-1.1l-1.8-8.1c-0.2-0.7,0.3-1.4,1-1.6c0.7-0.2,1.4,0.3,1.6,1l1.8,8.1   c0.2,0.7-0.3,1.4-1,1.6C59.2,16,59.1,16,59,16"></path>
	<path id="XMLID_77_" class="st1" d="M77.6,37.3c-0.7,0-1.3-0.6-1.3-1.3c0-0.7,0.5-1.4,1.3-1.4l8.3-0.3c0.7,0,1.4,0.5,1.4,1.3   c0,0.7-0.5,1.4-1.3,1.4L77.6,37.3C77.6,37.3,77.6,37.3,77.6,37.3"></path>
	<path id="XMLID_76_" class="st1" d="M56.1,66.4c-0.6,0-1.2-0.4-1.3-1.1L53,57.2c-0.2-0.7,0.3-1.4,1-1.6c0.7-0.2,1.4,0.3,1.6,1   l1.8,8.1c0.2,0.7-0.3,1.4-1,1.6C56.3,66.4,56.2,66.4,56.1,66.4"></path>
	<path id="XMLID_75_" class="st1" d="M27.3,37.3c-0.7,0-1.3-0.6-1.3-1.3c0-0.7,0.5-1.4,1.3-1.4l8.3-0.3c0.7,0,1.4,0.5,1.4,1.3   c0,0.7-0.5,1.4-1.3,1.4L27.3,37.3C27.4,37.3,27.4,37.3,27.3,37.3"></path>
	<path id="XMLID_74_" class="st1" d="M74,19.9c-0.3,0-0.7-0.1-1-0.4c-0.5-0.5-0.5-1.4,0-1.9l6.6-6.6c0.5-0.5,1.4-0.5,1.9,0   c0.5,0.5,0.5,1.4,0,1.9l-6.6,6.6C74.7,19.8,74.3,19.9,74,19.9"></path>
</g>
</svg>
