<?xml version="1.0" encoding="UTF-8" standalone="no"?>
<!DOCTYPE svg PUBLIC "-//W3C//DTD SVG 1.1//EN" "http://www.w3.org/Graphics/SVG/1.1/DTD/svg11.dtd">
<svg width="100%" height="100%" viewBox="0 0 85 81" version="1.1" xmlns="http://www.w3.org/2000/svg" xmlns:xlink="http://www.w3.org/1999/xlink" xml:space="preserve" xmlns:serif="http://www.serif.com/" style="fill-rule:evenodd;clip-rule:evenodd;stroke-linejoin:round;stroke-miterlimit:2;">
    <g transform="matrix(1,0,0,1,-2.6,-5.15556)">
        <path id="XMLID_94_" d="M10.7,72.4C9.3,72.4 7.9,72.9 6.9,74C5.9,75 5.3,76.4 5.3,77.8C5.3,79.2 5.9,80.6 6.9,81.6C7.9,82.6 9.3,83.2 10.7,83.2C12.1,83.2 13.5,82.6 14.5,81.6C16.6,79.5 16.6,76.1 14.5,74C13.5,72.9 12.1,72.4 10.7,72.4M10.7,85.9C8.5,85.9 6.5,85.1 5,83.5C3.5,82 2.6,79.9 2.6,77.8C2.6,75.6 3.4,73.6 5,72.1C8.2,68.9 13.3,68.9 16.4,72.1C19.6,75.3 19.6,80.4 16.4,83.5C14.9,85 12.9,85.9 10.7,85.9" style="fill:white;fill-rule:nonzero;"/>
        <path id="XMLID_73_" d="M14.2,59.3C12.8,59.3 11.4,59.9 10.4,60.9C8.3,63 8.3,66.4 10.4,68.5C12.5,70.6 15.9,70.6 18,68.5C19,67.5 19.6,66.1 19.6,64.7C19.6,63.3 19,61.9 18,60.9C17,59.9 15.7,59.3 14.2,59.3M14.2,72.8C12.1,72.8 10.1,72 8.5,70.4C5.3,67.2 5.3,62.1 8.5,59C10,57.5 12.1,56.6 14.2,56.6C16.4,56.6 18.4,57.4 19.9,59C21.4,60.5 22.3,62.6 22.3,64.7C22.3,66.9 21.5,68.9 19.9,70.4C18.4,72 16.3,72.8 14.2,72.8" style="fill:white;fill-rule:nonzero;"/>
        <path id="XMLID_17_" d="M23.8,68.9C22.4,68.9 21,69.4 20,70.5C17.9,72.6 17.9,76 20,78.1C22.1,80.2 25.5,80.2 27.6,78.1C28.6,77.1 29.2,75.7 29.2,74.3C29.2,72.9 28.6,71.5 27.6,70.5C26.5,69.4 25.1,68.9 23.8,68.9M23.8,82.4C21.7,82.4 19.7,81.6 18.1,80C14.9,76.8 14.9,71.7 18.1,68.6C21.3,65.4 26.4,65.4 29.5,68.6C31,70.1 31.9,72.2 31.9,74.3C31.9,76.5 31.1,78.5 29.5,80C27.9,81.6 25.8,82.4 23.8,82.4" style="fill:white;fill-rule:nonzero;"/>
        <path id="XMLID_85_" d="M21.3,68.4C21,68.4 20.6,68.3 20.3,68C19.8,67.5 19.8,66.6 20.3,66.1L61.2,25.2C61.7,24.7 62.6,24.7 63.1,25.2C63.6,25.7 63.6,26.6 63.1,27.1L22.3,68C22,68.3 21.7,68.4 21.3,68.4" style="fill:white;fill-rule:nonzero;"/>
        <path id="XMLID_84_" d="M69.2,39.7C68.9,39.7 68.5,39.6 68.2,39.3L58.7,29.8C58.2,29.3 58.2,28.4 58.7,27.9C59.2,27.4 60.1,27.4 60.6,27.9L70.1,37.4C70.6,37.9 70.6,38.8 70.1,39.3C69.9,39.6 69.6,39.7 69.2,39.7" style="fill:white;fill-rule:nonzero;"/>
        <path id="XMLID_83_" d="M59.3,49.6C59,49.6 58.6,49.5 58.3,49.2L48.8,39.7C48.3,39.2 48.3,38.3 48.8,37.8C49.3,37.3 50.2,37.3 50.7,37.8L60.2,47.3C60.7,47.8 60.7,48.7 60.2,49.2C60,49.5 59.6,49.6 59.3,49.6" style="fill:white;fill-rule:nonzero;"/>
        <path id="XMLID_82_" d="M57.2,46.8C56.9,46.8 56.5,46.7 56.2,46.4C55.7,45.9 55.7,45 56.2,44.5L65.4,35.3C65.9,34.8 66.8,34.8 67.3,35.3C67.8,35.8 67.8,36.7 67.3,37.2L58.1,46.4C57.9,46.7 57.5,46.8 57.2,46.8" style="fill:white;fill-rule:nonzero;"/>
        <path id="XMLID_81_" d="M64.1,44.7C63.8,44.7 63.4,44.6 63.1,44.3L54,35.1C53.5,34.6 53.5,33.7 54,33.2C54.5,32.7 55.4,32.7 55.9,33.2L65.1,42.4C65.6,42.9 65.6,43.8 65.1,44.3C64.8,44.6 64.5,44.7 64.1,44.7" style="fill:white;fill-rule:nonzero;"/>
        <path id="XMLID_80_" d="M41.8,22.7C41.4,22.7 41.1,22.6 40.8,22.3L35,16.3C34.5,15.8 34.5,14.9 35,14.4C35.5,13.9 36.4,13.9 36.9,14.4L42.7,20.4C43.2,20.9 43.2,21.8 42.7,22.3C42.5,22.6 42.1,22.7 41.8,22.7" style="fill:white;fill-rule:nonzero;"/>
        <path id="XMLID_79_" d="M78.1,59C77.7,59 77.4,58.9 77.1,58.6L71.3,52.6C70.8,52.1 70.8,51.2 71.3,50.7C71.8,50.2 72.7,50.2 73.2,50.7L79,56.7C79.5,57.2 79.5,58.1 79,58.6C78.7,58.8 78.4,59 78.1,59" style="fill:white;fill-rule:nonzero;"/>
        <path id="XMLID_78_" d="M59,16C58.4,16 57.8,15.6 57.7,14.9L55.9,6.8C55.7,6.1 56.2,5.4 56.9,5.2C57.6,5 58.3,5.5 58.5,6.2L60.3,14.3C60.5,15 60,15.7 59.3,15.9C59.2,16 59.1,16 59,16" style="fill:white;fill-rule:nonzero;"/>
        <path id="XMLID_77_" d="M77.6,37.3C76.9,37.3 76.3,36.7 76.3,36C76.3,35.3 76.8,34.6 77.6,34.6L85.9,34.3C86.6,34.3 87.3,34.8 87.3,35.6C87.3,36.3 86.8,37 86,37L77.6,37.3" style="fill:white;fill-rule:nonzero;"/>
        <path id="XMLID_76_" d="M56.1,66.4C55.5,66.4 54.9,66 54.8,65.3L53,57.2C52.8,56.5 53.3,55.8 54,55.6C54.7,55.4 55.4,55.9 55.6,56.6L57.4,64.7C57.6,65.4 57.1,66.1 56.4,66.3C56.3,66.4 56.2,66.4 56.1,66.4" style="fill:white;fill-rule:nonzero;"/>
        <path id="XMLID_75_" d="M27.3,37.3C26.6,37.3 26,36.7 26,36C26,35.3 26.5,34.6 27.3,34.6L35.6,34.3C36.3,34.3 37,34.8 37,35.6C37,36.3 36.5,37 35.7,37L27.3,37.3" style="fill:white;fill-rule:nonzero;"/>
        <path id="XMLID_74_" d="M74,19.9C73.7,19.9 73.3,19.8 73,19.5C72.5,19 72.5,18.1 73,17.6L79.6,11C80.1,10.5 81,10.5 81.5,11C82,11.5 82,12.4 81.5,12.9L74.9,19.5C74.7,19.8 74.3,19.9 74,19.9" style="fill:white;fill-rule:nonzero;"/>
    </g>
</svg>
