<svg width="169" height="16" viewBox="0 0 169 16" fill="none" xmlns="http://www.w3.org/2000/svg">
<path fill="#fff" d="M53.3454 10.5651H53.3276C53.0873 9.26546 51.8144 4.51217 51.2536 2.38477H49.8561C49.233 4.86823 47.969 9.25656 47.6842 10.6185H47.6664C47.4972 9.5058 46.5626 5.83847 45.7793 2.38477H44.2305L46.8385 12.194H48.3785C48.9838 9.99537 50.1854 5.82066 50.4792 4.30745H50.497C50.764 5.58033 51.9479 9.95086 52.5265 12.194H54.0664L56.8881 2.39367H55.4639C54.9476 4.32525 53.6658 8.77589 53.3454 10.5651Z" fill="#0B0B1E"/>
<path fill="#fff" d="M61.8635 4.84152C60.6618 4.84152 60.012 5.43791 59.6649 6.02539V2.38477H58.2852V12.194H59.6649V8.28632C59.6649 6.87992 60.1722 6.01649 61.4273 6.01649C62.4332 6.01649 62.9049 6.66629 62.9049 7.84126V12.2029H64.2846V7.60982C64.2935 5.50912 63.0652 4.84152 61.8635 4.84152Z" fill="#0B0B1E"/>
<path fill="#fff" d="M67.659 5.01074H66.2793V12.1941H67.659V5.01074Z" fill="#0B0B1E"/>
<path fill="#fff" d="M71.727 2.92871H70.3473V5.01161H69.1367V6.11537H70.3473V10.477C70.3473 11.6876 70.828 12.2929 72.0118 12.2929C72.3679 12.2929 72.8041 12.2751 73.1245 12.1683V11.1357C72.9376 11.1891 72.6972 11.1891 72.5281 11.1891C71.8961 11.1891 71.727 10.8598 71.727 10.1833V6.11537H73.2758V5.01161H71.727V2.92871Z" fill="#0B0B1E"/>
<path fill="#fff" d="M77.5211 4.8418C75.3047 4.8418 74.2188 6.52414 74.2188 8.67825C74.2188 10.5386 75.1623 12.3634 77.4321 12.3634C79.4616 12.3634 80.2271 11.0905 80.5031 10.1737H79.1056C78.8919 10.681 78.5448 11.2151 77.4677 11.2151C76.2928 11.2151 75.6163 10.2093 75.6074 8.85628H80.601C80.6277 8.66045 80.6277 8.49133 80.6277 8.26879C80.6366 6.69327 79.8622 4.8418 77.5211 4.8418ZM75.6608 7.92164C75.7765 6.74667 76.2928 5.91885 77.5122 5.91885C78.6872 5.91885 79.2302 6.80898 79.248 7.92164H75.6608Z" fill="#0B0B1E"/>
<path fill="#fff" d="M89.4139 2.38477H85.6309V12.194H87.0818V8.24182H89.3427C91.2565 8.24182 92.6718 7.22707 92.6718 5.27769C92.6718 3.47072 91.3544 2.38477 89.4139 2.38477ZM89.2448 7.03124H87.0818V3.60424H89.2804C90.3841 3.60424 91.1853 4.15612 91.1853 5.31329C91.1853 6.42595 90.5088 7.03124 89.2448 7.03124Z" fill="#0B0B1E"/>
<path fill="#fff" d="M99.6149 7.20975C99.6149 5.57191 98.6447 4.842 96.8466 4.842C94.7637 4.8242 94.1139 5.95467 94.016 7.00502H95.3601C95.4758 6.45314 95.6716 5.90126 96.811 5.90126C98.0661 5.90126 98.2619 6.62226 98.2619 7.22755V7.80613H97.078C94.9506 7.80613 93.6777 8.55384 93.6777 10.165C93.6777 11.2509 94.3987 12.3636 96.1078 12.3636C97.4786 12.3636 98.0394 11.7672 98.2797 11.3043C98.3064 11.6871 98.3509 12.0342 98.4043 12.1945H99.7128C99.6683 11.9986 99.6149 11.2331 99.6149 10.5744V7.20975V7.20975ZM98.2708 8.9633C98.2708 10.1917 98.0483 11.3043 96.4104 11.3043C95.5648 11.3043 95.0841 10.7792 95.0841 10.076C95.0841 9.13243 95.7873 8.73187 97.167 8.73187H98.2708V8.9633Z" fill="#0B0B1E"/>
<path fill="#fff" d="M105.32 4.8418C104.118 4.8418 103.406 5.40258 103.032 6.09688C103.032 5.66962 103.006 5.23345 102.979 5.01092H101.635C101.653 5.5717 101.653 6.16809 101.653 6.76448V15.2741H103.032V11.3664C103.344 11.9005 103.931 12.3723 105.062 12.3723C106.798 12.3723 108.195 10.9926 108.195 8.42012C108.204 6.2215 106.993 4.8418 105.32 4.8418ZM104.848 11.2062C103.442 11.2062 102.97 10.236 102.97 8.59814C102.97 6.9069 103.522 5.99896 104.946 5.99896C106.121 5.99896 106.78 6.98701 106.78 8.46462C106.78 10.1737 106.112 11.2062 104.848 11.2062Z" fill="#0B0B1E"/>
<path fill="#fff" d="M112.869 4.8418C110.652 4.8418 109.566 6.52414 109.566 8.67825C109.566 10.5386 110.51 12.3634 112.78 12.3634C114.809 12.3634 115.575 11.0905 115.851 10.1737H114.453C114.24 10.681 113.892 11.2151 112.815 11.2151C111.64 11.2151 110.964 10.2093 110.955 8.85628H115.949C115.975 8.66045 115.975 8.49133 115.975 8.26879C115.984 6.69327 115.21 4.8418 112.869 4.8418ZM111.008 7.92164C111.124 6.74667 111.64 5.91885 112.86 5.91885C114.035 5.91885 114.578 6.80898 114.596 7.92164H111.008Z" fill="#0B0B1E"/>
<path fill="#fff" d="M119.118 6.43513C119.118 5.80314 119.1 5.20675 119.074 5.01092H117.721C117.721 5.43818 117.739 6.01677 117.739 6.9603V12.1943H119.118V8.77617C119.118 6.9247 120.053 6.2393 121.513 6.2126V4.8418C120.311 4.8685 119.483 5.49159 119.118 6.43513Z" fill="#0B0B1E"/>
<path fill="#fff" d="M130.083 3.44473C131.597 3.44473 132.255 4.23694 132.576 5.25169H134.027C133.76 3.61385 132.505 2.25195 130.137 2.25195C127.119 2.25195 125.633 4.6642 125.633 7.32569C125.633 10.1029 127.11 12.3193 130.075 12.3193C132.327 12.3193 133.599 11.0642 134.027 9.37299H132.576C132.238 10.2453 131.614 11.1176 130.137 11.1176C127.947 11.1176 127.155 9.15936 127.155 7.28118C127.164 5.3318 127.992 3.44473 130.083 3.44473Z" fill="#0B0B1E"/>
<path fill="#fff" d="M141.291 7.20975C141.291 5.57191 140.32 4.842 138.522 4.842C136.439 4.8242 135.79 5.95467 135.692 7.00502H137.036C137.152 6.45314 137.347 5.90126 138.487 5.90126C139.742 5.90126 139.938 6.62226 139.938 7.22755V7.80613H138.754C136.626 7.80613 135.354 8.55384 135.354 10.165C135.354 11.2509 136.075 12.3636 137.784 12.3636C139.154 12.3636 139.715 11.7672 139.955 11.3043C139.982 11.6871 140.027 12.0342 140.08 12.1945H141.389C141.344 11.9986 141.291 11.2331 141.291 10.5744V7.20975V7.20975ZM139.955 8.9633C139.955 10.1917 139.733 11.3043 138.095 11.3043C137.249 11.3043 136.769 10.7792 136.769 10.076C136.769 9.13243 137.472 8.73187 138.852 8.73187H139.955V8.9633Z" fill="#0B0B1E"/>
<path fill="#fff" d="M146.898 4.8418C145.696 4.8418 144.984 5.40258 144.61 6.09688C144.61 5.66962 144.584 5.23345 144.557 5.01092H143.213C143.231 5.5717 143.231 6.16809 143.231 6.76448V15.2741H144.61V11.3664C144.922 11.9005 145.509 12.3723 146.64 12.3723C148.376 12.3723 149.773 10.9926 149.773 8.42012C149.773 6.2215 148.563 4.8418 146.898 4.8418ZM146.417 11.2062C145.011 11.2062 144.539 10.236 144.539 8.59814C144.539 6.9069 145.091 5.99896 146.515 5.99896C147.69 5.99896 148.349 6.98701 148.349 8.46462C148.349 10.1737 147.69 11.2062 146.417 11.2062Z" fill="#0B0B1E"/>
<path fill="#fff" d="M152.96 2.37695H151.58V3.74775H152.96V2.37695Z" fill="#0B0B1E"/>
<path fill="#fff" d="M152.96 5.01074H151.58V12.1941H152.96V5.01074Z" fill="#0B0B1E"/>
<path fill="#fff" d="M157.028 2.91895H155.648V5.00185H154.438V6.10561H155.648V10.4672C155.648 11.6778 156.129 12.2831 157.313 12.2831C157.669 12.2831 158.105 12.2653 158.425 12.1585V11.1259C158.238 11.1793 157.998 11.1793 157.829 11.1793C157.197 11.1793 157.028 10.85 157.028 10.1735V6.11451H158.577V5.01075H157.028V2.91895Z" fill="#0B0B1E"/>
<path fill="#fff" d="M165.582 7.20975C165.582 5.57191 164.611 4.842 162.813 4.842C160.73 4.8242 160.081 5.95467 159.983 7.00502H161.327C161.443 6.45314 161.638 5.90126 162.778 5.90126C164.033 5.90126 164.229 6.62226 164.229 7.22755V7.80613H163.045C160.917 7.80613 159.645 8.55384 159.645 10.165C159.645 11.2509 160.366 12.3636 162.075 12.3636C163.445 12.3636 164.006 11.7672 164.246 11.3043C164.273 11.6871 164.318 12.0342 164.371 12.1945H165.68C165.635 11.9986 165.582 11.2331 165.582 10.5744V7.20975V7.20975ZM164.246 8.9633C164.246 10.1917 164.024 11.3043 162.386 11.3043C161.541 11.3043 161.06 10.7792 161.06 10.076C161.06 9.13243 161.763 8.73187 163.143 8.73187H164.246V8.9633Z" fill="#0B0B1E"/>
<path fill="#fff" d="M168.999 2.37695H167.619V12.1862H168.999V2.37695Z" fill="#0B0B1E"/>
<path fill="#fff" d="M67.659 2.38477H66.2793V3.76447H67.659V2.38477Z" fill="#0B0B1E"/>
<path fill="#fff" d="M34.145 4.14789L31.2966 1.29948C30.4688 0.471656 29.3561 0.00878906 28.1812 0.00878906C27.6204 0.00878906 27.0774 0.231321 26.6768 0.63188L17.918 9.41746L23.3923 14.8917C23.9619 15.4614 24.8966 15.4614 25.4663 14.8917L34.1361 6.22189C34.7236 5.64331 34.7236 4.71757 34.145 4.14789Z" fill="#0B0B1E"/>
<path fill="#fff" d="M6.82729 0C5.66122 0 4.53966 0.462867 3.71184 1.29069L0.427262 4.57526C-0.142421 5.14495 -0.142421 6.07958 0.427262 6.64927L8.60755 14.8296C9.17723 15.3992 10.1119 15.3992 10.6816 14.8296L25.4755 0.00890129L6.82729 0Z" fill="#0B0B1E"/>
</svg>
