<svg width="254" height="24" viewBox="0 0 254 24" fill="none" xmlns="http://www.w3.org/2000/svg">
<path d="M41.9842 0.0117188H41.4221C39.4681 0.0117188 37.5944 0.790331 36.2026 2.17304L25.3887 13.0199L34.7973 22.4572C35.6538 23.3164 37.0591 23.3164 37.9156 22.4572L50.9512 9.38192C51.8077 8.52276 51.8077 7.1132 50.9512 6.25404L46.6685 1.95825C45.4104 0.709785 43.7375 0.0117188 41.9842 0.0117188Z" fill="url(#paint0_linear)"/>
<path opacity="0.18" d="M39.0817 0.0117188L27.4648 15.1141L25.377 13.0199L38.0913 0.0117188H39.0817Z" fill="#004DCD"/>
<path d="M10.2652 0C8.51192 0 6.8256 0.698066 5.58093 1.94653L0.642409 6.90012C-0.214136 7.75928 -0.214136 9.16883 0.642409 10.028L12.9419 22.365C13.7984 23.2241 15.2037 23.2241 16.0602 22.365L25.3752 13.0216L36.1087 2.25529C37.5408 0.83231 39.4814 0.0134244 41.5157 0.0134244L10.2652 0Z" fill="url(#paint1_linear)"/>
<path d="M79.8063 15.8926H79.7795C79.4182 13.9327 77.5043 6.76408 76.6612 3.55566H74.5599C73.6231 7.30106 71.7226 13.9193 71.2944 15.9732H71.2676C71.0133 14.2951 69.608 8.76431 68.4303 3.55566H66.1016L70.0229 18.3359H72.3383C73.2484 15.0201 75.0551 8.72404 75.4968 6.4419H75.5236C75.9251 8.36158 77.7051 14.9529 78.575 18.3359H80.8904L85.1329 3.55566H82.9916C82.2153 6.46875 80.2881 13.1943 79.8063 15.8926Z" fill="black"/>
<path d="M92.6165 7.24834C90.8097 7.24834 89.8327 8.14777 89.3108 9.03378V3.55664H87.2363V18.3369H89.3108V12.4436C89.3108 10.3225 90.0736 9.02035 91.9607 9.02035C93.473 9.02035 94.1824 10.0003 94.1824 11.7723V18.3503H96.2568V11.4233C96.2702 8.25517 94.4233 7.24834 92.6165 7.24834Z" fill="black"/>
<path d="M101.326 7.50391H99.252V18.3373H101.326V7.50391Z" fill="black"/>
<path d="M107.443 4.36328H105.369V7.50458H103.549V9.1692H105.369V15.7471C105.369 17.5728 106.092 18.4857 107.872 18.4857C108.407 18.4857 109.063 18.4589 109.545 18.2978V16.7405C109.264 16.8211 108.902 16.8211 108.648 16.8211C107.698 16.8211 107.443 16.3244 107.443 15.3041V9.1692H109.772V7.50458H107.443V4.36328Z" fill="black"/>
<path d="M116.155 7.24902C112.822 7.24902 111.189 9.78623 111.189 13.0349C111.189 15.8406 112.608 18.5926 116.021 18.5926C119.072 18.5926 120.223 16.6729 120.638 15.2902H118.537C118.216 16.0554 117.694 16.8609 116.074 16.8609C114.308 16.8609 113.291 15.3439 113.277 13.3034H120.785C120.826 13.0081 120.826 12.753 120.826 12.4174C120.839 10.0413 119.675 7.24902 116.155 7.24902ZM113.358 11.8939C113.532 10.1218 114.308 8.87337 116.141 8.87337C117.908 8.87337 118.724 10.2158 118.751 11.8939H113.358Z" fill="black"/>
<path d="M134.038 3.55664H128.35V18.3369H130.531V12.3764H133.931C136.808 12.3764 138.936 10.8461 138.936 7.90613C138.936 5.19441 136.955 3.55664 134.038 3.55664ZM133.783 10.5507H130.531V5.38235H133.837C135.496 5.38235 136.701 6.21466 136.701 7.95983C136.701 9.63787 135.684 10.5507 133.783 10.5507Z" fill="black"/>
<path d="M149.374 10.8349C149.374 8.36478 147.915 7.26398 145.212 7.26398C142.08 7.23714 141.103 8.94203 140.956 10.5261H142.977C143.151 9.69379 143.445 8.86148 145.158 8.86148C147.045 8.86148 147.34 9.94886 147.34 10.8617V11.7343H145.56C142.361 11.7343 140.447 12.8619 140.447 15.2917C140.447 16.9295 141.531 18.6076 144.101 18.6076C146.162 18.6076 147.005 17.7081 147.367 17.0101C147.407 17.5873 147.474 18.1109 147.554 18.3525H149.521C149.454 18.0572 149.374 16.9027 149.374 15.9093V10.8349ZM147.353 13.466C147.353 15.3186 147.019 16.9966 144.556 16.9966C143.285 16.9966 142.562 16.2046 142.562 15.1441C142.562 13.7211 143.619 13.117 145.694 13.117H147.353V13.466Z" fill="black"/>
<path d="M157.953 7.24902C156.146 7.24902 155.075 8.09476 154.513 9.14186C154.513 8.49749 154.473 7.8397 154.433 7.50409H152.412C152.439 8.34982 152.439 9.24925 152.439 10.1487V22.9824H154.513V17.0891C154.982 17.8945 155.865 18.606 157.565 18.606C160.175 18.606 162.276 16.5253 162.276 12.6456C162.289 9.34322 160.469 7.24902 157.953 7.24902ZM157.244 16.8474C155.129 16.8474 154.42 15.3842 154.42 12.9141C154.42 10.3635 155.249 8.99419 157.391 8.99419C159.157 8.99419 160.148 10.4843 160.148 12.7127C160.148 15.3036 159.144 16.8474 157.244 16.8474Z" fill="black"/>
<path d="M169.303 7.24902C165.971 7.24902 164.338 9.78623 164.338 13.0349C164.338 15.8406 165.757 18.5926 169.169 18.5926C172.221 18.5926 173.372 16.6729 173.787 15.2902H171.685C171.364 16.0554 170.842 16.8609 169.223 16.8609C167.456 16.8609 166.439 15.3439 166.426 13.3034H173.934C173.974 13.0081 173.974 12.753 173.974 12.4174C173.987 10.0413 172.823 7.24902 169.303 7.24902ZM166.506 11.8939C166.68 10.1218 167.456 8.87337 169.29 8.87337C171.056 8.87337 171.873 10.2158 171.9 11.8939H166.506Z" fill="black"/>
<path d="M178.697 9.66541C178.697 8.71228 178.67 7.81285 178.63 7.51751H176.596C176.596 8.16188 176.622 9.03446 176.622 10.4574V18.351H178.697V13.196C178.697 10.4037 180.102 9.37007 182.297 9.3298V7.24902C180.49 7.30272 179.246 8.229 178.697 9.66541Z" fill="black"/>
<path d="M195.186 5.14164C197.461 5.14164 198.451 6.33641 198.933 7.86678H201.115C200.713 5.3967 198.826 3.34277 195.266 3.34277C190.729 3.34277 188.494 6.98078 188.494 10.9947C188.494 15.1831 190.716 18.5257 195.173 18.5257C198.559 18.5257 200.472 16.6329 201.115 14.0823H198.933C198.425 15.3979 197.488 16.7134 195.266 16.7134C191.974 16.7134 190.783 13.7601 190.783 10.9275C190.796 8.00103 192.041 5.14164 195.186 5.14164Z" fill="black"/>
<path d="M212.034 10.8349C212.034 8.36478 210.575 7.26398 207.872 7.26398C204.74 7.23714 203.763 8.94203 203.616 10.5261H205.637C205.811 9.69379 206.105 8.86148 207.818 8.86148C209.705 8.86148 210 9.94886 210 10.8617V11.7343H208.22C205.021 11.7343 203.107 12.8619 203.107 15.2917C203.107 16.9295 204.191 18.6076 206.761 18.6076C208.822 18.6076 209.665 17.7081 210.027 17.0101C210.067 17.5873 210.134 18.1109 210.214 18.3525H212.181C212.115 18.0572 212.034 16.9027 212.034 15.9093V10.8349ZM210.027 13.466C210.027 15.3186 209.692 16.9966 207.23 16.9966C205.958 16.9966 205.235 16.2046 205.235 15.1441C205.235 13.7211 206.293 13.117 208.367 13.117H210.027V13.466Z" fill="black"/>
<path d="M220.47 7.24902C218.664 7.24902 217.593 8.09476 217.031 9.14186C217.031 8.49749 216.991 7.8397 216.951 7.50409H214.93C214.956 8.34982 214.956 9.24925 214.956 10.1487V22.9824H217.031V17.0891C217.499 17.8945 218.383 18.606 220.082 18.606C222.692 18.606 224.793 16.5253 224.793 12.6456C224.793 9.34322 222.973 7.24902 220.47 7.24902ZM219.748 16.8474C217.633 16.8474 216.924 15.3842 216.924 12.9141C216.924 10.3635 217.754 8.99419 219.895 8.99419C221.662 8.99419 222.652 10.4843 222.652 12.7127C222.652 15.2902 221.662 16.8474 219.748 16.8474Z" fill="black"/>
<path d="M229.582 3.54492H227.508V5.61227H229.582V3.54492Z" fill="black"/>
<path d="M229.582 7.50391H227.508V18.3373H229.582V7.50391Z" fill="black"/>
<path d="M235.697 4.36328H233.623V7.50458H231.803V9.1692H233.623V15.7471C233.623 17.5728 234.346 18.4857 236.126 18.4857C236.661 18.4857 237.317 18.4589 237.799 18.2978V16.7405C237.518 16.8211 237.156 16.8211 236.902 16.8211C235.952 16.8211 235.697 16.3244 235.697 15.3041V9.1692H238.026V7.50458H235.697V4.36328Z" fill="black"/>
<path d="M248.558 10.8349C248.558 8.36478 247.099 7.26398 244.395 7.26398C241.264 7.23714 240.287 8.94203 240.139 10.5261H242.16C242.334 9.69379 242.629 8.86148 244.342 8.86148C246.229 8.86148 246.523 9.94886 246.523 10.8617V11.7343H244.743C241.545 11.7343 239.631 12.8619 239.631 15.2917C239.631 16.9295 240.715 18.6076 243.285 18.6076C245.346 18.6076 246.189 17.7081 246.55 17.0101C246.59 17.5873 246.657 18.1109 246.737 18.3525H248.705C248.638 18.0572 248.558 16.9027 248.558 15.9093V10.8349ZM246.55 13.466C246.55 15.3186 246.216 16.9966 243.753 16.9966C242.482 16.9966 241.759 16.2046 241.759 15.1441C241.759 13.7211 242.816 13.117 244.891 13.117H246.55V13.466Z" fill="black"/>
<path d="M253.698 3.54492H251.623V18.3386H253.698V3.54492Z" fill="black"/>
<path d="M101.326 3.55664H99.252V5.63742H101.326V3.55664Z" fill="black"/>
<defs>
<linearGradient id="paint0_linear" x1="37.2068" y1="23.7358" x2="39.4447" y2="0.643513" gradientUnits="userSpaceOnUse">
<stop stop-color="#00BCF5"/>
<stop offset="0.3663" stop-color="#0097F6"/>
<stop offset="0.9461" stop-color="#0068F8"/>
</linearGradient>
<linearGradient id="paint1_linear" x1="6.45529" y1="15.7025" x2="26.1572" y2="-0.266595" gradientUnits="userSpaceOnUse">
<stop stop-color="#84DAFF"/>
<stop offset="0.4544" stop-color="#00C3FF"/>
<stop offset="1" stop-color="#00A9FF"/>
</linearGradient>
</defs>
</svg>
