<?xml version="1.0" encoding="UTF-8" standalone="no"?>
<!DOCTYPE svg PUBLIC "-//W3C//DTD SVG 1.1//EN" "http://www.w3.org/Graphics/SVG/1.1/DTD/svg11.dtd">
<svg width="100%" height="100%" viewBox="0 0 35 16" version="1.1" xmlns="http://www.w3.org/2000/svg" xmlns:xlink="http://www.w3.org/1999/xlink" xml:space="preserve" xmlns:serif="http://www.serif.com/" style="fill-rule:evenodd;clip-rule:evenodd;stroke-linejoin:round;stroke-miterlimit:2;">
    <path d="M34.145,4.148L31.297,1.299C30.469,0.472 29.356,0.009 28.181,0.009C27.62,0.009 27.077,0.231 26.677,0.632L17.918,9.417L23.392,14.892C23.962,15.461 24.897,15.461 25.466,14.892L34.136,6.222C34.724,5.643 34.724,4.718 34.145,4.148Z" style="fill:white;fill-rule:nonzero;"/>
    <path d="M6.827,0C5.661,0 4.54,0.463 3.712,1.291L0.427,4.575C-0.142,5.145 -0.142,6.08 0.427,6.649L8.608,14.83C9.177,15.399 10.112,15.399 10.682,14.83L25.476,0.009L6.827,0Z" style="fill:white;fill-rule:nonzero;"/>
</svg>
