<svg id="Calque_1" data-name="Calque 1" xmlns="http://www.w3.org/2000/svg" viewBox="0 0 266.59 86.63"><defs><style>.cls-1{fill:#fff;}</style></defs><title>leax_blanc</title><path class="cls-1" d="M191.89,66.06c1.39,3.52,3.15,4.83,4.53,4.91V72.5c-3.71-.15-8.91-0.22-14-0.22s-10.15.07-12.88,0.22V71c3.63-.15,5.39-0.71,5.39-2.81a11.18,11.18,0,0,0-.94-3.63l-4.57-12.59H154l-1.31,3.45c-1.72,4.49-2.47,7.72-2.47,10,0,4.49,2.85,5.43,6.93,5.58V72.5c-3.82-.15-6.52-0.22-10-0.22-2,0-4.38.07-5.92,0.22V71c2.36-.37,4.61-2.62,7-9l17-43.79c1.24,0.11,2.66.15,4,.15s2.81,0,4-.15ZM162,31.23L154.58,50.4h14.35Z" transform="translate(-2.3 -2.03)"/><path class="cls-1" d="M264.13,74.43c2.1,2.88,2.77,3.67,4.76,3.82v1.61c-2.51-.07-8.05-0.3-13.11-0.3s-10.82.22-13.33,0.3V78.25c3.18,0,4.76-.3,4.76-1.31a2.49,2.49,0,0,0-.56-1.31L229,50l-4.72,5.88c-2.73,3.37-3.93,6.48-3.93,9,0,3.48,2.4,5.81,6.4,6.11V72.5c-2.92-.15-10.82-0.22-13.26-0.22-3.15,0-5.77.07-7.45,0.22V71c3.82-1.61,8.2-5.28,12.74-10.9l9.21-11.54-17.49-25c-2.1-2.88-2.77-3.67-4.76-3.82V18.12c2.66,0.07,8.5.3,13.86,0.3,4.76,0,10-.22,12.36-0.3v1.61c-3.22,0-4.79.3-4.79,1.31a2.49,2.49,0,0,0,.56,1.31l11.12,15.81,4.38-5.39c2.62-3,3.86-5.84,3.86-8.05,0-2.81-1.95-4.68-5.39-5V18.19c2.92,0.15,7.75.22,10.23,0.22,3.15,0,5.73-.07,7.42-0.22v1.54c-3.52,1.31-7.49,5.13-10.34,8.65l-9.14,11.2Z" transform="translate(-2.3 -2.03)"/><path class="cls-1" d="M29.53,12.42c-5.21.22-6.22,3.53-6.22,9.11V65.87c0,4.23.64,4.83,3.93,4.83h2.55c5.36,0,13.11-9.06,14.87-19h1.76c-0.15,1.84-.22,4.31-0.22,7s0,8.32.52,13.67c-5.21-.22-12.44-0.22-17.57-0.22-5.51,0-17.94,0-26.86.22V70.93c4.68-.22,5.47-1,5.47-6.59V21.53c0-5.58-.86-8.88-5.47-9.11V10.89C5.22,11,10.43,11.11,16,11.11c5.06,0,10.41-.07,13.56-0.22v1.54Z" transform="translate(-2.3 -2.03)"/><path class="cls-1" d="M104.09,72.47c-5.21-.22-11.3-0.22-16.43-0.22-5.51,0-17.94,0-26.86.22V70.93c4.68-.22,5.47-1,5.47-6.59V26.28c0-5.58-.86-6.37-5.47-6.59V18.15c8.91,0.22,21.35.22,26.86,0.22,4.68,0,11.67,0,16.43-.22-0.37,5.13-.52,10.34-0.52,12.88a55.39,55.39,0,0,0,.22,5.54h-0.73c-1.91-12.74-9.26-16.67-15.55-16.67h-1c-4,0-4.68.64-4.68,4.83V44.37H82.6c5.77,0,9.51-5.66,10.45-10.11h1.76c-0.22,3.37-.3,5.66-0.3,7.45,0,1.31,0,2.36,0,3.45,0,2.51.11,5.06,0.49,10.9H93.27c-0.94-5.69-4.91-10.15-10.67-10.15H81.81v20c0,4.23.71,4.83,4.68,4.83H89c5.06,0,11.65-4.31,14.12-18.17h0.62c-0.15,1.84-.22,4.27-0.22,7A128.63,128.63,0,0,0,104.09,72.47Z" transform="translate(-2.3 -2.03)"/><rect class="cls-1" x="129.87" y="-0.8" width="1.47" height="92.29" transform="translate(22.79 -46.01) rotate(21.1)"/></svg>