<?xml version="1.0" encoding="UTF-8" standalone="no"?><!DOCTYPE svg PUBLIC "-//W3C//DTD SVG 1.1//EN" "http://www.w3.org/Graphics/SVG/1.1/DTD/svg11.dtd"><svg width="601px" height="600px" version="1.1" xmlns="http://www.w3.org/2000/svg" xmlns:xlink="http://www.w3.org/1999/xlink" xml:space="preserve" xmlns:serif="http://www.serif.com/" style="fill-rule:evenodd;clip-rule:evenodd;"><g transform="matrix(1,0,0,1,-3636,0)"><g id="award" transform="matrix(0.75,0,0,1,3636.65,0)"><rect x="0" y="0" width="800" height="600" style="fill:none;"/><g transform="matrix(3.0778,0,0,2.30835,-14.4128,-37.9967)"><g><g transform="matrix(1.11989,0,0,1.11989,-20.88,-20.8646)"><path d="M112.465,175.754C92.77,166.061 79.238,145.774 79.238,122.352C79.238,89.437 105.961,62.715 138.875,62.715C171.79,62.715 198.512,89.437 198.512,122.352C198.512,145.774 184.981,166.061 165.285,175.754L165.285,236.042L138.875,222.739L112.465,236.042L112.465,175.754Z" style="fill:none;stroke:url(#_Linear1);stroke-width:3.09px;"/></g><g transform="matrix(0.751128,0,0,0.751128,13.3385,51.1842)"><circle cx="161.5" cy="86.5" r="54.5" style="fill:none;stroke:url(#_Linear2);stroke-width:4.61px;"/></g></g></g></g></g><defs><linearGradient id="_Linear1" x1="0" y1="0" x2="1" y2="0" gradientUnits="userSpaceOnUse" gradientTransform="matrix(9.78445e-15,-159.792,159.792,9.78445e-15,149.806,236.042)"><stop offset="0" style="stop-color:rgb(77,5,52);stop-opacity:1"/><stop offset="1" style="stop-color:rgb(243,52,52);stop-opacity:1"/></linearGradient><linearGradient id="_Linear2" x1="0" y1="0" x2="1" y2="0" gradientUnits="userSpaceOnUse" gradientTransform="matrix(6.79679e-15,111,-111,6.79679e-15,161.5,31)"><stop offset="0" style="stop-color:rgb(255,236,187);stop-opacity:1"/><stop offset="0.4" style="stop-color:rgb(252,158,71);stop-opacity:1"/><stop offset="1" style="stop-color:rgb(244,63,63);stop-opacity:0"/></linearGradient></defs></svg>