<?xml version="1.0" encoding="UTF-8" standalone="no"?>
<!DOCTYPE svg PUBLIC "-//W3C//DTD SVG 1.1//EN" "http://www.w3.org/Graphics/SVG/1.1/DTD/svg11.dtd">
<svg width="100%" height="100%" viewBox="0 0 1614 430" version="1.1" xmlns="http://www.w3.org/2000/svg" xmlns:xlink="http://www.w3.org/1999/xlink" xml:space="preserve" style="fill-rule:evenodd;clip-rule:evenodd;stroke-miterlimit:1.5;">
    <g transform="matrix(1,0,0,1,-123.14,-8064.52)">
        <g transform="matrix(1,0,0,9.20507,0,1353.83)">
            <g transform="matrix(1,0,0,0.841224,-801,190.217)">
                <g transform="matrix(1,0,0,0.12914,-2083.34,592.167)">
                    <path d="M3285.4,520.02L3298.41,533.032L3311.33,520.113" style="fill:none;stroke:black;stroke-width:3px;"/>
                </g>
                <g transform="matrix(1,0,0,0.12914,-2057.41,596.328)">
                    <path d="M3285.4,520.02L3298.41,528.554L3311.33,520.113" style="fill:none;stroke:black;stroke-width:3px;"/>
                </g>
                <g transform="matrix(1,0,0,0.12914,-2180.67,596.845)">
                    <path d="M3285.4,520.02L3298.41,529.076L3311.33,520.113" style="fill:none;stroke:black;stroke-width:3px;"/>
                </g>
                <g transform="matrix(1,0,0,0.12914,-2125.59,588.861)">
                    <path d="M3285.4,520.02L3298.41,525.285L3311.33,520.113" style="fill:none;stroke:black;stroke-width:3px;"/>
                </g>
                <g transform="matrix(1,0,0,0.12914,-2154.74,593.429)">
                    <path d="M3285.4,520.02L3298.41,516.758L3311.33,520.113" style="fill:none;stroke:black;stroke-width:3px;"/>
                </g>
            </g>
        </g>
        <g transform="matrix(1,0,0,9.20507,0,1353.83)">
            <g transform="matrix(1.21798,0,0,0.0721969,-3563.23,650.879)">
                <path d="M3029.22,1571.97L3139.61,1571.97" style="fill:none;stroke:rgb(255,202,78);stroke-width:3.57px;"/>
            </g>
        </g>
        <g transform="matrix(1,0,0,9.20507,0,1353.83)">
            <g transform="matrix(0.812955,0,0,0.0721969,-2291.61,655.616)">
                <path d="M3029.22,1571.97L3139.61,1571.97" style="fill:none;stroke:rgb(255,202,78);stroke-width:4.71px;"/>
            </g>
        </g>
        <g transform="matrix(1,0,0,9.20507,0,1353.83)">
            <g transform="matrix(0.686604,0,0,0.0817376,-1916.95,633.7)">
                <path d="M3029.22,1571.97L3139.61,1571.97" style="fill:none;stroke:rgb(255,202,78);stroke-width:4.86px;"/>
            </g>
        </g>
        <g transform="matrix(1,0,0,9.20507,0,1353.83)">
            <g transform="matrix(1.03375,0,0,0.0771688,-2980.48,645.245)">
                <path d="M3029.22,1571.97L3139.61,1571.97" style="fill:none;stroke:rgb(255,202,78);stroke-width:3.95px;"/>
            </g>
        </g>
        <g transform="matrix(1,0,0,9.20507,0,1353.83)">
            <g transform="matrix(1,0,0,0.108636,-1559.85,561.492)">
                <path d="M3029.22,1571.97L3139.61,1571.97" style="fill:none;stroke:rgb(255,202,78);stroke-width:3.5px;"/>
            </g>
        </g>
        <g transform="matrix(1,0,0,9.20507,0,1353.83)">
            <g transform="matrix(0.497924,0,0,0.108636,-11.2386,558.593)">
                <path d="M3029.22,1571.97L3139.61,1571.97" style="fill:none;stroke:rgb(255,202,78);stroke-width:4.43px;"/>
            </g>
        </g>
        <g transform="matrix(1,0,0,9.20507,0,1353.83)">
            <g transform="matrix(0.497924,0,0,0.108636,16.2454,564.391)">
                <path d="M3029.22,1571.97L3139.61,1571.97" style="fill:none;stroke:rgb(255,202,78);stroke-width:4.43px;"/>
            </g>
        </g>
        <g transform="matrix(1,0,0,9.20507,0,1353.83)">
            <g transform="matrix(1.25734,0,0,0.0959555,-2214,621.63)">
                <path d="M3029.22,1571.97L3139.61,1571.97" style="fill:none;stroke:rgb(255,202,78);stroke-width:3.22px;"/>
            </g>
        </g>
        <g transform="matrix(1,0,0,9.20507,0,1353.83)">
            <g transform="matrix(0.708793,0,0,0.108636,-514.508,598.798)">
                <path d="M3029.22,1571.97L3139.61,1571.97" style="fill:none;stroke:rgb(255,202,78);stroke-width:4.04px;"/>
            </g>
        </g>
        <g transform="matrix(1,0,0,9.20507,0,1353.83)">
            <g transform="matrix(0.669174,0,0,0.102564,-406.831,614.142)">
                <path d="M3029.22,1571.97L3139.61,1571.97" style="fill:none;stroke:rgb(255,202,78);stroke-width:4.28px;"/>
            </g>
        </g>
    </g>
</svg>
