<?xml version="1.0" encoding="UTF-8" standalone="no"?><!DOCTYPE svg PUBLIC "-//W3C//DTD SVG 1.1//EN" "http://www.w3.org/Graphics/SVG/1.1/DTD/svg11.dtd"><svg width="201px" height="251px" version="1.1" xmlns="http://www.w3.org/2000/svg" xmlns:xlink="http://www.w3.org/1999/xlink" xml:space="preserve" xmlns:serif="http://www.serif.com/" style="fill-rule:evenodd;clip-rule:evenodd;stroke-linejoin:round;stroke-miterlimit:2;"><g transform="matrix(1,0,0,1,-1349,-1866)"><g id="code" transform="matrix(0.16751,0,0,0.28185,1348.65,1396.58)"><rect x="3.621" y="1668.92" width="1193.96" height="886.996" style="fill:none;"/><g transform="matrix(1.25,0,0,1,-150.15,-9.09495e-13)"><g transform="matrix(6.52959,0,0,5.00248,-3420.41,-24107.1)"><path d="M566,5184.55L657,5184.55C659.018,5184.55 660.657,5182.96 660.657,5181C660.657,5179.04 659.018,5177.45 657,5177.45L566,5177.45C563.982,5177.45 562.343,5179.04 562.343,5181C562.343,5182.96 563.982,5184.55 566,5184.55Z" style="fill:rgb(255,199,59);"/></g><g transform="matrix(6.52959,0,0,5.00248,-3420.41,-23704.6)"><path d="M566,5184.55L657,5184.55C659.018,5184.55 660.657,5182.96 660.657,5181C660.657,5179.04 659.018,5177.45 657,5177.45L566,5177.45C563.982,5177.45 562.343,5179.04 562.343,5181C562.343,5182.96 563.982,5184.55 566,5184.55Z" style="fill:rgb(255,199,59);"/></g><g transform="matrix(6.52959,0,0,5.00248,-3420.41,-23604.2)"><path d="M566,5184.55L620,5184.55C622.018,5184.55 623.657,5182.96 623.657,5181C623.657,5179.04 622.018,5177.45 620,5177.45L566,5177.45C563.982,5177.45 562.343,5179.04 562.343,5181C562.343,5182.96 563.982,5184.55 566,5184.55Z" style="fill:rgb(255,199,59);"/></g><g transform="matrix(2.58314,0,0,5.00248,-1186.71,-24006.7)"><path d="M566,5184.55L657,5184.55C662.102,5184.55 666.244,5182.96 666.244,5181C666.244,5179.04 662.102,5177.45 657,5177.45L566,5177.45C560.898,5177.45 556.756,5179.04 556.756,5181C556.756,5182.96 560.898,5184.55 566,5184.55Z" style="fill:white;"/></g><g transform="matrix(1.97323,0,0,5.00248,-532.98,-24006.7)"><path d="M566,5184.55L657,5184.55C663.679,5184.55 669.102,5182.96 669.102,5181C669.102,5179.04 663.679,5177.45 657,5177.45L566,5177.45C559.321,5177.45 553.898,5179.04 553.898,5181C553.898,5182.96 559.321,5184.55 566,5184.55Z" style="fill:rgb(6,255,222);"/></g><g transform="matrix(2.58314,0,0,5.00248,-1186.71,-23503.9)"><path d="M566,5184.55L657,5184.55C662.102,5184.55 666.244,5182.96 666.244,5181C666.244,5179.04 662.102,5177.45 657,5177.45L566,5177.45C560.898,5177.45 556.756,5179.04 556.756,5181C556.756,5182.96 560.898,5184.55 566,5184.55Z" style="fill:white;"/></g><g transform="matrix(1.97323,0,0,5.00248,-532.98,-23503.9)"><path d="M566,5184.55L657,5184.55C663.679,5184.55 669.102,5182.96 669.102,5181C669.102,5179.04 663.679,5177.45 657,5177.45L566,5177.45C559.321,5177.45 553.898,5179.04 553.898,5181C553.898,5182.96 559.321,5184.55 566,5184.55Z" style="fill:rgb(6,255,222);"/></g><g transform="matrix(2.58314,0,0,5.00248,-932.057,-23905.4)"><path d="M566,5184.55L657,5184.55C662.102,5184.55 666.244,5182.96 666.244,5181C666.244,5179.04 662.102,5177.45 657,5177.45L566,5177.45C560.898,5177.45 556.756,5179.04 556.756,5181C556.756,5182.96 560.898,5184.55 566,5184.55Z" style="fill:rgb(153,0,241);"/></g><g transform="matrix(0.932799,0,0,5.00248,313.004,-23905.4)"><path d="M566,5184.55L657,5184.55C671.129,5184.55 682.599,5182.96 682.599,5181C682.599,5179.04 671.129,5177.45 657,5177.45L566,5177.45C551.871,5177.45 540.401,5179.04 540.401,5181C540.401,5182.96 551.871,5184.55 566,5184.55Z" style="fill:rgb(3,49,255);"/></g><g transform="matrix(1.97323,0,0,5.00248,-841.504,-23906.3)"><path d="M566,5184.55L657,5184.55C663.679,5184.55 669.102,5182.96 669.102,5181C669.102,5179.04 663.679,5177.45 657,5177.45L566,5177.45C559.321,5177.45 553.898,5179.04 553.898,5181C553.898,5182.96 559.321,5184.55 566,5184.55Z" style="fill:rgb(243,91,104);"/></g><g transform="matrix(2.58314,0,0,5.00248,-1023.47,-23805)"><path d="M566,5184.55L657,5184.55C662.102,5184.55 666.244,5182.96 666.244,5181C666.244,5179.04 662.102,5177.45 657,5177.45L566,5177.45C560.898,5177.45 556.756,5179.04 556.756,5181C556.756,5182.96 560.898,5184.55 566,5184.55Z" style="fill:rgb(153,0,241);"/></g><g transform="matrix(0.932799,0,0,5.00248,-252.62,-23805)"><path d="M566,5184.55L657,5184.55C671.129,5184.55 682.599,5182.96 682.599,5181C682.599,5179.04 671.129,5177.45 657,5177.45L566,5177.45C551.871,5177.45 540.401,5179.04 540.401,5181C540.401,5182.96 551.871,5184.55 566,5184.55Z" style="fill:rgb(243,91,104);"/></g></g></g></g></svg>