<?xml version="1.0" encoding="UTF-8" standalone="no"?><!DOCTYPE svg PUBLIC "-//W3C//DTD SVG 1.1//EN" "http://www.w3.org/Graphics/SVG/1.1/DTD/svg11.dtd"><svg width="100%" height="100%" viewBox="0 0 565 406" version="1.1" xmlns="http://www.w3.org/2000/svg" xmlns:xlink="http://www.w3.org/1999/xlink" xml:space="preserve" xmlns:serif="http://www.serif.com/" style="fill-rule:evenodd;clip-rule:evenodd;stroke-linejoin:round;stroke-miterlimit:2;"><g><path d="M222.561,405.984l-222.561,0l12.03,-84.621l36.091,-30.076l36.091,-48.121l72.182,36.091l0,36.091l48.122,6.015l18.045,84.621Z" style="fill:url(#_Linear1mining);"/><path d="M138.349,170.984l-18.046,12.03l18.046,18.045l30.076,-18.045l-30.076,-12.03Z" style="fill:url(#_Linear2mining);"/><path d="M246.622,285.272l-6.015,24.061l18.045,6.015l12.031,-18.046l-24.061,-12.03Z" style="fill:url(#_Linear3mining);"/><path d="M168.425,255.196l-0,-24.061l18.045,-6.015l12.031,24.061l-30.076,6.015Z" style="fill:url(#_Linear4mining);"/><path d="M301.25,54.546l-7.503,-7.504l-24.143,24.143l7.54,7.541c-33.112,35.603 -46.616,77.191 -54.583,138.436c11.708,-26.049 25.263,-50.249 40.683,-72.584c10.857,-15.727 22.639,-30.528 35.354,-44.398l7.952,7.952l3.335,-3.335l237.171,237.17l17.473,-17.473l-237.171,-237.17l3.335,-3.335l-7.973,-7.973c33.493,-30.846 72.468,-56.211 117.003,-76.016c-16.153,2.016 -30.858,4.377 -44.396,7.356c-38.73,8.525 -67.906,22.113 -94.077,47.19Z" style="fill:url(#_Linear5mining);"/></g><defs><linearGradient id="_Linear1mining" x1="0" y1="0" x2="1" y2="0" gradientUnits="userSpaceOnUse" gradientTransform="matrix(-1614.19,612.641,-612.641,-1614.19,269.568,-42.8176)"><stop offset="0" style="stop-color:#ff5d51;stop-opacity:1"/><stop offset="1" style="stop-color:#1200da;stop-opacity:1"/></linearGradient><linearGradient id="_Linear2mining" x1="0" y1="0" x2="1" y2="0" gradientUnits="userSpaceOnUse" gradientTransform="matrix(-1614.19,612.641,-612.641,-1614.19,269.568,-42.8176)"><stop offset="0" style="stop-color:#ff5d51;stop-opacity:1"/><stop offset="1" style="stop-color:#1200da;stop-opacity:1"/></linearGradient><linearGradient id="_Linear3mining" x1="0" y1="0" x2="1" y2="0" gradientUnits="userSpaceOnUse" gradientTransform="matrix(-1614.19,612.641,-612.641,-1614.19,269.568,-42.8176)"><stop offset="0" style="stop-color:#ff5d51;stop-opacity:1"/><stop offset="1" style="stop-color:#1200da;stop-opacity:1"/></linearGradient><linearGradient id="_Linear4mining" x1="0" y1="0" x2="1" y2="0" gradientUnits="userSpaceOnUse" gradientTransform="matrix(-1614.19,612.641,-612.641,-1614.19,269.568,-42.8176)"><stop offset="0" style="stop-color:#ff5d51;stop-opacity:1"/><stop offset="1" style="stop-color:#1200da;stop-opacity:1"/></linearGradient><linearGradient id="_Linear5mining" x1="0" y1="0" x2="1" y2="0" gradientUnits="userSpaceOnUse" gradientTransform="matrix(-1614.19,612.641,-612.641,-1614.19,269.568,-42.8176)"><stop offset="0" style="stop-color:#ff5d51;stop-opacity:1"/><stop offset="1" style="stop-color:#1200da;stop-opacity:1"/></linearGradient></defs></svg>
