<?xml version="1.0" encoding="UTF-8" standalone="no"?><!DOCTYPE svg PUBLIC "-//W3C//DTD SVG 1.1//EN" "http://www.w3.org/Graphics/SVG/1.1/DTD/svg11.dtd"><svg width="601px" height="1001px" version="1.1" xmlns="http://www.w3.org/2000/svg" xmlns:xlink="http://www.w3.org/1999/xlink" xml:space="preserve" xmlns:serif="http://www.serif.com/" style="fill-rule:evenodd;clip-rule:evenodd;stroke-linejoin:round;stroke-miterlimit:2;"><g transform="matrix(1,0,0,1,-3737,-946)"><g id="polw-background" transform="matrix(0.775908,0,0,1.03937,2320.77,-40.4389)"><rect x="1825.83" y="949.387" width="773.287" height="962.124" style="fill:none;"/><clipPath id="_clip1"><rect x="1825.83" y="949.387" width="773.287" height="962.124"/></clipPath><g clip-path="url(#_clip1)"><g transform="matrix(0.996262,-4.18896e-17,5.2464e-17,-1.13752,-999.359,7311.36)"><path d="M3611.98,5516.48L2869.98,5516.48" style="fill:none;"/></g><g><g transform="matrix(0.996262,-4.18896e-17,5.2464e-17,-1.13752,-999.359,7311.36)"><path d="M3611.98,5519.86L2869.98,5519.86C2867.13,5519.86 2864.81,5518.35 2864.81,5516.48C2864.81,5514.61 2867.13,5513.1 2869.98,5513.1L3611.98,5513.1C3614.84,5513.1 3617.16,5514.61 3617.16,5516.48C3617.16,5518.35 3614.84,5519.86 3611.98,5519.86Z" style="fill:url(#_Linear2);"/></g><g transform="matrix(0.874762,-3.6781e-17,5.2464e-17,-1.13752,-560.505,7363.91)"><path d="M3611.98,5519.86L2869.98,5519.86C2866.73,5519.86 2864.09,5518.35 2864.09,5516.48C2864.09,5514.61 2866.73,5513.1 2869.98,5513.1L3611.98,5513.1C3615.23,5513.1 3617.88,5514.61 3617.88,5516.48C3617.88,5518.35 3615.23,5519.86 3611.98,5519.86Z" style="fill:url(#_Linear3);"/></g><g transform="matrix(0.76808,-3.22953e-17,5.2464e-17,-1.13752,-175.171,7416.47)"><path d="M3611.98,5519.86L2869.98,5519.86C2866.28,5519.86 2863.27,5518.35 2863.27,5516.48C2863.27,5514.61 2866.28,5513.1 2869.98,5513.1L3611.98,5513.1C3615.69,5513.1 3618.69,5514.61 3618.69,5516.48C3618.69,5518.35 3615.69,5519.86 3611.98,5519.86Z" style="fill:url(#_Linear4);"/></g><g transform="matrix(0.674409,-2.83567e-17,5.2464e-17,-1.13752,163.169,7469.02)"><path d="M3611.98,5519.86L2869.98,5519.86C2865.76,5519.86 2862.34,5518.35 2862.34,5516.48C2862.34,5514.61 2865.76,5513.1 2869.98,5513.1L3611.98,5513.1C3616.2,5513.1 3619.63,5514.61 3619.63,5516.48C3619.63,5518.35 3616.2,5519.86 3611.98,5519.86Z" style="fill:url(#_Linear5);"/></g><g transform="matrix(0.592161,-2.48985e-17,5.2464e-17,-1.13752,460.247,7521.58)"><path d="M3611.98,5519.86L2869.98,5519.86C2865.18,5519.86 2861.28,5518.35 2861.28,5516.48C2861.28,5514.61 2865.18,5513.1 2869.98,5513.1L3611.98,5513.1C3616.79,5513.1 3620.69,5514.61 3620.69,5516.48C3620.69,5518.35 3616.79,5519.86 3611.98,5519.86Z" style="fill:url(#_Linear6);"/></g><g transform="matrix(0.519944,-2.1862e-17,5.2464e-17,-1.13752,721.094,7574.14)"><path d="M3611.98,5519.86L2869.98,5519.86C2864.51,5519.86 2860.07,5518.35 2860.07,5516.48C2860.07,5514.61 2864.51,5513.1 2869.98,5513.1L3611.98,5513.1C3617.45,5513.1 3621.9,5514.61 3621.9,5516.48C3621.9,5518.35 3617.45,5519.86 3611.98,5519.86Z" style="fill:url(#_Linear7);"/></g><g transform="matrix(0.456534,-1.91958e-17,5.2464e-17,-1.13752,950.13,7626.69)"><path d="M3611.98,5519.86L2869.98,5519.86C2863.75,5519.86 2858.69,5518.35 2858.69,5516.48C2858.69,5514.61 2863.75,5513.1 2869.98,5513.1L3611.98,5513.1C3618.21,5513.1 3623.27,5514.61 3623.27,5516.48C3623.27,5518.35 3618.21,5519.86 3611.98,5519.86Z" style="fill:url(#_Linear8);"/></g><g transform="matrix(0.400857,-1.68547e-17,5.2464e-17,-1.13752,1151.23,7679.25)"><path d="M3611.98,5519.86L2869.98,5519.86C2862.88,5519.86 2857.12,5518.35 2857.12,5516.48C2857.12,5514.61 2862.88,5513.1 2869.98,5513.1L3611.98,5513.1C3619.08,5513.1 3624.84,5514.61 3624.84,5516.48C3624.84,5518.35 3619.08,5519.86 3611.98,5519.86Z" style="fill:url(#_Linear9);"/></g><g transform="matrix(0.35197,-1.47992e-17,5.2464e-17,-1.13752,1327.81,7731.81)"><path d="M3611.98,5519.86L2869.98,5519.86C2861.9,5519.86 2855.34,5518.35 2855.34,5516.48C2855.34,5514.61 2861.9,5513.1 2869.98,5513.1L3611.98,5513.1C3620.07,5513.1 3626.63,5514.61 3626.63,5516.48C3626.63,5518.35 3620.07,5519.86 3611.98,5519.86Z" style="fill:url(#_Linear10);"/></g><g transform="matrix(0.309045,-1.29944e-17,5.2464e-17,-1.13752,1482.85,7784.36)"><path d="M3611.98,5519.86L2869.98,5519.86C2860.78,5519.86 2853.3,5518.35 2853.3,5516.48C2853.3,5514.61 2860.78,5513.1 2869.98,5513.1L3611.98,5513.1C3621.19,5513.1 3628.66,5514.61 3628.66,5516.48C3628.66,5518.35 3621.19,5519.86 3611.98,5519.86Z" style="fill:url(#_Linear11);"/></g><g transform="matrix(0.271356,-1.14096e-17,5.2464e-17,-1.13752,1618.99,7836.92)"><path d="M3611.98,5519.86L2869.98,5519.86C2859.5,5519.86 2850.98,5518.35 2850.98,5516.48C2850.98,5514.61 2859.5,5513.1 2869.98,5513.1L3611.98,5513.1C3622.47,5513.1 3630.98,5514.61 3630.98,5516.48C3630.98,5518.35 3622.47,5519.86 3611.98,5519.86Z" style="fill:url(#_Linear12);"/></g><g transform="matrix(0.238262,-1.00182e-17,5.2464e-17,-1.13752,1738.52,7889.48)"><path d="M3611.98,5519.86L2869.98,5519.86C2858.04,5519.86 2848.35,5518.35 2848.35,5516.48C2848.35,5514.61 2858.04,5513.1 2869.98,5513.1L3611.98,5513.1C3623.92,5513.1 3633.62,5514.61 3633.62,5516.48C3633.62,5518.35 3623.92,5519.86 3611.98,5519.86Z" style="fill:url(#_Linear13);"/></g><g transform="matrix(0.209205,-8.7964e-18,5.2464e-17,-1.13752,1843.48,7942.03)"><path d="M3611.98,5519.86L2869.98,5519.86C2856.38,5519.86 2845.34,5518.35 2845.34,5516.48C2845.34,5514.61 2856.38,5513.1 2869.98,5513.1L3611.98,5513.1C3625.58,5513.1 3636.62,5514.61 3636.62,5516.48C3636.62,5518.35 3625.58,5519.86 3611.98,5519.86Z" style="fill:url(#_Linear14);"/></g><g transform="matrix(0.183691,-7.72363e-18,5.2464e-17,-1.13752,1935.63,7994.59)"><path d="M3611.98,5519.86L2869.98,5519.86C2854.49,5519.86 2841.92,5518.35 2841.92,5516.48C2841.92,5514.61 2854.49,5513.1 2869.98,5513.1L3611.98,5513.1C3627.47,5513.1 3640.05,5514.61 3640.05,5516.48C3640.05,5518.35 3627.47,5519.86 3611.98,5519.86Z" style="fill:url(#_Linear15);"/></g><g transform="matrix(0.161289,-6.78169e-18,5.2464e-17,-1.13752,2016.55,8047.15)"><path d="M3611.98,5519.86L2869.98,5519.86C2852.34,5519.86 2838.02,5518.35 2838.02,5516.48C2838.02,5514.61 2852.34,5513.1 2869.98,5513.1L3611.98,5513.1C3629.62,5513.1 3643.95,5514.61 3643.95,5516.48C3643.95,5518.35 3629.62,5519.86 3611.98,5519.86Z" style="fill:url(#_Linear16);"/></g><g transform="matrix(0.141619,-5.95463e-18,5.2464e-17,-1.13752,2087.6,8099.7)"><path d="M3611.98,5519.86L2869.98,5519.86C2849.89,5519.86 2833.58,5518.35 2833.58,5516.48C2833.58,5514.61 2849.89,5513.1 2869.98,5513.1L3611.98,5513.1C3632.07,5513.1 3648.38,5514.61 3648.38,5516.48C3648.38,5518.35 3632.07,5519.86 3611.98,5519.86Z" style="fill:url(#_Linear17);"/></g></g><g transform="matrix(0.874762,-3.6781e-17,5.2464e-17,-1.13752,-560.505,7363.91)"><path d="M3611.98,5516.48L2869.98,5516.48" style="fill:none;"/></g><g transform="matrix(0.76808,-3.22953e-17,5.2464e-17,-1.13752,-175.171,7416.47)"><path d="M3611.98,5516.48L2869.98,5516.48" style="fill:none;"/></g><g transform="matrix(0.674409,-2.83567e-17,5.2464e-17,-1.13752,163.169,7469.02)"><path d="M3611.98,5516.48L2869.98,5516.48" style="fill:none;"/></g><g transform="matrix(0.592161,-2.48985e-17,5.2464e-17,-1.13752,460.247,7521.58)"><path d="M3611.98,5516.48L2869.98,5516.48" style="fill:none;"/></g><g transform="matrix(0.519944,-2.1862e-17,5.2464e-17,-1.13752,721.094,7574.14)"><path d="M3611.98,5516.48L2869.98,5516.48" style="fill:none;"/></g><g transform="matrix(0.456534,-1.91958e-17,5.2464e-17,-1.13752,950.13,7626.69)"><path d="M3611.98,5516.48L2869.98,5516.48" style="fill:none;"/></g><g transform="matrix(0.400857,-1.68547e-17,5.2464e-17,-1.13752,1151.23,7679.25)"><path d="M3611.98,5516.48L2869.98,5516.48" style="fill:none;"/></g><g transform="matrix(0.35197,-1.47992e-17,5.2464e-17,-1.13752,1327.81,7731.81)"><path d="M3611.98,5516.48L2869.98,5516.48" style="fill:none;"/></g><g transform="matrix(0.309045,-1.29944e-17,5.2464e-17,-1.13752,1482.85,7784.36)"><path d="M3611.98,5516.48L2869.98,5516.48" style="fill:none;"/></g><g transform="matrix(0.271356,-1.14096e-17,5.2464e-17,-1.13752,1618.99,7836.92)"><path d="M3611.98,5516.48L2869.98,5516.48" style="fill:none;"/></g><g transform="matrix(0.238262,-1.00182e-17,5.2464e-17,-1.13752,1738.52,7889.48)"><path d="M3611.98,5516.48L2869.98,5516.48" style="fill:none;"/></g><g transform="matrix(0.209205,-8.7964e-18,5.2464e-17,-1.13752,1843.48,7942.03)"><path d="M3611.98,5516.48L2869.98,5516.48" style="fill:none;"/></g><g transform="matrix(0.183691,-7.72363e-18,5.2464e-17,-1.13752,1935.63,7994.59)"><path d="M3611.98,5516.48L2869.98,5516.48" style="fill:none;"/></g><g transform="matrix(0.161289,-6.78169e-18,5.2464e-17,-1.13752,2016.55,8047.15)"><path d="M3611.98,5516.48L2869.98,5516.48" style="fill:none;"/></g><g transform="matrix(0.141619,-5.95463e-18,5.2464e-17,-1.13752,2087.6,8099.7)"><path d="M3611.98,5516.48L2869.98,5516.48" style="fill:none;"/></g></g></g></g><defs><linearGradient id="_Linear2" x1="0" y1="0" x2="1" y2="0" gradientUnits="userSpaceOnUse" gradientTransform="matrix(9.26203e-14,-660.519,-944.547,-5.66164e-15,3397.28,5505.93)"><stop offset="0" style="stop-color:rgb(252,230,227);stop-opacity:1"/><stop offset="0.03" style="stop-color:rgb(250,223,193);stop-opacity:1"/><stop offset="0.07" style="stop-color:rgb(244,206,111);stop-opacity:1"/><stop offset="0.23" style="stop-color:rgb(238,44,26);stop-opacity:0.99"/><stop offset="0.63" style="stop-color:rgb(95,0,204);stop-opacity:0.83"/><stop offset="1" style="stop-color:rgb(55,255,228);stop-opacity:0"/></linearGradient><linearGradient id="_Linear3" x1="0" y1="0" x2="1" y2="0" gradientUnits="userSpaceOnUse" gradientTransform="matrix(1.05485e-13,-660.519,-1075.74,-5.66164e-15,3367.46,5552.14)"><stop offset="0" style="stop-color:rgb(252,230,227);stop-opacity:1"/><stop offset="0.03" style="stop-color:rgb(250,223,193);stop-opacity:1"/><stop offset="0.07" style="stop-color:rgb(244,206,111);stop-opacity:1"/><stop offset="0.23" style="stop-color:rgb(238,44,26);stop-opacity:0.99"/><stop offset="0.63" style="stop-color:rgb(95,0,204);stop-opacity:0.83"/><stop offset="1" style="stop-color:rgb(55,255,228);stop-opacity:0"/></linearGradient><linearGradient id="_Linear4" x1="0" y1="0" x2="1" y2="0" gradientUnits="userSpaceOnUse" gradientTransform="matrix(1.20136e-13,-660.519,-1225.15,-5.66164e-15,3333.5,5598.34)"><stop offset="0" style="stop-color:rgb(252,230,227);stop-opacity:1"/><stop offset="0.03" style="stop-color:rgb(250,223,193);stop-opacity:1"/><stop offset="0.07" style="stop-color:rgb(244,206,111);stop-opacity:1"/><stop offset="0.23" style="stop-color:rgb(238,44,26);stop-opacity:0.99"/><stop offset="0.63" style="stop-color:rgb(95,0,204);stop-opacity:0.83"/><stop offset="1" style="stop-color:rgb(55,255,228);stop-opacity:0"/></linearGradient><linearGradient id="_Linear5" x1="0" y1="0" x2="1" y2="0" gradientUnits="userSpaceOnUse" gradientTransform="matrix(1.36822e-13,-660.519,-1395.32,-5.66164e-15,3294.82,5644.54)"><stop offset="0" style="stop-color:rgb(252,230,227);stop-opacity:1"/><stop offset="0.03" style="stop-color:rgb(250,223,193);stop-opacity:1"/><stop offset="0.07" style="stop-color:rgb(244,206,111);stop-opacity:1"/><stop offset="0.23" style="stop-color:rgb(238,44,26);stop-opacity:0.99"/><stop offset="0.63" style="stop-color:rgb(95,0,204);stop-opacity:0.83"/><stop offset="1" style="stop-color:rgb(55,255,228);stop-opacity:0"/></linearGradient><linearGradient id="_Linear6" x1="0" y1="0" x2="1" y2="0" gradientUnits="userSpaceOnUse" gradientTransform="matrix(1.55826e-13,-660.519,-1589.12,-5.66164e-15,3250.76,5690.75)"><stop offset="0" style="stop-color:rgb(252,230,227);stop-opacity:1"/><stop offset="0.03" style="stop-color:rgb(250,223,193);stop-opacity:1"/><stop offset="0.07" style="stop-color:rgb(244,206,111);stop-opacity:1"/><stop offset="0.23" style="stop-color:rgb(238,44,26);stop-opacity:0.99"/><stop offset="0.63" style="stop-color:rgb(95,0,204);stop-opacity:0.83"/><stop offset="1" style="stop-color:rgb(55,255,228);stop-opacity:0"/></linearGradient><linearGradient id="_Linear7" x1="0" y1="0" x2="1" y2="0" gradientUnits="userSpaceOnUse" gradientTransform="matrix(1.77469e-13,-660.519,-1809.84,-5.66164e-15,3200.59,5736.95)"><stop offset="0" style="stop-color:rgb(252,230,227);stop-opacity:1"/><stop offset="0.03" style="stop-color:rgb(250,223,193);stop-opacity:1"/><stop offset="0.07" style="stop-color:rgb(244,206,111);stop-opacity:1"/><stop offset="0.23" style="stop-color:rgb(238,44,26);stop-opacity:0.99"/><stop offset="0.63" style="stop-color:rgb(95,0,204);stop-opacity:0.83"/><stop offset="1" style="stop-color:rgb(55,255,228);stop-opacity:0"/></linearGradient><linearGradient id="_Linear8" x1="0" y1="0" x2="1" y2="0" gradientUnits="userSpaceOnUse" gradientTransform="matrix(2.02119e-13,-660.519,-2061.22,-5.66164e-15,3143.45,5783.15)"><stop offset="0" style="stop-color:rgb(252,230,227);stop-opacity:1"/><stop offset="0.03" style="stop-color:rgb(250,223,193);stop-opacity:1"/><stop offset="0.07" style="stop-color:rgb(244,206,111);stop-opacity:1"/><stop offset="0.23" style="stop-color:rgb(238,44,26);stop-opacity:0.99"/><stop offset="0.63" style="stop-color:rgb(95,0,204);stop-opacity:0.83"/><stop offset="1" style="stop-color:rgb(55,255,228);stop-opacity:0"/></linearGradient><linearGradient id="_Linear9" x1="0" y1="0" x2="1" y2="0" gradientUnits="userSpaceOnUse" gradientTransform="matrix(2.30192e-13,-660.519,-2347.51,-5.66164e-15,3078.38,5829.35)"><stop offset="0" style="stop-color:rgb(252,230,227);stop-opacity:1"/><stop offset="0.03" style="stop-color:rgb(250,223,193);stop-opacity:1"/><stop offset="0.07" style="stop-color:rgb(244,206,111);stop-opacity:1"/><stop offset="0.23" style="stop-color:rgb(238,44,26);stop-opacity:0.99"/><stop offset="0.63" style="stop-color:rgb(95,0,204);stop-opacity:0.83"/><stop offset="1" style="stop-color:rgb(55,255,228);stop-opacity:0"/></linearGradient><linearGradient id="_Linear10" x1="0" y1="0" x2="1" y2="0" gradientUnits="userSpaceOnUse" gradientTransform="matrix(2.62165e-13,-660.519,-2673.57,-5.66164e-15,3004.26,5875.56)"><stop offset="0" style="stop-color:rgb(252,230,227);stop-opacity:1"/><stop offset="0.03" style="stop-color:rgb(250,223,193);stop-opacity:1"/><stop offset="0.07" style="stop-color:rgb(244,206,111);stop-opacity:1"/><stop offset="0.23" style="stop-color:rgb(238,44,26);stop-opacity:0.99"/><stop offset="0.63" style="stop-color:rgb(95,0,204);stop-opacity:0.83"/><stop offset="1" style="stop-color:rgb(55,255,228);stop-opacity:0"/></linearGradient><linearGradient id="_Linear11" x1="0" y1="0" x2="1" y2="0" gradientUnits="userSpaceOnUse" gradientTransform="matrix(2.98578e-13,-660.519,-3044.91,-5.66164e-15,2919.85,5921.76)"><stop offset="0" style="stop-color:rgb(252,230,227);stop-opacity:1"/><stop offset="0.03" style="stop-color:rgb(250,223,193);stop-opacity:1"/><stop offset="0.07" style="stop-color:rgb(244,206,111);stop-opacity:1"/><stop offset="0.23" style="stop-color:rgb(238,44,26);stop-opacity:0.99"/><stop offset="0.63" style="stop-color:rgb(95,0,204);stop-opacity:0.83"/><stop offset="1" style="stop-color:rgb(55,255,228);stop-opacity:0"/></linearGradient><linearGradient id="_Linear12" x1="0" y1="0" x2="1" y2="0" gradientUnits="userSpaceOnUse" gradientTransform="matrix(3.40049e-13,-660.519,-3467.83,-5.66164e-15,2823.72,5967.96)"><stop offset="0" style="stop-color:rgb(252,230,227);stop-opacity:1"/><stop offset="0.03" style="stop-color:rgb(250,223,193);stop-opacity:1"/><stop offset="0.07" style="stop-color:rgb(244,206,111);stop-opacity:1"/><stop offset="0.23" style="stop-color:rgb(238,44,26);stop-opacity:0.99"/><stop offset="0.63" style="stop-color:rgb(95,0,204);stop-opacity:0.83"/><stop offset="1" style="stop-color:rgb(55,255,228);stop-opacity:0"/></linearGradient><linearGradient id="_Linear13" x1="0" y1="0" x2="1" y2="0" gradientUnits="userSpaceOnUse" gradientTransform="matrix(3.87279e-13,-660.519,-3949.5,-5.66164e-15,2714.24,6014.17)"><stop offset="0" style="stop-color:rgb(252,230,227);stop-opacity:1"/><stop offset="0.03" style="stop-color:rgb(250,223,193);stop-opacity:1"/><stop offset="0.07" style="stop-color:rgb(244,206,111);stop-opacity:1"/><stop offset="0.23" style="stop-color:rgb(238,44,26);stop-opacity:0.99"/><stop offset="0.63" style="stop-color:rgb(95,0,204);stop-opacity:0.83"/><stop offset="1" style="stop-color:rgb(55,255,228);stop-opacity:0"/></linearGradient><linearGradient id="_Linear14" x1="0" y1="0" x2="1" y2="0" gradientUnits="userSpaceOnUse" gradientTransform="matrix(4.4107e-13,-660.519,-4498.06,-5.66164e-15,2589.54,6060.37)"><stop offset="0" style="stop-color:rgb(252,230,227);stop-opacity:1"/><stop offset="0.03" style="stop-color:rgb(250,223,193);stop-opacity:1"/><stop offset="0.07" style="stop-color:rgb(244,206,111);stop-opacity:1"/><stop offset="0.23" style="stop-color:rgb(238,44,26);stop-opacity:0.99"/><stop offset="0.63" style="stop-color:rgb(95,0,204);stop-opacity:0.83"/><stop offset="1" style="stop-color:rgb(55,255,228);stop-opacity:0"/></linearGradient><linearGradient id="_Linear15" x1="0" y1="0" x2="1" y2="0" gradientUnits="userSpaceOnUse" gradientTransform="matrix(5.02332e-13,-660.519,-5122.82,-5.66164e-15,2447.53,6106.57)"><stop offset="0" style="stop-color:rgb(252,230,227);stop-opacity:1"/><stop offset="0.03" style="stop-color:rgb(250,223,193);stop-opacity:1"/><stop offset="0.07" style="stop-color:rgb(244,206,111);stop-opacity:1"/><stop offset="0.23" style="stop-color:rgb(238,44,26);stop-opacity:0.99"/><stop offset="0.63" style="stop-color:rgb(95,0,204);stop-opacity:0.83"/><stop offset="1" style="stop-color:rgb(55,255,228);stop-opacity:0"/></linearGradient><linearGradient id="_Linear16" x1="0" y1="0" x2="1" y2="0" gradientUnits="userSpaceOnUse" gradientTransform="matrix(5.72104e-13,-660.519,-5834.35,-5.66164e-15,2285.8,6152.77)"><stop offset="0" style="stop-color:rgb(252,230,227);stop-opacity:1"/><stop offset="0.03" style="stop-color:rgb(250,223,193);stop-opacity:1"/><stop offset="0.07" style="stop-color:rgb(244,206,111);stop-opacity:1"/><stop offset="0.23" style="stop-color:rgb(238,44,26);stop-opacity:0.99"/><stop offset="0.63" style="stop-color:rgb(95,0,204);stop-opacity:0.83"/><stop offset="1" style="stop-color:rgb(55,255,228);stop-opacity:0"/></linearGradient><linearGradient id="_Linear17" x1="0" y1="0" x2="1" y2="0" gradientUnits="userSpaceOnUse" gradientTransform="matrix(6.51566e-13,-660.519,-6644.7,-5.66164e-15,2101.6,6198.98)"><stop offset="0" style="stop-color:rgb(252,230,227);stop-opacity:1"/><stop offset="0.03" style="stop-color:rgb(250,223,193);stop-opacity:1"/><stop offset="0.07" style="stop-color:rgb(244,206,111);stop-opacity:1"/><stop offset="0.23" style="stop-color:rgb(238,44,26);stop-opacity:0.99"/><stop offset="0.63" style="stop-color:rgb(95,0,204);stop-opacity:0.83"/><stop offset="1" style="stop-color:rgb(55,255,228);stop-opacity:0"/></linearGradient></defs></svg>