<?xml version="1.0" encoding="UTF-8" standalone="no"?><!DOCTYPE svg PUBLIC "-//W3C//DTD SVG 1.1//EN" "http://www.w3.org/Graphics/SVG/1.1/DTD/svg11.dtd"><svg width="701px" height="1001px" version="1.1" xmlns="http://www.w3.org/2000/svg" xmlns:xlink="http://www.w3.org/1999/xlink" xml:space="preserve" xmlns:serif="http://www.serif.com/" style="fill-rule:evenodd;clip-rule:evenodd;stroke-linejoin:round;stroke-miterlimit:2;"><g transform="matrix(1,0,0,1,-2324,-946)"><g id="polw-background" transform="matrix(0.905226,0,0,1.03937,671.675,-40.4389)"><rect x="1825.83" y="949.387" width="773.287" height="962.124" style="fill:none;"/><clipPath id="_clip1"><rect x="1825.83" y="949.387" width="773.287" height="962.124"/></clipPath><g clip-path="url(#_clip1)"><g><g transform="matrix(0.885909,-4.18896e-17,4.66527e-17,-1.13752,-600.767,7311.36)"><path d="M3611.98,5520.71L2869.98,5520.71C2866.54,5520.71 2863.75,5518.81 2863.75,5516.48C2863.75,5514.15 2866.54,5512.25 2869.98,5512.25L3611.98,5512.25C3615.42,5512.25 3618.22,5514.15 3618.22,5516.48C3618.22,5518.81 3615.42,5520.71 3611.98,5520.71Z" style="fill:url(#_Linear2);"/></g><g transform="matrix(0.777868,-3.6781e-17,4.66527e-17,-1.13752,-210.523,7363.91)"><path d="M3611.98,5520.71L2869.98,5520.71C2866.06,5520.71 2862.88,5518.81 2862.88,5516.48C2862.88,5514.15 2866.06,5512.25 2869.98,5512.25L3611.98,5512.25C3615.9,5512.25 3619.08,5514.15 3619.08,5516.48C3619.08,5518.81 3615.9,5520.71 3611.98,5520.71Z" style="fill:url(#_Linear3);"/></g><g transform="matrix(0.683003,-3.22953e-17,4.66527e-17,-1.13752,132.128,7416.47)"><path d="M3611.98,5520.71L2869.98,5520.71C2865.52,5520.71 2861.89,5518.81 2861.89,5516.48C2861.89,5514.15 2865.52,5512.25 2869.98,5512.25L3611.98,5512.25C3616.45,5512.25 3620.07,5514.15 3620.07,5516.48C3620.07,5518.81 3616.45,5520.71 3611.98,5520.71Z" style="fill:url(#_Linear4);"/></g><g transform="matrix(0.599707,-2.83567e-17,4.66527e-17,-1.13752,432.991,7469.02)"><path d="M3611.98,5520.71L2869.98,5520.71C2864.9,5520.71 2860.77,5518.81 2860.77,5516.48C2860.77,5514.15 2864.9,5512.25 2869.98,5512.25L3611.98,5512.25C3617.07,5512.25 3621.19,5514.15 3621.19,5516.48C3621.19,5518.81 3617.07,5520.71 3611.98,5520.71Z" style="fill:url(#_Linear5);"/></g><g transform="matrix(0.526569,-2.48985e-17,4.66527e-17,-1.13752,697.163,7521.58)"><path d="M3611.98,5520.71L2869.98,5520.71C2864.19,5520.71 2859.49,5518.81 2859.49,5516.48C2859.49,5514.15 2864.19,5512.25 2869.98,5512.25L3611.98,5512.25C3617.77,5512.25 3622.47,5514.15 3622.47,5516.48C3622.47,5518.81 3617.77,5520.71 3611.98,5520.71Z" style="fill:url(#_Linear6);"/></g><g transform="matrix(0.462351,-2.1862e-17,4.66527e-17,-1.13752,929.117,7574.14)"><path d="M3611.98,5520.71L2869.98,5520.71C2863.39,5520.71 2858.03,5518.81 2858.03,5516.48C2858.03,5514.15 2863.39,5512.25 2869.98,5512.25L3611.98,5512.25C3618.58,5512.25 3623.93,5514.15 3623.93,5516.48C3623.93,5518.81 3618.58,5520.71 3611.98,5520.71Z" style="fill:url(#_Linear7);"/></g><g transform="matrix(0.405965,-1.91958e-17,4.66527e-17,-1.13752,1132.78,7626.69)"><path d="M3611.98,5520.71L2869.98,5520.71C2862.47,5520.71 2856.38,5518.81 2856.38,5516.48C2856.38,5514.15 2862.47,5512.25 2869.98,5512.25L3611.98,5512.25C3619.49,5512.25 3625.59,5514.15 3625.59,5516.48C3625.59,5518.81 3619.49,5520.71 3611.98,5520.71Z" style="fill:url(#_Linear8);"/></g><g transform="matrix(0.356455,-1.68547e-17,4.66527e-17,-1.13752,1311.61,7679.25)"><path d="M3611.98,5520.71L2869.98,5520.71C2861.43,5520.71 2854.49,5518.81 2854.49,5516.48C2854.49,5514.15 2861.43,5512.25 2869.98,5512.25L3611.98,5512.25C3620.53,5512.25 3627.48,5514.15 3627.48,5516.48C3627.48,5518.81 3620.53,5520.71 3611.98,5520.71Z" style="fill:url(#_Linear9);"/></g><g transform="matrix(0.312984,-1.47992e-17,4.66527e-17,-1.13752,1468.63,7731.81)"><path d="M3611.98,5520.71L2869.98,5520.71C2860.24,5520.71 2852.33,5518.81 2852.33,5516.48C2852.33,5514.15 2860.24,5512.25 2869.98,5512.25L3611.98,5512.25C3621.72,5512.25 3629.63,5514.15 3629.63,5516.48C3629.63,5518.81 3621.72,5520.71 3611.98,5520.71Z" style="fill:url(#_Linear10);"/></g><g transform="matrix(0.274814,-1.29944e-17,4.66527e-17,-1.13752,1606.5,7784.36)"><path d="M3611.98,5520.71L2869.98,5520.71C2858.89,5520.71 2849.88,5518.81 2849.88,5516.48C2849.88,5514.15 2858.89,5512.25 2869.98,5512.25L3611.98,5512.25C3623.08,5512.25 3632.08,5514.15 3632.08,5516.48C3632.08,5518.81 3623.08,5520.71 3611.98,5520.71Z" style="fill:url(#_Linear11);"/></g><g transform="matrix(0.241299,-1.14096e-17,4.66527e-17,-1.13752,1727.56,7836.92)"><path d="M3611.98,5520.71L2869.98,5520.71C2857.35,5520.71 2847.09,5518.81 2847.09,5516.48C2847.09,5514.15 2857.35,5512.25 2869.98,5512.25L3611.98,5512.25C3624.62,5512.25 3634.87,5514.15 3634.87,5516.48C3634.87,5518.81 3624.62,5520.71 3611.98,5520.71Z" style="fill:url(#_Linear12);"/></g><g transform="matrix(0.211871,-1.00182e-17,4.66527e-17,-1.13752,1833.85,7889.48)"><path d="M3611.98,5520.71L2869.98,5520.71C2855.59,5520.71 2843.91,5518.81 2843.91,5516.48C2843.91,5514.15 2855.59,5512.25 2869.98,5512.25L3611.98,5512.25C3626.37,5512.25 3638.05,5514.15 3638.05,5516.48C3638.05,5518.81 3626.37,5520.71 3611.98,5520.71Z" style="fill:url(#_Linear13);"/></g><g transform="matrix(0.186032,-8.7964e-18,4.66527e-17,-1.13752,1927.18,7942.03)"><path d="M3611.98,5520.71L2869.98,5520.71C2853.6,5520.71 2840.29,5518.81 2840.29,5516.48C2840.29,5514.15 2853.6,5512.25 2869.98,5512.25L3611.98,5512.25C3628.37,5512.25 3641.67,5514.15 3641.67,5516.48C3641.67,5518.81 3628.37,5520.71 3611.98,5520.71Z" style="fill:url(#_Linear14);"/></g><g transform="matrix(0.163344,-7.72363e-18,4.66527e-17,-1.13752,2009.12,7994.59)"><path d="M3611.98,5520.71L2869.98,5520.71C2851.32,5520.71 2836.17,5518.81 2836.17,5516.48C2836.17,5514.15 2851.32,5512.25 2869.98,5512.25L3611.98,5512.25C3630.64,5512.25 3645.8,5514.15 3645.8,5516.48C3645.8,5518.81 3630.64,5520.71 3611.98,5520.71Z" style="fill:url(#_Linear15);"/></g><g transform="matrix(0.143424,-6.78169e-18,4.66527e-17,-1.13752,2081.08,8047.15)"><path d="M3611.98,5520.71L2869.98,5520.71C2848.73,5520.71 2831.47,5518.81 2831.47,5516.48C2831.47,5514.15 2848.73,5512.25 2869.98,5512.25L3611.98,5512.25C3633.24,5512.25 3650.49,5514.15 3650.49,5516.48C3650.49,5518.81 3633.24,5520.71 3611.98,5520.71Z" style="fill:url(#_Linear16);"/></g></g></g></g></g><defs><linearGradient id="_Linear2" x1="0" y1="0" x2="1" y2="0" gradientUnits="userSpaceOnUse" gradientTransform="matrix(9.26203e-14,-660.519,-944.547,-5.66164e-15,3397.28,5505.93)"><stop offset="0" style="stop-color:rgb(252,230,227);stop-opacity:1"/><stop offset="0.03" style="stop-color:rgb(250,223,193);stop-opacity:1"/><stop offset="0.07" style="stop-color:rgb(244,206,111);stop-opacity:1"/><stop offset="0.23" style="stop-color:rgb(238,44,26);stop-opacity:0.99"/><stop offset="0.63" style="stop-color:rgb(95,0,204);stop-opacity:0.83"/><stop offset="1" style="stop-color:rgb(55,255,228);stop-opacity:0"/></linearGradient><linearGradient id="_Linear3" x1="0" y1="0" x2="1" y2="0" gradientUnits="userSpaceOnUse" gradientTransform="matrix(1.05485e-13,-660.519,-1075.74,-5.66164e-15,3367.46,5552.14)"><stop offset="0" style="stop-color:rgb(252,230,227);stop-opacity:1"/><stop offset="0.03" style="stop-color:rgb(250,223,193);stop-opacity:1"/><stop offset="0.07" style="stop-color:rgb(244,206,111);stop-opacity:1"/><stop offset="0.23" style="stop-color:rgb(238,44,26);stop-opacity:0.99"/><stop offset="0.63" style="stop-color:rgb(95,0,204);stop-opacity:0.83"/><stop offset="1" style="stop-color:rgb(55,255,228);stop-opacity:0"/></linearGradient><linearGradient id="_Linear4" x1="0" y1="0" x2="1" y2="0" gradientUnits="userSpaceOnUse" gradientTransform="matrix(1.20136e-13,-660.519,-1225.15,-5.66164e-15,3333.5,5598.34)"><stop offset="0" style="stop-color:rgb(252,230,227);stop-opacity:1"/><stop offset="0.03" style="stop-color:rgb(250,223,193);stop-opacity:1"/><stop offset="0.07" style="stop-color:rgb(244,206,111);stop-opacity:1"/><stop offset="0.23" style="stop-color:rgb(238,44,26);stop-opacity:0.99"/><stop offset="0.63" style="stop-color:rgb(95,0,204);stop-opacity:0.83"/><stop offset="1" style="stop-color:rgb(55,255,228);stop-opacity:0"/></linearGradient><linearGradient id="_Linear5" x1="0" y1="0" x2="1" y2="0" gradientUnits="userSpaceOnUse" gradientTransform="matrix(1.36822e-13,-660.519,-1395.32,-5.66164e-15,3294.82,5644.54)"><stop offset="0" style="stop-color:rgb(252,230,227);stop-opacity:1"/><stop offset="0.03" style="stop-color:rgb(250,223,193);stop-opacity:1"/><stop offset="0.07" style="stop-color:rgb(244,206,111);stop-opacity:1"/><stop offset="0.23" style="stop-color:rgb(238,44,26);stop-opacity:0.99"/><stop offset="0.63" style="stop-color:rgb(95,0,204);stop-opacity:0.83"/><stop offset="1" style="stop-color:rgb(55,255,228);stop-opacity:0"/></linearGradient><linearGradient id="_Linear6" x1="0" y1="0" x2="1" y2="0" gradientUnits="userSpaceOnUse" gradientTransform="matrix(1.55826e-13,-660.519,-1589.12,-5.66164e-15,3250.76,5690.75)"><stop offset="0" style="stop-color:rgb(252,230,227);stop-opacity:1"/><stop offset="0.03" style="stop-color:rgb(250,223,193);stop-opacity:1"/><stop offset="0.07" style="stop-color:rgb(244,206,111);stop-opacity:1"/><stop offset="0.23" style="stop-color:rgb(238,44,26);stop-opacity:0.99"/><stop offset="0.63" style="stop-color:rgb(95,0,204);stop-opacity:0.83"/><stop offset="1" style="stop-color:rgb(55,255,228);stop-opacity:0"/></linearGradient><linearGradient id="_Linear7" x1="0" y1="0" x2="1" y2="0" gradientUnits="userSpaceOnUse" gradientTransform="matrix(1.77469e-13,-660.519,-1809.84,-5.66164e-15,3200.59,5736.95)"><stop offset="0" style="stop-color:rgb(252,230,227);stop-opacity:1"/><stop offset="0.03" style="stop-color:rgb(250,223,193);stop-opacity:1"/><stop offset="0.07" style="stop-color:rgb(244,206,111);stop-opacity:1"/><stop offset="0.23" style="stop-color:rgb(238,44,26);stop-opacity:0.99"/><stop offset="0.63" style="stop-color:rgb(95,0,204);stop-opacity:0.83"/><stop offset="1" style="stop-color:rgb(55,255,228);stop-opacity:0"/></linearGradient><linearGradient id="_Linear8" x1="0" y1="0" x2="1" y2="0" gradientUnits="userSpaceOnUse" gradientTransform="matrix(2.02119e-13,-660.519,-2061.22,-5.66164e-15,3143.45,5783.15)"><stop offset="0" style="stop-color:rgb(252,230,227);stop-opacity:1"/><stop offset="0.03" style="stop-color:rgb(250,223,193);stop-opacity:1"/><stop offset="0.07" style="stop-color:rgb(244,206,111);stop-opacity:1"/><stop offset="0.23" style="stop-color:rgb(238,44,26);stop-opacity:0.99"/><stop offset="0.63" style="stop-color:rgb(95,0,204);stop-opacity:0.83"/><stop offset="1" style="stop-color:rgb(55,255,228);stop-opacity:0"/></linearGradient><linearGradient id="_Linear9" x1="0" y1="0" x2="1" y2="0" gradientUnits="userSpaceOnUse" gradientTransform="matrix(2.30192e-13,-660.519,-2347.51,-5.66164e-15,3078.38,5829.35)"><stop offset="0" style="stop-color:rgb(252,230,227);stop-opacity:1"/><stop offset="0.03" style="stop-color:rgb(250,223,193);stop-opacity:1"/><stop offset="0.07" style="stop-color:rgb(244,206,111);stop-opacity:1"/><stop offset="0.23" style="stop-color:rgb(238,44,26);stop-opacity:0.99"/><stop offset="0.63" style="stop-color:rgb(95,0,204);stop-opacity:0.83"/><stop offset="1" style="stop-color:rgb(55,255,228);stop-opacity:0"/></linearGradient><linearGradient id="_Linear10" x1="0" y1="0" x2="1" y2="0" gradientUnits="userSpaceOnUse" gradientTransform="matrix(2.62165e-13,-660.519,-2673.57,-5.66164e-15,3004.26,5875.56)"><stop offset="0" style="stop-color:rgb(252,230,227);stop-opacity:1"/><stop offset="0.03" style="stop-color:rgb(250,223,193);stop-opacity:1"/><stop offset="0.07" style="stop-color:rgb(244,206,111);stop-opacity:1"/><stop offset="0.23" style="stop-color:rgb(238,44,26);stop-opacity:0.99"/><stop offset="0.63" style="stop-color:rgb(95,0,204);stop-opacity:0.83"/><stop offset="1" style="stop-color:rgb(55,255,228);stop-opacity:0"/></linearGradient><linearGradient id="_Linear11" x1="0" y1="0" x2="1" y2="0" gradientUnits="userSpaceOnUse" gradientTransform="matrix(2.98578e-13,-660.519,-3044.91,-5.66164e-15,2919.85,5921.76)"><stop offset="0" style="stop-color:rgb(252,230,227);stop-opacity:1"/><stop offset="0.03" style="stop-color:rgb(250,223,193);stop-opacity:1"/><stop offset="0.07" style="stop-color:rgb(244,206,111);stop-opacity:1"/><stop offset="0.23" style="stop-color:rgb(238,44,26);stop-opacity:0.99"/><stop offset="0.63" style="stop-color:rgb(95,0,204);stop-opacity:0.83"/><stop offset="1" style="stop-color:rgb(55,255,228);stop-opacity:0"/></linearGradient><linearGradient id="_Linear12" x1="0" y1="0" x2="1" y2="0" gradientUnits="userSpaceOnUse" gradientTransform="matrix(3.40049e-13,-660.519,-3467.83,-5.66164e-15,2823.72,5967.96)"><stop offset="0" style="stop-color:rgb(252,230,227);stop-opacity:1"/><stop offset="0.03" style="stop-color:rgb(250,223,193);stop-opacity:1"/><stop offset="0.07" style="stop-color:rgb(244,206,111);stop-opacity:1"/><stop offset="0.23" style="stop-color:rgb(238,44,26);stop-opacity:0.99"/><stop offset="0.63" style="stop-color:rgb(95,0,204);stop-opacity:0.83"/><stop offset="1" style="stop-color:rgb(55,255,228);stop-opacity:0"/></linearGradient><linearGradient id="_Linear13" x1="0" y1="0" x2="1" y2="0" gradientUnits="userSpaceOnUse" gradientTransform="matrix(3.87279e-13,-660.519,-3949.5,-5.66164e-15,2714.24,6014.17)"><stop offset="0" style="stop-color:rgb(252,230,227);stop-opacity:1"/><stop offset="0.03" style="stop-color:rgb(250,223,193);stop-opacity:1"/><stop offset="0.07" style="stop-color:rgb(244,206,111);stop-opacity:1"/><stop offset="0.23" style="stop-color:rgb(238,44,26);stop-opacity:0.99"/><stop offset="0.63" style="stop-color:rgb(95,0,204);stop-opacity:0.83"/><stop offset="1" style="stop-color:rgb(55,255,228);stop-opacity:0"/></linearGradient><linearGradient id="_Linear14" x1="0" y1="0" x2="1" y2="0" gradientUnits="userSpaceOnUse" gradientTransform="matrix(4.4107e-13,-660.519,-4498.06,-5.66164e-15,2589.54,6060.37)"><stop offset="0" style="stop-color:rgb(252,230,227);stop-opacity:1"/><stop offset="0.03" style="stop-color:rgb(250,223,193);stop-opacity:1"/><stop offset="0.07" style="stop-color:rgb(244,206,111);stop-opacity:1"/><stop offset="0.23" style="stop-color:rgb(238,44,26);stop-opacity:0.99"/><stop offset="0.63" style="stop-color:rgb(95,0,204);stop-opacity:0.83"/><stop offset="1" style="stop-color:rgb(55,255,228);stop-opacity:0"/></linearGradient><linearGradient id="_Linear15" x1="0" y1="0" x2="1" y2="0" gradientUnits="userSpaceOnUse" gradientTransform="matrix(5.02332e-13,-660.519,-5122.82,-5.66164e-15,2447.53,6106.57)"><stop offset="0" style="stop-color:rgb(252,230,227);stop-opacity:1"/><stop offset="0.03" style="stop-color:rgb(250,223,193);stop-opacity:1"/><stop offset="0.07" style="stop-color:rgb(244,206,111);stop-opacity:1"/><stop offset="0.23" style="stop-color:rgb(238,44,26);stop-opacity:0.99"/><stop offset="0.63" style="stop-color:rgb(95,0,204);stop-opacity:0.83"/><stop offset="1" style="stop-color:rgb(55,255,228);stop-opacity:0"/></linearGradient><linearGradient id="_Linear16" x1="0" y1="0" x2="1" y2="0" gradientUnits="userSpaceOnUse" gradientTransform="matrix(5.72104e-13,-660.519,-5834.35,-5.66164e-15,2285.8,6152.77)"><stop offset="0" style="stop-color:rgb(252,230,227);stop-opacity:1"/><stop offset="0.03" style="stop-color:rgb(250,223,193);stop-opacity:1"/><stop offset="0.07" style="stop-color:rgb(244,206,111);stop-opacity:1"/><stop offset="0.23" style="stop-color:rgb(238,44,26);stop-opacity:0.99"/><stop offset="0.63" style="stop-color:rgb(95,0,204);stop-opacity:0.83"/><stop offset="1" style="stop-color:rgb(55,255,228);stop-opacity:0"/></linearGradient></defs></svg>