<?xml version="1.0" encoding="UTF-8" standalone="no"?><!DOCTYPE svg PUBLIC "-//W3C//DTD SVG 1.1//EN" "http://www.w3.org/Graphics/SVG/1.1/DTD/svg11.dtd"><svg width="601px" height="601px" version="1.1" xmlns="http://www.w3.org/2000/svg" xmlns:xlink="http://www.w3.org/1999/xlink" xml:space="preserve" xmlns:serif="http://www.serif.com/" style="fill-rule:evenodd;clip-rule:evenodd;stroke-linecap:round;stroke-miterlimit:10;"><g transform="matrix(1,0,0,1,-5385,-1017)"><g id="polw-front" transform="matrix(0.775908,0,0,0.62362,3968.75,425.6)"><rect x="1825.83" y="949.387" width="773.287" height="962.124" style="fill:none;"/><g transform="matrix(0.745494,0,0,0.745494,604.677,211.212)"><g transform="matrix(1.28881,0,0,1.54164,-5127.91,-552.673)"><path d="M5682.44,1364.38L5800.84,1364.38L5580.8,1739.35L5621.92,1474.34L5503.52,1474.34L5723.56,1099.38L5682.44,1364.38Z" style="fill:none;stroke:white;stroke-width:10.94px;"/></g><g transform="matrix(1.28881,0,0,1.54164,-5127.91,-552.673)"><path d="M5682.44,1364.38L5800.84,1364.38L5580.8,1739.35L5621.92,1474.34L5503.52,1474.34L5723.56,1099.38L5682.44,1364.38Z" style="fill:none;stroke:white;stroke-width:10.94px;"/></g></g></g></g></svg>