<?xml version="1.0" encoding="UTF-8" standalone="no"?><!DOCTYPE svg PUBLIC "-//W3C//DTD SVG 1.1//EN" "http://www.w3.org/Graphics/SVG/1.1/DTD/svg11.dtd"><svg width="100%" height="100%" viewBox="0 0 601 600" version="1.1" xmlns="http://www.w3.org/2000/svg" xmlns:xlink="http://www.w3.org/1999/xlink" xml:space="preserve" xmlns:serif="http://www.serif.com/" style="fill-rule:evenodd;clip-rule:evenodd;stroke-linejoin:round;stroke-miterlimit:2;"><rect id="smart-contract-back" x="0.044" y="0" width="600" height="600" style="fill:none;"/><path d="M430.327,140.146c-0,-7.599 -6.16,-13.759 -13.759,-13.759c-45.073,0 -187.975,0 -233.048,0c-7.599,0 -13.759,6.16 -13.759,13.759c0,55.686 0,264.022 0,319.708c0,7.599 6.16,13.759 13.759,13.759c45.073,-0 187.975,-0 233.048,-0c7.599,-0 13.759,-6.16 13.759,-13.759c-0,-55.686 -0,-264.022 -0,-319.708Z" style="fill:url(#_Linear1);"/><defs><linearGradient id="_Linear1" x1="0" y1="0" x2="1" y2="0" gradientUnits="userSpaceOnUse" gradientTransform="matrix(-195.824,-269.763,269.763,-195.824,418.058,396.15)"><stop offset="0" style="stop-color:#430aff;stop-opacity:1"/><stop offset="0.49" style="stop-color:#a82ef4;stop-opacity:1"/><stop offset="1" style="stop-color:#c93af0;stop-opacity:1"/></linearGradient></defs></svg>