<?xml version="1.0" encoding="UTF-8" standalone="no"?><!DOCTYPE svg PUBLIC "-//W3C//DTD SVG 1.1//EN" "http://www.w3.org/Graphics/SVG/1.1/DTD/svg11.dtd"><svg width="100%" height="100%" viewBox="0 0 601 600" version="1.1" xmlns="http://www.w3.org/2000/svg" xmlns:xlink="http://www.w3.org/1999/xlink" xml:space="preserve" xmlns:serif="http://www.serif.com/" style="fill-rule:evenodd;clip-rule:evenodd;stroke-linejoin:round;stroke-miterlimit:2;"><rect id="smart-contract-front" x="0.16" y="0" width="600" height="600" style="fill:none;"/><g><path d="M434.005,142.827c-0,-5.004 -1.988,-9.802 -5.526,-13.34c-3.538,-3.538 -8.336,-5.526 -13.339,-5.526l-229.96,0c-5.004,0 -9.802,1.988 -13.34,5.526c-3.538,3.538 -5.526,8.336 -5.526,13.34l0,314.346c0,5.004 1.988,9.802 5.526,13.34c3.538,3.538 8.336,5.526 13.34,5.526l229.96,-0c5.003,-0 9.801,-1.988 13.339,-5.526c3.538,-3.538 5.526,-8.336 5.526,-13.34l-0,-314.346Z" style="fill:url(#_Linear1);"/><path d="M426.961,145.101c-0,-3.649 -1.45,-7.149 -4.03,-9.729c-2.58,-2.58 -6.08,-4.03 -9.729,-4.03c-44.149,0 -181.935,0 -226.085,0c-3.649,0 -7.148,1.45 -9.729,4.03c-2.58,2.58 -4.029,6.08 -4.029,9.729c-0,54.618 -0,255.811 -0,310.429c-0,3.649 1.449,7.148 4.029,9.729c2.581,2.58 6.08,4.029 9.729,4.029c44.15,0 181.936,0 226.085,0c3.649,0 7.149,-1.449 9.729,-4.029c2.58,-2.581 4.03,-6.08 4.03,-9.729c-0,-54.618 -0,-255.811 -0,-310.429Z" style="fill:#0d0c11;"/><g><path d="M232.055,219.994l124.417,0c2.76,0 5,-2.24 5,-5c0,-2.759 -2.24,-5 -5,-5l-124.417,0c-2.759,0 -5,2.241 -5,5c0,2.76 2.241,5 5,5Z" style="fill:#ffc73b;"/><path d="M232.055,333.421l124.417,-0c2.76,-0 5,-2.241 5,-5c0,-2.76 -2.24,-5 -5,-5l-124.417,-0c-2.759,-0 -5,2.24 -5,5c0,2.759 2.241,5 5,5Z" style="fill:#ffc73b;"/><path d="M232.055,361.713l73.83,0c2.76,0 5,-2.24 5,-5c0,-2.759 -2.24,-5 -5,-5l-73.83,0c-2.759,0 -5,2.241 -5,5c0,2.76 2.241,5 5,5Z" style="fill:#ffc73b;"/><path d="M232.055,248.287l49.22,-0c2.76,-0 5,-2.241 5,-5c0,-2.76 -2.24,-5 -5,-5l-49.22,-0c-2.759,-0 -5,2.24 -5,5c0,2.759 2.241,5 5,5Z" style="fill:#fff;"/><path d="M296.656,248.287l37.599,-0c2.759,-0 5,-2.241 5,-5c-0,-2.76 -2.241,-5 -5,-5l-37.599,-0c-2.759,-0 -5,2.24 -5,5c0,2.759 2.241,5 5,5Z" style="fill:#06ffde;"/><path d="M232.055,390.006l49.22,-0c2.76,-0 5,-2.241 5,-5c0,-2.76 -2.24,-5 -5,-5l-49.22,-0c-2.759,-0 -5,2.24 -5,5c0,2.759 2.241,5 5,5Z" style="fill:#fff;"/><path d="M296.656,390.006l37.599,-0c2.759,-0 5,-2.241 5,-5c-0,-2.76 -2.241,-5 -5,-5l-37.599,-0c-2.759,-0 -5,2.24 -5,5c0,2.759 2.241,5 5,5Z" style="fill:#06ffde;"/><path d="M285.377,276.836l49.22,-0c2.759,-0 5,-2.241 5,-5c-0,-2.76 -2.241,-5 -5,-5l-49.22,-0c-2.76,-0 -5,2.24 -5,5c-0,2.759 2.24,5 5,5Z" style="fill:#9900f1;"/><path d="M350.49,276.836l17.774,-0c2.76,-0 5,-2.241 5,-5c0,-2.76 -2.24,-5 -5,-5l-17.774,-0c-2.759,-0 -5,2.24 -5,5c0,2.759 2.241,5 5,5Z" style="fill:#0331ff;"/><path d="M232.055,276.579l37.599,0c2.759,0 5,-2.24 5,-5c-0,-2.759 -2.241,-5 -5,-5l-37.599,0c-2.759,0 -5,2.241 -5,5c0,2.76 2.241,5 5,5Z" style="fill:#f35b68;"/><path d="M266.236,305.128l49.22,0c2.759,0 5,-2.24 5,-5c-0,-2.759 -2.241,-5 -5,-5l-49.22,0c-2.76,0 -5,2.241 -5,5c-0,2.76 2.24,5 5,5Z" style="fill:#9900f1;"/><path d="M232.055,305.128l17.774,0c2.76,0 5,-2.24 5,-5c0,-2.759 -2.24,-5 -5,-5l-17.774,0c-2.759,0 -5,2.241 -5,5c0,2.76 2.241,5 5,5Z" style="fill:#f35b68;"/></g></g><defs><linearGradient id="_Linear1" x1="0" y1="0" x2="1" y2="0" gradientUnits="userSpaceOnUse" gradientTransform="matrix(1.39107e-14,-227.178,227.178,1.39107e-14,306.879,430.635)"><stop offset="0" style="stop-color:#fff;stop-opacity:0.33"/><stop offset="1" style="stop-color:#fff;stop-opacity:1"/></linearGradient></defs></svg>