<?xml version="1.0" encoding="UTF-8" standalone="no"?>
<!DOCTYPE svg PUBLIC "-//W3C//DTD SVG 1.1//EN" "http://www.w3.org/Graphics/SVG/1.1/DTD/svg11.dtd">
<svg width="100%" height="100%" viewBox="0 0 495 571" version="1.1" xmlns="http://www.w3.org/2000/svg" xmlns:xlink="http://www.w3.org/1999/xlink" xml:space="preserve" style="fill-rule:evenodd;clip-rule:evenodd;stroke-linecap:square;stroke-miterlimit:1.5;">
    <g transform="matrix(1,0,0,1,-2669.65,-5753.84)">
        <g transform="matrix(1,0,0,9.20507,2441.07,1383.93)">
            <g transform="matrix(0.95911,0,0,0.578437,20.7403,97.2568)">
                <g transform="matrix(0.914141,0,0,0.177285,62.7098,-193.896)">
                    <rect x="508" y="5108" width="198" height="245.068" style="fill:none;stroke:url(#_RadialsmartContracts1);stroke-width:3.16px;"/>
                </g>
                <g transform="matrix(0.914141,0,0,0.177285,43.479,-197.56)">
                    <rect x="508" y="5108" width="198" height="245.068" style="fill:none;stroke:url(#_RadialsmartContracts2);stroke-width:3.16px;"/>
                </g>
                <g transform="matrix(0.914141,0,0,0.177285,24.2483,-201.223)">
                    <rect x="508" y="5108" width="198" height="245.068" style="fill:none;stroke:url(#_RadialsmartContracts3);stroke-width:3.16px;"/>
                </g>
                <g transform="matrix(0.914141,0,0,0.177285,5.01756,-204.887)">
                    <rect x="508" y="5108" width="198" height="245.068" style="fill:none;stroke:url(#_RadialsmartContracts4);stroke-width:3.16px;"/>
                </g>
                <g transform="matrix(0.914141,0,0,0.177285,-14.2132,-208.55)">
                    <rect x="508" y="5108" width="198" height="245.068" style="fill:none;stroke:url(#_RadialsmartContracts5);stroke-width:3.16px;"/>
                </g>
                <g transform="matrix(0.914141,0,0,0.177285,-33.4439,-212.213)">
                    <rect x="508" y="5108" width="198" height="245.068" style="fill:none;stroke:url(#_RadialsmartContracts6);stroke-width:3.16px;"/>
                </g>
                <g transform="matrix(0.914141,0,0,0.177285,-52.6746,-215.877)">
                    <rect x="508" y="5108" width="198" height="245.068" style="fill:none;stroke:url(#_RadialsmartContracts7);stroke-width:3.16px;"/>
                </g>
                <g transform="matrix(0.914141,0,0,0.177285,-71.9054,-219.54)">
                    <rect x="508" y="5108" width="198" height="245.068" style="fill:none;stroke:url(#_RadialsmartContracts8);stroke-width:3.16px;"/>
                </g>
                <g transform="matrix(0.914141,0,0,0.177285,-91.1361,-223.204)">
                    <rect x="508" y="5108" width="198" height="245.068" style="fill:none;stroke:url(#_RadialsmartContracts9);stroke-width:3.16px;"/>
                </g>
                <g transform="matrix(0.914141,0,0,0.177285,-110.367,-226.867)">
                    <rect x="508" y="5108" width="198" height="245.068" style="fill:none;stroke:url(#_RadialsmartContracts10);stroke-width:3.16px;"/>
                </g>
                <g transform="matrix(0.914141,0,0,0.177285,-129.598,-230.531)">
                    <rect x="508" y="5108" width="198" height="245.068" style="fill:none;stroke:url(#_RadialsmartContracts11);stroke-width:3.16px;"/>
                </g>
                <g transform="matrix(0.914141,0,0,0.177285,-148.828,-234.194)">
                    <rect x="508" y="5108" width="198" height="245.068" style="fill:none;stroke:url(#_RadialsmartContracts12);stroke-width:3.16px;"/>
                </g>
                <g transform="matrix(0.914141,0,0,0.177285,-168.059,-237.858)">
                    <rect x="508" y="5108" width="198" height="245.068" style="fill:none;stroke:url(#_RadialsmartContracts13);stroke-width:3.16px;"/>
                </g>
                <g transform="matrix(0.914141,0,0,0.177285,-187.29,-241.521)">
                    <rect x="508" y="5108" width="198" height="245.068" style="fill:none;stroke:url(#_RadialsmartContracts14);stroke-width:3.16px;"/>
                </g>
                <g transform="matrix(0.914141,0,0,0.177285,-206.521,-245.184)">
                    <rect x="508" y="5108" width="198" height="245.068" style="fill:none;stroke:url(#_RadialsmartContracts15);stroke-width:3.16px;"/>
                </g>
                <g transform="matrix(0.914141,0,0,0.177285,-225.751,-248.848)">
                    <rect x="508" y="5108" width="198" height="245.068" style="fill:none;stroke:url(#_RadialsmartContracts16);stroke-width:3.16px;"/>
                </g>
                <g transform="matrix(0.914141,0,0,0.177285,-244.982,-252.511)">
                    <rect x="508" y="5108" width="198" height="245.068" style="fill:none;stroke:url(#_RadialsmartContracts17);stroke-width:3.16px;"/>
                </g>
                <g transform="matrix(0.914141,0,0,0.177285,81.9405,-190.233)">
                    <rect x="508" y="5108" width="198" height="245.068" style="fill:none;stroke:white;stroke-width:6.01px;"/>
                    <rect x="508" y="5108" width="198" height="245.068" style="fill:rgb(29,29,29);"/>
                </g>
                <g transform="matrix(1,0,0,0.97512,-8.52651e-14,18.3775)">
                    <g transform="matrix(1,0,0,0.1905,2.84217e-14,-263.639)">
                        <path d="M566,5181L657,5181" style="fill:none;stroke:rgb(255,199,59);stroke-width:6.67px;"/>
                    </g>
                    <g transform="matrix(1,0,0,0.1905,2.84217e-14,-248.314)">
                        <path d="M566,5181L657,5181" style="fill:none;stroke:rgb(255,199,59);stroke-width:6.67px;"/>
                    </g>
                    <g transform="matrix(1,0,0,0.1905,1.42109e-13,-244.491)">
                        <path d="M566,5181L620,5181" style="fill:none;stroke:rgb(255,199,59);stroke-width:6.67px;"/>
                    </g>
                    <g transform="matrix(1,0,0,1,0,-0.194259)">
                        <g transform="matrix(0.395604,0,0,0.1905,342.088,-259.622)">
                            <path d="M566,5181L657,5181" style="fill:none;stroke:white;stroke-width:8.68px;"/>
                        </g>
                        <g transform="matrix(0.302198,0,0,0.1905,442.206,-259.622)">
                            <path d="M566,5181L657,5181" style="fill:none;stroke:rgb(6,255,18);stroke-width:8.92px;"/>
                        </g>
                    </g>
                    <g transform="matrix(1,0,0,1,0,18.9535)">
                        <g transform="matrix(0.395604,0,0,0.1905,342.088,-259.622)">
                            <path d="M566,5181L657,5181" style="fill:none;stroke:white;stroke-width:8.68px;"/>
                        </g>
                        <g transform="matrix(0.302198,0,0,0.1905,442.206,-259.622)">
                            <path d="M566,5181L657,5181" style="fill:none;stroke:rgb(6,255,18);stroke-width:8.92px;"/>
                        </g>
                    </g>
                    <g transform="matrix(1,0,0,1,0,-0.614362)">
                        <g transform="matrix(0.395604,0,0,0.1905,381.088,-255.344)">
                            <path d="M566,5181L657,5181" style="fill:none;stroke:rgb(153,0,241);stroke-width:8.68px;"/>
                        </g>
                        <g transform="matrix(0.142857,0,0,0.1905,571.768,-255.344)">
                            <path d="M566,5181L657,5181" style="fill:none;stroke:rgb(3,49,255);stroke-width:9.21px;"/>
                        </g>
                        <g transform="matrix(0.302198,0,0,0.1905,394.956,-255.379)">
                            <path d="M566,5181L657,5181" style="fill:none;stroke:rgb(247,40,57);stroke-width:8.92px;"/>
                        </g>
                    </g>
                    <g transform="matrix(1,0,0,1,0,0.200523)">
                        <g transform="matrix(0.395604,0,0,0.1905,367.088,-252.337)">
                            <path d="M566,5181L657,5181" style="fill:none;stroke:rgb(153,0,241);stroke-width:8.68px;"/>
                        </g>
                        <g transform="matrix(0.142857,0,0,0.1905,485.143,-252.337)">
                            <path d="M566,5181L657,5181" style="fill:none;stroke:rgb(247,40,57);stroke-width:9.21px;"/>
                        </g>
                    </g>
                </g>
            </g>
        </g>
    </g>
    <defs>
        <radialGradient id="_RadialsmartContracts1" cx="0" cy="0" r="1" gradientUnits="userSpaceOnUse" gradientTransform="matrix(-357.598,-364.946,392.917,-332.141,650.108,5260.24)"><stop offset="0" style="stop-color:white;stop-opacity:1"/><stop offset="0.5" style="stop-color:rgb(198,198,198);stop-opacity:0.25"/><stop offset="1" style="stop-color:rgb(179,179,179);stop-opacity:0"/></radialGradient>
        <radialGradient id="_RadialsmartContracts2" cx="0" cy="0" r="1" gradientUnits="userSpaceOnUse" gradientTransform="matrix(-357.598,-364.946,392.917,-332.141,671.144,5280.9)"><stop offset="0" style="stop-color:white;stop-opacity:1"/><stop offset="0.5" style="stop-color:rgb(198,198,198);stop-opacity:0.25"/><stop offset="1" style="stop-color:rgb(179,179,179);stop-opacity:0"/></radialGradient>
        <radialGradient id="_RadialsmartContracts3" cx="0" cy="0" r="1" gradientUnits="userSpaceOnUse" gradientTransform="matrix(-357.598,-364.946,392.917,-332.141,692.181,5301.57)"><stop offset="0" style="stop-color:white;stop-opacity:1"/><stop offset="0.5" style="stop-color:rgb(198,198,198);stop-opacity:0.25"/><stop offset="1" style="stop-color:rgb(179,179,179);stop-opacity:0"/></radialGradient>
        <radialGradient id="_RadialsmartContracts4" cx="0" cy="0" r="1" gradientUnits="userSpaceOnUse" gradientTransform="matrix(-357.598,-364.946,392.917,-332.141,713.218,5322.23)"><stop offset="0" style="stop-color:white;stop-opacity:1"/><stop offset="0.5" style="stop-color:rgb(198,198,198);stop-opacity:0.25"/><stop offset="1" style="stop-color:rgb(179,179,179);stop-opacity:0"/></radialGradient>
        <radialGradient id="_RadialsmartContracts5" cx="0" cy="0" r="1" gradientUnits="userSpaceOnUse" gradientTransform="matrix(-357.598,-364.946,392.917,-332.141,734.255,5342.89)"><stop offset="0" style="stop-color:white;stop-opacity:1"/><stop offset="0.5" style="stop-color:rgb(198,198,198);stop-opacity:0.25"/><stop offset="1" style="stop-color:rgb(179,179,179);stop-opacity:0"/></radialGradient>
        <radialGradient id="_RadialsmartContracts6" cx="0" cy="0" r="1" gradientUnits="userSpaceOnUse" gradientTransform="matrix(-357.598,-364.946,392.917,-332.141,755.292,5363.56)"><stop offset="0" style="stop-color:white;stop-opacity:1"/><stop offset="0.5" style="stop-color:rgb(198,198,198);stop-opacity:0.25"/><stop offset="1" style="stop-color:rgb(179,179,179);stop-opacity:0"/></radialGradient>
        <radialGradient id="_RadialsmartContracts7" cx="0" cy="0" r="1" gradientUnits="userSpaceOnUse" gradientTransform="matrix(-357.598,-364.946,392.917,-332.141,776.329,5384.22)"><stop offset="0" style="stop-color:white;stop-opacity:1"/><stop offset="0.5" style="stop-color:rgb(198,198,198);stop-opacity:0.25"/><stop offset="1" style="stop-color:rgb(179,179,179);stop-opacity:0"/></radialGradient>
        <radialGradient id="_RadialsmartContracts8" cx="0" cy="0" r="1" gradientUnits="userSpaceOnUse" gradientTransform="matrix(-357.598,-364.946,392.917,-332.141,797.366,5404.89)"><stop offset="0" style="stop-color:white;stop-opacity:1"/><stop offset="0.5" style="stop-color:rgb(198,198,198);stop-opacity:0.25"/><stop offset="1" style="stop-color:rgb(179,179,179);stop-opacity:0"/></radialGradient>
        <radialGradient id="_RadialsmartContracts9" cx="0" cy="0" r="1" gradientUnits="userSpaceOnUse" gradientTransform="matrix(-357.598,-364.946,392.917,-332.141,818.403,5425.55)"><stop offset="0" style="stop-color:white;stop-opacity:1"/><stop offset="0.5" style="stop-color:rgb(198,198,198);stop-opacity:0.25"/><stop offset="1" style="stop-color:rgb(179,179,179);stop-opacity:0"/></radialGradient>
        <radialGradient id="_RadialsmartContracts10" cx="0" cy="0" r="1" gradientUnits="userSpaceOnUse" gradientTransform="matrix(-357.598,-364.946,392.917,-332.141,839.44,5446.21)"><stop offset="0" style="stop-color:white;stop-opacity:1"/><stop offset="0.5" style="stop-color:rgb(198,198,198);stop-opacity:0.25"/><stop offset="1" style="stop-color:rgb(179,179,179);stop-opacity:0"/></radialGradient>
        <radialGradient id="_RadialsmartContracts11" cx="0" cy="0" r="1" gradientUnits="userSpaceOnUse" gradientTransform="matrix(-357.598,-364.946,392.917,-332.141,860.477,5466.88)"><stop offset="0" style="stop-color:white;stop-opacity:1"/><stop offset="0.5" style="stop-color:rgb(198,198,198);stop-opacity:0.25"/><stop offset="1" style="stop-color:rgb(179,179,179);stop-opacity:0"/></radialGradient>
        <radialGradient id="_RadialsmartContracts12" cx="0" cy="0" r="1" gradientUnits="userSpaceOnUse" gradientTransform="matrix(-357.598,-364.946,392.917,-332.141,881.514,5487.54)"><stop offset="0" style="stop-color:white;stop-opacity:1"/><stop offset="0.5" style="stop-color:rgb(198,198,198);stop-opacity:0.25"/><stop offset="1" style="stop-color:rgb(179,179,179);stop-opacity:0"/></radialGradient>
        <radialGradient id="_RadialsmartContracts13" cx="0" cy="0" r="1" gradientUnits="userSpaceOnUse" gradientTransform="matrix(-357.598,-364.946,392.917,-332.141,902.551,5508.21)"><stop offset="0" style="stop-color:white;stop-opacity:1"/><stop offset="0.5" style="stop-color:rgb(198,198,198);stop-opacity:0.25"/><stop offset="1" style="stop-color:rgb(179,179,179);stop-opacity:0"/></radialGradient>
        <radialGradient id="_RadialsmartContracts14" cx="0" cy="0" r="1" gradientUnits="userSpaceOnUse" gradientTransform="matrix(-357.598,-364.946,392.917,-332.141,923.588,5528.87)"><stop offset="0" style="stop-color:white;stop-opacity:1"/><stop offset="0.5" style="stop-color:rgb(198,198,198);stop-opacity:0.25"/><stop offset="1" style="stop-color:rgb(179,179,179);stop-opacity:0"/></radialGradient>
        <radialGradient id="_RadialsmartContracts15" cx="0" cy="0" r="1" gradientUnits="userSpaceOnUse" gradientTransform="matrix(-357.598,-364.946,392.917,-332.141,944.625,5549.54)"><stop offset="0" style="stop-color:white;stop-opacity:1"/><stop offset="0.5" style="stop-color:rgb(198,198,198);stop-opacity:0.25"/><stop offset="1" style="stop-color:rgb(179,179,179);stop-opacity:0"/></radialGradient>
        <radialGradient id="_RadialsmartContracts16" cx="0" cy="0" r="1" gradientUnits="userSpaceOnUse" gradientTransform="matrix(-357.598,-364.946,392.917,-332.141,965.662,5570.2)"><stop offset="0" style="stop-color:white;stop-opacity:1"/><stop offset="0.5" style="stop-color:rgb(198,198,198);stop-opacity:0.25"/><stop offset="1" style="stop-color:rgb(179,179,179);stop-opacity:0"/></radialGradient>
        <radialGradient id="_RadialsmartContracts17" cx="0" cy="0" r="1" gradientUnits="userSpaceOnUse" gradientTransform="matrix(-357.598,-364.946,392.917,-332.141,986.699,5590.86)"><stop offset="0" style="stop-color:white;stop-opacity:1"/><stop offset="0.5" style="stop-color:rgb(198,198,198);stop-opacity:0.25"/><stop offset="1" style="stop-color:rgb(179,179,179);stop-opacity:0"/></radialGradient>
    </defs>
</svg>
