<?xml version="1.0" encoding="UTF-8" standalone="no"?><!DOCTYPE svg PUBLIC "-//W3C//DTD SVG 1.1//EN" "http://www.w3.org/Graphics/SVG/1.1/DTD/svg11.dtd"><svg width="601px" height="600px" version="1.1" xmlns="http://www.w3.org/2000/svg" xmlns:xlink="http://www.w3.org/1999/xlink" xml:space="preserve" xmlns:serif="http://www.serif.com/" style="fill-rule:evenodd;clip-rule:evenodd;stroke-linecap:round;stroke-linejoin:round;"><g transform="matrix(1,0,0,1,-2738,0)"><g id="sprout" transform="matrix(0.75,0,0,1,2738.02,0)"><rect x="0" y="0" width="800" height="600" style="fill:none;"/><g transform="matrix(3.03122,0,0,2.27342,-8.14072,-19.4154)"><g><path d="M117.083,234.167C181.479,204.896 126.45,159.233 152.208,117.083" style="fill:none;fill-rule:nonzero;stroke:url(#_Linear1);stroke-width:3.52px;"/><path d="M111.229,110.058C124.108,119.425 132.304,135.817 138.158,153.379C114.742,158.063 97.179,158.063 81.958,149.867C67.908,142.842 55.029,127.621 46.833,100.692C79.617,94.838 98.35,100.692 111.229,110.058Z" style="fill:none;fill-rule:nonzero;stroke:url(#_Linear2);stroke-width:3.52px;"/><path d="M81.958,234.167L199.042,234.167" style="fill:none;fill-rule:nonzero;stroke:url(#_Linear3);stroke-width:3.52px;"/><path d="M165.087,70.25C156.161,84.201 151.671,100.53 152.208,117.083C174.454,115.913 190.846,110.058 202.554,100.692C214.262,88.983 221.287,73.763 222.458,46.833C190.846,48.004 175.625,58.542 165.087,70.25Z" style="fill:none;fill-rule:nonzero;stroke:url(#_Linear4);stroke-width:3.52px;"/></g></g></g></g><defs><linearGradient id="_Linear1" x1="0" y1="0" x2="1" y2="0" gradientUnits="userSpaceOnUse" gradientTransform="matrix(7.16933e-15,117.084,-117.084,7.16933e-15,134.646,117.083)"><stop offset="0" style="stop-color:rgb(34,216,119);stop-opacity:1"/><stop offset="1" style="stop-color:rgb(51,221,255);stop-opacity:0.19"/></linearGradient><linearGradient id="_Linear2" x1="0" y1="0" x2="1" y2="0" gradientUnits="userSpaceOnUse" gradientTransform="matrix(3.56349e-15,58.1962,-58.1962,3.56349e-15,92.4958,98.3478)"><stop offset="0" style="stop-color:rgb(34,216,119);stop-opacity:1"/><stop offset="1" style="stop-color:rgb(34,216,118);stop-opacity:0"/></linearGradient><linearGradient id="_Linear3" x1="0" y1="0" x2="1" y2="0" gradientUnits="userSpaceOnUse" gradientTransform="matrix(-106.546,1.30482e-14,-1.30482e-14,-106.546,199.042,235.167)"><stop offset="0" style="stop-color:rgb(0,48,56);stop-opacity:1"/><stop offset="1" style="stop-color:rgb(0,215,253);stop-opacity:1"/></linearGradient><linearGradient id="_Linear4" x1="0" y1="0" x2="1" y2="0" gradientUnits="userSpaceOnUse" gradientTransform="matrix(-21.405,70.2496,-70.2496,-21.405,208.717,46.8334)"><stop offset="0" style="stop-color:white;stop-opacity:1"/><stop offset="0.5" style="stop-color:rgb(34,216,119);stop-opacity:0.79"/><stop offset="1" style="stop-color:rgb(34,216,118);stop-opacity:0"/></linearGradient></defs></svg>