<?xml version="1.0" encoding="UTF-8" standalone="no"?><!DOCTYPE svg PUBLIC "-//W3C//DTD SVG 1.1//EN" "http://www.w3.org/Graphics/SVG/1.1/DTD/svg11.dtd"><svg width="100%" height="100%" viewBox="0 0 600 600" version="1.1" xmlns="http://www.w3.org/2000/svg" xmlns:xlink="http://www.w3.org/1999/xlink" xml:space="preserve" xmlns:serif="http://www.serif.com/" style="fill-rule:evenodd;clip-rule:evenodd;stroke-linecap:round;stroke-linejoin:round;"><rect id="sprout" x="0" y="0" width="600" height="600" style="fill:none;"/><g><g><path d="M254.689,541.66c166.141,-75.519 24.166,-193.33 90.622,-302.076" style="fill:none;fill-rule:nonzero;stroke:url(#_Linear1);stroke-width:13.16px;"/><path d="M239.585,221.459c33.228,24.167 54.374,66.458 69.477,111.768c-60.413,12.085 -105.725,12.085 -144.995,-9.061c-36.249,-18.124 -69.477,-57.394 -90.622,-126.871c84.581,-15.104 132.913,0 166.14,24.164Z" style="fill:none;fill-rule:nonzero;stroke:url(#_Linear2);stroke-width:13.16px;"/><path d="M164.067,541.66l302.075,-0" style="fill:none;fill-rule:nonzero;stroke:url(#_Linear3);stroke-width:13.16px;"/><path d="M378.538,118.755c-26.223,32.515 -34.613,78.122 -33.227,120.829c57.394,-3.019 99.685,-18.125 129.892,-42.289c30.207,-30.208 48.331,-69.478 51.352,-138.955c-81.559,3.021 -117.029,21.993 -148.017,60.415Z" style="fill:none;fill-rule:nonzero;stroke:url(#_Linear4);stroke-width:13.16px;"/></g></g><defs><linearGradient id="_Linear1" x1="0" y1="0" x2="1" y2="0" gradientUnits="userSpaceOnUse" gradientTransform="matrix(1.84968e-14,302.076,-302.076,1.84968e-14,300.001,239.584)"><stop offset="0" style="stop-color:#22d877;stop-opacity:1"/><stop offset="1" style="stop-color:#3df;stop-opacity:0.19"/></linearGradient><linearGradient id="_Linear2" x1="0" y1="0" x2="1" y2="0" gradientUnits="userSpaceOnUse" gradientTransform="matrix(9.19377e-15,150.146,-150.146,9.19377e-15,191.254,191.247)"><stop offset="0" style="stop-color:#22d877;stop-opacity:1"/><stop offset="1" style="stop-color:#22d876;stop-opacity:0"/></linearGradient><linearGradient id="_Linear3" x1="0" y1="0" x2="1" y2="0" gradientUnits="userSpaceOnUse" gradientTransform="matrix(-274.889,3.36642e-14,-3.36642e-14,-274.889,466.142,544.24)"><stop offset="0" style="stop-color:#003038;stop-opacity:1"/><stop offset="1" style="stop-color:#00d7fd;stop-opacity:1"/></linearGradient><linearGradient id="_Linear4" x1="0" y1="0" x2="1" y2="0" gradientUnits="userSpaceOnUse" gradientTransform="matrix(-55.2248,181.243,-181.243,-55.2248,491.104,58.3405)"><stop offset="0" style="stop-color:#fff;stop-opacity:1"/><stop offset="0.5" style="stop-color:#22d877;stop-opacity:0.79"/><stop offset="1" style="stop-color:#22d876;stop-opacity:0"/></linearGradient></defs></svg>