<?xml version="1.0" encoding="UTF-8" standalone="no"?><!DOCTYPE svg PUBLIC "-//W3C//DTD SVG 1.1//EN" "http://www.w3.org/Graphics/SVG/1.1/DTD/svg11.dtd"><svg width="1103px" height="400px" version="1.1" xmlns="http://www.w3.org/2000/svg" xmlns:xlink="http://www.w3.org/1999/xlink" xml:space="preserve" xmlns:serif="http://www.serif.com/" style="fill-rule:evenodd;clip-rule:evenodd;stroke-linecap:round;"><g transform="matrix(1,0,0,1,-1836,-944)"><g id="stroke-mountains" transform="matrix(0.647248,0,0,0.447062,1836.04,521.771)"><rect x="0" y="944.454" width="1703.33" height="894.731" style="fill:none;"/><clipPath id="_clip1"><rect x="0" y="944.454" width="1703.33" height="894.731"/></clipPath><g clip-path="url(#_clip1)"><g transform="matrix(1.545,0,0,1.5922,-463.387,-814.171)"><g transform="matrix(1,0,0,1.40487,320.727,1209.23)"><path d="M127.382,279.509L275.298,130.807L375.332,231.373M375.332,279.509L555.88,98L637.005,179.557L677.568,138.778L830.973,293M806.574,223.401L854.456,175.264L923.382,244.557M922.382,209.5L966.382,165.5L1065.88,265M147.382,223.401L99.245,175.264L-5,279.509" style="fill:none;fill-rule:nonzero;stroke:url(#_Radial2);stroke-width:8px;"/></g><g transform="matrix(1,0,0,1.40487,323.727,1148.74)"><path d="M459.601,170C429.352,155.913 408.382,125.214 408.382,89.611C408.382,40.673 448.005,1 496.882,1C545.759,1 585.382,40.673 585.382,89.611C585.382,95.705 584.768,101.656 583.598,107.403" style="fill:none;fill-rule:nonzero;stroke:url(#_Linear3);stroke-width:8px;"/></g></g></g></g></g><defs><radialGradient id="_Radial2" cx="0" cy="0" r="1" gradientUnits="userSpaceOnUse" gradientTransform="matrix(490.559,152.5,-828.883,2666.33,530.941,195.5)"><stop offset="0" style="stop-color:rgb(255,149,52);stop-opacity:1"/><stop offset="0.58" style="stop-color:rgb(136,42,231);stop-opacity:1"/><stop offset="1" style="stop-color:rgb(70,236,255);stop-opacity:0"/></radialGradient><linearGradient id="_Linear3" x1="0" y1="0" x2="1" y2="0" gradientUnits="userSpaceOnUse" gradientTransform="matrix(9.30673e-15,151.99,-151.99,9.30673e-15,490.86,-3.69401)"><stop offset="0" style="stop-color:white;stop-opacity:1"/><stop offset="1" style="stop-color:rgb(255,164,28);stop-opacity:1"/></linearGradient></defs></svg>