<?xml version="1.0" encoding="UTF-8" standalone="no"?>
<!DOCTYPE svg PUBLIC "-//W3C//DTD SVG 1.1//EN" "http://www.w3.org/Graphics/SVG/1.1/DTD/svg11.dtd">
<svg width="100%" height="100%" viewBox="0 0 6536 3866" version="1.1" xmlns="http://www.w3.org/2000/svg" xmlns:xlink="http://www.w3.org/1999/xlink" xml:space="preserve" xmlns:serif="http://www.serif.com/" style="fill-rule:evenodd;clip-rule:evenodd;stroke-linejoin:round;stroke-miterlimit:2;">
    <g transform="matrix(1,0,0,1,-16598.2,-9644.79)">
        <g transform="matrix(2.08261,0,0,1.23172,852.211,9644.79)">
            <rect id="mountain-vector" x="7560.68" y="0" width="3138.03" height="3138.03" style="fill:none;"/>
            <g id="mountain-vector1" serif:id="mountain-vector">
                <g transform="matrix(1.35466,0,0,1.35466,-3352.24,-359.8)">
                    <g transform="matrix(0.63379,0,0,1.07162,7312.68,-196.166)">
                        <path d="M1743.2,1564.77L1658.63,1564.77L1658.63,1545.12L1768.74,1545.12L1743.2,1564.77ZM4251.63,1545.12L4341.37,1545.12L4341.37,1564.77L4272.3,1564.77L4251.63,1545.12ZM3981.33,1564.77L3961.45,1545.12L4027.25,1545.12L4004.63,1564.77L3981.33,1564.77Z" style="fill:rgb(255,93,81);"/>
                    </g>
                    <g transform="matrix(0.63379,0,0,1.07162,7312.68,-196.166)">
                        <path d="M1873.11,1464.8L1658.63,1464.8L1658.63,1445.14L1898.64,1445.14L1873.11,1464.8ZM3860.32,1445.14L4142.3,1445.14L4119.68,1464.8L3880.2,1464.8L3860.32,1445.14ZM4146.45,1445.14L4341.37,1445.14L4341.37,1464.8L4167.12,1464.8L4146.45,1445.14Z" style="fill:rgb(255,93,81);"/>
                    </g>
                    <g transform="matrix(0.63379,0,0,1.07162,7312.68,-196.166)">
                        <path d="M2003,1364.84L1658.63,1364.84L1658.63,1345.18L2028.53,1345.18L2003,1364.84ZM3759.21,1345.18L4341.37,1345.18L4341.37,1364.84L3779.09,1364.84L3759.21,1345.18ZM2492.41,1364.84L2469,1345.18L2626.83,1345.18L2599.92,1364.84L2492.41,1364.84Z" style="fill:rgb(255,93,81);"/>
                    </g>
                    <g transform="matrix(0.63379,0,0,1.07162,7312.68,-196.166)">
                        <path d="M2132.9,1264.87L1658.63,1264.87L1658.63,1245.21L2158.43,1245.21L2132.9,1264.87ZM3658.08,1245.21L4341.37,1245.21L4341.37,1264.87L3677.96,1264.87L3658.08,1245.21ZM2349.89,1245.21L2763.74,1245.21L2736.83,1264.87L2373.3,1264.87L2349.89,1245.21ZM3441.89,1245.21L3466.44,1245.21L3451.51,1255.83L3441.89,1245.21Z" style="fill:rgb(255,126,81);"/>
                    </g>
                    <g transform="matrix(0.63379,0,0,1.07162,7312.68,-196.166)">
                        <path d="M2873.73,1164.9L1658.63,1164.9L1658.63,1145.26L2900.64,1145.26L2873.73,1164.9ZM3351.33,1145.26L4341.37,1145.26L4341.37,1164.9L3369.13,1164.9L3351.33,1145.26Z" style="fill:rgb(255,126,81);"/>
                    </g>
                    <g transform="matrix(0.63379,0,0,1.07162,7312.68,-196.166)">
                        <path d="M3010.64,1064.93L1658.63,1064.93L1658.63,1045.29L3037.55,1045.29L3010.64,1064.93ZM3260.75,1045.29L4341.37,1045.29L4341.37,1064.93L3278.55,1064.93L3260.75,1045.29Z" style="fill:rgb(114,0,255);"/>
                    </g>
                    <g transform="matrix(0.63379,0,0,1.07162,7312.68,-196.166)">
                        <path d="M3147.55,964.969L1658.63,964.969L1658.63,945.319L4341.37,945.319L4341.37,964.969L3187.98,964.969L3171.88,947.204L3147.55,964.969Z" style="fill:rgb(114,0,255);"/>
                    </g>
                    <g transform="matrix(0.63379,0,0,1.07162,7312.68,-196.166)">
                        <rect x="1658.63" y="845.354" width="2682.74" height="19.65" style="fill:rgb(51,0,255);"/>
                    </g>
                    <g transform="matrix(0.63379,0,0,1.07162,7312.68,-196.166)">
                        <rect x="1658.63" y="745.389" width="2682.74" height="19.65" style="fill:rgb(0,33,255);"/>
                    </g>
                </g>
                <g id="path80285" transform="matrix(0.858572,0,0,1.45168,6553.98,-625.538)">
                    <path d="M3637.84,1203.61C3644.19,1068.62 3755.8,960.965 3892.35,960.965C4032.97,960.965 4147.15,1075.13 4147.15,1215.76C4147.15,1351.32 4041.05,1462.3 3907.43,1470.12C3902.44,1470.41 3897.41,1470.56 3892.35,1470.56C3890.21,1470.56 3888.08,1470.53 3885.95,1470.48L3637.72,1225.09C3637.61,1221.99 3637.56,1218.88 3637.56,1215.76C3637.56,1211.69 3637.65,1207.63 3637.84,1203.61Z" style="fill:rgb(255,93,81);"/>
                </g>
                <g id="path249" transform="matrix(0.759226,0,0,1.28371,6852.02,-209.555)">
                    <path d="M2487.26,2089.23C2487.26,2141.85 2521.33,2176.84 2563.91,2176.84C2590.68,2176.84 2609.85,2164.06 2619.89,2149.46L2619.89,2174.1L2662.78,2174.1L2662.78,2005.58L2619.89,2005.58L2619.89,2029.61C2609.85,2015.62 2591.29,2002.84 2564.22,2002.84C2521.33,2002.84 2487.26,2036.61 2487.26,2089.23ZM2619.89,2089.84C2619.89,2121.78 2598.59,2139.42 2575.17,2139.42C2552.36,2139.42 2530.76,2121.17 2530.76,2089.23C2530.76,2057.29 2552.36,2040.26 2575.17,2040.26C2598.59,2040.26 2619.89,2057.9 2619.89,2089.84Z" style="fill:white;fill-rule:nonzero;"/>
                </g>
                <g id="rect253" transform="matrix(0.759226,0,0,1.28371,6852.02,-209.555)">
                    <rect x="2698.34" y="1949.01" width="42.586" height="225.095" style="fill:white;"/>
                </g>
                <g id="path257" transform="matrix(0.759226,0,0,1.28371,6852.02,-209.555)">
                    <path d="M2849.25,2037.83C2871.15,2037.83 2888.79,2051.82 2889.4,2074.03L2809.4,2074.03C2812.75,2050.91 2828.87,2037.83 2849.25,2037.83ZM2929.25,2121.18L2883.32,2121.18C2877.84,2132.43 2867.81,2141.56 2849.55,2141.56C2828.26,2141.56 2811.23,2127.56 2809.1,2102.62L2932.29,2102.62C2933.21,2097.15 2933.51,2091.67 2933.51,2086.2C2933.51,2036.01 2899.14,2002.85 2850.47,2002.85C2800.58,2002.85 2765.9,2036.61 2765.9,2089.85C2765.9,2142.77 2801.49,2176.84 2850.47,2176.84C2892.14,2176.84 2920.13,2152.2 2929.25,2121.18Z" style="fill:white;fill-rule:nonzero;"/>
                </g>
                <g id="path261" transform="matrix(0.759226,0,0,1.28371,6852.02,-209.555)">
                    <path d="M3001,2029.92L3001,2005.59L2958.41,2005.59L2958.41,2254.41L3001,2254.41L3001,2150.07C3011.34,2163.76 3030.2,2176.84 3056.67,2176.84C3099.86,2176.84 3133.62,2141.86 3133.62,2089.24C3133.62,2036.61 3099.86,2002.85 3056.67,2002.85C3030.51,2002.85 3011.04,2015.62 3001,2029.92ZM3090.13,2089.24C3090.13,2121.17 3068.53,2139.43 3045.41,2139.43C3022.6,2139.43 3001,2121.78 3001,2089.84C3001,2057.9 3022.6,2040.26 3045.41,2040.26C3068.53,2040.26 3090.13,2057.3 3090.13,2089.24Z" style="fill:white;fill-rule:nonzero;"/>
                </g>
                <g id="path265" transform="matrix(0.759226,0,0,1.28371,6852.02,-209.555)">
                    <path d="M3158.67,2174.1L3201.26,2174.1L3201.26,2081.02C3201.26,2053.95 3216.16,2039.35 3239.28,2039.35C3261.79,2039.35 3276.69,2053.95 3276.69,2081.02L3276.69,2174.1L3319.28,2174.1L3319.28,2075.24C3319.28,2028.7 3291.6,2003.15 3253.58,2003.15C3231.07,2003.15 3212.21,2012.28 3201.26,2026.57L3201.26,1949.01L3158.67,1949.01L3158.67,2174.1Z" style="fill:white;fill-rule:nonzero;"/>
                </g>
                <g id="rect269" transform="matrix(0.759226,0,0,1.28371,6852.02,-209.555)">
                    <rect x="3353.67" y="2005.58" width="42.586" height="168.517" style="fill:white;"/>
                </g>
                <g id="path273" transform="matrix(0.759226,0,0,1.28371,6852.02,-209.555)">
                    <path d="M3591.15,2005.58L3548.26,2005.58L3548.26,2098.36C3548.26,2125.43 3533.66,2140.03 3510.54,2140.03C3488.03,2140.03 3473.13,2125.43 3473.13,2098.36L3473.13,2005.58L3430.54,2005.58L3430.54,2104.44C3430.54,2150.68 3458.83,2176.23 3498.07,2176.23C3519.06,2176.23 3537.61,2167.1 3548.26,2152.8L3548.26,2174.1L3591.15,2174.1L3591.15,2005.58Z" style="fill:white;fill-rule:nonzero;"/>
                </g>
                <g id="path277" transform="matrix(0.759226,0,0,1.28371,6852.02,-209.555)">
                    <path d="M3862.8,2174.1L3905.39,2174.1L3905.39,2075.24C3905.39,2028.7 3876.79,2003.15 3836.34,2003.15C3811.7,2003.15 3789.49,2016.23 3778.54,2035.39C3766.98,2014.4 3745.38,2003.15 3719.22,2003.15C3698.24,2003.15 3680.29,2011.97 3669.64,2025.96L3669.64,2005.58L3627.06,2005.58L3627.06,2174.1L3669.64,2174.1L3669.64,2081.02C3669.64,2054.25 3684.55,2040.26 3707.66,2040.26C3730.18,2040.26 3745.08,2054.25 3745.08,2081.02L3745.08,2174.1L3787.67,2174.1L3787.67,2081.02C3787.67,2054.25 3802.57,2040.26 3825.39,2040.26C3847.89,2040.26 3862.8,2054.25 3862.8,2081.02L3862.8,2174.1Z" style="fill:white;fill-rule:nonzero;"/>
                </g>
                <g id="path283" transform="matrix(0.759226,0,0,1.28371,6852.02,-209.555)">
                    <path d="M3396.71,1935.13C3396.71,1931.68 3394,1929.36 3390.69,1929.94L3359.52,1935.44C3356.15,1936.04 3353.43,1939.31 3353.43,1942.76L3353.43,1981.62C3353.43,1985.07 3356.15,1987.39 3359.52,1986.8L3390.69,1981.3C3394,1980.72 3396.71,1977.44 3396.71,1973.99L3396.71,1935.13Z" style="fill:white;"/>
                </g>
                <g id="path5302" transform="matrix(0.759226,0,0,1.28371,6852.02,-209.555)">
                    <path d="M2177.25,2135.24C2177.25,2129.8 2172.96,2126.13 2167.68,2127.06L2104.18,2138.26C2098.9,2139.19 2094.61,2144.37 2094.61,2149.81L2094.61,2269.75C2094.61,2275.2 2098.9,2278.86 2104.18,2277.93L2167.68,2266.73C2172.96,2265.8 2177.25,2260.63 2177.25,2255.18L2177.25,2135.24Z" style="fill:white;"/>
                </g>
                <g id="path5304" transform="matrix(0.575198,0,0,0.972551,-2398.14,-9354.61)">
                    <path d="M19064.6,12000L19113.5,12049L19077.2,12055.4C19070.3,12056.6 19064.6,12051.8 19064.6,12044.6L19064.6,12000Z" style="fill:rgb(255,40,25);"/>
                </g>
                <g id="path53041" serif:id="path5304" transform="matrix(0.575198,0,0,0.972551,-2398.14,-9354.61)">
                    <path d="M19166.2,12038.6C19164.6,12039.6 19162.9,12040.3 19161,12040.6L19113.5,12049L19064.6,12000L19064.6,11937L19166.2,12038.6Z" style="fill:rgb(255,93,81);"/>
                </g>
                <g id="path53042" serif:id="path5304" transform="matrix(0.575198,0,0,0.972551,-2398.14,-9354.61)">
                    <path d="M19119.4,11863.6L19161,11856.2C19168,11855 19173.7,11859.8 19173.7,11867L19173.7,11917.9L19119.4,11863.6Z" style="fill:rgb(0,33,255);"/>
                </g>
                <g id="path53043" serif:id="path5304" transform="matrix(0.575198,0,0,0.972551,-2398.14,-9354.61)">
                    <path d="M19173.7,11917.9L19173.7,11988.5L19065.8,11880.6C19067.8,11875.8 19072.2,11871.9 19077.2,11871L19119.4,11863.6L19173.7,11917.9Z" style="fill:rgb(114,0,255);"/>
                </g>
                <g id="path53044" serif:id="path5304" transform="matrix(0.575198,0,0,0.972551,-2398.14,-9354.61)">
                    <path d="M19173.7,11988.5L19173.7,12025.3C19173.7,12030.6 19170.6,12035.7 19166.2,12038.6L19064.6,11937L19064.6,11886.3C19064.6,11884.3 19065,11882.4 19065.8,11880.6L19173.7,11988.5Z" style="fill:rgb(255,126,81);"/>
                </g>
                <g id="path5306" transform="matrix(0.759226,0,0,1.28371,6852.02,-209.555)">
                    <path d="M2187.59,1894.67C2185.14,1889.27 2178.56,1885.7 2172.9,1886.69L2104.86,1898.69C2099.2,1899.69 2096.6,1904.88 2099.05,1910.28L2249.54,2241.71C2251.99,2247.11 2258.57,2250.69 2264.23,2249.69L2332.27,2237.7C2337.92,2236.7 2340.53,2231.5 2338.07,2226.1L2187.59,1894.67Z" style="fill:white;"/>
                </g>
                <g id="path76517" transform="matrix(0.858572,0,0,1.45168,6553.98,-625.538)">
                    <path d="M1642.31,1642.42L1614.35,1642.33L1614.35,1642.33L2258.31,1146.75L2542.43,1385.21L3171.88,925.604L3451.51,1234.23L3577.92,1144.37L3992.23,1553.94L4144.47,1421.66L4385.65,1650.9L4362.85,1650.83L4146.45,1445.14L4142.3,1445.14L3992.23,1575.54L3577.92,1165.97L3451.51,1255.83L3171.88,947.204L2542.43,1406.82L2258.31,1168.35L1642.31,1642.42Z" style="fill:rgb(61,61,61);fill-rule:nonzero;"/>
                </g>
                <g id="path765171" serif:id="path76517" transform="matrix(0.858572,0,0,1.45168,6553.98,-625.538)">
                    <path d="M4142.3,1445.14L4144.47,1443.26L4146.45,1445.14L4142.3,1445.14Z" style="fill-rule:nonzero;"/>
                </g>
            </g>
        </g>
    </g>
</svg>
