<?xml version="1.0" encoding="UTF-8" standalone="no"?>
<!DOCTYPE svg PUBLIC "-//W3C//DTD SVG 1.1//EN" "http://www.w3.org/Graphics/SVG/1.1/DTD/svg11.dtd">
<svg width="100%" height="100%" viewBox="0 0 3544 4884" version="1.1" xmlns="http://www.w3.org/2000/svg" xmlns:xlink="http://www.w3.org/1999/xlink" xml:space="preserve" xmlns:serif="http://www.serif.com/" style="fill-rule:evenodd;clip-rule:evenodd;stroke-linejoin:round;stroke-miterlimit:2;">
    <g transform="matrix(1,0,0,1,-7696.01,-9557.21)">
        <g transform="matrix(1.12915,0,0,1.55637,-841.147,9557.21)">
            <rect id="rainbow-stroke-shirt-vector" x="7560.68" y="0" width="3138.03" height="3138.03" style="fill:none;"/>
            <g id="rainbow-stroke-shirt-vector1" serif:id="rainbow-stroke-shirt-vector">
                <g transform="matrix(0.970154,0,0,0.703848,6087.51,1327.13)">
                    <path d="M2487.26,2089.23C2487.26,2141.85 2521.33,2176.84 2563.91,2176.84C2590.68,2176.84 2609.85,2164.06 2619.89,2149.46L2619.89,2174.1L2662.78,2174.1L2662.78,2005.58L2619.89,2005.58L2619.89,2029.61C2609.85,2015.62 2591.29,2002.84 2564.22,2002.84C2521.33,2002.84 2487.26,2036.61 2487.26,2089.23ZM2619.89,2089.84C2619.89,2121.78 2598.59,2139.42 2575.17,2139.42C2552.36,2139.42 2530.76,2121.17 2530.76,2089.23C2530.76,2057.29 2552.36,2040.26 2575.17,2040.26C2598.59,2040.26 2619.89,2057.9 2619.89,2089.84Z" style="fill:white;"/>
                    <rect x="2698.34" y="1949.01" width="42.586" height="225.095" style="fill:white;"/>
                    <path d="M2849.25,2037.83C2871.15,2037.83 2888.79,2051.82 2889.4,2074.03L2809.4,2074.03C2812.75,2050.91 2828.87,2037.83 2849.25,2037.83ZM2929.25,2121.18L2883.32,2121.18C2877.84,2132.43 2867.81,2141.56 2849.55,2141.56C2828.26,2141.56 2811.23,2127.56 2809.1,2102.62L2932.29,2102.62C2933.21,2097.15 2933.51,2091.67 2933.51,2086.2C2933.51,2036.01 2899.14,2002.85 2850.47,2002.85C2800.58,2002.85 2765.9,2036.61 2765.9,2089.85C2765.9,2142.77 2801.49,2176.84 2850.47,2176.84C2892.14,2176.84 2920.13,2152.2 2929.25,2121.18Z" style="fill:white;"/>
                    <path d="M3001,2029.92L3001,2005.59L2958.41,2005.59L2958.41,2254.41L3001,2254.41L3001,2150.07C3011.34,2163.76 3030.2,2176.84 3056.67,2176.84C3099.86,2176.84 3133.62,2141.86 3133.62,2089.24C3133.62,2036.61 3099.86,2002.85 3056.67,2002.85C3030.51,2002.85 3011.04,2015.62 3001,2029.92ZM3090.13,2089.24C3090.13,2121.17 3068.53,2139.43 3045.41,2139.43C3022.6,2139.43 3001,2121.78 3001,2089.84C3001,2057.9 3022.6,2040.26 3045.41,2040.26C3068.53,2040.26 3090.13,2057.3 3090.13,2089.24Z" style="fill:white;"/>
                    <path d="M3158.67,2174.1L3201.26,2174.1L3201.26,2081.02C3201.26,2053.95 3216.16,2039.35 3239.28,2039.35C3261.79,2039.35 3276.69,2053.95 3276.69,2081.02L3276.69,2174.1L3319.28,2174.1L3319.28,2075.24C3319.28,2028.7 3291.6,2003.15 3253.58,2003.15C3231.07,2003.15 3212.21,2012.28 3201.26,2026.57L3201.26,1949.01L3158.67,1949.01L3158.67,2174.1Z" style="fill:white;"/>
                    <rect x="3353.67" y="2005.58" width="42.586" height="168.517" style="fill:white;"/>
                    <path d="M3591.15,2005.58L3548.26,2005.58L3548.26,2098.36C3548.26,2125.43 3533.66,2140.03 3510.54,2140.03C3488.03,2140.03 3473.13,2125.43 3473.13,2098.36L3473.13,2005.58L3430.54,2005.58L3430.54,2104.44C3430.54,2150.68 3458.83,2176.23 3498.07,2176.23C3519.06,2176.23 3537.61,2167.1 3548.26,2152.8L3548.26,2174.1L3591.15,2174.1L3591.15,2005.58Z" style="fill:white;"/>
                    <path d="M3862.8,2174.1L3905.39,2174.1L3905.39,2075.24C3905.39,2028.7 3876.79,2003.15 3836.34,2003.15C3811.7,2003.15 3789.49,2016.23 3778.54,2035.39C3766.98,2014.4 3745.38,2003.15 3719.22,2003.15C3698.24,2003.15 3680.29,2011.97 3669.64,2025.96L3669.64,2005.58L3627.06,2005.58L3627.06,2174.1L3669.64,2174.1L3669.64,2081.02C3669.64,2054.25 3684.55,2040.26 3707.66,2040.26C3730.18,2040.26 3745.08,2054.25 3745.08,2081.02L3745.08,2174.1L3787.67,2174.1L3787.67,2081.02C3787.67,2054.25 3802.57,2040.26 3825.39,2040.26C3847.89,2040.26 3862.8,2054.25 3862.8,2081.02L3862.8,2174.1Z" style="fill:white;"/>
                    <path d="M3396.71,1935.13C3396.71,1931.68 3394,1929.36 3390.69,1929.94L3359.52,1935.44C3356.15,1936.04 3353.43,1939.31 3353.43,1942.76L3353.43,1981.62C3353.43,1985.07 3356.15,1987.39 3359.52,1986.8L3390.69,1981.3C3394,1980.72 3396.71,1977.44 3396.71,1973.99L3396.71,1935.13Z" style="fill:white;"/>
                </g>
                <g transform="matrix(3.18073,0,0,3.60414,-9527.6,-3914.92)">
                    <rect x="5847.61" y="1749.83" width="73.174" height="8.245" style="fill:white;"/>
                </g>
                <g transform="matrix(7.69955,-1.01056,1.12107,5.63,-173411,203.824)">
                    <path d="M23021.3,4358.6L23021.3,4456.02C23021.3,4460.19 23017.9,4463.58 23013.7,4463.58L22963.5,4463.58C22959.3,4463.58 22955.9,4460.19 22955.9,4456.02L22955.9,4358.6C22955.9,4354.42 22959.3,4351.04 22963.5,4351.04L23013.7,4351.04C23017.9,4351.04 23021.3,4354.42 23021.3,4358.6ZM23019.4,4358.53C23019.4,4355.45 23016.9,4352.94 23013.8,4352.94L22963.5,4352.94C22960.4,4352.94 22957.8,4355.51 22957.8,4358.66L22957.8,4456.09C22957.8,4459.17 22960.3,4461.67 22963.4,4461.67L23013.7,4461.67C23016.8,4461.67 23019.4,4459.11 23019.4,4455.95L23019.4,4358.53Z" style="fill:url(#_Linear1);"/>
                </g>
                <g transform="matrix(8.24952,-1.08275,11.6721,14.1488,-232160,-36291.2)">
                    <path d="M23021.3,4354.02L23021.3,4460.59C23021.3,4462.24 23017.9,4463.58 23013.7,4463.58L22963.5,4463.58C22959.3,4463.58 22955.9,4462.24 22955.9,4460.59L22955.9,4354.02C22955.9,4352.37 22959.3,4351.04 22963.5,4351.04L23013.7,4351.04C23017.9,4351.04 23021.3,4352.37 23021.3,4354.02ZM23019.4,4354.27C23019.4,4352.88 23016.6,4351.74 23013.1,4351.74L22962.8,4351.74C22961.4,4351.74 22960.2,4351.93 22959.3,4352.28C22958.3,4352.66 22957.8,4353.19 22957.8,4353.77L22957.8,4460.35C22957.8,4461.73 22960.6,4462.87 22964.2,4462.87L23014.4,4462.87C23015.8,4462.87 23017,4462.69 23017.9,4462.33C23018.9,4461.95 23019.4,4461.42 23019.4,4460.84L23019.4,4354.27Z" style="fill:url(#_Linear2);"/>
                </g>
                <g transform="matrix(7.69955,-1.01056,1.12107,5.63,-172620,-1014.6)">
                    <path d="M23021.3,4358.6L23021.3,4456.02C23021.3,4460.19 23017.9,4463.58 23013.7,4463.58L22963.5,4463.58C22959.3,4463.58 22955.9,4460.19 22955.9,4456.02L22955.9,4358.6C22955.9,4354.42 22959.3,4351.04 22963.5,4351.04L23013.7,4351.04C23017.9,4351.04 23021.3,4354.42 23021.3,4358.6ZM23019.4,4358.53C23019.4,4355.45 23016.9,4352.94 23013.8,4352.94L22963.5,4352.94C22960.4,4352.94 22957.8,4355.51 22957.8,4358.66L22957.8,4456.09C22957.8,4459.17 22960.3,4461.67 22963.4,4461.67L23013.7,4461.67C23016.8,4461.67 23019.4,4459.11 23019.4,4455.95L23019.4,4358.53Z" style="fill:url(#_Linear3);"/>
                </g>
                <g transform="matrix(7.50042,-1.01056,2.23047,5.63,-173792,203.824)">
                    <path d="M23021.3,4358.22L23021.3,4456.39C23021.3,4460.36 23017.9,4463.58 23013.7,4463.58L22963.5,4463.58C22959.3,4463.58 22955.9,4460.36 22955.9,4456.39L22955.9,4358.22C22955.9,4354.26 22959.3,4351.04 22963.5,4351.04L23013.7,4351.04C23017.9,4351.04 23021.3,4354.26 23021.3,4358.22ZM23019.3,4358.4C23019.3,4355.36 23016.7,4352.9 23013.5,4352.9L22963.3,4352.9C22960.3,4352.9 22957.9,4355.2 22957.9,4358.04L22957.9,4456.21C22957.9,4459.25 22960.5,4461.72 22963.7,4461.72L23013.9,4461.72C23016.9,4461.72 23019.3,4459.41 23019.3,4456.57L23019.3,4358.4Z" style="fill:url(#_Linear4);"/>
                </g>
                <g transform="matrix(8.03616,-1.08275,14.4601,14.1488,-239732,-36291.2)">
                    <path d="M23021.3,4353.87L23021.3,4460.74C23021.3,4462.31 23017.9,4463.58 23013.7,4463.58L22963.5,4463.58C22959.3,4463.58 22955.9,4462.31 22955.9,4460.74L22955.9,4353.87C22955.9,4352.31 22959.3,4351.04 22963.5,4351.04L23013.7,4351.04C23017.9,4351.04 23021.3,4352.31 23021.3,4353.87ZM23019.3,4354.17C23019.3,4352.83 23016.4,4351.72 23012.8,4351.72L22962.6,4351.72C22961.3,4351.72 22960.2,4351.87 22959.3,4352.18C22958.4,4352.54 22957.9,4353.03 22957.9,4353.57L22957.9,4460.44C22957.9,4461.78 22960.8,4462.89 22964.4,4462.89L23014.6,4462.89C23015.9,4462.89 23017,4462.74 23017.9,4462.43C23018.8,4462.08 23019.3,4461.59 23019.3,4461.04L23019.3,4354.17Z" style="fill:url(#_Linear5);"/>
                </g>
                <g transform="matrix(7.50042,-1.01056,2.23047,5.63,-173241,-1014.6)">
                    <path d="M23021.3,4358.22L23021.3,4456.39C23021.3,4460.36 23017.9,4463.58 23013.7,4463.58L22963.5,4463.58C22959.3,4463.58 22955.9,4460.36 22955.9,4456.39L22955.9,4358.22C22955.9,4354.26 22959.3,4351.04 22963.5,4351.04L23013.7,4351.04C23017.9,4351.04 23021.3,4354.26 23021.3,4358.22ZM23019.3,4358.4C23019.3,4355.36 23016.7,4352.9 23013.5,4352.9L22963.3,4352.9C22960.3,4352.9 22957.9,4355.2 22957.9,4358.04L22957.9,4456.21C22957.9,4459.25 22960.5,4461.72 22963.7,4461.72L23013.9,4461.72C23016.9,4461.72 23019.3,4459.41 23019.3,4456.57L23019.3,4358.4Z" style="fill:url(#_Linear6);"/>
                </g>
                <g transform="matrix(8.26489,-1.01056,-2.02849,5.63,-172331,203.824)">
                    <path d="M23021.3,4359.71L23021.3,4454.9C23021.3,4459.69 23017.9,4463.58 23013.7,4463.58L22963.5,4463.58C22959.3,4463.58 22955.9,4459.69 22955.9,4454.9L22955.9,4359.71C22955.9,4354.92 22959.3,4351.04 22963.5,4351.04L23013.7,4351.04C23017.9,4351.04 23021.3,4354.92 23021.3,4359.71ZM23019.4,4358.87C23019.4,4357.19 23018.9,4355.67 23017.9,4354.56C23017.1,4353.57 23015.9,4353.08 23014.5,4353.08L22964.3,4353.08C22960.7,4353.08 22957.9,4356.46 22957.9,4360.55L22957.9,4455.74C22957.9,4457.43 22958.3,4458.94 22959.3,4460.05C22960.2,4461.04 22961.4,4461.53 22962.7,4461.53L23012.9,4461.53C23016.5,4461.53 23019.4,4458.16 23019.4,4454.07L23019.4,4358.87Z" style="fill:url(#_Linear7);"/>
                </g>
                <g transform="matrix(8.85524,-1.08275,3.75688,14.1488,-210664,-36291.2)">
                    <path d="M23021.3,4354.46L23021.3,4460.15C23021.3,4462.04 23017.9,4463.58 23013.7,4463.58L22963.5,4463.58C22959.3,4463.58 22955.9,4462.04 22955.9,4460.15L22955.9,4354.46C22955.9,4352.57 22959.3,4351.04 22963.5,4351.04L23013.7,4351.04C23017.9,4351.04 23021.3,4352.57 23021.3,4354.46ZM23019.6,4354.48C23019.6,4352.99 23017,4351.79 23013.7,4351.79L22963.4,4351.79C22960.2,4351.79 22957.6,4352.98 22957.6,4354.44L22957.6,4460.14C22957.6,4461.62 22960.2,4462.82 22963.5,4462.82L23013.8,4462.82C23017,4462.82 23019.6,4461.64 23019.6,4460.17L23019.6,4354.48Z" style="fill:url(#_Linear8);"/>
                </g>
                <g transform="matrix(8.26489,-1.01056,-2.02849,5.63,-170858,-1014.6)">
                    <path d="M23021.3,4359.71L23021.3,4454.9C23021.3,4459.69 23017.9,4463.58 23013.7,4463.58L22963.5,4463.58C22959.3,4463.58 22955.9,4459.69 22955.9,4454.9L22955.9,4359.71C22955.9,4354.92 22959.3,4351.04 22963.5,4351.04L23013.7,4351.04C23017.9,4351.04 23021.3,4354.92 23021.3,4359.71ZM23019.4,4358.87C23019.4,4357.19 23018.9,4355.67 23017.9,4354.56C23017.1,4353.57 23015.9,4353.08 23014.5,4353.08L22964.3,4353.08C22960.7,4353.08 22957.9,4356.46 22957.9,4360.55L22957.9,4455.74C22957.9,4457.43 22958.3,4458.94 22959.3,4460.05C22960.2,4461.04 22961.4,4461.53 22962.7,4461.53L23012.9,4461.53C23016.5,4461.53 23019.4,4458.16 23019.4,4454.07L23019.4,4358.87Z" style="fill:url(#_Linear9);"/>
                </g>
                <g transform="matrix(8.05977,-1.01056,-0.885734,5.63,-172723,203.824)">
                    <path d="M23021.3,4359.3L23021.3,4455.32C23021.3,4459.88 23017.9,4463.58 23013.7,4463.58L22963.5,4463.58C22959.3,4463.58 22955.9,4459.88 22955.9,4455.32L22955.9,4359.3C22955.9,4354.74 22959.3,4351.04 22963.5,4351.04L23013.7,4351.04C23017.9,4351.04 23021.3,4354.74 23021.3,4359.3ZM23019.4,4358.74C23019.4,4357.13 23018.9,4355.66 23017.9,4354.61C23017,4353.6 23015.7,4353.03 23014.3,4353.03L22964,4353.03C22960.6,4353.03 22957.8,4356.11 22957.8,4359.86L22957.8,4455.88C22957.8,4457.48 22958.3,4458.95 22959.3,4460.01C22960.2,4461.02 22961.5,4461.58 22962.9,4461.58L23013.2,4461.58C23016.6,4461.58 23019.4,4458.51 23019.4,4454.76L23019.4,4358.74Z" style="fill:url(#_Linear10);"/>
                </g>
                <g transform="matrix(8.63547,-1.08275,6.62876,14.1488,-218463,-36291.2)">
                    <path d="M23021.3,4354.3L23021.3,4460.32C23021.3,4462.12 23017.9,4463.58 23013.7,4463.58L22963.5,4463.58C22959.3,4463.58 22955.9,4462.12 22955.9,4460.32L22955.9,4354.3C22955.9,4352.5 22959.3,4351.04 22963.5,4351.04L23013.7,4351.04C23017.9,4351.04 23021.3,4352.5 23021.3,4354.3ZM23019.6,4354.41C23019.6,4352.96 23016.8,4351.77 23013.5,4351.77L22963.2,4351.77C22960.1,4351.77 22957.6,4352.85 22957.6,4354.18L22957.6,4460.2C22957.6,4461.66 22960.4,4462.84 22963.7,4462.84L23014,4462.84C23017.1,4462.84 23019.6,4461.76 23019.6,4460.43L23019.6,4354.41Z" style="fill:url(#_Linear11);"/>
                </g>
                <g transform="matrix(8.05977,-1.01056,-0.885734,5.63,-171498,-1014.6)">
                    <path d="M23021.3,4359.3L23021.3,4455.32C23021.3,4459.88 23017.9,4463.58 23013.7,4463.58L22963.5,4463.58C22959.3,4463.58 22955.9,4459.88 22955.9,4455.32L22955.9,4359.3C22955.9,4354.74 22959.3,4351.04 22963.5,4351.04L23013.7,4351.04C23017.9,4351.04 23021.3,4354.74 23021.3,4359.3ZM23019.4,4358.74C23019.4,4357.13 23018.9,4355.66 23017.9,4354.61C23017,4353.6 23015.7,4353.03 23014.3,4353.03L22964,4353.03C22960.6,4353.03 22957.8,4356.11 22957.8,4359.86L22957.8,4455.88C22957.8,4457.48 22958.3,4458.95 22959.3,4460.01C22960.2,4461.02 22961.5,4461.58 22962.9,4461.58L23013.2,4461.58C23016.6,4461.58 23019.4,4458.51 23019.4,4454.76L23019.4,4358.74Z" style="fill:url(#_Linear12);"/>
                </g>
                <g transform="matrix(7.90078,-1.01056,1.6154e-16,5.63,-173027,203.824)">
                    <path d="M23021.3,4358.98L23021.3,4455.63C23021.3,4460.02 23017.9,4463.58 23013.7,4463.58L22963.5,4463.58C22959.3,4463.58 22955.9,4460.02 22955.9,4455.63L22955.9,4358.98C22955.9,4354.6 22959.3,4351.04 22963.5,4351.04L23013.7,4351.04C23017.9,4351.04 23021.3,4354.6 23021.3,4358.98ZM23016.1,4358.06C23016.1,4357.15 23015.5,4356.37 23014.6,4356.37L22964.4,4356.37C22962.5,4356.37 22961.1,4357.98 22961.1,4359.91L22961.1,4456.56C22961.1,4457.46 22961.7,4458.24 22962.6,4458.24L23012.8,4458.24C23014.7,4458.24 23016.1,4456.64 23016.1,4454.7L23016.1,4358.06Z" style="fill:white;"/>
                </g>
                <g transform="matrix(8.46512,-1.08275,8.85471,14.1488,-224509,-36291.2)">
                    <path d="M23021.3,4354.17L23021.3,4460.44C23021.3,4462.17 23017.9,4463.58 23013.7,4463.58L22963.5,4463.58C22959.3,4463.58 22955.9,4462.17 22955.9,4460.44L22955.9,4354.17C22955.9,4352.44 22959.3,4351.04 22963.5,4351.04L23013.7,4351.04C23017.9,4351.04 23021.3,4352.44 23021.3,4354.17ZM23016.4,4354.66C23016.4,4353.76 23014.7,4353 23012.5,4353L22962.3,4353C22961.9,4353 22961.5,4353.02 22961.2,4353.13C22960.9,4353.27 22960.8,4353.47 22960.8,4353.68L22960.8,4459.95C22960.8,4460.85 22962.5,4461.61 22964.7,4461.61L23015,4461.61C23015.4,4461.61 23015.7,4461.6 23016,4461.48C23016.4,4461.35 23016.4,4461.14 23016.4,4460.93L23016.4,4354.66Z" style="fill:white;"/>
                </g>
                <g transform="matrix(7.90078,-1.01056,-5.69305e-16,5.63,-171993,-1014.6)">
                    <path d="M23021.3,4358.98L23021.3,4455.63C23021.3,4460.02 23017.9,4463.58 23013.7,4463.58L22963.5,4463.58C22959.3,4463.58 22955.9,4460.02 22955.9,4455.63L22955.9,4358.98C22955.9,4354.6 22959.3,4351.04 22963.5,4351.04L23013.7,4351.04C23017.9,4351.04 23021.3,4354.6 23021.3,4358.98ZM23016.1,4358.06C23016.1,4357.15 23015.5,4356.37 23014.6,4356.37L22964.4,4356.37C22962.5,4356.37 22961.1,4357.98 22961.1,4359.91L22961.1,4456.56C22961.1,4457.46 22961.7,4458.24 22962.6,4458.24L23012.8,4458.24C23014.7,4458.24 23016.1,4456.64 23016.1,4454.7L23016.1,4358.06Z" style="fill:white;"/>
                </g>
            </g>
        </g>
    </g>
    <defs>
        <linearGradient id="_Linear1" x1="0" y1="0" x2="1" y2="0" gradientUnits="userSpaceOnUse" gradientTransform="matrix(307.032,-218.557,230.051,314.354,22951.3,4418.9)"><stop offset="0" style="stop-color:white;stop-opacity:1"/><stop offset="0.24" style="stop-color:rgb(255,113,31);stop-opacity:1"/><stop offset="0.48" style="stop-color:rgb(250,21,193);stop-opacity:1"/><stop offset="0.79" style="stop-color:rgb(27,0,205);stop-opacity:1"/><stop offset="1" style="stop-color:rgb(69,227,255);stop-opacity:1"/></linearGradient>
        <linearGradient id="_Linear2" x1="0" y1="0" x2="1" y2="0" gradientUnits="userSpaceOnUse" gradientTransform="matrix(370.79,-80.521,93.5695,115.815,22851.1,4447.12)"><stop offset="0" style="stop-color:white;stop-opacity:1"/><stop offset="0.24" style="stop-color:rgb(255,113,31);stop-opacity:1"/><stop offset="0.48" style="stop-color:rgb(250,21,193);stop-opacity:1"/><stop offset="0.79" style="stop-color:rgb(27,0,205);stop-opacity:1"/><stop offset="1" style="stop-color:rgb(69,227,255);stop-opacity:1"/></linearGradient>
        <linearGradient id="_Linear3" x1="0" y1="0" x2="1" y2="0" gradientUnits="userSpaceOnUse" gradientTransform="matrix(307.032,-218.557,230.051,314.354,22820.5,4611.84)"><stop offset="0" style="stop-color:white;stop-opacity:1"/><stop offset="0.24" style="stop-color:rgb(255,113,31);stop-opacity:1"/><stop offset="0.48" style="stop-color:rgb(250,21,193);stop-opacity:1"/><stop offset="0.79" style="stop-color:rgb(27,0,205);stop-opacity:1"/><stop offset="1" style="stop-color:rgb(69,227,255);stop-opacity:1"/></linearGradient>
        <linearGradient id="_Linear4" x1="0" y1="0" x2="1" y2="0" gradientUnits="userSpaceOnUse" gradientTransform="matrix(345.459,-211.659,191.709,307.472,22957.5,4420)"><stop offset="0" style="stop-color:white;stop-opacity:1"/><stop offset="0.24" style="stop-color:rgb(255,113,31);stop-opacity:1"/><stop offset="0.48" style="stop-color:rgb(250,21,193);stop-opacity:1"/><stop offset="0.79" style="stop-color:rgb(27,0,205);stop-opacity:1"/><stop offset="1" style="stop-color:rgb(69,227,255);stop-opacity:1"/></linearGradient>
        <linearGradient id="_Linear5" x1="0" y1="0" x2="1" y2="0" gradientUnits="userSpaceOnUse" gradientTransform="matrix(403.997,-77.9797,60.4356,113.279,22856.4,4447.53)"><stop offset="0" style="stop-color:white;stop-opacity:1"/><stop offset="0.24" style="stop-color:rgb(255,113,31);stop-opacity:1"/><stop offset="0.48" style="stop-color:rgb(250,21,193);stop-opacity:1"/><stop offset="0.79" style="stop-color:rgb(27,0,205);stop-opacity:1"/><stop offset="1" style="stop-color:rgb(69,227,255);stop-opacity:1"/></linearGradient>
        <linearGradient id="_Linear6" x1="0" y1="0" x2="1" y2="0" gradientUnits="userSpaceOnUse" gradientTransform="matrix(345.459,-211.659,191.709,307.472,22826.7,4612.94)"><stop offset="0" style="stop-color:white;stop-opacity:1"/><stop offset="0.24" style="stop-color:rgb(255,113,31);stop-opacity:1"/><stop offset="0.48" style="stop-color:rgb(250,21,193);stop-opacity:1"/><stop offset="0.79" style="stop-color:rgb(27,0,205);stop-opacity:1"/><stop offset="1" style="stop-color:rgb(69,227,255);stop-opacity:1"/></linearGradient>
        <linearGradient id="_Linear7" x1="0" y1="0" x2="1" y2="0" gradientUnits="userSpaceOnUse" gradientTransform="matrix(197.937,-238.139,338.904,333.893,22933.8,4415.76)"><stop offset="0" style="stop-color:white;stop-opacity:1"/><stop offset="0.24" style="stop-color:rgb(255,113,31);stop-opacity:1"/><stop offset="0.48" style="stop-color:rgb(250,21,193);stop-opacity:1"/><stop offset="0.79" style="stop-color:rgb(27,0,205);stop-opacity:1"/><stop offset="1" style="stop-color:rgb(69,227,255);stop-opacity:1"/></linearGradient>
        <linearGradient id="_Linear8" x1="0" y1="0" x2="1" y2="0" gradientUnits="userSpaceOnUse" gradientTransform="matrix(276.515,-87.7354,187.636,123.013,22836,4445.96)"><stop offset="0" style="stop-color:white;stop-opacity:1"/><stop offset="0.24" style="stop-color:rgb(255,113,31);stop-opacity:1"/><stop offset="0.48" style="stop-color:rgb(250,21,193);stop-opacity:1"/><stop offset="0.79" style="stop-color:rgb(27,0,205);stop-opacity:1"/><stop offset="1" style="stop-color:rgb(69,227,255);stop-opacity:1"/></linearGradient>
        <linearGradient id="_Linear9" x1="0" y1="0" x2="1" y2="0" gradientUnits="userSpaceOnUse" gradientTransform="matrix(197.937,-238.139,338.904,333.893,22803,4608.7)"><stop offset="0" style="stop-color:white;stop-opacity:1"/><stop offset="0.24" style="stop-color:rgb(255,113,31);stop-opacity:1"/><stop offset="0.48" style="stop-color:rgb(250,21,193);stop-opacity:1"/><stop offset="0.79" style="stop-color:rgb(27,0,205);stop-opacity:1"/><stop offset="1" style="stop-color:rgb(69,227,255);stop-opacity:1"/></linearGradient>
        <linearGradient id="_Linear10" x1="0" y1="0" x2="1" y2="0" gradientUnits="userSpaceOnUse" gradientTransform="matrix(237.52,-231.034,299.409,326.804,22940.2,4416.9)"><stop offset="0" style="stop-color:white;stop-opacity:1"/><stop offset="0.24" style="stop-color:rgb(255,113,31);stop-opacity:1"/><stop offset="0.48" style="stop-color:rgb(250,21,193);stop-opacity:1"/><stop offset="0.79" style="stop-color:rgb(27,0,205);stop-opacity:1"/><stop offset="1" style="stop-color:rgb(69,227,255);stop-opacity:1"/></linearGradient>
        <linearGradient id="_Linear11" x1="0" y1="0" x2="1" y2="0" gradientUnits="userSpaceOnUse" gradientTransform="matrix(310.721,-85.1178,153.506,120.401,22841.5,4446.38)"><stop offset="0" style="stop-color:white;stop-opacity:1"/><stop offset="0.24" style="stop-color:rgb(255,113,31);stop-opacity:1"/><stop offset="0.48" style="stop-color:rgb(250,21,193);stop-opacity:1"/><stop offset="0.79" style="stop-color:rgb(27,0,205);stop-opacity:1"/><stop offset="1" style="stop-color:rgb(69,227,255);stop-opacity:1"/></linearGradient>
        <linearGradient id="_Linear12" x1="0" y1="0" x2="1" y2="0" gradientUnits="userSpaceOnUse" gradientTransform="matrix(237.52,-231.034,299.409,326.804,22809.4,4609.84)"><stop offset="0" style="stop-color:white;stop-opacity:1"/><stop offset="0.24" style="stop-color:rgb(255,113,31);stop-opacity:1"/><stop offset="0.48" style="stop-color:rgb(250,21,193);stop-opacity:1"/><stop offset="0.79" style="stop-color:rgb(27,0,205);stop-opacity:1"/><stop offset="1" style="stop-color:rgb(69,227,255);stop-opacity:1"/></linearGradient>
    </defs>
</svg>
