<?xml version="1.0" encoding="UTF-8" standalone="no"?><!DOCTYPE svg PUBLIC "-//W3C//DTD SVG 1.1//EN" "http://www.w3.org/Graphics/SVG/1.1/DTD/svg11.dtd"><svg width="100%" height="100%" viewBox="0 0 1569 928" version="1.1" xmlns="http://www.w3.org/2000/svg" xmlns:xlink="http://www.w3.org/1999/xlink" xml:space="preserve" xmlns:serif="http://www.serif.com/" style="fill-rule:evenodd;clip-rule:evenodd;stroke-linejoin:round;stroke-miterlimit:2;"><rect id="mountain-saturated" x="0" y="0" width="1568.47" height="927.644" style="fill:none;"/><g><path d="M97.845,491.444l-46.191,-0l0,-10.732l60.135,-0l-13.944,10.732Zm1369.95,-10.732l49.013,-0l0,10.732l-37.722,-0l-11.291,-10.732Zm-147.621,10.732l-10.856,-10.732l35.933,-0l-12.351,10.732l-12.726,-0Z" style="fill:#ff5d51;"/><path d="M168.789,436.846l-117.135,-0l0,-10.732l131.08,-0l-13.945,10.732Zm1085.3,-10.732l153.999,-0l-12.351,10.732l-130.792,-0l-10.856,-10.732Zm156.264,-0l106.456,-0l0,10.732l-95.165,-0l-11.291,-10.732Z" style="fill:#ff5d51;"/><path d="M239.727,382.253l-188.073,0l0,-10.731l202.018,-0l-13.945,10.731Zm959.142,-10.731l317.944,-0l0,10.731l-307.088,0l-10.856,-10.731Zm-691.852,10.731l-12.787,-10.731l86.201,-0l-14.698,10.731l-58.716,0Z" style="fill:#ff5d51;"/><path d="M310.672,327.655l-259.018,0l0,-10.731l272.962,-0l-13.944,10.731Zm832.968,-10.731l373.173,-0l0,10.731l-362.317,0l-10.856,-10.731Zm-714.461,-0l226.025,-0l-14.697,10.731l-198.542,0l-12.786,-10.731Zm596.392,-0l13.405,-0l-8.153,5.795l-5.252,-5.795Z" style="fill:#ff7e51;"/><path d="M715.273,273.063l-663.619,-0l0,-10.732l678.317,0l-14.698,10.732Zm260.835,-10.732l540.705,0l0,10.732l-530.982,-0l-9.723,-10.732Z" style="fill:#ff7e51;"/><path d="M790.047,218.465l-738.393,0l0,-10.732l753.09,0l-14.697,10.732Zm136.592,-10.732l590.174,0l0,10.732l-580.45,0l-9.724,-10.732Z" style="fill:#7200ff;"/><path d="M864.818,163.869l-813.164,0l0,-10.731l1465.16,-0l0,10.731l-629.917,0l-8.791,-9.702l-13.287,9.702Z" style="fill:#7200ff;"/><rect x="51.654" y="98.543" width="1465.16" height="10.732" style="fill:#30f;"/><rect x="51.654" y="43.947" width="1465.16" height="10.732" style="fill:#0021ff;"/></g><path id="path80285" d="M1132.59,294.199c3.469,-73.724 64.422,-132.516 138.998,-132.516c76.802,-0 139.155,62.353 139.155,139.154c-0,74.036 -57.944,134.645 -130.917,138.914c-2.726,0.16 -5.473,0.24 -8.238,0.24c-1.169,0 -2.334,-0.014 -3.496,-0.043l-135.567,-134.016c-0.061,-1.691 -0.091,-3.389 -0.091,-5.095c-0,-2.225 0.052,-4.438 0.156,-6.638Z" style="fill:#ff5d51;"/><path id="path249" d="M536.608,802.348c-0,25.414 16.453,42.308 37.02,42.308c12.928,0 22.183,-6.17 27.031,-13.221l-0,11.899l20.714,-0l-0,-81.385l-20.714,-0l-0,11.605c-4.848,-6.757 -13.809,-12.927 -26.884,-12.927c-20.714,-0 -37.167,16.306 -37.167,41.721Zm64.051,0.293c-0,15.425 -10.284,23.946 -21.595,23.946c-11.018,-0 -21.448,-8.815 -21.448,-24.239c-0,-15.425 10.43,-23.652 21.448,-23.652c11.311,-0 21.595,8.52 21.595,23.945Z" style="fill:#fff;fill-rule:nonzero;"/><rect id="rect253" x="638.549" y="734.629" width="20.567" height="108.709" style="fill:#fff;"/><path id="path257" d="M711.43,777.524c10.578,0 19.098,6.758 19.392,17.482l-38.636,-0c1.616,-11.165 9.402,-17.482 19.244,-17.482Zm38.637,40.252l-22.183,-0c-2.644,5.435 -7.492,9.843 -16.307,9.843c-10.283,-0 -18.51,-6.758 -19.538,-18.804l59.497,-0c0.441,-2.644 0.588,-5.289 0.588,-7.933c-0,-24.239 -16.601,-40.252 -40.106,-40.252c-24.092,0 -40.84,16.307 -40.84,42.015c0,25.562 17.188,42.015 40.84,42.015c20.126,-0 33.642,-11.9 38.049,-26.884Z" style="fill:#fff;fill-rule:nonzero;"/><path id="path261" d="M784.718,773.704l-0,-11.753l-20.567,0l-0,120.169l20.567,-0l-0,-50.389c4.994,6.611 14.103,12.928 26.884,12.928c20.86,-0 37.167,-16.894 37.167,-42.309c-0,-25.414 -16.307,-41.721 -37.167,-41.721c-12.634,0 -22.036,6.17 -26.884,13.075Zm43.043,28.646c0,15.425 -10.43,24.239 -21.595,24.239c-11.018,0 -21.448,-8.52 -21.448,-23.945c-0,-15.425 10.43,-23.945 21.448,-23.945c11.165,-0 21.595,8.226 21.595,23.651Z" style="fill:#fff;fill-rule:nonzero;"/><path id="path265" d="M860.864,843.335l20.567,0l0,-44.952c0,-13.075 7.198,-20.126 18.363,-20.126c10.871,-0 18.07,7.051 18.07,20.126l-0,44.952l20.567,0l-0,-47.743c-0,-22.477 -13.369,-34.817 -31.732,-34.817c-10.871,-0 -19.979,4.407 -25.268,11.312l0,-37.461l-20.567,0l0,108.709Z" style="fill:#fff;fill-rule:nonzero;"/><rect id="rect269" x="955.039" y="761.949" width="20.567" height="81.385" style="fill:#fff;"/><path id="path273" d="M1069.73,761.949l-20.714,-0l0,44.806c0,13.074 -7.051,20.126 -18.217,20.126c-10.87,-0 -18.069,-7.052 -18.069,-20.126l0,-44.806l-20.567,-0l0,47.744c0,22.329 13.663,34.67 32.613,34.67c10.137,-0 19.098,-4.408 24.24,-11.312l0,10.283l20.714,-0l-0,-81.385Z" style="fill:#fff;fill-rule:nonzero;"/><path id="path277" d="M1200.92,843.335l20.567,0l-0,-47.743c-0,-22.477 -13.81,-34.817 -33.348,-34.817c-11.899,-0 -22.624,6.317 -27.912,15.572c-5.583,-10.137 -16.013,-15.572 -28.647,-15.572c-10.137,-0 -18.804,4.26 -23.946,11.018l0,-9.843l-20.566,0l-0,81.385l20.566,0l0,-44.952c0,-12.928 7.199,-19.685 18.364,-19.685c10.871,-0 18.069,6.757 18.069,19.685l0,44.952l20.567,0l-0,-44.952c-0,-12.928 7.198,-19.685 18.216,-19.685c10.871,-0 18.07,6.757 18.07,19.685l-0,44.952Z" style="fill:#fff;fill-rule:nonzero;"/><path id="path283" d="M975.825,727.925c0,-1.666 -1.31,-2.786 -2.908,-2.504l-15.053,2.654c-1.629,0.288 -2.94,1.869 -2.94,3.536l0,18.768c0,1.664 1.311,2.787 2.94,2.499l15.053,-2.654c1.598,-0.282 2.908,-1.866 2.908,-3.53l0,-18.769Z" style="fill:#fff;"/><path id="path5302" d="M386.889,824.568c0,-2.629 -2.07,-4.398 -4.62,-3.949l-30.669,5.408c-2.55,0.449 -4.62,2.948 -4.62,5.577l0,57.926c0,2.629 2.07,4.398 4.62,3.948l30.669,-5.407c2.55,-0.449 4.62,-2.948 4.62,-5.577l0,-57.926Z" style="fill:#fff;"/><path id="path5304" d="M426.797,743.518l17.904,17.904l-13.284,2.342c-2.55,0.449 -4.62,-1.32 -4.62,-3.949l0,-16.297Z" style="fill:#ff2819;"/><path id="path53041" serif:id="path5304" d="M463.968,757.612c-0.575,0.367 -1.212,0.627 -1.882,0.745l-17.385,3.065l-17.904,-17.904l0,-23.077l37.171,37.171Z" style="fill:#ff5d51;"/><path id="path53042" serif:id="path5304" d="M446.846,693.591l15.24,-2.687c2.55,-0.449 4.62,1.32 4.62,3.949l-0,18.598l-19.86,-19.86Z" style="fill:#0021ff;"/><path id="path53043" serif:id="path5304" d="M466.706,713.451l-0,25.83l-39.478,-39.477c0.736,-1.756 2.336,-3.166 4.189,-3.493l15.429,-2.72l19.86,19.86Z" style="fill:#7200ff;"/><path id="path53044" serif:id="path5304" d="M466.706,739.281l-0,13.498c-0,1.938 -1.125,3.805 -2.738,4.833l-37.171,-37.171l0,-18.552c0,-0.718 0.155,-1.426 0.431,-2.085l39.478,39.477Z" style="fill:#ff7e51;"/><path id="path5306" d="M391.883,708.385c-1.184,-2.607 -4.363,-4.334 -7.095,-3.852l-32.86,5.793c-2.732,0.482 -3.988,2.99 -2.804,5.598l72.675,160.065c1.185,2.608 4.363,4.334 7.095,3.852l32.861,-5.792c2.731,-0.482 3.987,-2.99 2.804,-5.598l-72.676,-160.066Z" style="fill:#fff;"/><path id="path76517" d="M42.739,533.852l-15.266,-0.047l-0.002,0l351.692,-270.656l155.171,130.234l343.771,-251.013l152.718,168.553l69.037,-49.075l226.272,223.684l83.143,-72.244l131.723,125.2l-12.451,-0.038l-118.19,-112.336l-2.265,-0l-81.96,71.215l-226.272,-223.684l-69.037,49.074l-152.718,-168.552l-343.771,251.013l-155.171,-130.235l-336.424,258.907Z" style="fill:#3d3d3d;fill-rule:nonzero;"/><path id="path765171" serif:id="path76517" d="M1408.09,426.114l1.183,-1.028l1.082,1.028l-2.265,-0Z" style="fill-rule:nonzero;"/></svg>