<?xml version="1.0" encoding="UTF-8" standalone="no"?>
<!DOCTYPE svg PUBLIC "-//W3C//DTD SVG 1.1//EN" "http://www.w3.org/Graphics/SVG/1.1/DTD/svg11.dtd">
<svg width="100%" height="100%" viewBox="0 0 3544 3544" version="1.1" xmlns="http://www.w3.org/2000/svg" xmlns:xlink="http://www.w3.org/1999/xlink" xml:space="preserve" xmlns:serif="http://www.serif.com/" style="fill-rule:evenodd;clip-rule:evenodd;stroke-linejoin:round;stroke-miterlimit:2;">
    <g transform="matrix(1,0,0,1,-11696.9,-9688.9)">
        <g transform="matrix(1.12915,0,0,1.12915,3159.7,9688.9)">
            <rect id="default-shirt-vector" x="7560.68" y="0" width="3138.03" height="3138.03" style="fill:none;"/>
            <g id="default-shirt-vector1" serif:id="default-shirt-vector">
                <g transform="matrix(5.49494,0,0,5.49494,-21726.6,-6709.48)">
                    <g transform="matrix(1.54076,-0.271638,3.15026e-17,1.51334,-29926,1236.7)">
                        <path d="M23021.3,4358.98C23021.3,4354.6 23017.9,4351.04 23013.7,4351.04L22963.5,4351.04C22959.3,4351.04 22955.9,4354.6 22955.9,4358.98L22955.9,4455.63C22955.9,4460.02 22959.3,4463.58 22963.5,4463.58L23013.7,4463.58C23017.9,4463.58 23021.3,4460.02 23021.3,4455.63L23021.3,4358.98Z" style="fill:url(#_Linear1);"/>
                    </g>
                    <g transform="matrix(1.65082,-0.291041,1.72679,3.80319,-39965.8,-8573.11)">
                        <path d="M23021.3,4354.17C23021.3,4352.44 23017.9,4351.04 23013.7,4351.04L22963.5,4351.04C22959.3,4351.04 22955.9,4352.44 22955.9,4354.17L22955.9,4460.44C22955.9,4462.17 22959.3,4463.58 22963.5,4463.58L23013.7,4463.58C23017.9,4463.58 23021.3,4462.17 23021.3,4460.44L23021.3,4354.17Z" style="fill:url(#_Linear2);"/>
                    </g>
                    <g transform="matrix(1.54076,-0.271638,-1.11022e-16,1.51334,-29724.5,909.188)">
                        <path d="M23021.3,4358.98C23021.3,4354.6 23017.9,4351.04 23013.7,4351.04L22963.5,4351.04C22959.3,4351.04 22955.9,4354.6 22955.9,4358.98L22955.9,4455.63C22955.9,4460.02 22959.3,4463.58 22963.5,4463.58L23013.7,4463.58C23017.9,4463.58 23021.3,4460.02 23021.3,4455.63L23021.3,4358.98Z" style="fill:url(#_Linear3);"/>
                    </g>
                </g>
                <g transform="matrix(3.70797e-17,0.605557,-0.605557,3.70797e-17,11299.2,-1389.97)">
                    <path d="M2487.26,2089.23C2487.26,2141.85 2521.33,2176.84 2563.91,2176.84C2590.68,2176.84 2609.85,2164.06 2619.89,2149.46L2619.89,2174.1L2662.78,2174.1L2662.78,2005.58L2619.89,2005.58L2619.89,2029.61C2609.85,2015.62 2591.29,2002.84 2564.22,2002.84C2521.33,2002.84 2487.26,2036.61 2487.26,2089.23ZM2619.89,2089.84C2619.89,2121.78 2598.59,2139.42 2575.17,2139.42C2552.36,2139.42 2530.76,2121.17 2530.76,2089.23C2530.76,2057.29 2552.36,2040.26 2575.17,2040.26C2598.59,2040.26 2619.89,2057.9 2619.89,2089.84Z" style="fill:white;"/>
                    <rect x="2698.34" y="1949.01" width="42.586" height="225.095" style="fill:white;"/>
                    <path d="M2849.25,2037.83C2871.15,2037.83 2888.79,2051.82 2889.4,2074.03L2809.4,2074.03C2812.75,2050.91 2828.87,2037.83 2849.25,2037.83ZM2929.25,2121.18L2883.32,2121.18C2877.84,2132.43 2867.81,2141.56 2849.55,2141.56C2828.26,2141.56 2811.23,2127.56 2809.1,2102.62L2932.29,2102.62C2933.21,2097.15 2933.51,2091.67 2933.51,2086.2C2933.51,2036.01 2899.14,2002.85 2850.47,2002.85C2800.58,2002.85 2765.9,2036.61 2765.9,2089.85C2765.9,2142.77 2801.49,2176.84 2850.47,2176.84C2892.14,2176.84 2920.13,2152.2 2929.25,2121.18Z" style="fill:white;"/>
                    <path d="M3001,2029.92L3001,2005.59L2958.41,2005.59L2958.41,2254.41L3001,2254.41L3001,2150.07C3011.34,2163.76 3030.2,2176.84 3056.67,2176.84C3099.86,2176.84 3133.62,2141.86 3133.62,2089.24C3133.62,2036.61 3099.86,2002.85 3056.67,2002.85C3030.51,2002.85 3011.04,2015.62 3001,2029.92ZM3090.13,2089.24C3090.13,2121.17 3068.53,2139.43 3045.41,2139.43C3022.6,2139.43 3001,2121.78 3001,2089.84C3001,2057.9 3022.6,2040.26 3045.41,2040.26C3068.53,2040.26 3090.13,2057.3 3090.13,2089.24Z" style="fill:white;"/>
                    <path d="M3158.67,2174.1L3201.26,2174.1L3201.26,2081.02C3201.26,2053.95 3216.16,2039.35 3239.28,2039.35C3261.79,2039.35 3276.69,2053.95 3276.69,2081.02L3276.69,2174.1L3319.28,2174.1L3319.28,2075.24C3319.28,2028.7 3291.6,2003.15 3253.58,2003.15C3231.07,2003.15 3212.21,2012.28 3201.26,2026.57L3201.26,1949.01L3158.67,1949.01L3158.67,2174.1Z" style="fill:white;"/>
                    <rect x="3353.67" y="2005.58" width="42.586" height="168.517" style="fill:white;"/>
                    <path d="M3591.15,2005.58L3548.26,2005.58L3548.26,2098.36C3548.26,2125.43 3533.66,2140.03 3510.54,2140.03C3488.03,2140.03 3473.13,2125.43 3473.13,2098.36L3473.13,2005.58L3430.54,2005.58L3430.54,2104.44C3430.54,2150.68 3458.83,2176.23 3498.07,2176.23C3519.06,2176.23 3537.61,2167.1 3548.26,2152.8L3548.26,2174.1L3591.15,2174.1L3591.15,2005.58Z" style="fill:white;"/>
                    <path d="M3862.8,2174.1L3905.39,2174.1L3905.39,2075.24C3905.39,2028.7 3876.79,2003.15 3836.34,2003.15C3811.7,2003.15 3789.49,2016.23 3778.54,2035.39C3766.98,2014.4 3745.38,2003.15 3719.22,2003.15C3698.24,2003.15 3680.29,2011.97 3669.64,2025.96L3669.64,2005.58L3627.06,2005.58L3627.06,2174.1L3669.64,2174.1L3669.64,2081.02C3669.64,2054.25 3684.55,2040.26 3707.66,2040.26C3730.18,2040.26 3745.08,2054.25 3745.08,2081.02L3745.08,2174.1L3787.67,2174.1L3787.67,2081.02C3787.67,2054.25 3802.57,2040.26 3825.39,2040.26C3847.89,2040.26 3862.8,2054.25 3862.8,2081.02L3862.8,2174.1Z" style="fill:white;"/>
                    <path d="M3396.71,1935.13C3396.71,1931.68 3394,1929.36 3390.69,1929.94L3359.52,1935.44C3356.15,1936.04 3353.43,1939.31 3353.43,1942.76L3353.43,1981.62C3353.43,1985.07 3356.15,1987.39 3359.52,1986.8L3390.69,1981.3C3394,1980.72 3396.71,1977.44 3396.71,1973.99L3396.71,1935.13Z" style="fill:white;"/>
                </g>
            </g>
        </g>
    </g>
    <defs>
        <linearGradient id="_Linear1" x1="0" y1="0" x2="1" y2="0" gradientUnits="userSpaceOnUse" gradientTransform="matrix(-163.004,222.69,-247.464,-210.377,23102.7,4188.9)"><stop offset="0" style="stop-color:white;stop-opacity:1"/><stop offset="0.24" style="stop-color:rgb(255,113,31);stop-opacity:1"/><stop offset="0.48" style="stop-color:rgb(250,21,193);stop-opacity:1"/><stop offset="0.79" style="stop-color:rgb(27,0,205);stop-opacity:1"/><stop offset="1" style="stop-color:rgb(69,227,255);stop-opacity:1"/></linearGradient>
        <linearGradient id="_Linear2" x1="0" y1="0" x2="1" y2="0" gradientUnits="userSpaceOnUse" gradientTransform="matrix(-237.957,82.0437,-149.892,-77.5073,23081,4362.39)"><stop offset="0" style="stop-color:white;stop-opacity:1"/><stop offset="0.24" style="stop-color:rgb(255,113,31);stop-opacity:1"/><stop offset="0.48" style="stop-color:rgb(250,21,193);stop-opacity:1"/><stop offset="0.79" style="stop-color:rgb(27,0,205);stop-opacity:1"/><stop offset="1" style="stop-color:rgb(69,227,255);stop-opacity:1"/></linearGradient>
        <linearGradient id="_Linear3" x1="0" y1="0" x2="1" y2="0" gradientUnits="userSpaceOnUse" gradientTransform="matrix(-163.004,222.69,-247.464,-210.377,22971.9,4381.84)"><stop offset="0" style="stop-color:white;stop-opacity:1"/><stop offset="0.24" style="stop-color:rgb(255,113,31);stop-opacity:1"/><stop offset="0.48" style="stop-color:rgb(250,21,193);stop-opacity:1"/><stop offset="0.79" style="stop-color:rgb(27,0,205);stop-opacity:1"/><stop offset="1" style="stop-color:rgb(69,227,255);stop-opacity:1"/></linearGradient>
    </defs>
</svg>
