<?xml version="1.0" encoding="UTF-8" standalone="no"?><!DOCTYPE svg PUBLIC "-//W3C//DTD SVG 1.1//EN" "http://www.w3.org/Graphics/SVG/1.1/DTD/svg11.dtd"><svg width="100%" height="100%" viewBox="0 0 309 645" version="1.1" xmlns="http://www.w3.org/2000/svg" xmlns:xlink="http://www.w3.org/1999/xlink" xml:space="preserve" xmlns:serif="http://www.serif.com/" style="fill-rule:evenodd;clip-rule:evenodd;stroke-miterlimit:1.5;"><g><g><path d="M10.216,413.058c-2.709,-0 -5.308,1.076 -7.224,2.992c-1.916,1.916 -2.992,4.515 -2.992,7.224c-0,38.228 -0,172.59 -0,210.818c-0,2.709 1.076,5.308 2.992,7.224c1.916,1.916 4.515,2.992 7.224,2.992c46.87,-0 241.031,-0 287.901,-0c2.709,-0 5.308,-1.076 7.224,-2.992c1.916,-1.916 2.992,-4.515 2.992,-7.224c0,-38.228 0,-172.59 0,-210.818c0,-2.709 -1.076,-5.308 -2.992,-7.224c-1.916,-1.916 -4.515,-2.992 -7.224,-2.992c-46.87,-0 -241.031,-0 -287.901,-0Zm4.367,216.667l279.167,-0l0,-202.084l-279.167,0l0,202.084Z" style="fill:#fff;"/><path d="M162.743,470.87c-4.737,0 -8.576,3.84 -8.576,8.577c-0,21.416 -0,77.055 -0,98.472c-0,4.737 3.839,8.576 8.576,8.576c32.41,0 145.59,0 145.59,0l0,-115.625c0,0 -113.18,0 -145.59,0Zm6.007,14.584l125,-0c0,-0 0,86.458 0,86.458l-125,0l0,-86.458Z" style="fill:#fff;"/><path d="M205.556,515.836l-0,25.694" style="fill:none;stroke:#fff;stroke-width:14.58px;"/></g><path d="M207.366,0.777c32.92,-5.305 63.954,17.114 69.26,50.034c5.306,32.92 -17.113,63.954 -50.033,69.26c-32.92,5.306 -63.955,-17.113 -69.261,-50.033c-5.306,-32.92 17.114,-63.955 50.034,-69.261Zm4.761,71.366c-0.139,-0.866 -0.915,-1.338 -1.731,-1.055l-9.811,3.408c-0.816,0.283 -1.365,1.216 -1.225,2.082l3.074,19.073c0.14,0.865 0.915,1.338 1.731,1.055l9.811,-3.408c0.816,-0.284 1.365,-1.216 1.225,-2.082l-3.074,-19.073Zm-4.521,-38.519c-0.528,-0.796 -1.666,-1.196 -2.54,-0.892l-10.512,3.651c-0.874,0.304 -1.155,1.196 -0.627,1.992l32.424,48.847c0.529,0.796 1.667,1.196 2.541,0.892l10.512,-3.651c0.874,-0.304 1.155,-1.196 0.627,-1.992l-32.425,-48.847Zm23.918,-8.426c-0.139,-0.866 -0.915,-1.338 -1.73,-1.055l-9.812,3.408c-0.815,0.283 -1.364,1.216 -1.225,2.082l3.074,19.073c0.14,0.865 0.915,1.338 1.731,1.055l9.811,-3.408c0.816,-0.284 1.365,-1.216 1.225,-2.082l-3.074,-19.073Z" style="fill:url(#_Linear1);"/><path d="M136.056,183.023c32.678,6.637 53.819,38.556 47.182,71.233c-6.637,32.678 -38.556,53.819 -71.233,47.182c-32.678,-6.637 -53.819,-38.556 -47.182,-71.233c6.637,-32.678 38.556,-53.82 71.233,-47.182Zm-20.697,68.464c0.175,-0.859 -0.384,-1.575 -1.247,-1.597l-10.383,-0.269c-0.863,-0.022 -1.706,0.657 -1.88,1.516l-3.846,18.933c-0.174,0.859 0.385,1.575 1.248,1.597l10.383,0.269c0.863,0.022 1.705,-0.657 1.88,-1.516l3.845,-18.933Zm9.346,-37.641c-0.214,-0.931 -1.138,-1.706 -2.063,-1.73l-11.125,-0.288c-0.925,-0.024 -1.502,0.713 -1.288,1.644l13.127,57.14c0.214,0.931 1.139,1.706 2.064,1.73l11.124,0.288c0.925,0.024 1.502,-0.712 1.288,-1.643l-13.127,-57.141Zm25.353,0.545c0.174,-0.859 -0.385,-1.575 -1.248,-1.597l-10.383,-0.269c-0.863,-0.022 -1.706,0.657 -1.88,1.516l-3.845,18.933c-0.175,0.859 0.384,1.575 1.247,1.597l10.383,0.269c0.863,0.022 1.706,-0.657 1.88,-1.517l3.846,-18.932Z" style="fill:url(#_Linear2);"/><path d="M166.066,413.117c-0.032,-29.148 21.117,-54.861 50.807,-59.647c32.92,-5.306 63.955,17.114 69.261,50.034c0.52,3.229 0.774,6.44 0.773,9.613l-52.003,0l-17.79,-26.8c-0.528,-0.796 -1.667,-1.196 -2.54,-0.892l-10.513,3.651c-0.874,0.304 -1.154,1.196 -0.626,1.992l14.636,22.049l-52.005,0Zm74.966,-35.226c-0.14,-0.866 -0.915,-1.338 -1.731,-1.055l-9.811,3.408c-0.816,0.283 -1.365,1.216 -1.225,2.081l3.074,19.073c0.139,0.866 0.915,1.339 1.731,1.055l9.811,-3.407c0.816,-0.284 1.365,-1.217 1.225,-2.082l-3.074,-19.073Z" style="fill:url(#_Linear3);"/></g><defs><linearGradient id="_Linear1" x1="0" y1="0" x2="1" y2="0" gradientUnits="userSpaceOnUse" gradientTransform="matrix(-65.0308,101.771,-101.771,-65.0308,250.759,10.3471)"><stop offset="0" style="stop-color:#ffc73b;stop-opacity:1"/><stop offset="1" style="stop-color:#ff9a3b;stop-opacity:1"/></linearGradient><linearGradient id="_Linear2" x1="0" y1="0" x2="1" y2="0" gradientUnits="userSpaceOnUse" gradientTransform="matrix(-96.7269,72.3208,-72.3208,-96.7269,173.292,207.272)"><stop offset="0" style="stop-color:#ffc73b;stop-opacity:1"/><stop offset="1" style="stop-color:#ff9a3b;stop-opacity:1"/></linearGradient><linearGradient id="_Linear3" x1="0" y1="0" x2="1" y2="0" gradientUnits="userSpaceOnUse" gradientTransform="matrix(-80.3961,90.1269,-90.1269,-80.3961,264.234,212.193)"><stop offset="0" style="stop-color:#ffc73b;stop-opacity:1"/><stop offset="1" style="stop-color:#ff9a3b;stop-opacity:1"/></linearGradient></defs></svg>