<?xml version="1.0" encoding="UTF-8" standalone="no"?><!DOCTYPE svg PUBLIC "-//W3C//DTD SVG 1.1//EN" "http://www.w3.org/Graphics/SVG/1.1/DTD/svg11.dtd"><svg width="100%" height="100%" viewBox="0 0 1920 699" version="1.1" xmlns="http://www.w3.org/2000/svg" xmlns:xlink="http://www.w3.org/1999/xlink" xml:space="preserve" ><rect x="0" y="0" width="1920" height="481.07" style="fill:url(#_Linear1);"/><path d="M871.212,516.974l-268.99,396.556l-37.358,-55.074l-93.819,138.312l-124.427,-183.435l-49.88,73.536l-117.394,-173.067l-22.745,33.531l-156.256,-230.359l683.258,1.557l187.611,-1.557Z" style="fill:url(#_Linear2);"/><path d="M1150.06,487.326l-115.684,-115.684l-53.674,53.674l-112.838,-112.838l-175.565,175.565l457.761,-0.717Z" style="fill:#ffe6b4;"/><path d="M1304.53,479.611l-80.557,-80.556l-37.375,37.376l-78.575,-78.575l-122.254,122.254l318.761,-0.499Z" style="fill:#ffe6b4;"/><path d="M1952.66,481.905l-80.557,-80.557l-37.375,37.376l-78.575,-78.575l-122.254,122.255l318.761,-0.499Z" style="fill:#ffe6b4;"/><rect x="0" y="481.069" width="1920" height="217.022" style="fill:url(#_Linear3);"/><clipPath id="_clip4"><rect x="0" y="481.069" width="1920" height="217.022"/></clipPath><g clip-path="url(#_clip4)"><path d="M1875.38,580.091l-300.656,389.096l-41.794,-54.041l-104.962,135.718l-139.204,-179.994l-55.805,72.156l-131.337,-169.82l-25.445,32.901l-175.075,-226.036l542.037,-1.885l432.241,1.905Z" style="fill:url(#_Linear5);"/></g><g><path d="M1792.47,516.559l0,-27.022l14.412,27.022l-14.412,0Z" style="fill:#fff;"/><path d="M1791.48,516.559l0,-18.015l-9.608,18.015l9.608,0Z" style="fill:#fff;"/></g><g><path d="M267.49,513.87l152.581,-152.581l70.793,70.793l148.827,-148.827l231.56,231.56l-603.761,-0.945Z" style="fill:#fd9;"/><path d="M379.973,522.696l-113.801,-113.88l-52.618,52.619l-110.62,-110.62l-172.113,172.113l449.152,-0.232Z" style="fill:#ffd071;"/><path d="M871.251,515.62l-289.384,356.207l-21.078,-48.311l-93.118,121.328l-123.495,-160.91l-49.508,64.506l-116.516,-151.815l-22.574,29.413l-155.578,-203.145l379.955,-0.191l-7.724,-7.751l499.02,0.669Z" style="fill:url(#_Linear6);"/><path d="M1875.41,580.07l-300.942,-300.943l-41.796,41.795l-104.963,-104.963l-139.206,139.207l-55.805,-55.806l-131.339,131.339l-25.446,-25.446l-174.817,174.817l974.314,-0Z" style="fill:#ffdb92;"/></g><g><path d="M199.701,549.951l-0,-27.023l14.412,27.023l-14.412,-0Z" style="fill:#fff;"/><path d="M198.716,549.951l-0,-18.015l-9.608,18.015l9.608,-0Z" style="fill:#fff;"/></g><g><path d="M464.805,602.882l0,-39.023l20.812,39.023l-20.812,-0Z" style="fill:#fff;"/><path d="M463.383,602.882l-0,-26.015l-13.875,26.015l13.875,-0Z" style="fill:#fff;"/></g><g><path d="M1836.35,487.025l0,-22l11.734,22l-11.734,0Z" style="fill:#fff;"/><path d="M1835.55,487.025l0,-14.666l-7.822,14.666l7.822,0Z" style="fill:#fff;"/></g><g><path d="M1882.78,503.048l-0,-27.023l14.412,27.023l-14.412,-0Z" style="fill:#fff;"/><path d="M1881.8,503.048l-0,-18.015l-9.608,18.015l9.608,-0Z" style="fill:#fff;"/></g><defs><linearGradient id="_Linear1" x1="0" y1="0" x2="1" y2="0" gradientUnits="userSpaceOnUse" gradientTransform="matrix(4.67037e-14,-477.036,858.099,3.28624e-14,1006.02,477.036)"><stop offset="0" style="stop-color:#facf73;stop-opacity:0.39"/><stop offset="0.52" style="stop-color:#fbda94;stop-opacity:0.3"/><stop offset="1" style="stop-color:#fff;stop-opacity:0"/></linearGradient><linearGradient id="_Linear2" x1="0" y1="0" x2="1" y2="0" gradientUnits="userSpaceOnUse" gradientTransform="matrix(8.1687e-15,190,-171.135,1.39444e-14,456.126,523.803)"><stop offset="0" style="stop-color:#c65900;stop-opacity:0.1"/><stop offset="1" style="stop-color:#ffc73b;stop-opacity:0"/></linearGradient><linearGradient id="_Linear3" x1="0" y1="0" x2="1" y2="0" gradientUnits="userSpaceOnUse" gradientTransform="matrix(1.39506e-14,194.67,-227.83,1.19201e-14,923.428,503.422)"><stop offset="0" style="stop-color:#ffd675;stop-opacity:1"/><stop offset="1" style="stop-color:#f8f8f8;stop-opacity:1"/></linearGradient><linearGradient id="_Linear5" x1="0" y1="0" x2="1" y2="0" gradientUnits="userSpaceOnUse" gradientTransform="matrix(1.21971e-14,182.469,-189.616,1.05225e-14,1408.6,596.647)"><stop offset="0" style="stop-color:#c65900;stop-opacity:0.05"/><stop offset="1" style="stop-color:#ffc73b;stop-opacity:0"/></linearGradient><linearGradient id="_Linear6" x1="0" y1="0" x2="1" y2="0" gradientUnits="userSpaceOnUse" gradientTransform="matrix(1.07908e-14,166.669,-169.855,9.81533e-15,452.864,529.957)"><stop offset="0" style="stop-color:#c65900;stop-opacity:0.05"/><stop offset="1" style="stop-color:#ffc73b;stop-opacity:0"/></linearGradient></defs></svg>
