<svg width="1062" height="294" viewBox="0 0 1062 294" fill="none" xmlns="http://www.w3.org/2000/svg">
<path d="M127.382 279.509L275.298 130.807L375.332 231.373M375.332 279.509L555.88 98L637.005 179.557L677.568 138.778L830.973 293M806.574 223.401L854.456 175.264L923.382 244.557M917.382 209.5L961.382 165.5L1060.88 265M153.382 223.401L105.245 175.264L1 279.509" stroke="url(#paint0_radial_30_9)" stroke-width="2"/>
<path d="M459.601 170C429.352 155.913 408.382 125.214 408.382 89.6114C408.382 40.6727 448.005 1 496.882 1C545.759 1 585.382 40.6727 585.382 89.6114C585.382 95.7053 584.768 101.656 583.598 107.403" stroke="#FFC700" stroke-width="2"/>
<defs>
<radialGradient id="paint0_radial_30_9" cx="0" cy="0" r="1" gradientUnits="userSpaceOnUse" gradientTransform="translate(530.941 195.5) rotate(17.2689) scale(513.716 2792.2)">
<stop stop-color="#FF9534"/>
<stop offset="1" stop-color="#FF7EF2" stop-opacity="0"/>
</radialGradient>
</defs>
</svg>
