<?xml version="1.0" encoding="UTF-8" standalone="no"?><!DOCTYPE svg PUBLIC "-//W3C//DTD SVG 1.1//EN" "http://www.w3.org/Graphics/SVG/1.1/DTD/svg11.dtd"><svg width="601px" height="601px" version="1.1" xmlns="http://www.w3.org/2000/svg" xmlns:xlink="http://www.w3.org/1999/xlink" xml:space="preserve" xmlns:serif="http://www.serif.com/" style="fill-rule:evenodd;clip-rule:evenodd;stroke-linecap:square;stroke-miterlimit:1.5;"><g transform="matrix(1,0,0,1,-2731,-2396)"><g id="blockflow-back" transform="matrix(0.891896,0,0,0.891896,1971.78,908.607)"><rect x="851.667" y="1668" width="672.724" height="672.724" style="fill:none;"/><g transform="matrix(1.80836,0,0,9.49275,111.689,-2871.44)"><g transform="matrix(0.590076,0,0,0.112409,-42592.5,-1285.43)"><g transform="matrix(1.05073,-0,-0,1.05073,72874.5,15689.1)"><path d="M448.903,328.197L434.709,349.119L426.487,325.211L448.903,328.197Z" style="fill:url(#_Linear1);"/><path d="M437.097,331.187C437.902,325.144 438.306,319.055 438.306,312.959C438.306,249.582 395.152,194.346 333.657,179.014C395.152,194.346 438.306,249.582 438.306,312.959C438.306,319.055 437.902,325.144 437.097,331.187Z" style="fill:none;stroke:url(#_Linear2);stroke-width:7.54px;"/></g></g><g transform="matrix(0.590076,0,0,0.112409,-42592.5,-1285.43)"><g transform="matrix(1.05073,-0,-0,1.05073,72874.5,15689.1)"><path d="M236.484,177.833L261.731,179.171L245.512,198.566L236.484,177.833Z" style="fill:url(#_Linear3);"/><path d="M245.145,186.394C194.783,208.325 162.216,258.028 162.216,312.959C162.216,324.943 163.776,336.875 166.858,348.456C163.776,336.875 162.216,324.943 162.216,312.959C162.216,258.028 194.783,208.325 245.145,186.394Z" style="fill:none;stroke:url(#_Linear4);stroke-width:7.54px;"/></g></g><g transform="matrix(0.590076,0,0,0.112409,-42592.5,-1285.43)"><g transform="matrix(1.05073,-0,-0,1.05073,72874.5,15689.1)"><path d="M227.051,443.215L213.517,421.859L238.722,423.846L227.051,443.215Z" style="fill:url(#_Linear5);"/><path d="M229.013,431.197C250.519,444.156 275.152,451.004 300.261,451.004C334.694,451.004 367.884,438.136 393.317,414.925C367.884,438.136 334.694,451.004 300.261,451.004C275.152,451.004 250.519,444.156 229.013,431.197Z" style="fill:none;stroke:url(#_Linear6);stroke-width:7.54px;"/></g></g><g transform="matrix(-0.475816,0,0,0.0906427,35420,-936.732)"><g transform="matrix(-1.30305,0,0,1.30305,73581.2,15609.6)"><path d="M198.477,323.198L191.847,342.477L180.402,325.605L198.477,323.198Z" style="fill:url(#_Linear7);"/><path d="M189.921,328.017C189.272,323.144 188.946,318.234 188.946,313.318C188.946,264.631 220.587,221.593 267.058,207.071C220.587,221.593 188.946,264.631 188.946,313.318C188.946,318.234 189.272,323.144 189.921,328.017Z" style="fill:none;stroke:url(#_Linear8);stroke-width:6.08px;"/></g></g><g transform="matrix(-0.475816,0,0,0.0906427,35420,-936.732)"><g transform="matrix(-1.30305,0,0,1.30305,73581.2,15609.6)"><path d="M352.4,225.346L340.758,208.61L361.132,209.338L352.4,225.346Z" style="fill:url(#_Linear9);"/><path d="M353.564,215.596C389.325,235.102 411.576,272.583 411.576,313.318C411.576,326.104 409.373,338.794 405.064,350.832C409.373,338.794 411.576,326.104 411.576,313.318C411.576,272.583 389.325,235.102 353.564,215.596Z" style="fill:none;stroke:url(#_Linear10);stroke-width:6.08px;"/></g></g><g transform="matrix(-0.475816,0,0,0.0906427,35420,-936.732)"><g transform="matrix(-1.30305,0,0,1.30305,73581.2,15609.6)"><path d="M349.883,402.734L370.208,401.132L359.295,418.352L349.883,402.734Z" style="fill:url(#_Linear11);"/><path d="M357.713,408.661C340.371,419.111 320.508,424.633 300.261,424.633C270.738,424.633 242.425,412.905 221.549,392.03C242.425,412.905 270.738,424.633 300.261,424.633C320.508,424.633 340.371,419.111 357.713,408.661Z" style="fill:none;stroke:url(#_Linear12);stroke-width:6.08px;"/></g></g><g transform="matrix(0.149622,0,0,0.028503,-10355.7,44.5404)"><g transform="matrix(4.14385,-0,-0,4.14385,71945.7,15213.4)"><path d="M303.908,220.034L285.673,229.151L303.908,238.269L303.908,220.034Z" style="fill:white;"/><path d="M300.261,229.151C319.593,229.151 335.264,213.48 335.264,194.148C335.264,174.829 319.58,159.144 300.261,159.144C280.942,159.144 265.258,174.829 265.258,194.148C265.258,205.218 270.494,215.635 279.378,222.239C270.494,215.635 265.258,205.218 265.258,194.148C265.258,174.829 280.942,159.144 300.261,159.144C319.58,159.144 335.264,174.829 335.264,194.148C335.264,213.48 319.593,229.151 300.261,229.151Z" style="fill:none;stroke:white;stroke-width:6.08px;"/></g></g><g transform="matrix(-0.0387251,0.0275317,-0.144524,-0.00737711,5813.4,-1373.17)"><g transform="matrix(-1.07251,-4.00265,4.00265,-1.07251,72087.9,18078.9)"><path d="M385.628,382.421L381.541,362.448L368.014,377.702L385.628,382.421Z" style="fill:white;"/><path d="M377.765,376.539C372.761,395.212 383.843,414.406 402.516,419.409C421.177,424.409 440.386,413.319 445.386,394.658C450.386,375.997 439.296,356.788 420.635,351.788C409.942,348.923 398.525,351.284 389.846,358.156C398.525,351.284 409.942,348.923 420.635,351.788C439.296,356.788 450.386,375.997 445.386,394.658C440.386,413.319 421.177,424.409 402.516,419.409C383.843,414.406 372.761,395.212 377.765,376.539Z" style="fill:none;stroke:white;stroke-width:6.08px;"/></g></g><g transform="matrix(-0.129577,-0.0142515,0.0748111,-0.0246843,8811.5,1962.17)"><g transform="matrix(-3.58868,2.07192,-2.07192,-3.58868,74666.9,17010.2)"><path d="M198.731,361.357L219.081,362.579L207.848,345.565L198.731,361.357Z" style="fill:white;"/><path d="M206.448,355.285C189.706,345.619 168.298,351.355 158.632,368.097C148.973,384.827 154.714,406.253 171.444,415.912C188.175,425.572 209.601,419.831 219.26,403.1C224.795,393.513 225.469,381.873 221.077,371.712C225.469,381.873 224.795,393.513 219.26,403.1C209.601,419.831 188.175,425.572 171.444,415.912C154.714,406.253 148.973,384.827 158.632,368.097C168.298,351.355 189.706,345.619 206.448,355.285Z" style="fill:none;stroke:white;stroke-width:6.08px;"/></g></g><g transform="matrix(0.590076,0,0,0.112409,-42771,-1300.01)"><path d="M73499.4,16033.1L73506.6,16033.1L73496.5,16005L73488.6,16005L73478.4,16033.1L73485.6,16033.1L73487.2,16028.1L73497.7,16028.1L73499.4,16033.1ZM73496,16022.9L73489,16022.9L73492.5,16012.6L73496,16022.9Z" style="fill:white;fill-rule:nonzero;stroke:white;stroke-width:1px;stroke-linecap:butt;stroke-linejoin:round;stroke-miterlimit:2;"/></g><g transform="matrix(0.590076,0,0,0.112409,-42840.1,-1276.89)"><path d="M73478.6,16019C73478.6,16027.4 73484.4,16033.3 73492.7,16033.3C73499.4,16033.3 73504.4,16029.6 73506,16023.5L73498.5,16023.5C73497.3,16025.9 73495.2,16027.1 73492.6,16027.1C73488.4,16027.1 73485.5,16024 73485.5,16019C73485.5,16014.1 73488.4,16010.9 73492.6,16010.9C73495.2,16010.9 73497.3,16012.1 73498.5,16014.5L73506,16014.5C73504.4,16008.5 73499.4,16004.7 73492.7,16004.7C73484.4,16004.7 73478.6,16010.6 73478.6,16019Z" style="fill:white;fill-rule:nonzero;stroke:white;stroke-width:1px;stroke-linecap:butt;stroke-linejoin:round;stroke-miterlimit:2;"/></g><g transform="matrix(0.590076,0,0,0.112409,-42702.5,-1276.89)"><path d="M73497.3,16024.5C73497.3,16026.5 73496,16027.6 73493.7,16027.6L73488.6,16027.6L73488.6,16021.4L73493.6,16021.4C73495.9,16021.4 73497.3,16022.5 73497.3,16024.5ZM73496.6,16013.5C73496.6,16015.4 73495.4,16016.4 73493.1,16016.4L73488.6,16016.4L73488.6,16010.5L73493.1,16010.5C73495.4,16010.5 73496.6,16011.5 73496.6,16013.5ZM73504.2,16025.5C73504.2,16022.3 73502.1,16019.4 73498.8,16018.7C73501.5,16017.9 73503.6,16015.7 73503.6,16012.3C73503.6,16007.9 73500.2,16005 73494.4,16005L73481.8,16005L73481.8,16033.1L73494.9,16033.1C73500.8,16033.1 73504.2,16030.1 73504.2,16025.5Z" style="fill:white;fill-rule:nonzero;stroke:white;stroke-width:1px;stroke-linecap:butt;stroke-linejoin:round;stroke-miterlimit:2;"/></g></g></g></g><defs><linearGradient id="_Linear1" x1="0" y1="0" x2="1" y2="0" gradientUnits="userSpaceOnUse" gradientTransform="matrix(94.8523,147.616,147.616,-94.8523,343.454,186.394)"><stop offset="0" style="stop-color:rgb(77,77,77);stop-opacity:1"/><stop offset="1" style="stop-color:white;stop-opacity:1"/></linearGradient><linearGradient id="_Linear2" x1="0" y1="0" x2="1" y2="0" gradientUnits="userSpaceOnUse" gradientTransform="matrix(94.8523,147.616,147.616,-94.8523,343.454,186.394)"><stop offset="0" style="stop-color:rgb(77,77,77);stop-opacity:1"/><stop offset="1" style="stop-color:white;stop-opacity:1"/></linearGradient><linearGradient id="_Linear3" x1="0" y1="0" x2="1" y2="0" gradientUnits="userSpaceOnUse" gradientTransform="matrix(78.706,-155.957,-155.957,-78.706,166.439,342.351)"><stop offset="0" style="stop-color:rgb(77,77,77);stop-opacity:1"/><stop offset="1" style="stop-color:white;stop-opacity:1"/></linearGradient><linearGradient id="_Linear4" x1="0" y1="0" x2="1" y2="0" gradientUnits="userSpaceOnUse" gradientTransform="matrix(78.706,-155.957,-155.957,-78.706,166.439,342.351)"><stop offset="0" style="stop-color:rgb(77,77,77);stop-opacity:1"/><stop offset="1" style="stop-color:white;stop-opacity:1"/></linearGradient><linearGradient id="_Linear5" x1="0" y1="0" x2="1" y2="0" gradientUnits="userSpaceOnUse" gradientTransform="matrix(-144.127,22.0443,22.0443,144.127,381.455,422.111)"><stop offset="0" style="stop-color:rgb(77,77,77);stop-opacity:1"/><stop offset="1" style="stop-color:white;stop-opacity:1"/></linearGradient><linearGradient id="_Linear6" x1="0" y1="0" x2="1" y2="0" gradientUnits="userSpaceOnUse" gradientTransform="matrix(-144.127,22.0443,22.0443,144.127,381.455,422.111)"><stop offset="0" style="stop-color:rgb(77,77,77);stop-opacity:1"/><stop offset="1" style="stop-color:white;stop-opacity:1"/></linearGradient><linearGradient id="_Linear7" x1="0" y1="0" x2="1" y2="0" gradientUnits="userSpaceOnUse" gradientTransform="matrix(-53.2961,108.574,-108.574,-53.2961,250.829,214.022)"><stop offset="0" style="stop-color:rgb(77,77,77);stop-opacity:1"/><stop offset="1" style="stop-color:white;stop-opacity:1"/></linearGradient><linearGradient id="_Linear8" x1="0" y1="0" x2="1" y2="0" gradientUnits="userSpaceOnUse" gradientTransform="matrix(-53.2961,108.574,-108.574,-53.2961,250.829,214.022)"><stop offset="0" style="stop-color:rgb(77,77,77);stop-opacity:1"/><stop offset="1" style="stop-color:white;stop-opacity:1"/></linearGradient><linearGradient id="_Linear9" x1="0" y1="0" x2="1" y2="0" gradientUnits="userSpaceOnUse" gradientTransform="matrix(-58.0111,-126.491,126.491,-58.0111,411.576,342.087)"><stop offset="0" style="stop-color:rgb(77,77,77);stop-opacity:1"/><stop offset="1" style="stop-color:white;stop-opacity:1"/></linearGradient><linearGradient id="_Linear10" x1="0" y1="0" x2="1" y2="0" gradientUnits="userSpaceOnUse" gradientTransform="matrix(-58.0111,-126.491,126.491,-58.0111,411.576,342.087)"><stop offset="0" style="stop-color:rgb(77,77,77);stop-opacity:1"/><stop offset="1" style="stop-color:white;stop-opacity:1"/></linearGradient><linearGradient id="_Linear11" x1="0" y1="0" x2="1" y2="0" gradientUnits="userSpaceOnUse" gradientTransform="matrix(116.219,17.7757,-17.7757,116.219,234.789,401.334)"><stop offset="0" style="stop-color:rgb(77,77,77);stop-opacity:1"/><stop offset="1" style="stop-color:white;stop-opacity:1"/></linearGradient><linearGradient id="_Linear12" x1="0" y1="0" x2="1" y2="0" gradientUnits="userSpaceOnUse" gradientTransform="matrix(116.219,17.7757,-17.7757,116.219,234.789,401.334)"><stop offset="0" style="stop-color:rgb(77,77,77);stop-opacity:1"/><stop offset="1" style="stop-color:white;stop-opacity:1"/></linearGradient></defs></svg>