<?xml version="1.0" encoding="utf-8"?>
<!-- Generator: Adobe Illustrator 25.0.1, SVG Export Plug-In . SVG Version: 6.00 Build 0)  -->
<svg version="1.1" id="图层_1" xmlns="http://www.w3.org/2000/svg" xmlns:xlink="http://www.w3.org/1999/xlink" x="0px" y="0px"
	 viewBox="0 0 1000 1000" style="enable-background:new 0 0 1000 1000;" xml:space="preserve">
<style type="text/css">
	.st0{fill:#fff;}
</style>
<path class="st0" d="M434.4,348.1l-4.9-4.9c-3.7-3.7-10-1.1-10,4.1v69.7c0,3.2,2.6,5.8,5.9,5.8h69.7c5.2,0,7.8-6.3,4.1-10
	c-2.3-2.3-2.3-6,0-8.2l74.2-74.4c2.3-2.3,2.3-6,0-8.2l-6.8-6.7c-3.7-3.7-1.1-10,4.1-10h69.7c3.2,0,5.9,2.6,5.9,5.8v69.7
	c0,5.2-6.3,7.8-10,4.1l-4.7-4.7c-2.3-2.3-6-2.3-8.2,0l-125.1,125c-2.3,2.3-6,2.3-8.3,0l-153-153c-2.3-2.3-2.3-6,0-8.3L549,132.3
	c2.3-2.3,2.3-6,0-8.3l-49.8-49.8c-2.3-2.3-6-2.3-8.3,0L216.7,348.4c-2.3,2.3-2.3,6,0,8.3l274.2,274.2c2.3,2.3,6,2.3,8.3,0
	l274.2-274.2c2.3-2.3,2.3-6,0-8.3L612,187.1c-2.3-2.3-6-2.3-8.3,0l-161,161C440.4,350.4,436.7,350.4,434.4,348.1L434.4,348.1z"/>
<g>
	<path class="st0" d="M646.7,815.6c-4.2,0-7.8,1.5-10.9,4.5c-3,3-4.5,6.6-4.5,10.7c0,6.3,3.2,11.2,9.6,14.7c7,1.9,12.6,0.7,16.8-3.7
		c3.1-3,4.5-6.7,4.5-11c0-4.3-1.5-7.9-4.5-10.9C654.7,817.2,651,815.7,646.7,815.6L646.7,815.6L646.7,815.6L646.7,815.6z
		 M399.2,698.5h-11.5c-5,0-9,4-9,9v6.4c-12.2-12.7-26-19.1-41.5-19.1c-17.8,0-32.7,6.6-44.6,19.9c-11.9,13.2-17.8,29.8-17.8,49.7
		c0,20.2,5.9,37.1,17.8,50.6c12,13.2,27.1,19.9,45.5,19.9c14.5,0,28.1-5.9,40.7-17.7v12.7c0,6.2,5,11.2,11.1,11.2h19.6V708.8
		C409.5,703.1,404.9,698.5,399.2,698.5L399.2,698.5z M370.2,795.8c-7,7.8-16.1,11.7-27.5,11.7c-10.6,0-19.4-4-26.4-12.1
		c-6.8-8-10.2-18.3-10.2-31c0-11.9,3.5-21.9,10.5-29.9c7.1-8,15.9-12,26.4-12c11.2,0,20.2,3.9,27.2,11.9c7,8.1,10.5,18.3,10.5,30.7
		C380.7,777.5,377.2,787.8,370.2,795.8L370.2,795.8L370.2,795.8L370.2,795.8z M274.8,720.9v-13.1c0-5.1-4.1-9.3-9.3-9.3h-12.1
		c-5.1,0-9.2,4.1-9.2,9.2v5.7c-11.1-12.4-24.9-18.7-41.6-18.7c-19,0-34.4,7.2-46,21.5c-10.8,13.5-16.2,29.9-16.2,49.3
		c0,19.9,5.8,36.4,17.4,49.7c11.5,13.1,26.3,19.6,44.4,19.6c15.9,0,29.9-6.2,42-18.6v18.5c0,27.5-11.2,41.2-33.6,41.2
		c-12.2,0-21.4-4.1-27.7-12.4c-1.6-2.1-3-4.7-4-7.8c-1.5-4.4-5.7-7.3-10.3-7.3h-11.6c-5.9,0-10.2,5.6-8.7,11.2
		c3.2,12.1,9.3,21.9,18.4,29.5c11.4,9.5,26,14.3,43.7,14.3c21,0,37.4-6.9,49.4-20.7c6.3-7.2,10.6-15.7,12.8-25.7
		c0.7-3.6,1.3-7.8,1.7-12.6c0.4-4.7,0.6-10.3,0.6-16.5v-19.3c-8.6-12.3-12.9-27.1-12.9-44.3C261.9,747.5,266.2,733,274.8,720.9
		L274.8,720.9L274.8,720.9z M236,794.8c-6.8,8.5-16,12.7-27.8,12.7c-11.7,0-20.9-4.2-27.5-12.7c-6.1-7.7-9.1-17.6-9.1-29.6
		c0-12.3,3-22.2,9.1-29.9c6.7-8.6,15.9-12.9,27.5-12.9c10.9,0,19.8,3.9,26.8,11.8c6.9,7.7,10.4,18,10.4,30.9
		C245.4,777.1,242.3,787,236,794.8L236,794.8L236,794.8z M529.3,698.6L529.3,698.6l-63.5-0.1v-38.9c0-5-4-9-9.1-9h-12.4
		c-5,0-9.1,4.1-9.1,9.2v38.8h-13.1v28.5h13.1V841h17.5c7.3,0,13.1-5.9,13.1-13.1V727.1h31.4c2.5-4.7,5.5-9.1,9.1-13.1
		C512.7,706.9,520.4,701.8,529.3,698.6L529.3,698.6L529.3,698.6z M685.5,650.6c-5.4,0-10.1,2-14,5.9c-3.9,3.9-5.9,8.5-5.9,13.9
		c0,5.6,2,10.4,5.9,14.3c3.9,3.9,8.6,5.8,14.2,5.8c5.5,0,10.2-1.9,14-5.9c3.9-3.9,5.9-8.6,5.9-14.2c0-5.5-2-10.2-5.9-14
		C695.8,652.5,691,650.6,685.5,650.6L685.5,650.6L685.5,650.6z M691.7,713.6h-11.1c-5.7,0-10.3,4.6-10.3,10.3v97.2
		c2.3,2.8,3.5,6,3.5,9.8s-1.1,7-3.5,9.8v5.5H690c6,0,10.9-4.9,10.9-10.9V722.7C700.9,717.6,696.8,713.5,691.7,713.6L691.7,713.6
		L691.7,713.6z M835.6,732.3c-13.8-13.5-30.6-20.3-50.4-20.3c-19.7,0-36.4,6.7-50.1,20.2c-13.7,13.4-20.5,29.7-20.5,48.8
		c0,20.3,6.7,37.2,20.1,50.6c13.4,13.6,30.1,20.4,49.9,20.4c20,0,37-6.7,50.8-20c13.7-13.5,20.5-30.1,20.5-49.9
		C856,762.4,849.2,745.8,835.6,732.3L835.6,732.3z M814,813.1c-7.1,7.7-16.7,11.5-28.7,11.5c-11.9,0-21.4-3.9-28.7-11.7
		c-7.1-7.7-10.6-18.2-10.6-31.4c0-12.3,3.7-22.4,10.9-30.2c7.3-7.8,16.7-11.7,28.5-11.7c11.9,0,21.4,3.9,28.7,11.7
		c7.2,7.7,10.8,18,10.8,30.9C824.7,795.1,821.1,805.4,814,813.1L814,813.1L814,813.1L814,813.1z"/>
	<path class="st0" d="M540.7,807.8c-6.3-6.4-9.8-15.1-10.6-26h87.8c4,0,7.3-3.2,7.4-7.2c0-21.9-5.6-39-16.9-51.3
		c-11.4-12.4-26.8-18.6-46.3-18.6c-19.3,0-34.8,6.4-46.5,19.2c-11.6,13-17.4,29.9-17.4,50.9c0,21.1,6,38.1,17.9,50.9
		c8.4,8.9,18.6,14.6,30.8,17.3c5.1,1.2,10.4,1.8,15.7,1.8c21.8,0.4,40.8,0.9,62.6,1.3l0-3.2c-2.7-2.9-4-6.4-4-10.5
		c0-4,1.4-7.4,4.1-10.3l0-3.9c-17.2-0.4-58.9-0.8-60.5-0.8C555,817.3,546.9,814.2,540.7,807.8L540.7,807.8L540.7,807.8z
		 M536.4,746.6c1.9-3,4.2-5.5,6.9-7.7c2.7-2.2,5.6-3.8,8.9-4.9c3.3-1.1,6.8-1.7,10.5-1.7c16.3,0,26.6,8.1,30.9,24.5h-61.6
		C533.1,753,534.5,749.6,536.4,746.6L536.4,746.6L536.4,746.6z"/>
</g>
</svg>
